<?xml version="1.0" standalone="no"?>
<!DOCTYPE svg PUBLIC "-//W3C//DTD SVG 1.1//EN" "http://www.w3.org/Graphics/SVG/1.1/DTD/svg11.dtd" >
<svg xmlns="http://www.w3.org/2000/svg">
<metadata></metadata>
<defs>
<font id="chivolight_italic" horiz-adv-x="1259" >
<font-face units-per-em="2048" ascent="1638" descent="-410" />
<missing-glyph horiz-adv-x="499" />
<glyph unicode="&#xfb01;" horiz-adv-x="1155" d="M-164 -346l12 92q73 -33 123 -33q53 0 88.5 27.5t46.5 109.5l156 1102h-115l13 95h114l31 217q17 114 82 170.5t160 56.5q79 0 133 -35l-12 -92q-73 33 -123 33q-53 0 -88.5 -27.5t-46.5 -109.5l-31 -213h244l-13 -95h-243l-156 -1106q-33 -227 -242 -227q-79 0 -133 35z M723 0l147 1047h105l-148 -1047h-104zM907 1364l15 111h120l-14 -111h-121z" />
<glyph unicode="&#xfb02;" horiz-adv-x="1150" d="M-164 -346l12 92q73 -33 123 -33q53 0 88.5 27.5t46.5 109.5l156 1102h-115l13 95h114l31 217q17 114 82 170.5t160 56.5q79 0 133 -35l-12 -92q-73 33 -123 33q-53 0 -88.5 -27.5t-46.5 -109.5l-31 -213h244l-13 -95h-243l-156 -1106q-33 -227 -242 -227q-79 0 -133 35z M731 0l207 1475h104l-206 -1475h-105z" />
<glyph horiz-adv-x="0" />
<glyph horiz-adv-x="682" />
<glyph unicode=" "  horiz-adv-x="499" />
<glyph unicode="&#x09;" horiz-adv-x="499" />
<glyph unicode="&#xa0;" horiz-adv-x="499" />
<glyph unicode="!" horiz-adv-x="550" d="M88 0l21 141h133l-21 -141h-133zM154 289l135 1116h131q-116 -711 -182 -1116h-84z" />
<glyph unicode="&#x22;" horiz-adv-x="743" d="M201 848l14 256l43 301h107l-43 -301l-60 -256h-61zM473 848l14 256l43 301h107l-43 -301l-59 -256h-62z" />
<glyph unicode="#" horiz-adv-x="1318" d="M29 385l16 119h264l131 356h-266l16 119h293l162 446h121l-164 -446h340l162 446h121l-164 -446h231l-16 -119h-258l-131 -356h258l-17 -119h-284l-139 -385h-119l139 385h-340l-139 -385h-119l139 385h-237zM428 504h340l131 356h-340z" />
<glyph unicode="$" horiz-adv-x="1118" d="M68 350q0 69 10 96h104q-12 -36 -12 -94q0 -211 360 -211q437 0 437 303q0 54 -26.5 94t-71.5 65.5t-103 44.5t-122 34t-128 31t-122 40t-103 55.5t-71.5 81.5t-26.5 116q0 74 26 134.5t70 102.5t105.5 71.5t131 44.5t146.5 17v185h108l-47 -185q85 -2 154.5 -19.5 t123.5 -51t83.5 -88t29.5 -127.5q0 -21 -8 -78h-102q8 53 8 73q0 97 -92 146t-238 49q-80 0 -147 -13t-123 -41t-87.5 -79t-31.5 -121q0 -50 26.5 -87.5t71.5 -61t103 -41.5t122 -33t128 -31.5t122 -41t103 -57t71.5 -84t26.5 -118.5q0 -91 -30 -164.5t-80 -122t-119 -81.5 t-144.5 -48t-158.5 -16v-174h-107l43 174q-91 3 -163.5 21t-130 54t-88.5 96t-31 140z" />
<glyph unicode="%" horiz-adv-x="1433" d="M123 895q0 25 2 39l33 225q19 121 90.5 183.5t189.5 62.5q100 0 156.5 -58t56.5 -149q0 -27 -2 -39l-33 -225q-17 -119 -89.5 -182.5t-188.5 -63.5q-101 0 -158 58t-57 149zM154 0l1052 1405h121l-1051 -1405h-122zM225 901q0 -53 33.5 -86t91.5 -33q67 0 111.5 41 t52.5 103l33 241q2 8 2 27q0 53 -32 85t-93 32q-66 0 -111 -41t-53 -103l-33 -241q-2 -8 -2 -25zM825 205q0 25 2 39l33 225q17 116 90 181t189 65q101 0 158 -58t57 -149q0 -27 -2 -39l-33 -225q-17 -119 -90.5 -182.5t-190.5 -63.5q-101 0 -157 58t-56 149zM928 211 q0 -53 33 -86t92 -33q67 0 111.5 41t52.5 103l32 241q2 8 2 27q0 53 -32 85t-93 32q-66 0 -110.5 -41t-52.5 -103l-33 -241q-2 -8 -2 -25z" />
<glyph unicode="&#x26;" horiz-adv-x="1353" d="M119 336q0 83 24.5 150t68.5 112.5t97 75t119 47.5v8q-94 52 -142 115t-48 168q0 129 69.5 225t176.5 142t233 46q82 0 157 -16l-14 -102q-67 20 -155 20q-93 0 -172 -31.5t-132 -102t-53 -169.5q0 -125 86.5 -190.5t220.5 -65.5h269l84 334h67l-47 -334h244l-12 -94 h-244l-94 -674h-383q-119 0 -213.5 39t-150.5 116t-56 181zM225 346q0 -119 90 -185.5t236 -66.5h278l82 580h-278q-80 0 -150.5 -18.5t-129.5 -56t-93.5 -102.5t-34.5 -151z" />
<glyph unicode="'" horiz-adv-x="428" d="M201 848l14 256l43 301h107l-43 -301l-60 -256h-61z" />
<glyph unicode="(" horiz-adv-x="591" d="M111 362q0 575 458 1043h60q-185 -233 -299.5 -503.5t-114.5 -547.5q0 -350 170 -676h-59q-215 294 -215 684z" />
<glyph unicode=")" horiz-adv-x="591" d="M-68 -322q182 232 297 502t115 543q0 356 -170 682h59q106 -145 162 -321t56 -365q0 -569 -459 -1041h-60z" />
<glyph unicode="*" horiz-adv-x="960" d="M121 1073l57 119l309 -143l25 356h127l-86 -361l354 140l19 -121l-363 -80l193 -272l-111 -74l-145 309l-226 -301l-92 72l275 270z" />
<glyph unicode="+" d="M84 463l18 119h465l64 465h119l-64 -465h465l-18 -119h-465l-64 -463h-119l64 463h-465z" />
<glyph unicode="," horiz-adv-x="485" d="M49 -207l76 207h-49l18 141h133l-16 -118l-92 -230h-70z" />
<glyph unicode="-" horiz-adv-x="798" d="M123 485l16 127h518l-18 -127h-516z" />
<glyph unicode="." horiz-adv-x="487" d="M59 0l19 141h133l-18 -141h-134z" />
<glyph unicode="/" horiz-adv-x="1001" d="M-92 -350l1249 1755h121l-1247 -1755h-123z" />
<glyph unicode="0" d="M152 354q0 38 6 78l75 541q29 207 168 329.5t349 122.5q178 0 286.5 -102t108.5 -274q0 -35 -6 -76l-76 -541q-30 -208 -166.5 -330t-349.5 -122q-178 0 -286.5 101.5t-108.5 272.5zM262 369q0 -128 83 -209.5t216 -81.5q147 0 257 97t132 245l80 565q4 36 4 51 q0 128 -83 209.5t-216 81.5q-149 0 -259 -97t-130 -245l-80 -565q-4 -36 -4 -51z" />
<glyph unicode="1" d="M119 0l12 98h399l166 1170h-399l8 69q5 1 50.5 6t61 7.5t59 8.5t71.5 11.5t70 13.5t82 18.5t81 22.5h47l-186 -1327h399l-12 -98h-909z" />
<glyph unicode="2" d="M63 0l7 47q12 87 46 151.5t83.5 109.5t130.5 93l452 269q101 60 167.5 154t66.5 225q0 126 -76.5 202t-214.5 76q-166 0 -274 -113t-129 -284h-111q22 220 169.5 357.5t356.5 137.5q182 0 286.5 -103t104.5 -265q0 -91 -27 -169.5t-75.5 -137t-97 -98.5t-109.5 -77 l-473 -280q-127 -76 -149 -197h809l-13 -98h-930z" />
<glyph unicode="3" d="M117 313q0 40 4 60l4 35h108l-4 -37q-4 -32 -4 -47q0 -117 87 -183.5t235 -66.5q112 0 204 39.5t148.5 119t56.5 185.5q0 123 -91 187.5t-234 64.5h-158l14 98h148q75 0 142.5 20.5t122 59t86.5 102t32 142.5q0 116 -81.5 175.5t-213.5 59.5q-145 0 -249 -74.5 t-122 -205.5l-4 -29h-108l4 29q17 118 88.5 205t176.5 130t228 43q173 0 283 -84t110 -235q0 -65 -15 -118.5t-39 -91t-62.5 -70.5t-75.5 -54t-88 -45v-8q99 -31 157 -102t58 -183q0 -208 -150.5 -331t-379.5 -123q-188 0 -303 90.5t-115 242.5z" />
<glyph unicode="4" d="M68 383l14 98q81 85 288.5 397.5t325.5 546.5h115q-119 -257 -309.5 -547t-302.5 -397h592l73 527q56 85 99 166h38l-96 -693h168l-14 -98h-168l-53 -383h-115l53 383h-708z" />
<glyph unicode="5" d="M145 358q0 30 7 74h110q-4 -20 -4 -61q0 -128 83 -210.5t228 -82.5q107 0 195.5 59.5t137 155t48.5 203.5q0 133 -83.5 220t-211.5 87q-96 0 -188 -50t-148 -132l-96 14l164 770h743l-14 -111h-641l-110 -512q145 121 319 121q173 0 276 -104.5t103 -276.5 q0 -143 -60 -265.5t-177.5 -199.5t-268.5 -77q-193 0 -302.5 106t-109.5 272z" />
<glyph unicode="6" d="M168 354q0 38 6 78l76 541q29 204 170 328t338 124q175 0 277 -100t102 -270q0 -31 -7 -82h-106q6 47 6 67q0 128 -77.5 207.5t-209.5 79.5q-148 0 -253.5 -96.5t-127.5 -245.5l-40 -287q70 84 173.5 132.5t211.5 48.5q167 0 271.5 -104.5t104.5 -270.5 q0 -154 -70 -274.5t-188.5 -185t-261.5 -64.5q-178 0 -286.5 101.5t-108.5 272.5zM279 369q0 -128 83 -209.5t216 -81.5q165 0 280 119.5t115 296.5q0 127 -82 206.5t-215 79.5q-164 0 -280.5 -118t-116.5 -293z" />
<glyph unicode="7" d="M236 1294l16 111h965l-11 -62q-111 -109 -210 -222.5t-197 -252t-170 -275.5t-121 -291.5t-59 -301.5h-127q22 155 77 314t125 291t160.5 264t173.5 231t174 194h-796z" />
<glyph unicode="8" d="M133 307q0 163 84 267t221 147v8q-79 42 -120.5 100.5t-41.5 153.5q0 202 135 322t343 120q171 0 270.5 -83t99.5 -230q0 -64 -14 -118.5t-36.5 -93.5t-56.5 -72.5t-68.5 -56t-78.5 -42.5v-8q101 -43 154 -108.5t53 -172.5q0 -208 -140.5 -334t-385.5 -126 q-194 0 -306 84t-112 243zM246 322q0 -116 79 -180t240 -64q175 0 288.5 89.5t113.5 256.5q0 116 -84.5 182t-235.5 66q-182 0 -291.5 -96.5t-109.5 -253.5zM387 1004q0 -110 76 -172t196 -62q94 0 173 36.5t129.5 113.5t50.5 180q0 109 -73 168t-202 59q-146 0 -248 -86.5 t-102 -236.5z" />
<glyph unicode="9" d="M154 350q0 38 6 82h106q-6 -46 -6 -67q0 -127 79.5 -207t211.5 -80q147 0 255 96.5t130 245.5l41 289q-70 -85 -174 -134t-211 -49q-168 0 -273.5 104t-105.5 271q0 114 43 213.5t114.5 166.5t166.5 105.5t198 38.5q178 0 286.5 -102t108.5 -274q0 -43 -81 -617 q-29 -206 -167.5 -329t-344.5 -123q-175 0 -279 100t-104 270zM326 911q0 -127 82 -206.5t215 -79.5q164 0 280.5 121.5t116.5 289.5q0 128 -83 209.5t-216 81.5q-167 0 -281 -119.5t-114 -296.5z" />
<glyph unicode=":" horiz-adv-x="487" d="M57 0l19 141h133l-19 -141h-133zM184 905l19 142h133l-19 -142h-133z" />
<glyph unicode=";" horiz-adv-x="487" d="M49 -207l78 207h-49l18 141h133l-16 -118l-94 -230h-70zM205 905l20 142h133l-20 -142h-133z" />
<glyph unicode="&#x3c;" d="M63 430l27 180l1098 404l-17 -127l-997 -367l893 -366l-16 -127z" />
<glyph unicode="=" d="M61 246l17 119h1024l-17 -119h-1024zM121 672l16 119h1024l-16 -119h-1024z" />
<glyph unicode="&#x3e;" d="M43 27l16 127l1000 366l-895 367l16 127l987 -404l-26 -180z" />
<glyph unicode="?" horiz-adv-x="1028" d="M113 952q0 44 4 68q2 19 7.5 42.5t20.5 65t36.5 79.5t59 79.5t84 71.5t116 49.5t151.5 19.5q89 0 155 -24.5t101.5 -58.5t57 -82t27 -84t5.5 -74q0 -78 -20.5 -143t-54.5 -109.5t-75 -82.5t-83.5 -70.5t-79 -64t-62.5 -73t-33 -88.5l-18 -133h-111l23 160q7 52 33 96 t62 76.5t78 64.5t82.5 66t73.5 73t53.5 95t20.5 123q0 32 -5 61t-21 61.5t-42 56t-71.5 39t-105.5 15.5q-81 0 -145.5 -26.5t-101 -63t-62.5 -84.5t-35 -80t-13 -61l-2 -60h-110zM342 0l18 141h134l-19 -141h-133z" />
<glyph unicode="@" horiz-adv-x="1816" d="M123 332q0 188 39.5 353t120.5 301.5t198 234.5t278.5 152t354.5 54q153 0 276 -35.5t216 -108t143.5 -191.5t50.5 -277q0 -226 -54 -400.5t-153.5 -271t-228.5 -96.5q-90 0 -127 34.5t-37 102.5q0 16 4 52q-144 -191 -397 -191q-57 0 -104.5 10.5t-89.5 34.5t-65.5 68.5 t-23.5 107.5q0 71 20 126.5t53 94t88 66t111.5 43t139 24t154.5 11t172 2.5l16 125q4 40 4 59q0 89 -56 125.5t-182 36.5q-130 0 -214.5 -49t-98.5 -152l-4 -30h-98q0 149 120 234t308 85q166 0 247.5 -58t81.5 -178q0 -33 -43 -329.5t-43 -308.5q0 -58 72 -58 q71 0 129.5 47.5t94 120.5t59.5 165t33.5 174.5t9.5 156.5q0 532 -600 532q-189 0 -347 -61.5t-276 -181.5t-184 -310.5t-66 -435.5q0 -281 145 -420t443 -139q75 0 182.5 19.5t163.5 45.5l-14 -106q-65 -23 -170 -39t-176 -16q-326 0 -501 158.5t-175 486.5zM629 281 q0 -148 211 -148q67 0 130.5 21t119.5 61.5t96 108.5t53 155l10 68q-91 0 -152 -1.5t-132.5 -7.5t-116.5 -17t-91 -30.5t-71 -47.5t-41 -68.5t-16 -93.5z" />
<glyph unicode="A" horiz-adv-x="1331" d="M-74 0l779 1405h102l383 -1405h-121l-96 348h-742l-192 -348h-113zM287 449h659l-213 804h-8z" />
<glyph unicode="B" horiz-adv-x="1335" d="M104 0l199 1405h561q139 0 230.5 -86t91.5 -213q0 -85 -29.5 -154.5t-76.5 -112t-94 -68t-95 -36.5l-2 -12q24 -4 50 -12t61 -29t61 -50t44.5 -78.5t18.5 -111.5q0 -179 -132 -310.5t-314 -131.5h-574zM229 98h451q131 0 231.5 95.5t100.5 228.5q0 105 -72 175.5 t-180 70.5h-451zM324 766h430q126 0 220.5 91t94.5 220q0 100 -68 165t-172 65h-430z" />
<glyph unicode="C" horiz-adv-x="1355" d="M117 457q0 105 22 272q22 165 65.5 288.5t100 200t132.5 124t154.5 65.5t174.5 18q455 0 455 -409q0 -44 -11 -127h-108q8 52 8 106q0 332 -358 332q-76 0 -138 -14.5t-122 -53.5t-105 -102t-80.5 -165t-54.5 -238q-27 -186 -27 -289q0 -113 25.5 -190.5t75 -119.5 t110 -59.5t142.5 -17.5q412 0 473 436h108q-17 -121 -59 -215t-98 -153t-130 -97.5t-149 -53.5t-160 -15q-103 0 -179.5 21.5t-139 73.5t-95 147.5t-32.5 234.5z" />
<glyph unicode="D" horiz-adv-x="1386" d="M104 0l199 1405h451q81 0 148 -14t127 -48.5t100.5 -89t64 -138.5t23.5 -193q0 -83 -21 -244q-20 -154 -63 -272t-101 -194t-135.5 -124.5t-160 -68t-181.5 -19.5h-451zM229 98h340q76 0 140 15t126 54t109 101.5t84 161.5t55 229q25 181 25 244q0 113 -26 193 t-76.5 125.5t-115.5 65.5t-151 20h-340z" />
<glyph unicode="E" horiz-adv-x="1212" d="M104 0l199 1405h868l-26 -98h-746l-75 -541h653l-14 -98h-654l-80 -570h756v-98h-881z" />
<glyph unicode="F" horiz-adv-x="1130" d="M104 0l199 1405h832l-27 -98h-709l-75 -541h600l-15 -98h-600l-94 -668h-111z" />
<glyph unicode="G" horiz-adv-x="1382" d="M117 457q0 105 22 272q22 165 65.5 288.5t100 200t132.5 124t154.5 65.5t174.5 18q75 0 139 -11t124 -38.5t102 -71t67 -113t25 -159.5q0 -50 -9 -112h-108q6 49 6 92q0 315 -360 315q-76 0 -138 -14.5t-122 -53.5t-105 -102t-80.5 -165t-54.5 -238q-27 -186 -27 -289 q0 -113 27 -190.5t79 -119.5t116 -59.5t151 -17.5q61 0 116 11t113.5 41.5t103 77.5t79 125.5t47.5 180.5l14 107h-475l12 96h578l-66 -473q-9 -64 -14.5 -125t-6.5 -90l-1 -29h-76q-6 61 -6 188q-72 -107 -187.5 -157.5t-244.5 -50.5q-108 0 -188 21.5t-145.5 73.5 t-99.5 147.5t-34 234.5z" />
<glyph unicode="H" horiz-adv-x="1419" d="M104 0l199 1405h111l-90 -639h759l91 639h110l-199 -1405h-110l94 668h-760l-94 -668h-111z" />
<glyph unicode="I" horiz-adv-x="747" d="M25 0l14 100h162l170 1205h-162l14 100h434l-14 -100h-162l-170 -1205h162l-14 -100h-434z" />
<glyph unicode="J" horiz-adv-x="1075" d="M20 276q0 36 11 103h102q-8 -45 -8 -80q0 -112 68 -166.5t182 -54.5q82 0 148 27.5t114 90.5t61 156l148 1053h110l-149 -1065q-24 -175 -143 -267.5t-302 -92.5q-155 0 -248.5 76.5t-93.5 219.5z" />
<glyph unicode="K" horiz-adv-x="1271" d="M104 0l199 1405h111l-117 -834l860 834h131l-633 -612l451 -793h-139l-400 709l-291 -283l-61 -426h-111z" />
<glyph unicode="L" horiz-adv-x="1089" d="M104 0l199 1405h111l-185 -1307h701v-98h-826z" />
<glyph unicode="M" horiz-adv-x="1921" d="M104 0l199 1405h176l369 -1262h8l729 1262h174l-198 -1405h-111l180 1280h-10l-743 -1280h-105l-379 1280h-10l-180 -1280h-99z" />
<glyph unicode="N" horiz-adv-x="1421" d="M104 0l199 1405h94l613 -1194h8l168 1194h98l-199 -1405h-98l-608 1194h-8l-168 -1194h-99z" />
<glyph unicode="O" horiz-adv-x="1413" d="M117 467q0 99 22 262q22 164 67 288t104 200.5t137.5 124t158.5 65.5t176 18q82 0 148.5 -13t126.5 -46.5t100.5 -87.5t64 -140t23.5 -200q0 -82 -22 -262q-21 -165 -66 -289t-104 -200.5t-138 -124t-159 -65t-176 -17.5q-82 0 -148.5 13t-126.5 46.5t-100.5 87.5 t-64 140t-23.5 200zM225 475q0 -115 27.5 -195t80 -123t115.5 -61t146 -18q77 0 140.5 14.5t126.5 53.5t110 102t84 165t55 238q27 197 27 279q0 115 -28 195t-80.5 123t-115.5 61t-145 18q-77 0 -140 -14.5t-125.5 -53.5t-109 -102t-84 -165t-57.5 -238q-27 -181 -27 -279z " />
<glyph unicode="P" horiz-adv-x="1282" d="M104 0l199 1405h576q143 0 237 -94.5t94 -233.5q0 -117 -56.5 -217.5t-158 -160.5t-225.5 -60h-465l-90 -639h-111zM319 735h451q143 0 237.5 96t94.5 232q0 104 -72 174t-180 70h-451z" />
<glyph unicode="Q" horiz-adv-x="1413" d="M117 467q0 99 22 262q22 164 67 288t104 200.5t137.5 124t158.5 65.5t176 18q82 0 148.5 -13t126.5 -46.5t100.5 -87.5t64 -140t23.5 -200q0 -82 -22 -262q-20 -155 -61 -274t-94.5 -195t-125 -126t-144.5 -72t-161 -27q2 -31 12 -58.5t31 -52.5t61 -40t95 -15 q43 0 103 14.5t99 28.5t39 16l-14 -100q-12 -6 -34 -15.5t-85.5 -25t-120.5 -15.5q-288 0 -288 263q-95 4 -167.5 29t-131 79t-89 148.5t-30.5 228.5zM225 475q0 -115 27.5 -195t80 -123t115.5 -61t146 -18q77 0 140.5 14.5t126.5 53.5t110 102t84 165t55 238q27 197 27 279 q0 115 -28 195t-80.5 123t-115.5 61t-145 18q-77 0 -140 -14.5t-125.5 -53.5t-109 -102t-84 -165t-57.5 -238q-27 -181 -27 -279z" />
<glyph unicode="R" horiz-adv-x="1372" d="M104 0l197 1405h571q155 0 250 -86.5t95 -231.5q0 -126 -90 -233t-214 -129v-10l10 -2.5t24.5 -9.5t35.5 -20t37 -35.5t35 -53t25 -75.5t10 -101q0 -40 -10.5 -128.5t-10.5 -111.5q0 -28 4 -49.5t7.5 -33.5t14.5 -23t14.5 -13.5t19.5 -9.5t18 -8l-4 -39q-24 -8 -53 -8 q-129 0 -129 180q0 31 7 105t7 102q0 75 -17.5 131.5t-41.5 85t-56.5 45.5t-54.5 21t-45 4h-453l-92 -668h-111zM322 766h450q129 0 230.5 90t101.5 211q0 112 -64.5 176t-175.5 64h-467z" />
<glyph unicode="S" horiz-adv-x="1288" d="M74 309q0 71 12 111h104q-5 -12 -9.5 -46.5t-4.5 -56.5q0 -64 27.5 -111t77.5 -74.5t113.5 -40.5t142.5 -13q88 0 162 17t139 54.5t102 106.5t37 164q0 73 -42.5 124t-110 79.5t-149.5 51t-164 47.5t-149.5 59t-110 95.5t-42.5 147.5q0 102 42.5 181t116 126t164 70.5 t193.5 23.5q190 0 304 -75t114 -232q0 -39 -8 -88h-103q8 57 8 80q0 105 -91.5 161t-235.5 56q-63 0 -119.5 -9.5t-107.5 -31t-88 -54t-59 -82t-22 -110.5q0 -53 26.5 -93.5t71 -66t102.5 -45.5t122.5 -37t128.5 -35t122 -44.5t102.5 -61t71 -89t26.5 -124.5 q0 -100 -32 -180t-85.5 -132t-127 -87t-151.5 -50t-164 -15q-99 0 -179 17.5t-143.5 54.5t-98.5 102.5t-35 154.5z" />
<glyph unicode="T" horiz-adv-x="1177" d="M137 1307l15 98h1056l-14 -98h-475l-184 -1307h-107l184 1307h-475z" />
<glyph unicode="U" horiz-adv-x="1396" d="M152 369q0 48 35 307t69 494l35 235h110q-39 -279 -88 -621q-51 -362 -51 -401q0 -142 85.5 -223.5t244.5 -81.5q179 0 293.5 103.5t138.5 273.5l133 950h111l-133 -954q-31 -214 -182.5 -342.5t-372.5 -128.5q-199 0 -313.5 105t-114.5 284z" />
<glyph unicode="V" horiz-adv-x="1232" d="M121 1405h121l286 -1229h11l635 1229h108l-729 -1405h-98z" />
<glyph unicode="W" horiz-adv-x="1871" d="M137 1405h119l174 -1186h8l510 1186h103l174 -1186h8l510 1186h102l-608 -1405h-94l-178 1190h-9l-514 -1190h-94z" />
<glyph unicode="X" horiz-adv-x="1286" d="M-66 0l625 735l-381 670h133l324 -582h8l494 582h120l-571 -670l418 -735h-133l-361 645h-8l-549 -645h-119z" />
<glyph unicode="Y" horiz-adv-x="1167" d="M100 1405h129l324 -748h10l543 748h113l-625 -860l-78 -545h-110l77 545z" />
<glyph unicode="Z" horiz-adv-x="1218" d="M-18 0l8 51l1022 1256h-797l14 98h965l-8 -49l-1024 -1258h864l-14 -98h-1030z" />
<glyph unicode="[" horiz-adv-x="602" d="M45 -330l244 1735h289l-11 -78h-180l-223 -1579h180l-10 -78h-289z" />
<glyph unicode="\" horiz-adv-x="1214" d="M139 1405h123l604 -1405h-123z" />
<glyph unicode="]" horiz-adv-x="602" d="M-49 -330l10 78h180l224 1579h-181l11 78h288l-243 -1735h-289z" />
<glyph unicode="^" horiz-adv-x="1220" d="M25 0l548 1047h181l258 -1047h-127l-234 950l-499 -950h-127z" />
<glyph unicode="_" horiz-adv-x="1406" d="M72 -250l16 119h1024l-18 -119h-1022z" />
<glyph unicode="`" horiz-adv-x="681" d="M156 1468l2 7h133l153 -297h-102z" />
<glyph unicode="a" horiz-adv-x="1243" d="M86 389q0 98 17.5 192t56.5 182.5t96 155.5t142.5 107.5t189.5 40.5q108 0 188.5 -44t120.5 -122h8l49 146h68q-127 -897 -127 -922q0 -51 47 -51t109 32l-13 -88q-59 -38 -129 -38q-63 0 -90.5 37t-27.5 96q0 18 2 28q-133 -161 -359 -161q-158 0 -253 101.5t-95 307.5z M190 395q0 -169 72 -245t197 -76q85 0 154 34.5t113.5 91.5t74.5 134t42.5 157t12.5 166q0 158 -74.5 237t-197.5 79q-71 0 -131 -25t-102 -69t-74 -100t-50.5 -122t-27.5 -131.5t-9 -130.5z" />
<glyph unicode="b" horiz-adv-x="1191" d="M86 0l207 1475h104l-82 -574q62 78 156 122t203 44q157 0 254.5 -106t97.5 -297q0 -87 -16 -176.5t-54.5 -182t-95 -164t-144.5 -116.5t-196 -45q-240 0 -327 194l-64 -174h-43zM252 393q0 -319 272 -319q78 0 148.5 37t126 107.5t88.5 184t33 256.5q0 156 -74.5 235 t-196.5 79q-84 0 -152 -34t-113 -90.5t-75.5 -132.5t-43.5 -156.5t-13 -166.5z" />
<glyph unicode="c" horiz-adv-x="1118" d="M86 391q0 100 19.5 195.5t61.5 183t102 153.5t148 105t193 39q159 0 257 -91.5t98 -256.5q0 -49 -4 -76h-103q4 46 4 66q0 128 -74 196t-192 68q-106 0 -187.5 -52t-127.5 -138.5t-68.5 -185t-22.5 -204.5q0 -156 77.5 -237.5t205.5 -81.5q133 0 230.5 83.5t119.5 245.5 h103q-27 -198 -158 -310.5t-309 -112.5q-173 0 -273 107.5t-100 303.5z" />
<glyph unicode="d" horiz-adv-x="1253" d="M86 389q0 98 17.5 192t56.5 182.5t96 155.5t142.5 107.5t189.5 40.5q108 0 188.5 -44t120.5 -122l82 574h104q-188 -1325 -188 -1350q0 -51 47 -51t109 32l-13 -88q-59 -38 -129 -38q-63 0 -90.5 37t-27.5 96q0 18 2 28q-133 -161 -359 -161q-158 0 -253 101.5t-95 307.5 zM190 395q0 -169 72 -245t197 -76q85 0 154 34.5t113.5 91.5t74.5 134t42.5 157t12.5 166q0 158 -74.5 237t-197.5 79q-71 0 -131 -25t-102 -69t-74 -100t-50.5 -122t-27.5 -131.5t-9 -130.5z" />
<glyph unicode="e" horiz-adv-x="1138" d="M84 391q0 99 19 194t60.5 183t101 154t148.5 105.5t195 39.5q159 0 257 -91.5t98 -256.5q0 -26 -7 -96.5t-16 -110.5h-741q-11 -73 -11 -119q0 -156 77.5 -237.5t205.5 -81.5q138 0 232 79t116 234h103q-27 -193 -153 -300t-312 -107q-173 0 -273 107.5t-100 303.5z M213 606h637q10 59 10 103q0 128 -74 196t-192 68q-137 0 -240.5 -94.5t-140.5 -272.5z" />
<glyph unicode="f" horiz-adv-x="696" d="M-164 -346l12 92q73 -33 123 -33q53 0 88.5 27.5t46.5 109.5l156 1102h-115l13 95h114l31 217q17 114 82 170.5t160 56.5q79 0 133 -35l-12 -92q-73 33 -123 33q-53 0 -88.5 -27.5t-46.5 -109.5l-31 -213h244l-13 -95h-243l-156 -1106q-33 -227 -242 -227q-79 0 -133 35z " />
<glyph unicode="g" horiz-adv-x="1193" d="M43 -45h107q0 -62 25 -109.5t67.5 -75.5t92.5 -41.5t105 -13.5q133 0 229 77.5t117 223.5l25 170q-64 -77 -160 -121.5t-205 -44.5q-156 0 -254 101t-98 280q0 97 18 190t58 179.5t97.5 152t143.5 105t189 39.5q240 0 328 -195l63 175h43l-143 -1012 q-28 -194 -142.5 -305t-322.5 -111q-81 0 -147 20.5t-109 54t-72.5 78t-42 90.5t-12.5 93zM201 408q0 -145 73.5 -219t196.5 -74q85 0 154 32t113.5 84t74.5 123t42.5 145t12.5 154q0 320 -272 320q-104 0 -183 -50.5t-123.5 -134t-66.5 -180t-22 -200.5z" />
<glyph unicode="h" horiz-adv-x="1214" d="M86 0l207 1475h104l-80 -576q62 80 160.5 124t194.5 44q154 0 247 -79t93 -234q0 -14 -0.5 -24t-1.5 -23t-4.5 -37.5t-7.5 -54t-12 -87t-17.5 -123t-25 -175.5t-32.5 -230h-104q94 669 95 700q1 10 1 25q0 125 -65.5 186.5t-188.5 61.5q-138 0 -243 -94.5t-125 -235.5 l-91 -643h-104z" />
<glyph unicode="i" horiz-adv-x="532" d="M86 0l147 1047h105l-148 -1047h-104zM270 1364l15 111h121l-15 -111h-121z" />
<glyph unicode="j" horiz-adv-x="532" d="M-197 -346l15 92q73 -33 121 -33q51 0 87.5 28t47.5 109l168 1197h104l-170 -1201q-17 -114 -79.5 -170.5t-157.5 -56.5q-78 0 -136 35zM279 1364l14 111h121l-15 -111h-120z" />
<glyph unicode="k" horiz-adv-x="1093" d="M86 0l207 1475h104l-153 -1094l688 666h129l-510 -494l397 -553h-135l-342 475l-244 -215l-37 -260h-104z" />
<glyph unicode="l" horiz-adv-x="548" d="M94 0l207 1475h105l-207 -1475h-105z" />
<glyph unicode="m" horiz-adv-x="1775" d="M86 0l147 1047h72v-156q58 83 143.5 129.5t178.5 46.5q105 0 181.5 -45t109.5 -133q56 76 147 127t201 51q136 0 219.5 -77.5t83.5 -229.5q0 -16 -0.5 -26.5t-1.5 -24.5t-4.5 -38t-7.5 -54t-12 -87.5t-17.5 -123t-25 -175.5t-32.5 -231h-104q16 116 31 222.5t24 169.5 l17 119t12 85.5t7.5 54t4.5 38t1.5 24.5t0.5 26q0 234 -217 234q-122 0 -213.5 -94t-111.5 -236l-91 -643h-104q16 116 31 223t24 170t17 120t12 86.5t7.5 54.5t4.5 38t1.5 23t0.5 24q0 234 -217 234q-122 0 -213.5 -94t-111.5 -236l-91 -643h-104z" />
<glyph unicode="n" horiz-adv-x="1214" d="M86 0l147 1047h70v-156q65 82 165 129t204 47q153 0 245.5 -79t92.5 -234q0 -35 -43 -338q-33 -235 -58 -416h-102q96 686 96 725q0 125 -65.5 186.5t-188.5 61.5q-138 0 -243 -94.5t-125 -235.5l-91 -643h-104z" />
<glyph unicode="o" horiz-adv-x="1179" d="M84 393q0 101 19.5 196.5t62 182.5t103 152.5t149.5 104t196 38.5q173 0 275 -108.5t102 -305.5q0 -101 -19.5 -196t-62 -182.5t-103 -152.5t-149.5 -103.5t-196 -38.5q-173 0 -275 108.5t-102 304.5zM188 395q0 -157 78.5 -239t208.5 -82q85 0 155.5 33.5t117.5 89.5 t79 131t46 155.5t14 165.5q0 158 -79 241t-208 83q-107 0 -189 -52t-129 -137.5t-70.5 -184t-23.5 -204.5z" />
<glyph unicode="p" horiz-adv-x="1193" d="M35 -371l198 1418h70l2 -158q138 178 371 178q158 0 253 -102t95 -308q0 -98 -17 -192t-56 -183t-95.5 -155.5t-142.5 -106.5t-191 -40q-109 0 -189 43.5t-120 121.5l-74 -516h-104zM252 389q0 -157 75 -236t199 -79q84 0 152 34.5t112 90.5t74 132t43 155t13 163 q0 170 -73 247t-196 77q-86 0 -156 -36.5t-114 -94.5t-74 -136t-42.5 -157t-12.5 -160z" />
<glyph unicode="q" horiz-adv-x="1191" d="M82 381q0 94 18 188.5t58 184.5t97.5 159.5t143.5 111.5t189 42q239 0 327 -195l64 175h43l-199 -1416h-104l74 514q-64 -78 -157 -121.5t-202 -43.5q-157 0 -254.5 105t-97.5 296zM188 387q0 -156 74 -234.5t197 -78.5q85 0 154 34t113.5 90.5t74.5 132.5t42.5 156 t12.5 166q0 320 -272 320q-104 0 -183 -52.5t-124 -139.5t-67 -186.5t-22 -207.5z" />
<glyph unicode="r" horiz-adv-x="1001" d="M86 0l147 1047h70v-156q4 7 11.5 19t36.5 42.5t62.5 53.5t90.5 42t121 19q144 0 217 -79t73 -204q0 -21 -3 -49t-6.5 -46t-4.5 -17h-96q8 49 8 82q0 41 -11 77.5t-34.5 69.5t-68.5 52.5t-107 19.5q-58 0 -108 -21.5t-84 -54.5t-59.5 -75.5t-39 -81.5t-18.5 -76l-93 -664 h-104z" />
<glyph unicode="s" horiz-adv-x="1097" d="M47 242q0 40 12 80h103q-8 -24 -8 -60q0 -91 81.5 -139.5t229.5 -48.5q151 0 239.5 64.5t88.5 166.5q0 58 -35.5 95.5t-92.5 56t-126 32t-138 29.5t-126 41.5t-92.5 76t-35.5 124.5q0 132 112 219.5t319 87.5q96 0 169 -22t114 -59.5t61 -80t20 -88.5q0 -53 -8 -61h-103 q0 1 1.5 9t3.5 20t2 24q0 27 -10 51.5t-36.5 52t-84.5 44t-142 16.5q-83 0 -145 -18.5t-92.5 -42.5t-48.5 -56t-21.5 -51t-3.5 -35q0 -53 35.5 -88t92.5 -53.5t125.5 -32.5t137.5 -32t126 -44.5t92.5 -78t35.5 -124.5q0 -74 -25 -132.5t-67 -96t-101 -62.5t-123.5 -35.5 t-138.5 -10.5q-111 0 -193 25.5t-124 66.5t-61 83.5t-19 86.5z" />
<glyph unicode="t" horiz-adv-x="704" d="M127 952l14 95h115l84 333h68l-48 -333h244l-14 -95h-244l-104 -741q-4 -28 -4 -39q0 -58 27.5 -78t74.5 -20q51 0 131 32l-12 -92q-66 -34 -146 -34q-83 0 -131.5 44t-48.5 132q0 15 4 51l105 745h-115z" />
<glyph unicode="u" horiz-adv-x="1263" d="M119 291q0 42 25 231t50 357l25 168h105q-2 -15 -16 -107.5t-25.5 -175t-25.5 -181t-22 -168.5t-8 -93q0 -132 64.5 -190t189.5 -58q138 0 243.5 94t125.5 235l90 644h104q-129 -897 -129 -922q0 -51 48 -51q46 0 108 32l-12 -88q-59 -38 -129 -38q-63 0 -91 37t-28 96 q0 15 4 43q-66 -83 -162.5 -129.5t-199.5 -46.5q-153 0 -243.5 78t-90.5 233z" />
<glyph unicode="v" horiz-adv-x="1048" d="M88 1047h113l231 -895h8l484 895h102l-569 -1047h-92z" />
<glyph unicode="w" horiz-adv-x="1656" d="M102 1047h109l176 -857h8l416 857h121l176 -857h8l416 857h100l-510 -1047h-82l-188 913h-8l-443 -913h-82z" />
<glyph unicode="x" horiz-adv-x="1058" d="M-47 0l461 537l-301 510h131l243 -426h9l360 426h119l-443 -510l316 -537h-129l-254 453h-8l-387 -453h-117z" />
<glyph unicode="y" horiz-adv-x="1044" d="M-39 -352l14 94q65 -29 107 -29q39 0 72 16t61 50t42 56.5t38 66.5l63 114l-272 1031h113l231 -891h8l484 891h102l-557 -1020q-14 -26 -42 -79t-41.5 -78t-39 -67t-42.5 -63t-43.5 -48.5t-50.5 -40.5t-55 -22.5t-65 -9.5q-65 0 -127 29z" />
<glyph unicode="z" horiz-adv-x="948" d="M-8 0l6 49l694 903h-532l12 95h686l-6 -50l-696 -903h585l-12 -94h-737z" />
<glyph unicode="{" horiz-adv-x="643" d="M61 459l23 162q64 0 115 28.5t59 87.5l61 439q32 229 304 229l-11 -78q-24 0 -50.5 -6t-54.5 -19t-48.5 -38t-26.5 -58l-76 -446q-19 -109 -62 -160t-138 -51l-2 -19q80 0 111.5 -35t31.5 -106q0 -65 -26.5 -278.5t-26.5 -253.5q0 -38 26 -63t56.5 -33.5t62.5 -8.5 l-10 -78q-44 0 -84.5 10t-76.5 31.5t-57.5 60t-21.5 89.5q0 57 32 257t32 236q0 51 -41.5 76t-100.5 25z" />
<glyph unicode="|" horiz-adv-x="593" d="M209 -408l264 1883h107l-265 -1883h-106z" />
<glyph unicode="}" horiz-adv-x="643" d="M-49 -326l10 78q24 0 50.5 6t54.5 19t48.5 38t26.5 58l76 446q19 108 62 159.5t139 51.5l2 19q-80 0 -112 35t-32 106q0 65 27 279t27 254q0 38 -26 63t-57 33t-63 8l11 78q44 0 84.5 -10t76 -31.5t57 -60t21.5 -89.5q0 -56 -31.5 -257t-31.5 -236q0 -51 41 -75.5 t100 -24.5l-23 -162q-64 0 -115 -29t-59 -88l-61 -438q-32 -230 -303 -230z" />
<glyph unicode="~" horiz-adv-x="1415" d="M109 459l16 123q7 6 19 17t50 38.5t77.5 48.5t97 38t112.5 17q58 0 121.5 -21t111 -46.5t112 -46.5t124.5 -21q55 0 111.5 16.5t99 40t76.5 47t52 40.5l18 16l-17 -123q-7 -7 -19 -17.5t-50 -38t-77.5 -48.5t-97 -38.5t-112.5 -17.5q-58 0 -121.5 21t-111 46.5t-112 46.5 t-124.5 21q-55 0 -111.5 -16.5t-98.5 -40t-76 -46.5t-52 -39z" />
<glyph unicode="&#xa1;" horiz-adv-x="520" d="M6 -360l184 1116h86l-135 -1116h-135zM186 903l21 141h133l-21 -141h-133z" />
<glyph unicode="&#xa2;" horiz-adv-x="1079" d="M139 571q0 124 32 241.5t91.5 214.5t156.5 157.5t216 62.5v172h108l-45 -174q145 -9 232.5 -100t87.5 -246q0 -49 -4 -76h-103q4 46 4 66q0 128 -74 196t-192 68q-86 0 -156 -35t-115.5 -92t-76.5 -133.5t-44 -156t-13 -163.5q0 -156 77 -237.5t205 -81.5q133 0 231 84 t120 246h102q-25 -189 -146 -301t-288 -123v-172h-107l43 172q-160 9 -251 116.5t-91 294.5z" />
<glyph unicode="&#xa3;" horiz-adv-x="1222" d="M53 0l15 98h206l76 545h-284l14 98h285l47 332q24 172 149 266.5t297 94.5q154 0 247 -77t93 -220q0 -42 -10 -103h-103q9 51 9 80q0 112 -68.5 166.5t-181.5 54.5q-82 0 -148.5 -27.5t-114.5 -90.5t-61 -156l-45 -320h467l-14 -98h-467l-10 -76l-93 -469h664l-14 -98 h-955z" />
<glyph unicode="&#xa4;" horiz-adv-x="1277" d="M82 262l127 111q-70 94 -70 233q0 110 40 216t118 182l-96 110l98 86l98 -115q144 111 326 111q183 0 297 -111l131 115l74 -86l-129 -110q69 -96 69 -240q0 -108 -40 -211.5t-117 -179.5l96 -111l-98 -86l-99 115q-144 -111 -325 -111q-183 0 -297 111l-131 -115z M240 631q0 -150 101 -251t253 -101q118 0 226.5 63t176.5 171t68 230q0 150 -102 251.5t-254 101.5q-119 0 -227.5 -63.5t-175 -171.5t-66.5 -230z" />
<glyph unicode="&#xa5;" horiz-adv-x="1300" d="M102 508l15 96h415l-81 182h-310l15 101h250l-230 518h129l324 -748h10l543 748h112l-379 -518h252l-14 -101h-309l-131 -182h415l-14 -96h-450l-72 -508h-111l72 508h-451z" />
<glyph unicode="&#xa6;" horiz-adv-x="550" d="M100 0l76 537h133l-76 -537h-133zM223 868l76 537h133l-76 -537h-133z" />
<glyph unicode="&#xa7;" horiz-adv-x="1056" d="M20 -127q0 41 9 59h102q-6 -33 -6 -51q0 -21 4.5 -40t21.5 -43.5t45 -41.5t80 -29t121 -12q57 0 110 13t100 39t75.5 73t28.5 109q0 54 -34.5 99.5t-89.5 79.5t-122 65.5t-133.5 64t-121.5 68t-89.5 85.5t-34.5 109q0 107 63 182.5t189 139.5q-150 98 -150 235 q0 147 119.5 247.5t333.5 100.5q92 0 161.5 -22.5t108 -59.5t57.5 -80t19 -89q0 -44 -8 -60h-102q6 33 6 49q0 27 -9.5 52t-35.5 53.5t-84.5 45.5t-143.5 17q-56 0 -108.5 -12.5t-99.5 -38.5t-76 -73.5t-29 -110.5q0 -53 34.5 -99t89.5 -79.5t122 -65t133.5 -64.5 t121.5 -68.5t89.5 -85t34.5 -108.5q0 -200 -254 -321q149 -99 149 -236q0 -148 -118 -248t-332 -100q-92 0 -161.5 22.5t-108.5 60t-58 80.5t-19 89zM195 549q0 -37 18.5 -70.5t46 -57t72 -49t84 -43t94.5 -42.5t92 -45q89 39 150 103.5t61 150.5q0 37 -18.5 70.5t-47 57 t-73 49t-84.5 43t-95 42.5t-92 45q-208 -90 -208 -254z" />
<glyph unicode="&#xa8;" horiz-adv-x="901" d="M150 1333l18 142h133l-18 -142h-133zM510 1333l18 142h134l-19 -142h-133z" />
<glyph unicode="&#xa9;" horiz-adv-x="1607" d="M94 705q0 147 57.5 280.5t154.5 229.5t231 153t282 57q196 0 363 -96t264.5 -262t97.5 -362q0 -198 -97.5 -365t-264 -263.5t-363.5 -96.5t-364 96.5t-264 263.5t-97 365zM147 705q0 -137 53 -262t143.5 -214.5t214.5 -142.5t261 -53q182 0 336.5 89.5t245 244.5 t90.5 338q0 181 -90.5 335t-245 243t-336.5 89q-109 0 -212 -33.5t-185.5 -95.5t-144.5 -143.5t-96 -183.5t-34 -211zM494 602v203q0 171 92.5 254.5t240.5 83.5q144 0 235 -84t91 -252h-74v14q0 121 -71 184.5t-181 63.5q-111 0 -181.5 -63t-70.5 -185v-233 q0 -124 70.5 -187t181.5 -63q115 0 184.5 67t69.5 193h72q0 -168 -90.5 -251t-235.5 -83q-71 0 -130 19t-105 58.5t-72 106t-26 154.5z" />
<glyph unicode="&#xaa;" horiz-adv-x="858" d="M147 1014q0 76 18.5 148t54.5 133.5t98 99t141 37.5q135 0 188 -105l4 6q4 16 14 45.5t13 40.5h49q-76 -549 -76 -567q0 -29 25 -29q17 0 69 25l-8 -64q-41 -26 -82 -26q-77 0 -77 86l-3 6q-80 -92 -210 -92q-98 0 -158 64t-60 192zM219 1016q0 -100 43 -146.5t117 -46.5 q64 0 112 31.5t74.5 84.5t39.5 113t13 126q0 94 -44 141t-117 47q-64 0 -112 -32.5t-74.5 -85.5t-39 -111.5t-12.5 -120.5z" />
<glyph unicode="&#xab;" horiz-adv-x="937" d="M113 690l301 357h84l-248 -357l147 -356h-84zM485 690l303 357h84l-247 -357l147 -356h-84z" />
<glyph unicode="&#xac;" d="M90 770l16 121h1049l-72 -514h-118l55 393h-930z" />
<glyph unicode="&#xad;" horiz-adv-x="798" d="M123 485l16 127h518l-18 -127h-516z" />
<glyph unicode="&#xae;" horiz-adv-x="1607" d="M94 705q0 147 57.5 280.5t154.5 229.5t231 153t282 57q196 0 363 -96t264.5 -262t97.5 -362q0 -198 -97.5 -365t-264 -263.5t-363.5 -96.5t-364 96.5t-264 263.5t-97 365zM147 705q0 -137 53 -262t143.5 -214.5t214.5 -142.5t261 -53q182 0 336.5 89.5t245 244.5 t90.5 338q0 181 -90.5 335t-245 243t-336.5 89q-109 0 -212 -33.5t-185.5 -95.5t-144.5 -143.5t-96 -183.5t-34 -211zM541 276v844h346q96 0 165.5 -59.5t69.5 -153.5q0 -69 -38.5 -121.5t-90.5 -74.5v-9q115 -47 115 -233q0 -34 0.5 -49.5t3.5 -37.5t9.5 -32.5t18.5 -22 t31 -18.5v-28q-22 -7 -38 -7q-103 0 -103 166q0 61 -12 106.5t-28.5 68.5t-39.5 37t-38 17t-31 3h-256v-396h-84zM625 743h266q64 0 110 45.5t46 108.5q0 64 -45.5 107t-110.5 43h-266v-304z" />
<glyph unicode="&#xaf;" horiz-adv-x="942" d="M139 1415l17 92h651l-16 -92h-652z" />
<glyph unicode="&#xb0;" horiz-adv-x="827" d="M188 1098q0 135 94.5 231t233.5 96q121 0 204 -84t83 -204q0 -130 -93.5 -228t-236.5 -98q-122 0 -203.5 83t-81.5 204zM276 1100q0 -85 58 -143t145 -58q95 0 163.5 69.5t68.5 166.5q0 85 -57.5 141.5t-143.5 56.5q-89 0 -161.5 -67.5t-72.5 -165.5z" />
<glyph unicode="&#xb1;" d="M33 0l16 119h1024l-16 -119h-1024zM102 586l17 119h465l47 342h119l-48 -342h465l-16 -119h-465l-49 -340h-119l49 340h-465z" />
<glyph unicode="&#xb2;" horiz-adv-x="684" d="M27 864l4 39q7 64 44.5 110t104.5 87l240 145q117 73 117 187q0 63 -38 101t-108 38q-87 0 -144 -61t-57 -150h-84q0 116 85.5 202.5t209.5 86.5q103 0 161.5 -57.5t58.5 -147.5q0 -166 -172 -270l-252 -154q-62 -38 -66 -78h426l-10 -78h-520z" />
<glyph unicode="&#xb3;" horiz-adv-x="688" d="M53 1034q0 29 8 64h82q-8 -36 -8 -54q0 -124 178 -124q81 0 134 45t53 125q0 62 -44 93t-116 31h-96l10 76h90q80 0 135.5 40.5t55.5 117.5q0 56 -41 86.5t-105 30.5q-73 0 -124 -37.5t-60 -102.5l-4 -26h-82l4 26q15 100 92 157.5t184 57.5q96 0 157.5 -47t61.5 -133 q0 -82 -33.5 -125.5t-99.5 -77.5q97 -46 97 -155q0 -118 -77 -187t-202 -69q-114 0 -182 50.5t-68 137.5z" />
<glyph unicode="&#xb4;" horiz-adv-x="681" d="M115 1178l239 297h133l-2 -7l-268 -290h-102z" />
<glyph unicode="&#xb5;" horiz-adv-x="1224" d="M96 -330l195 1377h104q-98 -684 -98 -728q0 -121 67 -183t189 -62q138 0 243.5 94t125.5 235l90 644h104q-129 -911 -129 -924q0 -49 47 -49q48 0 107 32l-13 -88q-62 -38 -137 -38q-57 0 -82.5 37t-25.5 94q0 17 4 45q-66 -83 -161 -129.5t-198 -46.5q-90 0 -165 31 t-113 93q2 -20 2 -45q0 -21 -4 -57l-47 -332h-105z" />
<glyph unicode="&#xb6;" horiz-adv-x="1073" d="M125 893q0 114 41 211t111 162.5t164 102t200 36.5h430l-14 -100h-135l-234 -1661h-106l233 1661h-147l-234 -1661h-106l123 866q-145 22 -235.5 128.5t-90.5 254.5z" />
<glyph unicode="&#xb7;" horiz-adv-x="481" d="M164 520l18 142h133l-18 -142h-133z" />
<glyph unicode="&#xb8;" horiz-adv-x="716" d="M121 -377l12 94q46 -26 137 -26q42 0 78 9.5t65 38.5t29 75q0 39 -32 60.5t-74 21.5h-45l10 69q43 0 72.5 -2t65.5 -10.5t57 -24t36 -44t15 -68.5q0 -63 -27.5 -108.5t-72 -68t-87 -32.5t-84.5 -10q-90 0 -155 26z" />
<glyph unicode="&#xb9;" horiz-adv-x="616" d="M27 864l10 78h209l84 584h-209l8 59q68 3 120.5 12.5t135.5 34.5h45l-98 -690h157l-10 -78h-452z" />
<glyph unicode="&#xba;" horiz-adv-x="802" d="M186 1022q0 62 12 120.5t38 112t63.5 93.5t92.5 64t120 24q107 0 170 -67.5t63 -188.5q0 -78 -19.5 -150t-58 -132t-102.5 -96t-145 -36q-107 0 -170.5 67.5t-63.5 188.5zM258 1022q0 -93 46.5 -142t123.5 -49q64 0 113 30.5t77 81.5t42 110.5t14 124.5q0 95 -46.5 143.5 t-123.5 48.5q-64 0 -113 -31t-77 -82.5t-42 -111t-14 -123.5z" />
<glyph unicode="&#xbb;" horiz-adv-x="942" d="M76 334l250 356l-150 357h84l205 -357l-305 -356h-84zM451 334l249 356l-149 357h84l203 -357l-303 -356h-84z" />
<glyph unicode="&#xbc;" horiz-adv-x="1435" d="M78 637l10 78h209l82 583h-209l8 60q69 3 122 12.5t136 34.5h45l-98 -690h158l-11 -78h-452zM174 0l1059 1405h90l-1053 -1405h-96zM817 201l10 69q43 45 153.5 210t172.5 288h88q-62 -128 -155 -274t-158 -218h270l39 267q43 69 55 94h41l-51 -361h88l-10 -75h-88 l-29 -201h-84l29 201h-371z" />
<glyph unicode="&#xbd;" horiz-adv-x="1488" d="M74 637l10 78h209l82 583h-209l8 60q69 3 122 12.5t136 34.5h45l-98 -690h158l-11 -78h-452zM170 0l1059 1405h90l-1053 -1405h-96zM815 0l6 39q10 65 46.5 111.5t101.5 85.5l239 145q117 72 117 190q0 62 -37 99t-106 37q-86 0 -144.5 -61.5t-58.5 -149.5h-84 q0 124 90.5 206t206.5 82q103 0 161 -57t58 -147q0 -167 -172 -271l-252 -153q-61 -38 -65 -78h426l-13 -78h-520z" />
<glyph unicode="&#xbe;" horiz-adv-x="1429" d="M109 811q0 28 8 63h82q-9 -40 -9 -53q0 -125 179 -125q81 0 133.5 45t52.5 125q0 62 -44.5 93.5t-115.5 31.5h-96l10 76h90q80 0 135.5 40.5t55.5 117.5q0 56 -40.5 86t-105.5 30q-74 0 -124.5 -37t-59.5 -102l-4 -26h-82l4 26q15 100 92.5 157.5t184.5 57.5 q96 0 157.5 -47t61.5 -133q0 -82 -33.5 -125.5t-99.5 -77.5q96 -45 96 -155q0 -118 -77 -187t-202 -69q-113 0 -181 50.5t-68 137.5zM262 0l1057 1405h90l-1051 -1405h-96zM874 201l9 69q43 43 153 207.5t174 290.5h88q-61 -126 -155 -272t-158 -220h270l37 267q55 89 58 94 h41l-52 -361h88l-10 -75h-88l-29 -201h-83l28 201h-371z" />
<glyph unicode="&#xbf;" horiz-adv-x="1011" d="M27 -57q0 78 20.5 143t54.5 109.5t75 82t83.5 70t78.5 64t62 73t33 88.5l19 134h110l-22 -160q-7 -52 -33.5 -96t-62.5 -76.5t-78 -64.5t-82.5 -66t-73.5 -73t-53.5 -95t-20.5 -123q0 -32 5 -61t21.5 -61.5t42.5 -56.5t71.5 -39.5t105.5 -15.5q68 0 124.5 18t93 48.5 t63.5 64t42 72t22.5 64.5t10.5 49l2 59h111q0 -43 -4 -67q-2 -19 -7.5 -43t-20.5 -65.5t-36.5 -79t-59 -79t-84 -72t-116 -50t-151.5 -19.5q-89 0 -155 24.5t-101.5 59t-57 82t-27 84t-5.5 74.5zM471 905l18 142h134l-19 -142h-133z" />
<glyph unicode="&#xc0;" horiz-adv-x="1331" d="M-74 0l779 1405h102l383 -1405h-121l-96 348h-742l-192 -348h-113zM287 449h659l-213 804h-8zM510 1827l2 6h133l154 -297h-103z" />
<glyph unicode="&#xc1;" horiz-adv-x="1331" d="M-74 0l779 1405h102l383 -1405h-121l-96 348h-742l-192 -348h-113zM287 449h659l-213 804h-8zM709 1536l239 297h133l-2 -6l-268 -291h-102z" />
<glyph unicode="&#xc2;" horiz-adv-x="1331" d="M-74 0l779 1405h102l383 -1405h-121l-96 348h-742l-192 -348h-113zM287 449h659l-213 804h-8zM449 1536l317 297h119l231 -297h-123l-182 199l-240 -199h-122z" />
<glyph unicode="&#xc3;" horiz-adv-x="1331" d="M-74 0l779 1405h102l383 -1405h-121l-96 348h-742l-192 -348h-113zM287 449h659l-213 804h-8zM397 1536q8 62 65 115t165 53q68 0 174.5 -33t159.5 -33q51 0 80 15.5t44 50.5h76q-3 -27 -17 -54.5t-39.5 -54t-70.5 -43t-102 -16.5q-68 0 -174.5 33t-159.5 33 q-51 0 -80.5 -15.5t-44.5 -50.5h-76z" />
<glyph unicode="&#xc4;" horiz-adv-x="1331" d="M-74 0l779 1405h102l383 -1405h-121l-96 348h-742l-192 -348h-113zM287 449h659l-213 804h-8zM516 1536l19 141h133l-19 -141h-133zM877 1536l18 141h133l-18 -141h-133z" />
<glyph unicode="&#xc5;" horiz-adv-x="1331" d="M-74 0l779 1405h102l383 -1405h-121l-96 348h-742l-192 -348h-113zM287 449h659l-213 804h-8zM586 1653q0 99 72 166t167 67q76 0 127.5 -50.5t51.5 -125.5q0 -97 -70 -166t-168 -69q-78 0 -129 50.5t-51 127.5zM659 1661q0 -49 33.5 -81t83.5 -32q61 0 107.5 45 t46.5 107q0 49 -33.5 80.5t-81.5 31.5q-61 0 -108.5 -45t-47.5 -106z" />
<glyph unicode="&#xc6;" horiz-adv-x="2009" d="M-68 0l781 1405h1054l-24 -98h-909l147 -541h682v-98h-655l155 -570h606l19 -98h-715l-96 348h-725l-193 -348h-127zM307 449h643l-211 796l-6 -2z" />
<glyph unicode="&#xc7;" horiz-adv-x="1355" d="M117 457q0 105 22 272q22 165 65.5 288.5t100 200t132.5 124t154.5 65.5t174.5 18q455 0 455 -409q0 -44 -11 -127h-108q8 52 8 106q0 332 -358 332q-76 0 -138 -14.5t-122 -53.5t-105 -102t-80.5 -165t-54.5 -238q-27 -186 -27 -289q0 -113 25.5 -190.5t75 -119.5 t110 -59.5t142.5 -17.5q412 0 473 436h108q-17 -121 -59 -215t-98 -153t-130 -97.5t-149 -53.5t-160 -15q-103 0 -179.5 21.5t-139 73.5t-95 147.5t-32.5 234.5zM305 -377l12 94q46 -26 138 -26q42 0 78 9.5t65 38.5t29 75q0 39 -32.5 60.5t-74.5 21.5h-45l10 69 q43 0 72.5 -2t65.5 -10.5t57 -24t36 -44t15 -68.5q0 -63 -27.5 -108.5t-71.5 -68t-86.5 -32.5t-84.5 -10q-91 0 -156 26z" />
<glyph unicode="&#xc8;" horiz-adv-x="1212" d="M104 0l199 1405h868l-26 -98h-746l-75 -541h653l-14 -98h-654l-80 -570h756v-98h-881zM512 1827l2 6h133l154 -297h-103z" />
<glyph unicode="&#xc9;" horiz-adv-x="1212" d="M104 0l199 1405h868l-26 -98h-746l-75 -541h653l-14 -98h-654l-80 -570h756v-98h-881zM684 1536l240 297h133l-2 -6l-269 -291h-102z" />
<glyph unicode="&#xca;" horiz-adv-x="1212" d="M104 0l199 1405h868l-26 -98h-746l-75 -541h653l-14 -98h-654l-80 -570h756v-98h-881zM408 1536l317 297h119l231 -297h-123l-182 199l-240 -199h-122z" />
<glyph unicode="&#xcb;" horiz-adv-x="1212" d="M104 0l199 1405h868l-26 -98h-746l-75 -541h653l-14 -98h-654l-80 -570h756v-98h-881zM520 1536l19 141h133l-19 -141h-133zM881 1536l18 141h133l-18 -141h-133z" />
<glyph unicode="&#xcc;" horiz-adv-x="747" d="M25 0l14 100h162l170 1205h-162l14 100h434l-14 -100h-162l-170 -1205h162l-14 -100h-434zM221 1827l2 6h133l154 -297h-102z" />
<glyph unicode="&#xcd;" horiz-adv-x="747" d="M25 0l14 100h162l170 1205h-162l14 100h434l-14 -100h-162l-170 -1205h162l-14 -100h-434zM397 1536l240 297h133l-2 -6l-268 -291h-103z" />
<glyph unicode="&#xce;" horiz-adv-x="747" d="M25 0l14 100h162l170 1205h-162l14 100h434l-14 -100h-162l-170 -1205h162l-14 -100h-434zM125 1536l317 297h119l232 -297h-123l-183 199l-239 -199h-123z" />
<glyph unicode="&#xcf;" horiz-adv-x="747" d="M25 0l14 100h162l170 1205h-162l14 100h434l-14 -100h-162l-170 -1205h162l-14 -100h-434zM209 1538l18 141h133l-18 -141h-133zM569 1538l19 141h133l-19 -141h-133z" />
<glyph unicode="&#xd0;" horiz-adv-x="1396" d="M20 653l13 99h205l92 653h450q81 0 148 -14t127 -48.5t100.5 -89t64 -138.5t23.5 -193q0 -90 -20 -244t-63 -272t-101 -194t-135.5 -124.5t-160 -68t-181.5 -19.5h-451l92 653h-203zM256 98h340q76 0 140 15t126 54t109 101.5t84 161.5t55 229q25 181 25 244 q0 113 -26 193t-76.5 125.5t-115.5 65.5t-151 20h-340l-78 -555h352l-14 -99h-352z" />
<glyph unicode="&#xd1;" horiz-adv-x="1421" d="M104 0l199 1405h94l613 -1194h8l168 1194h98l-199 -1405h-98l-608 1194h-8l-168 -1194h-99zM449 1536q8 62 64.5 115t164.5 53q68 0 174.5 -33t159.5 -33q51 0 80.5 15.5t44.5 50.5h75q-3 -27 -17 -54.5t-39.5 -54t-70.5 -43t-102 -16.5q-68 0 -174.5 33t-159.5 33 q-51 0 -80.5 -15.5t-44.5 -50.5h-75z" />
<glyph unicode="&#xd2;" horiz-adv-x="1413" d="M117 467q0 99 22 262q22 164 67 288t104 200.5t137.5 124t158.5 65.5t176 18q82 0 148.5 -13t126.5 -46.5t100.5 -87.5t64 -140t23.5 -200q0 -82 -22 -262q-21 -165 -66 -289t-104 -200.5t-138 -124t-159 -65t-176 -17.5q-82 0 -148.5 13t-126.5 46.5t-100.5 87.5 t-64 140t-23.5 200zM225 475q0 -115 27.5 -195t80 -123t115.5 -61t146 -18q77 0 140.5 14.5t126.5 53.5t110 102t84 165t55 238q27 197 27 279q0 115 -28 195t-80.5 123t-115.5 61t-145 18q-77 0 -140 -14.5t-125.5 -53.5t-109 -102t-84 -165t-57.5 -238q-27 -181 -27 -279z M588 1827l2 6h133l154 -297h-103z" />
<glyph unicode="&#xd3;" horiz-adv-x="1413" d="M117 467q0 99 22 262q22 164 67 288t104 200.5t137.5 124t158.5 65.5t176 18q82 0 148.5 -13t126.5 -46.5t100.5 -87.5t64 -140t23.5 -200q0 -82 -22 -262q-21 -165 -66 -289t-104 -200.5t-138 -124t-159 -65t-176 -17.5q-82 0 -148.5 13t-126.5 46.5t-100.5 87.5 t-64 140t-23.5 200zM225 475q0 -115 27.5 -195t80 -123t115.5 -61t146 -18q77 0 140.5 14.5t126.5 53.5t110 102t84 165t55 238q27 197 27 279q0 115 -28 195t-80.5 123t-115.5 61t-145 18q-77 0 -140 -14.5t-125.5 -53.5t-109 -102t-84 -165t-57.5 -238q-27 -181 -27 -279z M754 1536l239 297h133l-2 -6l-268 -291h-102z" />
<glyph unicode="&#xd4;" horiz-adv-x="1413" d="M117 467q0 99 22 262q22 164 67 288t104 200.5t137.5 124t158.5 65.5t176 18q82 0 148.5 -13t126.5 -46.5t100.5 -87.5t64 -140t23.5 -200q0 -82 -22 -262q-21 -165 -66 -289t-104 -200.5t-138 -124t-159 -65t-176 -17.5q-82 0 -148.5 13t-126.5 46.5t-100.5 87.5 t-64 140t-23.5 200zM225 475q0 -115 27.5 -195t80 -123t115.5 -61t146 -18q77 0 140.5 14.5t126.5 53.5t110 102t84 165t55 238q27 197 27 279q0 115 -28 195t-80.5 123t-115.5 61t-145 18q-77 0 -140 -14.5t-125.5 -53.5t-109 -102t-84 -165t-57.5 -238q-27 -181 -27 -279z M492 1536l317 297h119l231 -297h-123l-182 199l-240 -199h-122z" />
<glyph unicode="&#xd5;" horiz-adv-x="1413" d="M117 467q0 99 22 262q22 164 67 288t104 200.5t137.5 124t158.5 65.5t176 18q82 0 148.5 -13t126.5 -46.5t100.5 -87.5t64 -140t23.5 -200q0 -82 -22 -262q-21 -165 -66 -289t-104 -200.5t-138 -124t-159 -65t-176 -17.5q-82 0 -148.5 13t-126.5 46.5t-100.5 87.5 t-64 140t-23.5 200zM225 475q0 -115 27.5 -195t80 -123t115.5 -61t146 -18q77 0 140.5 14.5t126.5 53.5t110 102t84 165t55 238q27 197 27 279q0 115 -28 195t-80.5 123t-115.5 61t-145 18q-77 0 -140 -14.5t-125.5 -53.5t-109 -102t-84 -165t-57.5 -238q-27 -181 -27 -279z M455 1538q8 62 64.5 115t164.5 53q68 0 174.5 -33t159.5 -33q51 0 80.5 15.5t44.5 50.5h76q-3 -27 -17 -54.5t-39.5 -54t-71 -43t-102.5 -16.5q-68 0 -174.5 33t-159.5 33q-51 0 -80.5 -15.5t-44.5 -50.5h-75z" />
<glyph unicode="&#xd6;" horiz-adv-x="1413" d="M117 467q0 99 22 262q22 164 67 288t104 200.5t137.5 124t158.5 65.5t176 18q82 0 148.5 -13t126.5 -46.5t100.5 -87.5t64 -140t23.5 -200q0 -82 -22 -262q-21 -165 -66 -289t-104 -200.5t-138 -124t-159 -65t-176 -17.5q-82 0 -148.5 13t-126.5 46.5t-100.5 87.5 t-64 140t-23.5 200zM225 475q0 -115 27.5 -195t80 -123t115.5 -61t146 -18q77 0 140.5 14.5t126.5 53.5t110 102t84 165t55 238q27 197 27 279q0 115 -28 195t-80.5 123t-115.5 61t-145 18q-77 0 -140 -14.5t-125.5 -53.5t-109 -102t-84 -165t-57.5 -238q-27 -181 -27 -279z M586 1538l18 141h133l-18 -141h-133zM946 1538l19 141h133l-19 -141h-133z" />
<glyph unicode="&#xd7;" d="M147 195l373 327l-280 330l96 84l280 -330l377 330l72 -84l-377 -330l283 -327l-97 -84l-280 327l-375 -327z" />
<glyph unicode="&#xd8;" horiz-adv-x="1413" d="M41 -133l188 256q-90 117 -90 344q0 92 23 262q22 164 67 288t104 200.5t137.5 124t158.5 65.5t176 18q210 0 319 -90l154 209h90l-192 -262q92 -119 92 -344q0 -74 -23 -262q-21 -165 -66 -289t-104 -200.5t-138 -124t-159 -65t-176 -17.5q-210 0 -319 90l-150 -203h-92 zM248 475q0 -161 55 -254l752 1022q-91 84 -264 84q-77 0 -140 -14.5t-125.5 -53.5t-109.5 -102t-84.5 -165t-57.5 -238q-26 -175 -26 -279zM350 162q88 -84 266 -84q77 0 140.5 14.5t126.5 53.5t110.5 102t84.5 165t55 238q26 190 26 279q0 158 -57 254z" />
<glyph unicode="&#xd9;" horiz-adv-x="1396" d="M152 369q0 48 35 307t69 494l35 235h110q-39 -279 -88 -621q-51 -362 -51 -401q0 -142 85.5 -223.5t244.5 -81.5q179 0 293.5 103.5t138.5 273.5l133 950h111l-133 -954q-31 -214 -182.5 -342.5t-372.5 -128.5q-199 0 -313.5 105t-114.5 284zM567 1827l2 6h133l154 -297 h-102z" />
<glyph unicode="&#xda;" horiz-adv-x="1396" d="M152 369q0 48 35 307t69 494l35 235h110q-39 -279 -88 -621q-51 -362 -51 -401q0 -142 85.5 -223.5t244.5 -81.5q179 0 293.5 103.5t138.5 273.5l133 950h111l-133 -954q-31 -214 -182.5 -342.5t-372.5 -128.5q-199 0 -313.5 105t-114.5 284zM743 1536l240 297h133l-2 -6 l-268 -291h-103z" />
<glyph unicode="&#xdb;" horiz-adv-x="1396" d="M152 369q0 48 35 307t69 494l35 235h110q-39 -279 -88 -621q-51 -362 -51 -401q0 -142 85.5 -223.5t244.5 -81.5q179 0 293.5 103.5t138.5 273.5l133 950h111l-133 -954q-31 -214 -182.5 -342.5t-372.5 -128.5q-199 0 -313.5 105t-114.5 284zM453 1536l317 297h119 l231 -297h-123l-182 199l-240 -199h-122z" />
<glyph unicode="&#xdc;" horiz-adv-x="1396" d="M152 369q0 48 35 307t69 494l35 235h110q-39 -279 -88 -621q-51 -362 -51 -401q0 -142 85.5 -223.5t244.5 -81.5q179 0 293.5 103.5t138.5 273.5l133 950h111l-133 -954q-31 -214 -182.5 -342.5t-372.5 -128.5q-199 0 -313.5 105t-114.5 284zM553 1538l18 141h134 l-19 -141h-133zM913 1538l19 141h133l-18 -141h-134z" />
<glyph unicode="&#xdd;" horiz-adv-x="1167" d="M100 1405h129l324 -748h10l543 748h113l-625 -860l-78 -545h-110l77 545zM637 1536l240 297h133l-2 -6l-269 -291h-102z" />
<glyph unicode="&#xde;" horiz-adv-x="1296" d="M104 0l199 1405h111l-39 -277h465q144 0 237.5 -94t93.5 -233q0 -115 -62 -217t-163.5 -162t-214.5 -60h-465l-51 -362h-111zM281 459h450q130 0 231 97.5t101 229.5q0 104 -72 174t-180 70h-451z" />
<glyph unicode="&#xdf;" horiz-adv-x="1257" d="M111 -135l151 1087h-115l15 95h114q28 201 165.5 322.5t332.5 121.5q156 0 252 -91.5t96 -230.5q0 -117 -74.5 -225.5t-181.5 -148.5l2 -7q92 -37 147.5 -124.5t55.5 -194.5q0 -125 -71.5 -234t-188 -172t-244.5 -63h-188l12 94h189q98 0 187 49t143.5 134t54.5 182 q0 119 -83 199.5t-210 80.5h-189l13 95h166q145 0 249.5 95.5t104.5 227.5q0 104 -68.5 172t-185.5 68q-153 0 -256 -94.5t-125 -249.5l-166 -1188h-104z" />
<glyph unicode="&#xe0;" horiz-adv-x="1243" d="M86 389q0 98 17.5 192t56.5 182.5t96 155.5t142.5 107.5t189.5 40.5q108 0 188.5 -44t120.5 -122h8l49 146h68q-127 -897 -127 -922q0 -51 47 -51t109 32l-13 -88q-59 -38 -129 -38q-63 0 -90.5 37t-27.5 96q0 18 2 28q-133 -161 -359 -161q-158 0 -253 101.5t-95 307.5z M190 395q0 -169 72 -245t197 -76q85 0 154 34.5t113.5 91.5t74.5 134t42.5 157t12.5 166q0 158 -74.5 237t-197.5 79q-71 0 -131 -25t-102 -69t-74 -100t-50.5 -122t-27.5 -131.5t-9 -130.5zM401 1468l2 7h134l153 -297h-102z" />
<glyph unicode="&#xe1;" horiz-adv-x="1243" d="M86 389q0 98 17.5 192t56.5 182.5t96 155.5t142.5 107.5t189.5 40.5q108 0 188.5 -44t120.5 -122h8l49 146h68q-127 -897 -127 -922q0 -51 47 -51t109 32l-13 -88q-59 -38 -129 -38q-63 0 -90.5 37t-27.5 96q0 18 2 28q-133 -161 -359 -161q-158 0 -253 101.5t-95 307.5z M190 395q0 -169 72 -245t197 -76q85 0 154 34.5t113.5 91.5t74.5 134t42.5 157t12.5 166q0 158 -74.5 237t-197.5 79q-71 0 -131 -25t-102 -69t-74 -100t-50.5 -122t-27.5 -131.5t-9 -130.5zM584 1178l239 297h133l-2 -7l-268 -290h-102z" />
<glyph unicode="&#xe2;" horiz-adv-x="1243" d="M86 389q0 98 17.5 192t56.5 182.5t96 155.5t142.5 107.5t189.5 40.5q108 0 188.5 -44t120.5 -122h8l49 146h68q-127 -897 -127 -922q0 -51 47 -51t109 32l-13 -88q-59 -38 -129 -38q-63 0 -90.5 37t-27.5 96q0 18 2 28q-133 -161 -359 -161q-158 0 -253 101.5t-95 307.5z M190 395q0 -169 72 -245t197 -76q85 0 154 34.5t113.5 91.5t74.5 134t42.5 157t12.5 166q0 158 -74.5 237t-197.5 79q-71 0 -131 -25t-102 -69t-74 -100t-50.5 -122t-27.5 -131.5t-9 -130.5zM315 1178l318 297h119l231 -297h-123l-182 198l-240 -198h-123z" />
<glyph unicode="&#xe3;" horiz-adv-x="1243" d="M86 389q0 98 17.5 192t56.5 182.5t96 155.5t142.5 107.5t189.5 40.5q108 0 188.5 -44t120.5 -122h8l49 146h68q-127 -897 -127 -922q0 -51 47 -51t109 32l-13 -88q-59 -38 -129 -38q-63 0 -90.5 37t-27.5 96q0 18 2 28q-133 -161 -359 -161q-158 0 -253 101.5t-95 307.5z M190 395q0 -169 72 -245t197 -76q85 0 154 34.5t113.5 91.5t74.5 134t42.5 157t12.5 166q0 158 -74.5 237t-197.5 79q-71 0 -131 -25t-102 -69t-74 -100t-50.5 -122t-27.5 -131.5t-9 -130.5zM297 1307q8 62 64.5 115t164.5 53q68 0 174.5 -33t159.5 -33q51 0 80.5 15.5 t44.5 50.5h76q-3 -27 -17 -54.5t-39.5 -54t-71 -43t-102.5 -16.5q-68 0 -174 32.5t-159 32.5q-51 0 -80.5 -15t-44.5 -50h-76z" />
<glyph unicode="&#xe4;" horiz-adv-x="1243" d="M86 389q0 98 17.5 192t56.5 182.5t96 155.5t142.5 107.5t189.5 40.5q108 0 188.5 -44t120.5 -122h8l49 146h68q-127 -897 -127 -922q0 -51 47 -51t109 32l-13 -88q-59 -38 -129 -38q-63 0 -90.5 37t-27.5 96q0 18 2 28q-133 -161 -359 -161q-158 0 -253 101.5t-95 307.5z M190 395q0 -169 72 -245t197 -76q85 0 154 34.5t113.5 91.5t74.5 134t42.5 157t12.5 166q0 158 -74.5 237t-197.5 79q-71 0 -131 -25t-102 -69t-74 -100t-50.5 -122t-27.5 -131.5t-9 -130.5zM426 1333l18 142h134l-19 -142h-133zM786 1333l19 142h133l-18 -142h-134z" />
<glyph unicode="&#xe5;" horiz-adv-x="1243" d="M86 389q0 98 17.5 192t56.5 182.5t96 155.5t142.5 107.5t189.5 40.5q108 0 188.5 -44t120.5 -122h8l49 146h68q-127 -897 -127 -922q0 -51 47 -51t109 32l-13 -88q-59 -38 -129 -38q-63 0 -90.5 37t-27.5 96q0 18 2 28q-133 -161 -359 -161q-158 0 -253 101.5t-95 307.5z M190 395q0 -169 72 -245t197 -76q85 0 154 34.5t113.5 91.5t74.5 134t42.5 157t12.5 166q0 158 -74.5 237t-197.5 79q-71 0 -131 -25t-102 -69t-74 -100t-50.5 -122t-27.5 -131.5t-9 -130.5zM463 1315q0 99 72 166t167 67q76 0 127.5 -50.5t51.5 -125.5q0 -97 -70 -166 t-168 -69q-78 0 -129 50.5t-51 127.5zM537 1323q0 -49 33 -81t83 -32q61 0 107.5 45t46.5 107q0 49 -33.5 81t-81.5 32q-61 0 -108 -45.5t-47 -106.5z" />
<glyph unicode="&#xe6;" horiz-adv-x="1832" d="M80 227q0 73 20.5 130.5t54 97t90 67.5t115 44.5t143.5 25.5t160.5 11.5t180.5 2.5q22 169 22 193q0 96 -56.5 135t-186.5 39q-136 0 -225 -52t-103 -161l-4 -33h-103q3 35 5 53q20 134 144.5 210.5t299.5 76.5q295 0 332 -186q70 91 167 138.5t210 47.5 q159 0 256.5 -91.5t97.5 -256.5q0 -49 -23 -207h-741l-2 -16q-8 -49 -8 -103q0 -156 77 -237.5t205 -81.5q130 0 228 80t120 233h103q-27 -190 -158 -298.5t-307 -108.5q-134 0 -225.5 66t-126.5 190q-80 -132 -208 -194t-261 -62q-66 0 -116.5 11.5t-91.5 38.5t-63 76.5 t-22 120.5zM184 244q0 -89 51.5 -129.5t172.5 -40.5q69 0 135 22.5t124 66t99.5 115.5t54.5 164l10 70q-74 0 -125 -1t-113 -4t-103.5 -8.5t-88 -15t-76.5 -23.5t-59 -34t-45.5 -46t-26.5 -60t-10 -76zM950 606h637q10 74 10 103q0 128 -74 196t-192 68q-137 0 -240.5 -94.5 t-140.5 -272.5z" />
<glyph unicode="&#xe7;" horiz-adv-x="1118" d="M86 391q0 100 19.5 195.5t61.5 183t102 153.5t148 105t193 39q159 0 257 -91.5t98 -256.5q0 -49 -4 -76h-103q4 46 4 66q0 128 -74 196t-192 68q-106 0 -187.5 -52t-127.5 -138.5t-68.5 -185t-22.5 -204.5q0 -156 77.5 -237.5t205.5 -81.5q133 0 230.5 83.5t119.5 245.5 h103q-27 -198 -158 -310.5t-309 -112.5q-173 0 -273 107.5t-100 303.5zM221 -377l12 94q46 -26 138 -26q42 0 78 9.5t65 38.5t29 75q0 39 -32.5 60.5t-74.5 21.5h-45l10 69q43 0 72.5 -2t65.5 -10.5t57 -24t36 -44t15 -68.5q0 -63 -27.5 -108.5t-71.5 -68t-86.5 -32.5 t-84.5 -10q-91 0 -156 26z" />
<glyph unicode="&#xe8;" horiz-adv-x="1138" d="M84 391q0 99 19 194t60.5 183t101 154t148.5 105.5t195 39.5q159 0 257 -91.5t98 -256.5q0 -26 -7 -96.5t-16 -110.5h-741q-11 -73 -11 -119q0 -156 77.5 -237.5t205.5 -81.5q138 0 232 79t116 234h103q-27 -193 -153 -300t-312 -107q-173 0 -273 107.5t-100 303.5z M213 606h637q10 59 10 103q0 128 -74 196t-192 68q-137 0 -240.5 -94.5t-140.5 -272.5zM412 1468l2 7h133l153 -297h-102z" />
<glyph unicode="&#xe9;" horiz-adv-x="1138" d="M84 391q0 99 19 194t60.5 183t101 154t148.5 105.5t195 39.5q159 0 257 -91.5t98 -256.5q0 -26 -7 -96.5t-16 -110.5h-741q-11 -73 -11 -119q0 -156 77.5 -237.5t205.5 -81.5q138 0 232 79t116 234h103q-27 -193 -153 -300t-312 -107q-173 0 -273 107.5t-100 303.5z M213 606h637q10 59 10 103q0 128 -74 196t-192 68q-137 0 -240.5 -94.5t-140.5 -272.5zM571 1178l240 297h133l-2 -7l-268 -290h-103z" />
<glyph unicode="&#xea;" horiz-adv-x="1138" d="M84 391q0 99 19 194t60.5 183t101 154t148.5 105.5t195 39.5q159 0 257 -91.5t98 -256.5q0 -26 -7 -96.5t-16 -110.5h-741q-11 -73 -11 -119q0 -156 77.5 -237.5t205.5 -81.5q138 0 232 79t116 234h103q-27 -193 -153 -300t-312 -107q-173 0 -273 107.5t-100 303.5z M213 606h637q10 59 10 103q0 128 -74 196t-192 68q-137 0 -240.5 -94.5t-140.5 -272.5zM311 1178l318 297h119l231 -297h-123l-182 198l-240 -198h-123z" />
<glyph unicode="&#xeb;" horiz-adv-x="1138" d="M84 391q0 99 19 194t60.5 183t101 154t148.5 105.5t195 39.5q159 0 257 -91.5t98 -256.5q0 -26 -7 -96.5t-16 -110.5h-741q-11 -73 -11 -119q0 -156 77.5 -237.5t205.5 -81.5q138 0 232 79t116 234h103q-27 -193 -153 -300t-312 -107q-173 0 -273 107.5t-100 303.5z M213 606h637q10 59 10 103q0 128 -74 196t-192 68q-137 0 -240.5 -94.5t-140.5 -272.5zM414 1333l18 142h133l-18 -142h-133zM774 1333l19 142h133l-19 -142h-133z" />
<glyph unicode="&#xec;" horiz-adv-x="534" d="M193 1468l2 7h133l153 -297h-102zM225 0l146 1047h104l-145 -1047h-105z" />
<glyph unicode="&#xed;" horiz-adv-x="534" d="M88 0l145 1047h105l-145 -1047h-105zM240 1178l239 297h133l-2 -7l-268 -290h-102z" />
<glyph unicode="&#xee;" horiz-adv-x="534" d="M109 1178l317 297h119l231 -297h-123l-182 198l-240 -198h-122zM233 0l146 1047h104l-145 -1047h-105z" />
<glyph unicode="&#xef;" horiz-adv-x="534" d="M211 1333l18 142h133l-18 -142h-133zM238 0l145 1047h104l-145 -1047h-104zM571 1333l19 142h133l-18 -142h-134z" />
<glyph unicode="&#xf0;" horiz-adv-x="1179" d="M121 393q0 93 17.5 184.5t58.5 181t100.5 157t151 109.5t202.5 42q74 0 150 -27q-84 119 -201 230l-223 -103l-45 47l221 101q-38 32 -170 133l80 35q90 -61 176 -129l227 102l41 -47l-217 -98q336 -293 336 -660q0 -92 -17 -182.5t-57.5 -180t-99.5 -157t-150.5 -109.5 t-203.5 -42q-173 0 -275 108.5t-102 304.5zM223 399q0 -159 78.5 -242t208.5 -83q105 0 187.5 53t130 138.5t72 184t24.5 199.5q0 158 -79 241t-208 83q-90 0 -162 -35.5t-118.5 -92.5t-77 -133.5t-43.5 -154t-13 -158.5z" />
<glyph unicode="&#xf1;" horiz-adv-x="1214" d="M86 0l147 1047h70v-156q65 82 165 129t204 47q153 0 245.5 -79t92.5 -234q0 -35 -43 -338q-33 -235 -58 -416h-102q96 686 96 725q0 125 -65.5 186.5t-188.5 61.5q-138 0 -243 -94.5t-125 -235.5l-91 -643h-104zM311 1305q8 62 65 115t165 53q68 0 174 -33t159 -33 q51 0 80.5 15.5t44.5 50.5h76q-3 -27 -17 -54.5t-39.5 -54t-70.5 -43t-102 -16.5q-68 0 -174.5 32.5t-159.5 32.5q-51 0 -80.5 -15t-44.5 -50h-76z" />
<glyph unicode="&#xf2;" horiz-adv-x="1179" d="M84 393q0 101 19.5 196.5t62 182.5t103 152.5t149.5 104t196 38.5q173 0 275 -108.5t102 -305.5q0 -101 -19.5 -196t-62 -182.5t-103 -152.5t-149.5 -103.5t-196 -38.5q-173 0 -275 108.5t-102 304.5zM188 395q0 -157 78.5 -239t208.5 -82q85 0 155.5 33.5t117.5 89.5 t79 131t46 155.5t14 165.5q0 158 -79 241t-208 83q-107 0 -189 -52t-129 -137.5t-70.5 -184t-23.5 -204.5zM408 1468l2 7h133l153 -297h-102z" />
<glyph unicode="&#xf3;" horiz-adv-x="1179" d="M84 393q0 101 19.5 196.5t62 182.5t103 152.5t149.5 104t196 38.5q173 0 275 -108.5t102 -305.5q0 -101 -19.5 -196t-62 -182.5t-103 -152.5t-149.5 -103.5t-196 -38.5q-173 0 -275 108.5t-102 304.5zM188 395q0 -157 78.5 -239t208.5 -82q85 0 155.5 33.5t117.5 89.5 t79 131t46 155.5t14 165.5q0 158 -79 241t-208 83q-107 0 -189 -52t-129 -137.5t-70.5 -184t-23.5 -204.5zM621 1178l239 297h133l-2 -7l-268 -290h-102z" />
<glyph unicode="&#xf4;" horiz-adv-x="1179" d="M84 393q0 101 19.5 196.5t62 182.5t103 152.5t149.5 104t196 38.5q173 0 275 -108.5t102 -305.5q0 -101 -19.5 -196t-62 -182.5t-103 -152.5t-149.5 -103.5t-196 -38.5q-173 0 -275 108.5t-102 304.5zM188 395q0 -157 78.5 -239t208.5 -82q85 0 155.5 33.5t117.5 89.5 t79 131t46 155.5t14 165.5q0 158 -79 241t-208 83q-107 0 -189 -52t-129 -137.5t-70.5 -184t-23.5 -204.5zM332 1178l317 297h119l231 -297h-122l-183 198l-239 -198h-123z" />
<glyph unicode="&#xf5;" horiz-adv-x="1179" d="M84 393q0 101 19.5 196.5t62 182.5t103 152.5t149.5 104t196 38.5q173 0 275 -108.5t102 -305.5q0 -101 -19.5 -196t-62 -182.5t-103 -152.5t-149.5 -103.5t-196 -38.5q-173 0 -275 108.5t-102 304.5zM188 395q0 -157 78.5 -239t208.5 -82q85 0 155.5 33.5t117.5 89.5 t79 131t46 155.5t14 165.5q0 158 -79 241t-208 83q-107 0 -189 -52t-129 -137.5t-70.5 -184t-23.5 -204.5zM295 1307q8 62 64.5 115t164.5 53q68 0 174.5 -33t159.5 -33q51 0 80.5 15.5t44.5 50.5h76q-3 -27 -17 -54.5t-39.5 -54t-71 -43t-102.5 -16.5q-68 0 -174 32.5 t-159 32.5q-51 0 -80.5 -15t-44.5 -50h-76z" />
<glyph unicode="&#xf6;" horiz-adv-x="1179" d="M84 393q0 101 19.5 196.5t62 182.5t103 152.5t149.5 104t196 38.5q173 0 275 -108.5t102 -305.5q0 -101 -19.5 -196t-62 -182.5t-103 -152.5t-149.5 -103.5t-196 -38.5q-173 0 -275 108.5t-102 304.5zM188 395q0 -157 78.5 -239t208.5 -82q85 0 155.5 33.5t117.5 89.5 t79 131t46 155.5t14 165.5q0 158 -79 241t-208 83q-107 0 -189 -52t-129 -137.5t-70.5 -184t-23.5 -204.5zM434 1333l19 142h133l-19 -142h-133zM795 1333l18 142h133l-18 -142h-133z" />
<glyph unicode="&#xf7;" d="M84 463l18 119h1049l-18 -119h-1049zM498 145l18 142h133l-18 -142h-133zM584 758l18 141h133l-18 -141h-133z" />
<glyph unicode="&#xf8;" horiz-adv-x="1179" d="M31 -113l164 217q-86 109 -86 289q0 101 19.5 196.5t62 182.5t103 152.5t149.5 104t196 38.5q140 0 233 -72l129 170h93l-168 -221q90 -111 90 -291q0 -101 -19.5 -196t-62 -182.5t-103.5 -152.5t-150 -103.5t-196 -38.5q-143 0 -237 73l-125 -166h-92zM213 395 q0 -121 49 -202l547 718q-74 62 -184 62q-107 0 -189 -52t-129 -137.5t-70.5 -184t-23.5 -204.5zM311 135q73 -61 189 -61q85 0 155.5 33.5t117 89.5t78.5 131.5t46 155.5t14 165q0 130 -53 207z" />
<glyph unicode="&#xf9;" horiz-adv-x="1263" d="M119 291q0 42 25 231t50 357l25 168h105q-97 -643 -97 -725q0 -132 64.5 -190t189.5 -58q138 0 243.5 94t125.5 235l90 644h104q-129 -897 -129 -922q0 -51 48 -51q46 0 108 32l-12 -88q-59 -38 -129 -38q-63 0 -91 37t-28 96q0 15 4 43q-66 -83 -162.5 -129.5 t-199.5 -46.5q-153 0 -243.5 78t-90.5 233zM430 1468l2 7h133l154 -297h-103z" />
<glyph unicode="&#xfa;" horiz-adv-x="1263" d="M119 291q0 42 25 231t50 357l25 168h105q-97 -643 -97 -725q0 -132 64.5 -190t189.5 -58q138 0 243.5 94t125.5 235l90 644h104q-129 -897 -129 -922q0 -51 48 -51q46 0 108 32l-12 -88q-59 -38 -129 -38q-63 0 -91 37t-28 96q0 15 4 43q-66 -83 -162.5 -129.5 t-199.5 -46.5q-153 0 -243.5 78t-90.5 233zM592 1178l239 297h134l-2 -7l-269 -290h-102z" />
<glyph unicode="&#xfb;" horiz-adv-x="1263" d="M119 291q0 42 25 231t50 357l25 168h105q-97 -643 -97 -725q0 -132 64.5 -190t189.5 -58q138 0 243.5 94t125.5 235l90 644h104q-129 -897 -129 -922q0 -51 48 -51q46 0 108 32l-12 -88q-59 -38 -129 -38q-63 0 -91 37t-28 96q0 15 4 43q-66 -83 -162.5 -129.5 t-199.5 -46.5q-153 0 -243.5 78t-90.5 233zM303 1178l318 297h118l232 -297h-123l-182 198l-240 -198h-123z" />
<glyph unicode="&#xfc;" horiz-adv-x="1263" d="M119 291q0 42 25 231t50 357l25 168h105q-97 -643 -97 -725q0 -132 64.5 -190t189.5 -58q138 0 243.5 94t125.5 235l90 644h104q-129 -897 -129 -922q0 -51 48 -51q46 0 108 32l-12 -88q-59 -38 -129 -38q-63 0 -91 37t-28 96q0 15 4 43q-66 -83 -162.5 -129.5 t-199.5 -46.5q-153 0 -243.5 78t-90.5 233zM410 1333l18 142h133l-18 -142h-133zM770 1333l18 142h134l-19 -142h-133z" />
<glyph unicode="&#xfd;" horiz-adv-x="1044" d="M-39 -352l14 94q65 -29 107 -29q39 0 72 16t61 50t42 56.5t38 66.5l63 114l-272 1031h113l231 -891h8l484 891h102l-557 -1020q-14 -26 -42 -79t-41.5 -78t-39 -67t-42.5 -63t-43.5 -48.5t-50.5 -40.5t-55 -22.5t-65 -9.5q-65 0 -127 29zM510 1178l240 297h133l-2 -7 l-269 -290h-102z" />
<glyph unicode="&#xfe;" horiz-adv-x="1191" d="M35 -371l260 1846h102l-80 -572q136 164 359 164q158 0 253 -102t95 -308q0 -98 -17.5 -191.5t-56.5 -182.5t-96 -155.5t-142.5 -107t-189.5 -40.5q-109 0 -189 43.5t-120 121.5l-74 -516h-104zM252 389q0 -157 75 -236t199 -79q71 0 130 24t101.5 66.5t74.5 98t51 121.5 t28 133t9 136q0 167 -73 243.5t-196 76.5q-105 0 -185.5 -54t-125.5 -142.5t-66.5 -186.5t-21.5 -201z" />
<glyph unicode="&#xff;" horiz-adv-x="1044" d="M-39 -352l14 94q65 -29 107 -29q39 0 72 16t61 50t42 56.5t38 66.5l63 114l-272 1031h113l231 -891h8l484 891h102l-557 -1020q-14 -26 -42 -79t-41.5 -78t-39 -67t-42.5 -63t-43.5 -48.5t-50.5 -40.5t-55 -22.5t-65 -9.5q-65 0 -127 29zM334 1333l18 142h133l-18 -142 h-133zM694 1333l19 142h133l-19 -142h-133z" />
<glyph unicode="&#x152;" horiz-adv-x="2111" d="M180 467q0 92 23 262q22 164 67 288t104 200.5t137.5 124t158.5 65.5t176 18q144 0 247 -44.5t158 -151.5l27 176h868l-35 -98h-737l-76 -541h654l-15 -98h-653l-80 -570h756v-98h-881l31 180q-155 -200 -467 -200q-82 0 -148.5 13t-126.5 46.5t-100.5 87.5t-64 140 t-23.5 200zM289 475q0 -115 27.5 -195t79.5 -123t115 -61t146 -18q77 0 140.5 14.5t126.5 53.5t110.5 102t84.5 165t55 238q26 190 26 279q0 115 -28 195t-80.5 123t-115.5 61t-145 18q-77 0 -140 -14.5t-125.5 -53.5t-109 -102t-84 -165t-57.5 -238q-26 -175 -26 -279z" />
<glyph unicode="&#x153;" horiz-adv-x="1910" d="M123 393q0 101 19.5 196.5t62 182.5t103 152.5t149.5 104t196 38.5q131 0 224 -64.5t131 -185.5q145 250 419 250q159 0 257 -91.5t98 -256.5q0 -26 -7 -96.5t-16 -110.5h-741q-10 -66 -10 -119q0 -156 77 -237.5t205 -81.5q138 0 232 79t116 234h103q-27 -193 -153 -300 t-312 -107q-133 0 -224 64t-126 185q-146 -249 -426 -249q-173 0 -275 108.5t-102 304.5zM227 395q0 -157 78.5 -239t208.5 -82q85 0 155.5 33.5t117.5 89.5t79 131t46 155.5t14 165.5q0 158 -79 241t-208 83q-107 0 -189 -52t-129 -137.5t-70.5 -184t-23.5 -204.5z M1032 606h637q10 59 10 103q0 128 -74 196t-192 68q-137 0 -240.5 -94.5t-140.5 -272.5z" />
<glyph unicode="&#x178;" horiz-adv-x="1167" d="M100 1405h129l324 -748h10l543 748h113l-625 -860l-78 -545h-110l77 545zM430 1536l19 141h133l-19 -141h-133zM791 1536l18 141h133l-18 -141h-133z" />
<glyph unicode="&#x2c6;" horiz-adv-x="1097" d="M164 1178l317 297h119l231 -297h-122l-183 198l-239 -198h-123z" />
<glyph unicode="&#x2dc;" horiz-adv-x="745" d="M-16 1298q8 62 64.5 115t164.5 53q68 0 174.5 -32.5t159.5 -32.5q51 0 80.5 15t44.5 50h76q-3 -27 -17 -54.5t-39.5 -54t-71 -43t-102.5 -16.5q-68 0 -174.5 33t-159.5 33q-51 0 -80.5 -15.5t-44.5 -50.5h-75z" />
<glyph unicode="&#x2000;" horiz-adv-x="943" />
<glyph unicode="&#x2001;" horiz-adv-x="1886" />
<glyph unicode="&#x2002;" horiz-adv-x="943" />
<glyph unicode="&#x2003;" horiz-adv-x="1886" />
<glyph unicode="&#x2004;" horiz-adv-x="628" />
<glyph unicode="&#x2005;" horiz-adv-x="471" />
<glyph unicode="&#x2006;" horiz-adv-x="314" />
<glyph unicode="&#x2007;" horiz-adv-x="314" />
<glyph unicode="&#x2008;" horiz-adv-x="235" />
<glyph unicode="&#x2009;" horiz-adv-x="377" />
<glyph unicode="&#x200a;" horiz-adv-x="104" />
<glyph unicode="&#x2010;" horiz-adv-x="798" d="M123 485l16 127h518l-18 -127h-516z" />
<glyph unicode="&#x2011;" horiz-adv-x="798" d="M123 485l16 127h518l-18 -127h-516z" />
<glyph unicode="&#x2012;" horiz-adv-x="798" d="M123 485l16 127h518l-18 -127h-516z" />
<glyph unicode="&#x2013;" horiz-adv-x="1304" d="M123 489l16 119h1024l-18 -119h-1022z" />
<glyph unicode="&#x2014;" horiz-adv-x="2162" d="M129 489l16 117h1864l-18 -117h-1862z" />
<glyph unicode="&#x2018;" horiz-adv-x="458" d="M170 1057l16 119l93 229h69l-76 -207h50l-19 -141h-133z" />
<glyph unicode="&#x2019;" horiz-adv-x="446" d="M197 1057l75 207h-49l19 141h133l-17 -119l-92 -229h-69z" />
<glyph unicode="&#x201a;" horiz-adv-x="485" d="M49 -207l76 207h-49l18 141h133l-16 -118l-92 -230h-70z" />
<glyph unicode="&#x201c;" horiz-adv-x="749" d="M170 1057l16 119l93 229h69l-76 -207h50l-19 -141h-133zM373 1057l16 119l92 229h70l-76 -207h49l-18 -141h-133z" />
<glyph unicode="&#x201d;" horiz-adv-x="737" d="M197 1057l75 207h-49l19 141h133l-17 -119l-92 -229h-69zM399 1057l76 207h-49l18 141h134l-17 -119l-92 -229h-70z" />
<glyph unicode="&#x201e;" horiz-adv-x="776" d="M49 -207l76 207h-49l18 141h133l-16 -118l-92 -230h-70zM252 -207l76 207h-49l18 141h133l-16 -118l-92 -230h-70z" />
<glyph unicode="&#x2022;" horiz-adv-x="1228" d="M336 664q0 138 91.5 233.5t238.5 95.5q110 0 182 -72t72 -180q0 -130 -92 -227.5t-242 -97.5q-107 0 -178.5 71.5t-71.5 176.5z" />
<glyph unicode="&#x2026;" horiz-adv-x="1503" d="M59 0l19 141h133l-18 -141h-134zM496 0l18 141h133l-18 -141h-133zM930 0l18 141h133l-18 -141h-133z" />
<glyph unicode="&#x202f;" horiz-adv-x="377" />
<glyph unicode="&#x2039;" horiz-adv-x="565" d="M113 690l301 357h84l-248 -357l147 -356h-84z" />
<glyph unicode="&#x203a;" horiz-adv-x="569" d="M76 334l250 356l-150 357h84l203 -357l-303 -356h-84z" />
<glyph unicode="&#x205f;" horiz-adv-x="471" />
<glyph unicode="&#x20ac;" horiz-adv-x="1150" d="M47 506l14 98h195q10 134 25 184h-195l14 99h209q86 239 283.5 388.5t454.5 149.5q67 0 116 -8l-14 -102q-55 12 -117 12q-214 0 -374 -121t-236 -319h459l-15 -99h-475q-24 -88 -24 -184h475l-15 -98h-456q24 -196 149.5 -314t335.5 -118q57 0 119 10l-12 -94 q-68 -10 -119 -10q-256 0 -409.5 145t-174.5 381h-213z" />
<glyph unicode="&#x2122;" horiz-adv-x="1839" d="M188 1327l11 78h612l-10 -78h-262l-103 -735h-86l103 735h-265zM739 592l113 813h117l205 -696l403 696h115l-113 -813h-84l92 692q-69 -120 -208.5 -355t-198.5 -337h-62l-209 684l-96 -684h-74z" />
<glyph unicode="&#x25fc;" horiz-adv-x="1044" d="M0 0v1044h1044v-1044h-1044z" />
</font>
</defs>
</svg>
