<?xml version="1.0" encoding="UTF-8" standalone="no"?>
<svg width="1024px" height="400px" viewBox="0 0 1024 400" version="1.1" xmlns="http://www.w3.org/2000/svg" xmlns:xlink="http://www.w3.org/1999/xlink">
    <!-- Generator: Sketch 3.6.1 (26313) - http://www.bohemiancoding.com/sketch -->
    <title>banner-device</title>
    <desc>Created with Sketch.</desc>
    <defs>
        <rect id="path-1" x="0" y="0" width="1024" height="400"></rect>
    </defs>
    <g id="Page-1" stroke="none" stroke-width="1" fill="none" fill-rule="evenodd">
        <g id="banner-device">
            <mask id="mask-2" fill="white">
                <use xlink:href="#path-1"></use>
            </mask>
            <g id="Rectangle-1">
                <use fill="none" xlink:href="#path-1"></use>
                <use fill="#FFF568" xlink:href="#path-1"></use>
            </g>
            <g id="art_palette" mask="url(#mask-2)">
                <g transform="translate(443.000000, 129.000000)" id="Capa_1">
                    <g>
                        <path d="M67.8416667,0.916912752 C65.5083333,0.916912752 64.1666667,1.03355705 64.1666667,1.03355705 C64.1666667,1.03355705 0,6.86577181 0,76.852349 C0,76.852349 0,117.677852 23.3333333,117.677852 C43.75,117.677852 46.3166667,86.4171812 58.3333333,86.4171812 C60.0833333,86.4171812 61.95,87.0587248 64.1666667,88.5167785 C81.6666667,100.181208 23.3333333,117.677852 40.8333333,135.174497 C45.4416667,139.781946 54.6,142.406443 65.5083333,142.406443 C95.9,142.406443 140,122.460268 140,71.0201342 C140,5.29107383 83.0666667,0.916912752 67.8416667,0.916912752 L67.8416667,0.916912752 Z M65.5083333,136.574228 C56.2333333,136.574228 48.3583333,134.474631 44.975,131.033624 C43.2833333,129.342282 43.3416667,128.350805 43.3416667,128.059195 C43.6333333,124.034966 51.7416667,117.677852 57.6916667,113.012081 C66.2083333,106.305034 73.6166667,100.589463 73.325,93.065906 C73.2083333,90.4997315 72.1,86.8254362 67.4333333,83.6760403 C64.3416667,81.6347651 61.3083333,80.5849664 58.3333333,80.5849664 C49.7583333,80.5849664 45.2083333,88.4642886 40.7166667,96.0403356 C35.175,105.605168 30.975,111.845638 23.3333333,111.845638 C6.35833333,111.845638 5.83333333,77.2022819 5.83333333,76.852349 C5.83333333,13.1645638 62.3,7.0990604 64.6333333,6.86577181 C64.6916667,6.86577181 65.8583333,6.74912752 67.8416667,6.74912752 C83.4166667,6.74912752 134.166667,11.4148993 134.166667,71.0201342 C134.166667,119.135906 93.1,136.574228 65.5083333,136.574228 L65.5083333,136.574228 Z" id="Shape" fill="#303030"></path>
                        <path d="M65.5083333,136.574228 C56.2333333,136.574228 48.3583333,134.474631 44.975,131.033624 C43.2833333,129.342282 43.3416667,128.350805 43.3416667,128.059195 C43.6333333,124.034966 51.7416667,117.677852 57.6916667,113.012081 C66.2083333,106.305034 73.6166667,100.589463 73.325,93.065906 C73.2083333,90.4997315 72.1,86.8254362 67.4333333,83.6760403 C64.3416667,81.6347651 61.3083333,80.5849664 58.3333333,80.5849664 C49.7583333,80.5849664 45.2083333,88.4642886 40.7166667,96.0403356 C35.175,105.605168 30.975,111.845638 23.3333333,111.845638 C6.35833333,111.845638 5.83333333,77.2022819 5.83333333,76.852349 C5.83333333,13.1645638 62.3,7.0990604 64.6333333,6.86577181 C64.6916667,6.86577181 65.8583333,6.74912752 67.8416667,6.74912752 C83.4166667,6.74912752 134.166667,11.4148993 134.166667,71.0201342 C134.166667,119.135906 93.1,136.574228 65.5083333,136.574228 L65.5083333,136.574228 Z" id="Path" fill="#FFFFFF"></path>
                        <path d="M122.908333,31.1277852 C107.333333,19.8132886 88.0833333,18.413557 79.5083333,18.413557 C77.525,18.413557 76.3583333,18.5302013 76.3,18.5302013 C73.9666667,18.7634899 17.5,24.8289933 17.5,88.5167785 C17.5,88.7500671 17.675,101.639262 21.7,111.728993 C22.225,111.787315 22.75,111.845638 23.3333333,111.845638 C30.975,111.845638 35.175,105.605168 40.7166667,96.0403356 C45.2083333,88.4584564 49.7583333,80.5849664 58.3333333,80.5849664 C61.3083333,80.5849664 64.3416667,81.6405973 67.4333333,83.6760403 C71.8666667,86.7146242 73.0916667,90.1497987 73.2666667,92.7159732 C73.325,92.8384497 73.325,92.9492617 73.325,93.0717383 C73.6166667,100.595295 66.2083333,106.310866 57.6916667,113.017913 C51.7416667,117.683685 43.6333333,124.040799 43.3416667,128.065027 C43.3416667,128.356638 43.2833333,129.348114 44.975,131.039456 C47.25,133.372342 51.5083333,135.063685 56.9333333,135.880195 C59.5583333,136.346772 62.475,136.58006 65.5083333,136.58006 C93.1,136.574228 134.166667,119.135906 134.166667,71.0201342 C134.166667,53.2902013 129.675,40.4010067 122.908333,31.1277852 L122.908333,31.1277852 Z M52.5,53.5234899 C46.0833333,53.5234899 40.8333333,48.2744966 40.8333333,41.8590604 C40.8333333,35.4436242 46.0833333,30.1946309 52.5,30.1946309 C58.9166667,30.1946309 64.1666667,35.4436242 64.1666667,41.8590604 C64.1666667,48.2744966 58.9166667,53.5234899 52.5,53.5234899 L52.5,53.5234899 Z M99.1666667,106.013423 C92.75,106.013423 87.5,100.76443 87.5,94.3489933 C87.5,87.933557 92.75,82.6845638 99.1666667,82.6845638 C105.583333,82.6845638 110.833333,87.933557 110.833333,94.3489933 C110.833333,100.76443 105.583333,106.013423 99.1666667,106.013423 L99.1666667,106.013423 Z M99.1666667,59.3557047 C92.75,59.3557047 87.5,54.1067114 87.5,47.6912752 C87.5,41.2758389 92.75,36.0268456 99.1666667,36.0268456 C105.583333,36.0268456 110.833333,41.2758389 110.833333,47.6912752 C110.833333,54.1067114 105.583333,59.3557047 99.1666667,59.3557047 L99.1666667,59.3557047 Z" id="Shape" fill="#FFF568"></path>
                        <path d="M23.3333333,65.1879195 C16.9166667,65.1879195 11.6666667,70.4369128 11.6666667,76.852349 C11.6666667,83.2677852 16.9166667,88.5167785 23.3333333,88.5167785 C29.75,88.5167785 35,83.2677852 35,76.852349 C35,70.4369128 29.75,65.1879195 23.3333333,65.1879195 L23.3333333,65.1879195 Z M23.3333333,82.6845638 C20.125,82.6845638 17.5,80.0600671 17.5,76.852349 C17.5,73.6446309 20.125,71.0201342 23.3333333,71.0201342 C26.5416667,71.0201342 29.1666667,73.6446309 29.1666667,76.852349 C29.1666667,80.0600671 26.5416667,82.6845638 23.3333333,82.6845638 L23.3333333,82.6845638 Z" id="Shape" fill="#303030"></path>
                        <ellipse id="Oval" fill="#31CFFF" cx="23.3333333" cy="76.852349" rx="5.83333333" ry="5.83221477"></ellipse>
                        <path d="M52.5,24.3624161 C42.8166667,24.3624161 35,32.1775839 35,41.8590604 C35,51.5405369 42.8166667,59.3557047 52.5,59.3557047 C62.1833333,59.3557047 70,51.5405369 70,41.8590604 C70,32.1775839 62.1833333,24.3624161 52.5,24.3624161 L52.5,24.3624161 Z M52.5,53.5234899 C46.0833333,53.5234899 40.8333333,48.2744966 40.8333333,41.8590604 C40.8333333,35.4436242 46.0833333,30.1946309 52.5,30.1946309 C58.9166667,30.1946309 64.1666667,35.4436242 64.1666667,41.8590604 C64.1666667,48.2744966 58.9166667,53.5234899 52.5,53.5234899 L52.5,53.5234899 Z" id="Shape" fill="#303030"></path>
                        <path d="M64.1666667,41.8590604 C64.1666667,48.2744966 58.9166667,53.5234899 52.5,53.5234899 C50.8083333,53.5234899 49.175,53.173557 47.7166667,52.4736913 C47.0166667,51.0156376 46.6666667,49.3826174 46.6666667,47.6912752 C46.6666667,41.2758389 51.9166667,36.0268456 58.3333333,36.0268456 C60.025,36.0268456 61.6583333,36.3767785 63.1166667,37.0766443 C63.8166667,38.534698 64.1666667,40.1677181 64.1666667,41.8590604 L64.1666667,41.8590604 Z" id="Shape" fill="#E371FF"></path>
                        <path d="M99.1666667,30.1946309 C89.4833333,30.1946309 81.6666667,38.0097987 81.6666667,47.6912752 C81.6666667,57.3727517 89.4833333,65.1879195 99.1666667,65.1879195 C108.85,65.1879195 116.666667,57.3727517 116.666667,47.6912752 C116.666667,38.0097987 108.85,30.1946309 99.1666667,30.1946309 L99.1666667,30.1946309 Z M99.1666667,59.3557047 C92.75,59.3557047 87.5,54.1067114 87.5,47.6912752 C87.5,41.2758389 92.75,36.0268456 99.1666667,36.0268456 C105.583333,36.0268456 110.833333,41.2758389 110.833333,47.6912752 C110.833333,54.1067114 105.583333,59.3557047 99.1666667,59.3557047 L99.1666667,59.3557047 Z" id="Shape" fill="#303030"></path>
                        <path d="M110.833333,47.6912752 C110.833333,54.1067114 105.583333,59.3557047 99.1666667,59.3557047 C97.475,59.3557047 95.8416667,59.0057718 94.3833333,58.305906 C93.6833333,56.8478523 93.3333333,55.2148322 93.3333333,53.5234899 C93.3333333,47.1080537 98.5833333,41.8590604 105,41.8590604 C106.691667,41.8590604 108.325,42.2089933 109.783333,42.9088591 C110.483333,44.3669128 110.833333,45.9999329 110.833333,47.6912752 L110.833333,47.6912752 Z" id="Shape" fill="#FF6B43"></path>
                        <path d="M99.1666667,76.852349 C89.4833333,76.852349 81.6666667,84.6675168 81.6666667,94.3489933 C81.6666667,104.03047 89.4833333,111.845638 99.1666667,111.845638 C108.85,111.845638 116.666667,104.03047 116.666667,94.3489933 C116.666667,84.6675168 108.85,76.852349 99.1666667,76.852349 L99.1666667,76.852349 Z M99.1666667,106.013423 C92.75,106.013423 87.5,100.76443 87.5,94.3489933 C87.5,87.933557 92.75,82.6845638 99.1666667,82.6845638 C105.583333,82.6845638 110.833333,87.933557 110.833333,94.3489933 C110.833333,100.76443 105.583333,106.013423 99.1666667,106.013423 L99.1666667,106.013423 Z" id="Shape" fill="#303030"></path>
                        <path d="M110.833333,94.3489933 C110.833333,100.76443 105.583333,106.013423 99.1666667,106.013423 C97.475,106.013423 95.8416667,105.66349 94.3833333,104.963624 C93.6833333,103.50557 93.3333333,101.87255 93.3333333,100.181208 C93.3333333,93.7657718 98.5833333,88.5167785 105,88.5167785 C106.691667,88.5167785 108.325,88.8667114 109.783333,89.5665772 C110.483333,91.0246309 110.833333,92.657651 110.833333,94.3489933 L110.833333,94.3489933 Z" id="Shape" fill="#FFA28D"></path>
                    </g>
                </g>
            </g>
        </g>
    </g>
</svg>