<?xml version="1.0" encoding="UTF-8" standalone="no"?>
<svg width="1024px" height="400px" viewBox="0 0 1024 400" version="1.1" xmlns="http://www.w3.org/2000/svg" xmlns:xlink="http://www.w3.org/1999/xlink">
    <!-- Generator: Sketch 3.6.1 (26313) - http://www.bohemiancoding.com/sketch -->
    <title>Group 4</title>
    <desc>Created with Sketch.</desc>
    <defs>
        <rect id="path-1" x="0" y="0" width="1024" height="400"></rect>
    </defs>
    <g id="Page-1" stroke="none" stroke-width="1" fill="none" fill-rule="evenodd">
        <g id="Group-4">
            <g id="banner-device">
                <mask id="mask-2" fill="white">
                    <use xlink:href="#path-1"></use>
                </mask>
                <g id="Rectangle-1">
                    <use fill="none" xlink:href="#path-1"></use>
                    <use fill="#FFF568" xlink:href="#path-1"></use>
                </g>
            </g>
            <g id="lightbulb_idea" transform="translate(439.000000, 127.000000)">
                <g id="Capa_1">
                    <path d="M140.785714,112.107143 C140.785714,113.567143 139.638571,114.714286 138.178571,114.714286 L135.571429,114.714286 L135.571429,117.321429 C135.571429,118.781429 134.424286,119.928571 132.964286,119.928571 C131.504286,119.928571 130.357143,118.781429 130.357143,117.321429 L130.357143,114.714286 L127.75,114.714286 C126.29,114.714286 125.142857,113.567143 125.142857,112.107143 C125.142857,110.647143 126.29,109.5 127.75,109.5 L130.357143,109.5 L130.357143,106.892857 C130.357143,105.432857 131.504286,104.285714 132.964286,104.285714 C134.424286,104.285714 135.571429,105.432857 135.571429,106.892857 L135.571429,109.5 L138.178571,109.5 C139.638571,109.5 140.785714,110.647143 140.785714,112.107143 L140.785714,112.107143 Z" id="Shape" fill="#FFFFFF"></path>
                    <path d="M31.2857143,117.321429 C31.2857143,118.781429 30.1385714,119.928571 28.6785714,119.928571 L20.8571429,119.928571 L20.8571429,127.75 C20.8571429,129.21 19.71,130.357143 18.25,130.357143 C16.79,130.357143 15.6428571,129.21 15.6428571,127.75 L15.6428571,119.928571 L7.82142857,119.928571 C6.36142857,119.928571 5.21428571,118.781429 5.21428571,117.321429 C5.21428571,115.861429 6.36142857,114.714286 7.82142857,114.714286 L15.6428571,114.714286 L15.6428571,106.892857 C15.6428571,105.432857 16.79,104.285714 18.25,104.285714 C19.71,104.285714 20.8571429,105.432857 20.8571429,106.892857 L20.8571429,114.714286 L28.6785714,114.714286 C30.1385714,114.714286 31.2857143,115.861429 31.2857143,117.321429 L31.2857143,117.321429 Z" id="Shape" fill="#FFFFFF"></path>
                    <path d="M146,18.25 C146,19.71 144.852857,20.8571429 143.392857,20.8571429 L135.571429,20.8571429 L135.571429,28.6785714 C135.571429,30.1385714 134.424286,31.2857143 132.964286,31.2857143 C131.504286,31.2857143 130.357143,30.1385714 130.357143,28.6785714 L130.357143,20.8571429 L122.535714,20.8571429 C121.075714,20.8571429 119.928571,19.71 119.928571,18.25 C119.928571,16.79 121.075714,15.6428571 122.535714,15.6428571 L130.357143,15.6428571 L130.357143,7.82142857 C130.357143,6.36142857 131.504286,5.21428571 132.964286,5.21428571 C134.424286,5.21428571 135.571429,6.36142857 135.571429,7.82142857 L135.571429,15.6428571 L143.392857,15.6428571 C144.852857,15.6428571 146,16.79 146,18.25 L146,18.25 Z" id="Shape" fill="#FFFFFF"></path>
                    <path d="M26.0714286,18.25 C26.0714286,19.71 24.9242857,20.8571429 23.4642857,20.8571429 L20.8571429,20.8571429 L20.8571429,23.4642857 C20.8571429,24.9242857 19.71,26.0714286 18.25,26.0714286 C16.79,26.0714286 15.6428571,24.9242857 15.6428571,23.4642857 L15.6428571,20.8571429 L13.0357143,20.8571429 C11.5757143,20.8571429 10.4285714,19.71 10.4285714,18.25 C10.4285714,16.79 11.5757143,15.6428571 13.0357143,15.6428571 L15.6428571,15.6428571 L15.6428571,13.0357143 C15.6428571,11.5757143 16.79,10.4285714 18.25,10.4285714 C19.71,10.4285714 20.8571429,11.5757143 20.8571429,13.0357143 L20.8571429,15.6428571 L23.4642857,15.6428571 C24.9242857,15.6428571 26.0714286,16.79 26.0714286,18.25 L26.0714286,18.25 Z" id="Shape" fill="#FFFFFF"></path>
                    <path d="M109.291429,45.5207143 C109.187143,44.2692857 108.978571,43.0178571 108.717857,41.8185714 L108.717857,41.7142857 C106.527857,30.6078571 99.5407143,21.17 90.0507143,15.6428571 C89.3207143,15.1735714 88.5437857,14.8085714 87.7616429,14.4435714 C86.5623571,13.8178571 85.3630714,13.2964286 84.1116429,12.8271429 C82.3909286,12.2014286 80.6180714,11.6278571 78.7930714,11.2628571 C77.7502143,11.0021429 76.7073571,10.8457143 75.6592857,10.6892857 L75.6071429,10.6892857 C56.4707143,13.2442857 41.7142857,29.6171429 41.7142857,49.4314286 C41.7142857,56.575 43.5914286,63.2492857 46.9285714,68.985 C50.3178571,74.8771429 56.8878571,84.68 62.5714286,92.9707143 L62.5714286,62.1021429 C61.7371429,62.3628571 60.9028571,62.5714286 59.9642857,62.5714286 C55.6364286,62.5714286 52.1428571,59.0778571 52.1428571,54.75 C52.1428571,50.4221429 55.6364286,46.9285714 59.9642857,46.9285714 C64.2921429,46.9285714 67.7857143,50.4221429 67.7857143,54.75 L67.7857143,99.0714286 L73,99.0714286 L73,54.75 C73,50.4221429 76.4935714,46.9285714 80.8214286,46.9285714 C84.3671429,46.9285714 87.3392857,49.275 88.2778571,52.5078571 C91.5107143,53.4464286 93.8571429,56.4185714 93.8571429,59.9642857 C93.8571429,64.2921429 90.3635714,67.7857143 86.0357143,67.7857143 C85.0971429,67.7857143 84.2628571,67.6292857 83.4285714,67.3164286 L83.4285714,99.0714286 L84.4192857,99.0714286 C88.3821429,93.3878571 93.5442857,85.8271429 97.9242857,79.1528571 C98.4457143,78.4228571 98.9097857,77.6928571 99.3321429,76.9628571 C101.313571,73.9385714 103.034286,71.175 104.285714,68.985 C107.622857,63.2492857 109.5,56.575 109.5,49.4314286 C109.5,48.0757143 109.447857,46.8242857 109.291429,45.5207143 L109.291429,45.5207143 Z" id="Shape" fill="#FFFFFF"></path>
                    <g id="Group" transform="translate(67.785714, 20.857143)">
                        <path d="M36.6564286,0 L29.2,0 C33.8459286,4.22357143 37.3864286,9.59428571 39.4773571,15.6428571 L45.0514286,15.6428571 C43.3307143,9.855 40.4628571,4.53642857 36.6564286,0 L36.6564286,0 Z" id="Shape" fill="#2D2220"></path>
                        <path d="M15.6428571,83.4285714 L15.6428571,88.6428571 L0,88.6428571 L0,83.4285714 L15.6428571,83.4285714 L15.6428571,83.4285714 Z" id="Shape" fill="#BCBCBC"></path>
                        <rect id="Rectangle-path" fill="#BCBCBC" x="0" y="93.8571429" width="15.6428571" height="5.21428571"></rect>
                        <path d="M0,104.285714 L15.6428571,104.285714 L15.6428571,109.239286 C15.6428571,112.941429 11.68,116.487143 7.82142857,118.416429 C3.96285714,116.487143 0,112.941429 0,109.239286 L0,104.285714 L0,104.285714 Z" id="Shape" fill="#BCBCBC"></path>
                    </g>
                    <path d="M135.571429,106.892857 C135.571429,108.352857 134.424286,109.5 132.964286,109.5 L130.357143,109.5 L130.357143,112.107143 C130.357143,113.567143 129.21,114.714286 127.75,114.714286 C126.29,114.714286 125.142857,113.567143 125.142857,112.107143 L125.142857,109.5 L122.535714,109.5 C121.075714,109.5 119.928571,108.352857 119.928571,106.892857 C119.928571,105.432857 121.075714,104.285714 122.535714,104.285714 L125.142857,104.285714 L125.142857,101.678571 C125.142857,100.218571 126.29,99.0714286 127.75,99.0714286 C129.21,99.0714286 130.357143,100.218571 130.357143,101.678571 L130.357143,104.285714 L132.964286,104.285714 C134.424286,104.285714 135.571429,105.432857 135.571429,106.892857 L135.571429,106.892857 Z" id="Shape" fill="#2D2220"></path>
                    <path d="M26.0714286,112.107143 C26.0714286,113.567143 24.9242857,114.714286 23.4642857,114.714286 L15.6428571,114.714286 L15.6428571,122.535714 C15.6428571,123.995714 14.4957143,125.142857 13.0357143,125.142857 C11.5757143,125.142857 10.4285714,123.995714 10.4285714,122.535714 L10.4285714,114.714286 L2.60714286,114.714286 C1.14714286,114.714286 0,113.567143 0,112.107143 C0,110.647143 1.14714286,109.5 2.60714286,109.5 L10.4285714,109.5 L10.4285714,101.678571 C10.4285714,100.218571 11.5757143,99.0714286 13.0357143,99.0714286 C14.4957143,99.0714286 15.6428571,100.218571 15.6428571,101.678571 L15.6428571,109.5 L23.4642857,109.5 C24.9242857,109.5 26.0714286,110.647143 26.0714286,112.107143 L26.0714286,112.107143 Z" id="Shape" fill="#2D2220"></path>
                    <path d="M140.785714,13.0357143 C140.785714,14.4957143 139.638571,15.6428571 138.178571,15.6428571 L130.357143,15.6428571 L130.357143,23.4642857 C130.357143,24.9242857 129.21,26.0714286 127.75,26.0714286 C126.29,26.0714286 125.142857,24.9242857 125.142857,23.4642857 L125.142857,15.6428571 L117.321429,15.6428571 C115.861429,15.6428571 114.714286,14.4957143 114.714286,13.0357143 C114.714286,11.5757143 115.861429,10.4285714 117.321429,10.4285714 L125.142857,10.4285714 L125.142857,2.60714286 C125.142857,1.14714286 126.29,0 127.75,0 C129.21,0 130.357143,1.14714286 130.357143,2.60714286 L130.357143,10.4285714 L138.178571,10.4285714 C139.638571,10.4285714 140.785714,11.5757143 140.785714,13.0357143 L140.785714,13.0357143 Z" id="Shape" fill="#2D2220"></path>
                    <path d="M20.8571429,13.0357143 C20.8571429,14.4957143 19.71,15.6428571 18.25,15.6428571 L15.6428571,15.6428571 L15.6428571,18.25 C15.6428571,19.71 14.4957143,20.8571429 13.0357143,20.8571429 C11.5757143,20.8571429 10.4285714,19.71 10.4285714,18.25 L10.4285714,15.6428571 L7.82142857,15.6428571 C6.36142857,15.6428571 5.21428571,14.4957143 5.21428571,13.0357143 C5.21428571,11.5757143 6.36142857,10.4285714 7.82142857,10.4285714 L10.4285714,10.4285714 L10.4285714,7.82142857 C10.4285714,6.36142857 11.5757143,5.21428571 13.0357143,5.21428571 C14.4957143,5.21428571 15.6428571,6.36142857 15.6428571,7.82142857 L15.6428571,10.4285714 L18.25,10.4285714 C19.71,10.4285714 20.8571429,11.5757143 20.8571429,13.0357143 L20.8571429,13.0357143 Z" id="Shape" fill="#2D2220"></path>
                    <path d="M108.822143,71.3314286 C112.576429,64.8135714 114.714286,57.2528571 114.714286,49.2228571 C114.714286,46.6678571 114.505714,44.165 114.088571,41.7142857 L108.717857,41.7142857 C109.239286,44.2171429 109.5,46.7721429 109.5,49.4314286 C109.5,56.575 107.622857,63.2492857 104.285714,68.985 C100.01,76.3892857 90.6764286,90.0507143 84.4192857,99.0714286 L78.2142857,99.0714286 L78.2142857,62.1021429 C79.0485714,62.3628571 79.8828571,62.5714286 80.8214286,62.5714286 C85.1492857,62.5714286 88.6428571,59.0778571 88.6428571,54.75 C88.6428571,50.4221429 85.1492857,46.9285714 80.8214286,46.9285714 C76.4935714,46.9285714 73,50.4221429 73,54.75 L73,99.0714286 L67.7857143,99.0714286 L67.7857143,54.75 C67.7857143,50.4221429 64.2921429,46.9285714 59.9642857,46.9285714 C55.6364286,46.9285714 52.1428571,50.4221429 52.1428571,54.75 C52.1428571,59.0778571 55.6364286,62.5714286 59.9642857,62.5714286 C60.9028571,62.5714286 61.7371429,62.3628571 62.5714286,62.1021429 L62.5714286,99.0714286 L56.3664286,99.0714286 C50.1092857,90.0507143 40.7757143,76.3892857 36.5,68.985 C33.1628571,63.2492857 31.2857143,56.575 31.2857143,49.4314286 C31.2857143,27.8442857 48.8057143,10.3242857 70.3928571,10.3242857 C77.5364286,10.3242857 84.2107143,12.2535714 89.9464286,15.6428571 L99.28,15.6428571 C91.5107143,8.91642857 81.395,4.90142857 70.3928571,4.90142857 C45.9378571,4.90142857 26.0714286,24.7678571 26.0714286,49.2228571 C26.0714286,57.2528571 28.2092857,64.8135714 31.9635714,71.3314286 C36.3435714,78.84 45.2078571,92.2928571 52.1428571,102.565 L52.1428571,109.5 L49.5357143,109.5 C48.0757143,109.5 46.9285714,110.647143 46.9285714,112.107143 C46.9285714,113.567143 48.0757143,114.714286 49.5357143,114.714286 L52.1428571,114.714286 L52.1428571,119.928571 L49.5357143,119.928571 C48.0757143,119.928571 46.9285714,121.075714 46.9285714,122.535714 C46.9285714,123.995714 48.0757143,125.142857 49.5357143,125.142857 L52.1428571,125.142857 L52.1428571,130.096429 C52.1428571,138.178571 64.0835714,146 70.3928571,146 C76.7021429,146 88.6428571,138.178571 88.6428571,130.096429 L88.6428571,125.142857 L91.25,125.142857 C92.71,125.142857 93.8571429,123.995714 93.8571429,122.535714 C93.8571429,121.075714 92.71,119.928571 91.25,119.928571 L88.6428571,119.928571 L88.6428571,114.714286 L91.25,114.714286 C92.71,114.714286 93.8571429,113.567143 93.8571429,112.107143 C93.8571429,110.647143 92.71,109.5 91.25,109.5 L88.6428571,109.5 L88.6428571,102.565 C95.5778571,92.2928571 104.442143,78.84 108.822143,71.3314286 L108.822143,71.3314286 Z M80.8214286,52.0907143 C82.2292857,52.0907143 83.3764286,53.29 83.3764286,54.6978571 C83.3764286,56.1578571 82.2240714,57.305 80.8214286,57.305 C79.4187857,57.305 78.2664286,56.1578571 78.2664286,54.6978571 C78.2664286,53.29 79.4135714,52.0907143 80.8214286,52.0907143 L80.8214286,52.0907143 Z M59.9642857,57.3571429 C58.5564286,57.3571429 57.4092857,56.1578571 57.4092857,54.75 C57.4092857,53.29 58.5564286,52.1428571 59.9642857,52.1428571 C61.3721429,52.1428571 62.5192857,53.29 62.5192857,54.75 C62.5192857,56.1578571 61.3721429,57.3571429 59.9642857,57.3571429 L59.9642857,57.3571429 Z M83.4285714,130.096429 C83.4285714,133.798571 79.4657143,137.344286 75.6071429,139.273571 C73.73,140.212143 71.8528571,140.785714 70.3928571,140.785714 C66.065,140.785714 57.3571429,135.571429 57.3571429,130.096429 L57.3571429,125.142857 L83.4285714,125.142857 L83.4285714,130.096429 L83.4285714,130.096429 Z M83.4285714,119.928571 L57.3571429,119.928571 L57.3571429,114.714286 L83.4285714,114.714286 L83.4285714,119.928571 L83.4285714,119.928571 Z M83.4285714,109.5 L57.3571429,109.5 L57.3571429,104.285714 L83.4285714,104.285714 L83.4285714,109.5 L83.4285714,109.5 Z" id="Shape" fill="#2D2220"></path>
                </g>
            </g>
        </g>
    </g>
</svg>