<?xml version="1.0" encoding="UTF-8" standalone="no"?>
<svg width="1024px" height="400px" viewBox="0 0 1024 400" version="1.1" xmlns="http://www.w3.org/2000/svg" xmlns:xlink="http://www.w3.org/1999/xlink">
    <!-- Generator: Sketch 3.6.1 (26313) - http://www.bohemiancoding.com/sketch -->
    <title>banner-device</title>
    <desc>Created with Sketch.</desc>
    <defs>
        <rect id="path-1" x="0" y="0" width="1024" height="400"></rect>
    </defs>
    <g id="Page-1" stroke="none" stroke-width="1" fill="none" fill-rule="evenodd">
        <g id="Group-4">
            <g id="banner-device">
                <mask id="mask-2" fill="white">
                    <use xlink:href="#path-1"></use>
                </mask>
                <g id="Rectangle-1">
                    <use fill="none" xlink:href="#path-1"></use>
                    <use fill="#FFF568" xlink:href="#path-1"></use>
                </g>
                <g id="thumbs_up" mask="url(#mask-2)">
                    <g transform="translate(449.000000, 118.000000)" id="Capa_1">
                        <g>
                            <path d="M125.46,93.732049 C124.38,97.4247184 121.56,100.402678 117.96,101.65342 C118.08,101.832098 118.2,102.129894 118.26,102.308571 L92.28,102.308571 C89.28,102.308571 89.28,108.26449 92.28,108.26449 L114,108.26449 C116.52,108.26449 118.68,109.69391 119.58,111.8976 C118.62,115.947624 116.04,119.276983 111.906,120.176327 L86.28,120.176327 C83.28,120.176327 83.28,126.132245 86.28,126.132245 L110.28,126.132245 C110.406,126.132245 112.74,126.072686 113.646,129.169763 L113.646,129.229322 C111.3,133.761776 104.646,137.091135 99.36,137.990478 C94.86,138.764748 93.966,139.479458 90.3,140.194168 C81.36,141.855869 71.46,143.344849 59.1,143.821322 C58.44,143.886838 57.72,143.886838 57,143.886838 L56.82,143.886838 C35.94,143.821322 24,131.975001 24,131.975001 L24,87.3056131 C24,87.3056131 27.06,78.4312947 39,60.5039804 C53.64,38.5862008 54,54.4885029 67.86,16.8470988 C68.7,14.5242906 70.26,12.4397192 73.08,12.6183967 C75.426,12.7970743 77.34,14.2860539 77.82,16.2515069 C77.166,26.6743641 75.186,35.7869192 71.82,42.6957845 C69.72,47.1031641 67.68,51.2723069 66.54,55.7392457 C66.06,57.764258 66.18,59.07456 66.54,59.4914743 C66.6,59.5510335 66.72,59.6701518 66.84,59.729711 C66.78,59.8488294 66.78,60.0275069 66.72,60.1466253 C65.04,66.8768131 67.26,72.4158171 77.64,72.4158171 L120,72.4158171 C122.46,72.4158171 124.56,73.9047967 125.46,75.9893682 C124.854,78.1334988 123.594,80.0393927 121.92,81.4688131 C122.52,82.0048457 123.054,82.5408784 123.48,83.1960294 C122.52,83.9047837 121.32,84.4408163 120,84.4408163 L92.28,84.4408163 C89.28,84.4408163 89.28,90.3967347 92.28,90.3967347 L120,90.3967347 C122.4,90.3967347 124.5,91.7070367 125.46,93.732049 L125.46,93.732049 Z" id="Shape" fill="#FFFFFF"></path>
                            <path d="M12,87.4187755 C12,85.774942 10.656,84.4408163 9,84.4408163 L9,84.4408163 C7.344,84.4408163 6,85.774942 6,87.4187755 L6,135.066122 C6,136.709956 7.344,138.044082 9,138.044082 L9,138.044082 C10.656,138.044082 12,136.709956 12,135.066122 L12,87.4187755 L12,87.4187755 Z" id="Shape" fill="#FFFFFF"></path>
                            <path d="M121.92,81.4628571 C124.44,83.6665469 126,86.8231837 126,90.3371755 C126,95.4533094 122.64,100.045322 117.96,101.647464 C119.28,103.559314 120,105.822563 120,108.26449 C120,114.041731 117.18,118.985143 111.72,120.116767 C114,120.116767 114.78,124.345469 114.3,127.144751 C113.34,132.743314 105.426,136.972016 99.36,137.984522 C94.86,138.758792 93.966,139.473502 90.3,140.188212 C79.5,142.213224 67.26,144 51,144 C27.78,144 14.34,130.956539 13.74,130.360947 L12,128.633731 L12,80.5099102 L12.3,79.5569633 C12.48,79.1460049 16.08,69.9083755 28.02,51.3914253 C44.04,26.4956865 42.18,45.8524212 56.04,9.40220082 C57.96,4.22055184 61.68,0.825678367 66.72,0.825678367 L67.44,0.885237551 C73.5,1.24259265 78.18,6.06688653 78,11.8441273 C77.7,24.1133192 75.66,34.8339722 71.82,42.6957845 C69.72,47.1031641 67.68,51.2723069 66.54,55.7392457 C66.06,57.764258 66.18,59.07456 66.54,59.4914743 C66.9,59.9083886 68.34,60.6171429 71.64,60.6171429 L93,60.6171429 C94.68,60.6171429 96,61.9274449 96,63.595102 C96,65.2627592 94.68,66.5730612 93,66.5730612 L71.64,66.5730612 C61.26,66.5730612 59.04,61.0340571 60.72,54.3038694 C64.14,40.7243755 71.58,28.0382694 72,11.6594939 C72.12,9.15800816 69.9,6.95431837 67.08,6.77564082 C64.26,6.59696327 62.7,8.68153469 61.86,11.0043429 C48,48.6457469 47.64,32.7434449 33,54.6612245 C21.06,72.5885388 18,81.4628571 18,81.4628571 L18,126.132245 C18,126.132245 30,138.044082 51,138.044082 C72,138.044082 80.4,135.066122 98.4,132.088163 C101.64,131.552131 108,129.467559 108,126.132245 C108,120.235886 104.4,120.176327 104.28,120.176327 L92.28,120.176327 C89.28,120.176327 89.28,114.220408 92.28,114.220408 L108,114.220408 C111.3,114.220408 114,111.599804 114,108.26449 C114,104.988735 111.3,102.308571 108,102.308571 L98.28,102.308571 C95.28,102.308571 95.28,96.3526531 98.28,96.3526531 L114,96.3526531 C117.3,96.3526531 120,93.6129306 120,90.3371755 C120,87.0614204 117.3,84.4408163 114,84.4408163 L98.28,84.4408163 C95.28,84.4408163 95.28,78.484898 98.28,78.484898 L114,78.484898 C117.3,78.484898 120,75.8642939 120,72.5289796 C120,69.2532245 117.3,66.5730612 114,66.5730612 L105,66.5730612 C103.32,66.5730612 102,65.2627592 102,63.595102 C102,61.9274449 103.32,60.6171429 105,60.6171429 L114,60.6171429 C120.6,60.6171429 126,65.9774694 126,72.5289796 C126,76.1025306 124.44,79.3187265 121.92,81.4628571 L121.92,81.4628571 Z" id="Shape" fill="#2D2220"></path>
                            <path d="M96,63.595102 C96,61.9512686 94.656,60.6171429 93,60.6171429 L93,60.6171429 C91.344,60.6171429 90,61.9512686 90,63.595102 L90,63.595102 C90,65.2389355 91.344,66.5730612 93,66.5730612 L93,66.5730612 C94.656,66.5730612 96,65.2389355 96,63.595102 L96,63.595102 L96,63.595102 Z" id="Shape" fill="#2D2220"></path>
                            <path d="M6,105.286531 C6,106.930364 4.656,108.26449 3,108.26449 L3,108.26449 C1.344,108.26449 0,106.930364 0,105.286531 L0,81.4628571 C0,79.8190237 1.344,78.484898 3,78.484898 L3,78.484898 C4.656,78.484898 6,79.8190237 6,81.4628571 L6,105.286531 L6,105.286531 Z" id="Shape" fill="#2D2220"></path>
                            <path d="M6,117.198367 C6,115.554534 4.656,114.220408 3,114.220408 L3,114.220408 C1.344,114.220408 0,115.554534 0,117.198367 L0,129.110204 C0,130.754038 1.344,132.088163 3,132.088163 L3,132.088163 C4.656,132.088163 6,130.754038 6,129.110204 L6,117.198367 L6,117.198367 Z" id="Shape" fill="#2D2220"></path>
                        </g>
                    </g>
                </g>
            </g>
        </g>
    </g>
</svg>