<?xml version="1.0" encoding="UTF-8" standalone="no"?>
<svg width="1024px" height="400px" viewBox="0 0 1024 400" version="1.1" xmlns="http://www.w3.org/2000/svg" xmlns:xlink="http://www.w3.org/1999/xlink">
    <!-- Generator: Sketch 3.6.1 (26313) - http://www.bohemiancoding.com/sketch -->
    <title>banner-device</title>
    <desc>Created with Sketch.</desc>
    <defs>
        <rect id="path-1" x="0" y="0" width="1024" height="400"></rect>
    </defs>
    <g id="Page-1" stroke="none" stroke-width="1" fill="none" fill-rule="evenodd">
        <g id="banner-device">
            <mask id="mask-2" fill="white">
                <use xlink:href="#path-1"></use>
            </mask>
            <g id="Rectangle-1">
                <use fill="none" xlink:href="#path-1"></use>
                <use fill="#FFF568" xlink:href="#path-1"></use>
            </g>
            <g id="device" mask="url(#mask-2)">
                <g transform="translate(470.000000, 132.000000)" id="Capa_1">
                    <g>
                        <ellipse id="Oval" fill="#FFFFFF" cx="48.8235294" cy="127.214286" rx="4.88235294" ry="4.89285714"></ellipse>
                        <rect id="Rectangle-path" fill="#FFFFFF" x="29.2941176" y="9.78571429" width="29.2941176" height="4.89285714"></rect>
                        <g id="Group" transform="translate(4.882353, 0.000000)" fill="#303030">
                            <path d="M24.4117647,9.78571429 L24.4117647,14.6785714 L53.7058824,14.6785714 L53.7058824,9.78571429 L24.4117647,9.78571429 L24.4117647,9.78571429 Z M24.4117647,9.78571429 L24.4117647,14.6785714 L53.7058824,14.6785714 L53.7058824,9.78571429 L24.4117647,9.78571429 L24.4117647,9.78571429 Z M24.4117647,9.78571429 L24.4117647,14.6785714 L53.7058824,14.6785714 L53.7058824,9.78571429 L24.4117647,9.78571429 L24.4117647,9.78571429 Z M24.4117647,9.78571429 L24.4117647,14.6785714 L53.7058824,14.6785714 L53.7058824,9.78571429 L24.4117647,9.78571429 L24.4117647,9.78571429 Z M9.76470588,107.642857 L9.76470588,112.535714 L68.3529412,112.535714 L68.3529412,107.642857 L9.76470588,107.642857 L9.76470588,107.642857 Z M24.4117647,9.78571429 L24.4117647,14.6785714 L53.7058824,14.6785714 L53.7058824,9.78571429 L24.4117647,9.78571429 L24.4117647,9.78571429 Z M9.76470588,107.642857 L9.76470588,112.535714 L68.3529412,112.535714 L68.3529412,107.642857 L9.76470588,107.642857 L9.76470588,107.642857 Z M24.4117647,9.78571429 L24.4117647,14.6785714 L53.7058824,14.6785714 L53.7058824,9.78571429 L24.4117647,9.78571429 L24.4117647,9.78571429 Z M9.76470588,107.642857 L9.76470588,112.535714 L68.3529412,112.535714 L68.3529412,107.642857 L9.76470588,107.642857 L9.76470588,107.642857 Z M73.2352941,0 L4.88235294,0 C2.19705882,0 0,2.20178571 0,4.89285714 L0,29.3571429 L4.88235294,29.3571429 L4.88235294,24.4642857 L73.2352941,24.4642857 L73.2352941,127.214286 C73.2352941,129.905357 71.0382353,132.107143 68.3529412,132.107143 L9.76470588,132.107143 C7.07941176,132.107143 4.88235294,129.905357 4.88235294,127.214286 L4.88235294,53.8214286 L0,53.8214286 L0,132.107143 C0,134.798214 2.19705882,137 4.88235294,137 L73.2352941,137 C75.9205882,137 78.1176471,134.798214 78.1176471,132.107143 L78.1176471,4.89285714 C78.1176471,2.20178571 75.9205882,0 73.2352941,0 L73.2352941,0 Z M73.2352941,19.5714286 L4.88235294,19.5714286 L4.88235294,9.78571429 C4.88235294,7.09464286 7.07941176,4.89285714 9.76470588,4.89285714 L68.3529412,4.89285714 C71.0382353,4.89285714 73.2352941,7.09464286 73.2352941,9.78571429 L73.2352941,19.5714286 L73.2352941,19.5714286 Z M68.3529412,107.642857 L9.76470588,107.642857 L9.76470588,112.535714 L68.3529412,112.535714 L68.3529412,107.642857 L68.3529412,107.642857 Z M24.4117647,14.6785714 L53.7058824,14.6785714 L53.7058824,9.78571429 L24.4117647,9.78571429 L24.4117647,14.6785714 L24.4117647,14.6785714 Z M9.76470588,107.642857 L9.76470588,112.535714 L68.3529412,112.535714 L68.3529412,107.642857 L9.76470588,107.642857 L9.76470588,107.642857 Z M24.4117647,9.78571429 L24.4117647,14.6785714 L53.7058824,14.6785714 L53.7058824,9.78571429 L24.4117647,9.78571429 L24.4117647,9.78571429 Z M24.4117647,9.78571429 L24.4117647,14.6785714 L53.7058824,14.6785714 L53.7058824,9.78571429 L24.4117647,9.78571429 L24.4117647,9.78571429 Z M24.4117647,9.78571429 L24.4117647,14.6785714 L53.7058824,14.6785714 L53.7058824,9.78571429 L24.4117647,9.78571429 L24.4117647,9.78571429 Z M24.4117647,9.78571429 L24.4117647,14.6785714 L53.7058824,14.6785714 L53.7058824,9.78571429 L24.4117647,9.78571429 L24.4117647,9.78571429 Z" id="Shape"></path>
                            <rect id="Rectangle-path" x="24.4117647" y="9.78571429" width="29.2941176" height="4.89285714"></rect>
                        </g>
                        <rect id="Rectangle-path" fill="#2D2220" x="29.2941176" y="9.78571429" width="29.2941176" height="4.89285714"></rect>
                        <rect id="Rectangle-path" fill="#2D2220" x="29.2941176" y="9.78571429" width="29.2941176" height="4.89285714"></rect>
                        <rect id="Rectangle-path" fill="#FFFFFF" x="34.1764706" y="14.6785714" width="29.2941176" height="4.89285714"></rect>
                        <rect id="Rectangle-path" fill="#FFFFFF" x="39.0588235" y="24.4642857" width="4.88235294" height="83.1785714"></rect>
                        <rect id="Rectangle-path" fill="#FFFFFF" x="29.2941176" y="24.4642857" width="4.88235294" height="83.1785714"></rect>
                        <rect id="Rectangle-path" fill="#FFFFFF" x="48.8235294" y="24.4642857" width="29.2941176" height="83.1785714"></rect>
                        <ellipse id="Oval" fill="#303030" cx="43.9411765" cy="122.321429" rx="4.88235294" ry="4.89285714"></ellipse>
                        <path d="M14.6470588,36.6964286 C14.6470588,35.346 13.5534118,34.25 12.2058824,34.25 L2.44117647,34.25 C1.09364706,34.25 0,35.346 0,36.6964286 L0,36.6964286 C0,38.0468571 1.09364706,39.1428571 2.44117647,39.1428571 L12.2058824,39.1428571 C13.5534118,39.1428571 14.6470588,38.0468571 14.6470588,36.6964286 L14.6470588,36.6964286 L14.6470588,36.6964286 Z" id="Shape" fill="#303030"></path>
                        <path d="M14.6470588,46.4821429 C14.6470588,45.1317143 13.5534118,44.0357143 12.2058824,44.0357143 L2.44117647,44.0357143 C1.09364706,44.0357143 0,45.1317143 0,46.4821429 L0,46.4821429 C0,47.8325714 1.09364706,48.9285714 2.44117647,48.9285714 L12.2058824,48.9285714 C13.5534118,48.9285714 14.6470588,47.8325714 14.6470588,46.4821429 L14.6470588,46.4821429 L14.6470588,46.4821429 Z" id="Shape" fill="#303030"></path>
                    </g>
                </g>
            </g>
        </g>
    </g>
</svg>