<?xml version="1.0" encoding="UTF-8" standalone="no"?>
<svg width="1024px" height="450px" viewBox="0 0 1024 450" version="1.1" xmlns="http://www.w3.org/2000/svg" xmlns:xlink="http://www.w3.org/1999/xlink">
    <!-- Generator: Sketch 3.6.1 (26313) - http://www.bohemiancoding.com/sketch -->
    <title>path-1</title>
    <desc>Created with Sketch.</desc>
    <defs></defs>
    <g id="Page-1" stroke="none" stroke-width="1" fill="none" fill-rule="evenodd">
        <rect id="path-1" fill="#303030" x="0" y="0" width="1024" height="450"></rect>
        <g id="Group-2" transform="translate(50.000000, 96.000000)">
            <g id="Group">
                <path d="M14.102,110.567999 L13.892,110.567999 L7.34,89.987999 L0.536,89.987999 L9.986,118.799999 L17.42,118.799999 L26.912,89.987999 L20.696,89.987999 L14.102,110.567999 L14.102,110.567999 Z M30.272,89.987999 L30.272,95.153999 L33.674,95.153999 L33.674,113.633999 L30.272,113.633999 L30.272,118.799999 L43.544,118.799999 L43.544,113.633999 L40.184,113.633999 L40.184,95.153999 L43.544,95.153999 L43.544,89.987999 L30.272,89.987999 L30.272,89.987999 Z M64.88,98.513999 L70.97,98.513999 L70.97,98.009999 C70.97,92.129999 66.014,89.567999 60.008,89.567999 C53.918,89.567999 48.752,92.339999 48.752,98.093999 C48.752,109.097999 65.006,105.233999 65.006,110.777999 C65.006,112.415999 63.746,114.053999 59.504,114.053999 C56.06,114.053999 54.212,112.457999 54.212,110.063999 C54.212,109.853999 54.254,109.475999 54.254,109.391999 L48.122,109.391999 C48.122,109.601999 48.08,109.979999 48.08,110.315999 C48.08,116.657999 53.54,119.219999 59.714,119.219999 C66.686,119.219999 71.6,116.573999 71.6,109.727999 C71.6,99.227999 55.262,102.881999 55.262,97.421999 C55.262,95.825999 57.026,94.733999 60.134,94.733999 C63.116,94.733999 64.88,96.035999 64.88,98.135999 L64.88,98.513999 L64.88,98.513999 Z M76.304,89.987999 L76.304,95.153999 L79.706,95.153999 L79.706,113.633999 L76.304,113.633999 L76.304,118.799999 L89.576,118.799999 L89.576,113.633999 L86.216,113.633999 L86.216,95.153999 L89.576,95.153999 L89.576,89.987999 L76.304,89.987999 L76.304,89.987999 Z M95.666,118.799999 L116.078,118.799999 L115.364,113.633999 L102.05,113.633999 L102.05,106.619999 L114.356,106.619999 L114.356,101.453999 L102.05,101.453999 L102.05,95.153999 L115.238,95.153999 L115.952,89.987999 L95.666,89.987999 L95.666,118.799999 L95.666,118.799999 Z" id="VISIE" fill="#FCF267"></path>
                <g id="Group-3" transform="translate(156.000000, 0.000000)" stroke-width="7">
                    <path d="M0.837325,101 C0.837325,156.694822 45.233967,201.844395 100,201.844395 C154.766033,201.844395 199.162675,156.694822 199.162675,101 C199.162675,45.305178 154.766033,0.155605 100,0.155605 C45.233967,0.155605 0.837325,45.305178 0.837325,101 L0.837325,101 Z" id="Oval-31-Copy" stroke="#FFFFFF"></path>
                    <path d="M170.837325,101 C170.837325,156.694822 215.233967,201.844395 270,201.844395 C324.766033,201.844395 369.162675,156.694822 369.162675,101 C369.162675,45.305178 324.766033,0.155605 270,0.155605 C215.233967,0.155605 170.837325,45.305178 170.837325,101 L170.837325,101 Z" id="Oval-31-Copy-2" stroke="#FFFFFF"></path>
                    <path d="M507.837325,101 C507.837325,156.694822 552.233967,201.844395 607,201.844395 C661.766033,201.844395 706.162675,156.694822 706.162675,101 C706.162675,45.305178 661.766033,0.155605 607,0.155605 C552.233967,0.155605 507.837325,45.305178 507.837325,101 L507.837325,101 Z" id="Oval-31-Copy-4" stroke="#FFFFFF"></path>
                    <path d="M680.837325,101 C680.837325,156.694822 725.233967,201.844395 780,201.844395 C834.76603,201.844395 879.16267,156.694822 879.16267,101 C879.16267,45.305178 834.76603,0.155605 780,0.155605 C725.233967,0.155605 680.837325,45.305178 680.837325,101 L680.837325,101 Z" id="Oval-31-Copy-6" stroke="#FFFFFF"></path>
                    <path d="M343.837325,101 C343.837325,156.694822 388.233967,201.844395 443,201.844395 C497.766033,201.844395 542.162675,156.694822 542.162675,101 C542.162675,45.305178 497.766033,0.155605 443,0.155605 C388.233967,0.155605 343.837325,45.305178 343.837325,101 L343.837325,101 Z" id="Oval-31-Copy-5" stroke="#FFF568"></path>
                </g>
                <path d="M207.616,104.98 L207.588,105.568 C207.588,106.669339 208.003329,107.481331 208.834,108.004 C209.664671,108.526669 210.779993,108.788 212.18,108.788 C213.580007,108.788 214.685996,108.531336 215.498,108.018 C216.310004,107.504664 216.716,106.800004 216.716,105.904 C216.716,105.007996 216.436003,104.350002 215.876,103.93 C215.315997,103.509998 214.611338,103.169335 213.762,102.908 C212.912662,102.646665 211.993338,102.404001 211.004,102.18 C210.014662,101.955999 209.095338,101.638669 208.246,101.228 C207.396662,100.817331 206.692003,100.26667 206.132,99.576 C205.571997,98.88533 205.292,98.017339 205.292,96.972 C205.292,95.926661 205.473998,95.077337 205.838,94.424 C206.202002,93.770663 206.691997,93.229335 207.308,92.8 C208.521339,91.941329 210.145323,91.512 212.18,91.512 C214.158677,91.512 215.754661,91.931996 216.968,92.772 C218.29334,93.686671 218.956,95.058658 218.956,96.888 L218.956,97.224 L216.212,97.224 L216.212,96.804 C216.212,95.889329 215.83867,95.194002 215.092,94.718 C214.34533,94.241998 213.393339,94.004 212.236,94.004 C210.27599,94.004 208.988003,94.470662 208.372,95.404 C208.147999,95.721335 208.036,96.103998 208.036,96.552 C208.036,97.29867 208.315997,97.867998 208.876,98.26 C209.436003,98.652002 210.140662,98.978665 210.99,99.24 C211.839338,99.501335 212.758662,99.748666 213.748,99.982 C214.737338,100.215334 215.656662,100.532665 216.506,100.934 C217.355338,101.335335 218.059997,101.876663 218.62,102.558 C219.180003,103.239337 219.46,104.139994 219.46,105.26 C219.46,106.398672 219.273335,107.345996 218.9,108.102 C218.526665,108.858004 218.013337,109.469331 217.36,109.936 C216.109327,110.832004 214.373344,111.28 212.152,111.28 C208.773316,111.28 206.533339,110.253344 205.432,108.2 C205.039998,107.471996 204.844,106.585339 204.844,105.54 L204.872,104.98 L207.616,104.98 L207.616,104.98 Z M225.9,109.18 L225.9,116.068 L223.268,116.068 L223.268,96.692 L225.228,96.692 C225.321334,97.046668 225.442666,97.699995 225.592,98.652 C226.656005,97.158659 228.130657,96.412 230.016,96.412 C231.714675,96.412 233.077328,96.999994 234.104,98.176 C235.242672,99.50134 235.812,101.395988 235.812,103.86 L235.812,104.168 C235.812,106.426678 235.270672,108.199994 234.188,109.488 C233.179995,110.682673 231.789342,111.28 230.016,111.28 C228.242658,111.28 226.870672,110.580007 225.9,109.18 L225.9,109.18 L225.9,109.18 Z M233.18,103.832 C233.18,101.031986 232.461341,99.352003 231.024,98.792 C230.575998,98.605332 230.081336,98.512 229.54,98.512 C228.363994,98.512 227.477336,98.894663 226.88,99.66 C226.207997,100.537338 225.872,101.92799 225.872,103.832 C225.872,106.650681 226.599993,108.34933 228.056,108.928 C228.504002,109.096001 228.998664,109.18 229.54,109.18 C230.697339,109.18 231.574664,108.797337 232.172,108.032 C232.844003,107.154662 233.18,105.754676 233.18,103.832 L233.18,103.832 L233.18,103.832 Z M250.26,100.892 L250.176,101.956 L247.852,101.956 L247.852,101.34 C247.852,100.686663 247.684002,100.154669 247.348,99.744 C246.731997,98.922663 245.976004,98.512 245.08,98.512 C244.090662,98.512 243.344003,98.941329 242.84,99.8 C242.429331,100.509337 242.224,101.395995 242.224,102.46 L242.224,111 L239.592,111 L239.592,96.692 L241.468,96.692 L241.86,98.82 C242.140001,97.979996 242.905327,97.298669 244.156,96.776 C244.697336,96.533332 245.322663,96.412 246.032,96.412 C246.741337,96.412 247.352664,96.528665 247.866,96.762 C248.379336,96.995335 248.813332,97.317331 249.168,97.728 C249.896004,98.549337 250.26,99.603994 250.26,100.892 L250.26,100.892 L250.26,100.892 Z M253.312,111 L253.312,96.692 L255.944,96.692 L255.944,111 L253.312,111 L253.312,111 Z M253.256,90.84 L256,90.84 L256,93.276 L253.256,93.276 L253.256,90.84 L253.256,90.84 Z M262.86,98.792 C264.073339,97.205325 265.669323,96.412 267.648,96.412 C269.981345,96.412 271.530663,97.317324 272.296,99.128 C272.557335,99.76267 272.688,100.509329 272.688,101.368 L272.688,111 L270.056,111 L270.056,101.844 C270.056,100.630661 269.776003,99.772003 269.216,99.268 C268.655997,98.763997 267.928004,98.512 267.032,98.512 C266.023995,98.512 265.137337,98.894663 264.372,99.66 C263.606663,100.425337 263.224,101.367994 263.224,102.488 L263.224,111 L260.592,111 L260.592,96.692 L262.496,96.692 L262.86,98.792 L262.86,98.792 Z M281.872,109.236 C282.357336,109.236 282.935997,109.096001 283.608,108.816 L283.608,110.776 C282.935997,111.112002 282.068005,111.28 281.004,111.28 C279.921328,111.28 279.09067,110.96267 278.512,110.328 C277.93333,109.69333 277.644,108.648007 277.644,107.192 L277.644,98.792 L276.076,98.792 L276.076,96.692 L277.728,96.692 L278.624,92.128 L280.276,92.128 L280.276,96.692 L283.608,96.692 L283.608,98.792 L280.276,98.792 L280.276,107.332 C280.276,108.396005 280.611997,109.002666 281.284,109.152 C281.470668,109.208 281.666666,109.236 281.872,109.236 L281.872,109.236 L281.872,109.236 Z M294.108,93.668 C296.292011,93.443999 298.550655,92.818672 300.884,91.792 L301.948,91.792 L301.948,108.508 L306.988,108.508 L306.988,111 L294.164,111 L294.164,108.508 L299.204,108.508 L299.204,95.46 L294.108,95.46 L294.108,93.668 L294.108,93.668 Z" id="Sprint-1" fill="#FFFFFF"></path>
                <path d="M551.004,104.98 L550.976,105.568 C550.976,106.669339 551.391329,107.481331 552.222,108.004 C553.052671,108.526669 554.167993,108.788 555.568,108.788 C556.968007,108.788 558.073996,108.531336 558.886,108.018 C559.698004,107.504664 560.104,106.800004 560.104,105.904 C560.104,105.007996 559.824003,104.350002 559.264,103.93 C558.703997,103.509998 557.999338,103.169335 557.15,102.908 C556.300662,102.646665 555.381338,102.404001 554.392,102.18 C553.402662,101.955999 552.483338,101.638669 551.634,101.228 C550.784662,100.817331 550.080003,100.26667 549.52,99.576 C548.959997,98.88533 548.68,98.017339 548.68,96.972 C548.68,95.926661 548.861998,95.077337 549.226,94.424 C549.590002,93.770663 550.079997,93.229335 550.696,92.8 C551.909339,91.941329 553.533323,91.512 555.568,91.512 C557.546677,91.512 559.142661,91.931996 560.356,92.772 C561.68134,93.686671 562.344,95.058658 562.344,96.888 L562.344,97.224 L559.6,97.224 L559.6,96.804 C559.6,95.889329 559.22667,95.194002 558.48,94.718 C557.73333,94.241998 556.781339,94.004 555.624,94.004 C553.66399,94.004 552.376003,94.470662 551.76,95.404 C551.535999,95.721335 551.424,96.103998 551.424,96.552 C551.424,97.29867 551.703997,97.867998 552.264,98.26 C552.824003,98.652002 553.528662,98.978665 554.378,99.24 C555.227338,99.501335 556.146662,99.748666 557.136,99.982 C558.125338,100.215334 559.044662,100.532665 559.894,100.934 C560.743338,101.335335 561.447997,101.876663 562.008,102.558 C562.568003,103.239337 562.848,104.139994 562.848,105.26 C562.848,106.398672 562.661335,107.345996 562.288,108.102 C561.914665,108.858004 561.401337,109.469331 560.748,109.936 C559.497327,110.832004 557.761344,111.28 555.54,111.28 C552.161316,111.28 549.921339,110.253344 548.82,108.2 C548.427998,107.471996 548.232,106.585339 548.232,105.54 L548.26,104.98 L551.004,104.98 L551.004,104.98 Z M569.288,109.18 L569.288,116.068 L566.656,116.068 L566.656,96.692 L568.616,96.692 C568.709334,97.046668 568.830666,97.699995 568.98,98.652 C570.044005,97.158659 571.518657,96.412 573.404,96.412 C575.102675,96.412 576.465328,96.999994 577.492,98.176 C578.630672,99.50134 579.2,101.395988 579.2,103.86 L579.2,104.168 C579.2,106.426678 578.658672,108.199994 577.576,109.488 C576.567995,110.682673 575.177342,111.28 573.404,111.28 C571.630658,111.28 570.258672,110.580007 569.288,109.18 L569.288,109.18 L569.288,109.18 Z M576.568,103.832 C576.568,101.031986 575.849341,99.352003 574.412,98.792 C573.963998,98.605332 573.469336,98.512 572.928,98.512 C571.751994,98.512 570.865336,98.894663 570.268,99.66 C569.595997,100.537338 569.26,101.92799 569.26,103.832 C569.26,106.650681 569.987993,108.34933 571.444,108.928 C571.892002,109.096001 572.386664,109.18 572.928,109.18 C574.085339,109.18 574.962664,108.797337 575.56,108.032 C576.232003,107.154662 576.568,105.754676 576.568,103.832 L576.568,103.832 L576.568,103.832 Z M593.648,100.892 L593.564,101.956 L591.24,101.956 L591.24,101.34 C591.24,100.686663 591.072002,100.154669 590.736,99.744 C590.119997,98.922663 589.364004,98.512 588.468,98.512 C587.478662,98.512 586.732003,98.941329 586.228,99.8 C585.817331,100.509337 585.612,101.395995 585.612,102.46 L585.612,111 L582.98,111 L582.98,96.692 L584.856,96.692 L585.248,98.82 C585.528001,97.979996 586.293327,97.298669 587.544,96.776 C588.085336,96.533332 588.710663,96.412 589.42,96.412 C590.129337,96.412 590.740664,96.528665 591.254,96.762 C591.767336,96.995335 592.201332,97.317331 592.556,97.728 C593.284004,98.549337 593.648,99.603994 593.648,100.892 L593.648,100.892 L593.648,100.892 Z M596.7,111 L596.7,96.692 L599.332,96.692 L599.332,111 L596.7,111 L596.7,111 Z M596.644,90.84 L599.388,90.84 L599.388,93.276 L596.644,93.276 L596.644,90.84 L596.644,90.84 Z M606.248,98.792 C607.461339,97.205325 609.057323,96.412 611.036,96.412 C613.369345,96.412 614.918663,97.317324 615.684,99.128 C615.945335,99.76267 616.076,100.509329 616.076,101.368 L616.076,111 L613.444,111 L613.444,101.844 C613.444,100.630661 613.164003,99.772003 612.604,99.268 C612.043997,98.763997 611.316004,98.512 610.42,98.512 C609.411995,98.512 608.525337,98.894663 607.76,99.66 C606.994663,100.425337 606.612,101.367994 606.612,102.488 L606.612,111 L603.98,111 L603.98,96.692 L605.884,96.692 L606.248,98.792 L606.248,98.792 Z M625.26,109.236 C625.745336,109.236 626.323997,109.096001 626.996,108.816 L626.996,110.776 C626.323997,111.112002 625.456005,111.28 624.392,111.28 C623.309328,111.28 622.47867,110.96267 621.9,110.328 C621.32133,109.69333 621.032,108.648007 621.032,107.192 L621.032,98.792 L619.464,98.792 L619.464,96.692 L621.116,96.692 L622.012,92.128 L623.664,92.128 L623.664,96.692 L626.996,96.692 L626.996,98.792 L623.664,98.792 L623.664,107.332 C623.664,108.396005 623.999997,109.002666 624.672,109.152 C624.858668,109.208 625.054666,109.236 625.26,109.236 L625.26,109.236 L625.26,109.236 Z M639.148,105.652 C639.148,106.678672 639.49333,107.457997 640.184,107.99 C640.87467,108.522003 641.863994,108.788 643.152,108.788 C644.42134,108.788 645.438663,108.526669 646.204,108.004 C646.969337,107.481331 647.352,106.669339 647.352,105.568 C647.352,104.447994 646.913338,103.626669 646.036,103.104 C645.326663,102.693331 644.328006,102.488 643.04,102.488 L640.94,102.488 L640.94,99.968 L643.096,99.968 C644.813342,99.968 645.979997,99.408006 646.596,98.288 C646.801334,97.914665 646.904,97.466669 646.904,96.944 C646.904,96.421331 646.801334,95.973335 646.596,95.6 C646.390666,95.226665 646.110668,94.918668 645.756,94.676 C645.12133,94.227998 644.253339,94.004 643.152,94.004 C641.527992,94.004 640.436003,94.563994 639.876,95.684 C639.689332,96.057335 639.596,96.486664 639.596,96.972 L639.596,97.224 L636.852,97.224 L636.852,96.72 C636.852,95.151992 637.449327,93.892005 638.644,92.94 C639.857339,91.987995 641.359991,91.512 643.152,91.512 L643.404,91.512 C645.214676,91.512 646.698661,91.978662 647.856,92.912 C649.050673,93.901338 649.648,95.170659 649.648,96.72 C649.648,97.858672 649.35867,98.75933 648.78,99.422 C648.20133,100.08467 647.473338,100.621331 646.596,101.032 L646.624,101.116 C647.632005,101.433335 648.462663,101.979329 649.116,102.754 C649.769337,103.528671 650.096,104.559994 650.096,105.848 C650.096,107.453341 649.46134,108.759995 648.192,109.768 C646.941327,110.776005 645.345343,111.28 643.404,111.28 L643.068,111.28 C640.977323,111.28 639.334673,110.748005 638.14,109.684 C636.982661,108.675995 636.404,107.304009 636.404,105.568 L636.404,105.344 L639.148,105.344 L639.148,105.652 L639.148,105.652 Z" id="Sprint-3" fill="#FFF568"></path>
                <path d="M377.616,104.98 L377.588,105.568 C377.588,106.669339 378.003329,107.481331 378.834,108.004 C379.664671,108.526669 380.779993,108.788 382.18,108.788 C383.580007,108.788 384.685996,108.531336 385.498,108.018 C386.310004,107.504664 386.716,106.800004 386.716,105.904 C386.716,105.007996 386.436003,104.350002 385.876,103.93 C385.315997,103.509998 384.611338,103.169335 383.762,102.908 C382.912662,102.646665 381.993338,102.404001 381.004,102.18 C380.014662,101.955999 379.095338,101.638669 378.246,101.228 C377.396662,100.817331 376.692003,100.26667 376.132,99.576 C375.571997,98.88533 375.292,98.017339 375.292,96.972 C375.292,95.926661 375.473998,95.077337 375.838,94.424 C376.202002,93.770663 376.691997,93.229335 377.308,92.8 C378.521339,91.941329 380.145323,91.512 382.18,91.512 C384.158677,91.512 385.754661,91.931996 386.968,92.772 C388.29334,93.686671 388.956,95.058658 388.956,96.888 L388.956,97.224 L386.212,97.224 L386.212,96.804 C386.212,95.889329 385.83867,95.194002 385.092,94.718 C384.34533,94.241998 383.393339,94.004 382.236,94.004 C380.27599,94.004 378.988003,94.470662 378.372,95.404 C378.147999,95.721335 378.036,96.103998 378.036,96.552 C378.036,97.29867 378.315997,97.867998 378.876,98.26 C379.436003,98.652002 380.140662,98.978665 380.99,99.24 C381.839338,99.501335 382.758662,99.748666 383.748,99.982 C384.737338,100.215334 385.656662,100.532665 386.506,100.934 C387.355338,101.335335 388.059997,101.876663 388.62,102.558 C389.180003,103.239337 389.46,104.139994 389.46,105.26 C389.46,106.398672 389.273335,107.345996 388.9,108.102 C388.526665,108.858004 388.013337,109.469331 387.36,109.936 C386.109327,110.832004 384.373344,111.28 382.152,111.28 C378.773316,111.28 376.533339,110.253344 375.432,108.2 C375.039998,107.471996 374.844,106.585339 374.844,105.54 L374.872,104.98 L377.616,104.98 L377.616,104.98 Z M395.9,109.18 L395.9,116.068 L393.268,116.068 L393.268,96.692 L395.228,96.692 C395.321334,97.046668 395.442666,97.699995 395.592,98.652 C396.656005,97.158659 398.130657,96.412 400.016,96.412 C401.714675,96.412 403.077328,96.999994 404.104,98.176 C405.242672,99.50134 405.812,101.395988 405.812,103.86 L405.812,104.168 C405.812,106.426678 405.270672,108.199994 404.188,109.488 C403.179995,110.682673 401.789342,111.28 400.016,111.28 C398.242658,111.28 396.870672,110.580007 395.9,109.18 L395.9,109.18 L395.9,109.18 Z M403.18,103.832 C403.18,101.031986 402.461341,99.352003 401.024,98.792 C400.575998,98.605332 400.081336,98.512 399.54,98.512 C398.363994,98.512 397.477336,98.894663 396.88,99.66 C396.207997,100.537338 395.872,101.92799 395.872,103.832 C395.872,106.650681 396.599993,108.34933 398.056,108.928 C398.504002,109.096001 398.998664,109.18 399.54,109.18 C400.697339,109.18 401.574664,108.797337 402.172,108.032 C402.844003,107.154662 403.18,105.754676 403.18,103.832 L403.18,103.832 L403.18,103.832 Z M420.26,100.892 L420.176,101.956 L417.852,101.956 L417.852,101.34 C417.852,100.686663 417.684002,100.154669 417.348,99.744 C416.731997,98.922663 415.976004,98.512 415.08,98.512 C414.090662,98.512 413.344003,98.941329 412.84,99.8 C412.429331,100.509337 412.224,101.395995 412.224,102.46 L412.224,111 L409.592,111 L409.592,96.692 L411.468,96.692 L411.86,98.82 C412.140001,97.979996 412.905327,97.298669 414.156,96.776 C414.697336,96.533332 415.322663,96.412 416.032,96.412 C416.741337,96.412 417.352664,96.528665 417.866,96.762 C418.379336,96.995335 418.813332,97.317331 419.168,97.728 C419.896004,98.549337 420.26,99.603994 420.26,100.892 L420.26,100.892 L420.26,100.892 Z M423.312,111 L423.312,96.692 L425.944,96.692 L425.944,111 L423.312,111 L423.312,111 Z M423.256,90.84 L426,90.84 L426,93.276 L423.256,93.276 L423.256,90.84 L423.256,90.84 Z M432.86,98.792 C434.073339,97.205325 435.669323,96.412 437.648,96.412 C439.981345,96.412 441.530663,97.317324 442.296,99.128 C442.557335,99.76267 442.688,100.509329 442.688,101.368 L442.688,111 L440.056,111 L440.056,101.844 C440.056,100.630661 439.776003,99.772003 439.216,99.268 C438.655997,98.763997 437.928004,98.512 437.032,98.512 C436.023995,98.512 435.137337,98.894663 434.372,99.66 C433.606663,100.425337 433.224,101.367994 433.224,102.488 L433.224,111 L430.592,111 L430.592,96.692 L432.496,96.692 L432.86,98.792 L432.86,98.792 Z M451.872,109.236 C452.357336,109.236 452.935997,109.096001 453.608,108.816 L453.608,110.776 C452.935997,111.112002 452.068005,111.28 451.004,111.28 C449.921328,111.28 449.09067,110.96267 448.512,110.328 C447.93333,109.69333 447.644,108.648007 447.644,107.192 L447.644,98.792 L446.076,98.792 L446.076,96.692 L447.728,96.692 L448.624,92.128 L450.276,92.128 L450.276,96.692 L453.608,96.692 L453.608,98.792 L450.276,98.792 L450.276,107.332 C450.276,108.396005 450.611997,109.002666 451.284,109.152 C451.470668,109.208 451.666666,109.236 451.872,109.236 L451.872,109.236 L451.872,109.236 Z M463.352,110.328 C463.352,109.151994 463.687997,108.060005 464.36,107.052 C464.789335,106.398663 465.32133,105.838669 465.956,105.372 L471.528,101.172 C472.760006,100.201328 473.459999,99.202672 473.628,98.176 C473.684,97.858665 473.712,97.550668 473.712,97.252 C473.712,96.971999 473.665334,96.650002 473.572,96.286 C473.478666,95.921998 473.301335,95.572002 473.04,95.236 C472.367997,94.414663 471.388006,94.004 470.1,94.004 C468.494659,94.004 467.356003,94.582661 466.684,95.74 C466.291998,96.412003 466.096,97.06533 466.096,97.7 L466.096,98.092 C466.096,98.204001 466.105333,98.315999 466.124,98.428 L463.38,98.428 C463.361333,98.297333 463.352,98.204 463.352,98.148 L463.352,97.924 C463.352,96.710661 463.678663,95.544006 464.332,94.424 C464.985337,93.285328 466.021326,92.454669 467.44,91.932 C468.18667,91.651999 469.119994,91.512 470.24,91.512 C471.360006,91.512 472.321329,91.698665 473.124,92.072 C473.926671,92.445335 474.570664,92.911997 475.056,93.472 C475.989338,94.517339 476.456,95.739993 476.456,97.14 C476.456,98.316006 476.288002,99.22133 475.952,99.856 C475.335997,100.994672 474.36534,102.077328 473.04,103.104 L467.692,107.192 C467.225331,107.509335 466.884668,107.784666 466.67,108.018 C466.455332,108.251334 466.348,108.414666 466.348,108.508 L476.54,108.508 L476.54,111 L463.352,111 L463.352,110.328 L463.352,110.328 Z" id="Sprint-2" fill="#FFFFFF"></path>
                <path d="M714.616,104.98 L714.588,105.568 C714.588,106.669339 715.003329,107.481331 715.834,108.004 C716.664671,108.526669 717.779993,108.788 719.18,108.788 C720.580007,108.788 721.685996,108.531336 722.498,108.018 C723.310004,107.504664 723.716,106.800004 723.716,105.904 C723.716,105.007996 723.436003,104.350002 722.876,103.93 C722.315997,103.509998 721.611338,103.169335 720.762,102.908 C719.912662,102.646665 718.993338,102.404001 718.004,102.18 C717.014662,101.955999 716.095338,101.638669 715.246,101.228 C714.396662,100.817331 713.692003,100.26667 713.132,99.576 C712.571997,98.88533 712.292,98.017339 712.292,96.972 C712.292,95.926661 712.473998,95.077337 712.838,94.424 C713.202002,93.770663 713.691997,93.229335 714.308,92.8 C715.521339,91.941329 717.145323,91.512 719.18,91.512 C721.158677,91.512 722.754661,91.931996 723.968,92.772 C725.29334,93.686671 725.956,95.058658 725.956,96.888 L725.956,97.224 L723.212,97.224 L723.212,96.804 C723.212,95.889329 722.83867,95.194002 722.092,94.718 C721.34533,94.241998 720.393339,94.004 719.236,94.004 C717.27599,94.004 715.988003,94.470662 715.372,95.404 C715.147999,95.721335 715.036,96.103998 715.036,96.552 C715.036,97.29867 715.315997,97.867998 715.876,98.26 C716.436003,98.652002 717.140662,98.978665 717.99,99.24 C718.839338,99.501335 719.758662,99.748666 720.748,99.982 C721.737338,100.215334 722.656662,100.532665 723.506,100.934 C724.355338,101.335335 725.059997,101.876663 725.62,102.558 C726.180003,103.239337 726.46,104.139994 726.46,105.26 C726.46,106.398672 726.273335,107.345996 725.9,108.102 C725.526665,108.858004 725.013337,109.469331 724.36,109.936 C723.109327,110.832004 721.373344,111.28 719.152,111.28 C715.773316,111.28 713.533339,110.253344 712.432,108.2 C712.039998,107.471996 711.844,106.585339 711.844,105.54 L711.872,104.98 L714.616,104.98 L714.616,104.98 Z M732.9,109.18 L732.9,116.068 L730.268,116.068 L730.268,96.692 L732.228,96.692 C732.321334,97.046668 732.442666,97.699995 732.592,98.652 C733.656005,97.158659 735.130657,96.412 737.016,96.412 C738.714675,96.412 740.077328,96.999994 741.104,98.176 C742.242672,99.50134 742.812,101.395988 742.812,103.86 L742.812,104.168 C742.812,106.426678 742.270672,108.199994 741.188,109.488 C740.179995,110.682673 738.789342,111.28 737.016,111.28 C735.242658,111.28 733.870672,110.580007 732.9,109.18 L732.9,109.18 L732.9,109.18 Z M740.18,103.832 C740.18,101.031986 739.461341,99.352003 738.024,98.792 C737.575998,98.605332 737.081336,98.512 736.54,98.512 C735.363994,98.512 734.477336,98.894663 733.88,99.66 C733.207997,100.537338 732.872,101.92799 732.872,103.832 C732.872,106.650681 733.599993,108.34933 735.056,108.928 C735.504002,109.096001 735.998664,109.18 736.54,109.18 C737.697339,109.18 738.574664,108.797337 739.172,108.032 C739.844003,107.154662 740.18,105.754676 740.18,103.832 L740.18,103.832 L740.18,103.832 Z M757.26,100.892 L757.176,101.956 L754.852,101.956 L754.852,101.34 C754.852,100.686663 754.684002,100.154669 754.348,99.744 C753.731997,98.922663 752.976004,98.512 752.08,98.512 C751.090662,98.512 750.344003,98.941329 749.84,99.8 C749.429331,100.509337 749.224,101.395995 749.224,102.46 L749.224,111 L746.592,111 L746.592,96.692 L748.468,96.692 L748.86,98.82 C749.140001,97.979996 749.905327,97.298669 751.156,96.776 C751.697336,96.533332 752.322663,96.412 753.032,96.412 C753.741337,96.412 754.352664,96.528665 754.866,96.762 C755.379336,96.995335 755.813332,97.317331 756.168,97.728 C756.896004,98.549337 757.26,99.603994 757.26,100.892 L757.26,100.892 L757.26,100.892 Z M760.312,111 L760.312,96.692 L762.944,96.692 L762.944,111 L760.312,111 L760.312,111 Z M760.256,90.84 L763,90.84 L763,93.276 L760.256,93.276 L760.256,90.84 L760.256,90.84 Z M769.86,98.792 C771.073339,97.205325 772.669323,96.412 774.648,96.412 C776.981345,96.412 778.530663,97.317324 779.296,99.128 C779.557335,99.76267 779.688,100.509329 779.688,101.368 L779.688,111 L777.056,111 L777.056,101.844 C777.056,100.630661 776.776003,99.772003 776.216,99.268 C775.655997,98.763997 774.928004,98.512 774.032,98.512 C773.023995,98.512 772.137337,98.894663 771.372,99.66 C770.606663,100.425337 770.224,101.367994 770.224,102.488 L770.224,111 L767.592,111 L767.592,96.692 L769.496,96.692 L769.86,98.792 L769.86,98.792 Z M788.872,109.236 C789.357336,109.236 789.935997,109.096001 790.608,108.816 L790.608,110.776 C789.935997,111.112002 789.068005,111.28 788.004,111.28 C786.921328,111.28 786.09067,110.96267 785.512,110.328 C784.93333,109.69333 784.644,108.648007 784.644,107.192 L784.644,98.792 L783.076,98.792 L783.076,96.692 L784.728,96.692 L785.624,92.128 L787.276,92.128 L787.276,96.692 L790.608,96.692 L790.608,98.792 L787.276,98.792 L787.276,107.332 C787.276,108.396005 787.611997,109.002666 788.284,109.152 C788.470668,109.208 788.666666,109.236 788.872,109.236 L788.872,109.236 L788.872,109.236 Z M799.792,103.748 C802.330679,99.939981 804.318659,95.861355 805.756,91.512 L808.696,91.512 C808.06133,93.808011 807.006674,96.299987 805.532,98.988 C804.374661,101.097344 803.329338,102.693328 802.396,103.776 L808.836,103.776 L808.836,98.204 C809.489337,96.93466 809.993332,95.656006 810.348,94.368 L811.58,94.368 L811.58,103.776 L814.016,103.776 L814.016,106.268 L811.58,106.268 L811.58,111 L808.836,111 L808.836,106.268 L799.792,106.268 L799.792,103.748 L799.792,103.748 Z" id="Sprint-4" fill="#FFFFFF"></path>
                <path d="M887.616,104.98 L887.588,105.568 C887.588,106.669339 888.003329,107.481331 888.834,108.004 C889.664671,108.526669 890.779993,108.788 892.18,108.788 C893.580007,108.788 894.685996,108.531336 895.498,108.018 C896.310004,107.504664 896.716,106.800004 896.716,105.904 C896.716,105.007996 896.436003,104.350002 895.876,103.93 C895.315997,103.509998 894.611338,103.169335 893.762,102.908 C892.912662,102.646665 891.993338,102.404001 891.004,102.18 C890.014662,101.955999 889.095338,101.638669 888.246,101.228 C887.396662,100.817331 886.692003,100.26667 886.132,99.576 C885.571997,98.88533 885.292,98.017339 885.292,96.972 C885.292,95.926661 885.473998,95.077337 885.838,94.424 C886.202002,93.770663 886.691997,93.229335 887.308,92.8 C888.521339,91.941329 890.145323,91.512 892.18,91.512 C894.158677,91.512 895.754661,91.931996 896.968,92.772 C898.29334,93.686671 898.956,95.058658 898.956,96.888 L898.956,97.224 L896.212,97.224 L896.212,96.804 C896.212,95.889329 895.83867,95.194002 895.092,94.718 C894.34533,94.241998 893.393339,94.004 892.236,94.004 C890.27599,94.004 888.988003,94.470662 888.372,95.404 C888.147999,95.721335 888.036,96.103998 888.036,96.552 C888.036,97.29867 888.315997,97.867998 888.876,98.26 C889.436003,98.652002 890.140662,98.978665 890.99,99.24 C891.839338,99.501335 892.758662,99.748666 893.748,99.982 C894.737338,100.215334 895.656662,100.532665 896.506,100.934 C897.355338,101.335335 898.059997,101.876663 898.62,102.558 C899.180003,103.239337 899.46,104.139994 899.46,105.26 C899.46,106.398672 899.273335,107.345996 898.9,108.102 C898.526665,108.858004 898.013337,109.469331 897.36,109.936 C896.109327,110.832004 894.373344,111.28 892.152,111.28 C888.773316,111.28 886.533339,110.253344 885.432,108.2 C885.039998,107.471996 884.844,106.585339 884.844,105.54 L884.872,104.98 L887.616,104.98 L887.616,104.98 Z M905.9,109.18 L905.9,116.068 L903.268,116.068 L903.268,96.692 L905.228,96.692 C905.321334,97.046668 905.442666,97.699995 905.592,98.652 C906.656005,97.158659 908.130657,96.412 910.016,96.412 C911.714675,96.412 913.077328,96.999994 914.104,98.176 C915.242672,99.50134 915.812,101.395988 915.812,103.86 L915.812,104.168 C915.812,106.426678 915.270672,108.199994 914.188,109.488 C913.179995,110.682673 911.789342,111.28 910.016,111.28 C908.242658,111.28 906.870672,110.580007 905.9,109.18 L905.9,109.18 L905.9,109.18 Z M913.18,103.832 C913.18,101.031986 912.461341,99.352003 911.024,98.792 C910.575998,98.605332 910.081336,98.512 909.54,98.512 C908.363994,98.512 907.477336,98.894663 906.88,99.66 C906.207997,100.537338 905.872,101.92799 905.872,103.832 C905.872,106.650681 906.599993,108.34933 908.056,108.928 C908.504002,109.096001 908.998664,109.18 909.54,109.18 C910.697339,109.18 911.574664,108.797337 912.172,108.032 C912.844003,107.154662 913.18,105.754676 913.18,103.832 L913.18,103.832 L913.18,103.832 Z M930.26,100.892 L930.176,101.956 L927.852,101.956 L927.852,101.34 C927.852,100.686663 927.684002,100.154669 927.348,99.744 C926.731997,98.922663 925.976004,98.512 925.08,98.512 C924.090662,98.512 923.344003,98.941329 922.84,99.8 C922.429331,100.509337 922.224,101.395995 922.224,102.46 L922.224,111 L919.592,111 L919.592,96.692 L921.468,96.692 L921.86,98.82 C922.140001,97.979996 922.905327,97.298669 924.156,96.776 C924.697336,96.533332 925.322663,96.412 926.032,96.412 C926.741337,96.412 927.352664,96.528665 927.866,96.762 C928.379336,96.995335 928.813332,97.317331 929.168,97.728 C929.896004,98.549337 930.26,99.603994 930.26,100.892 L930.26,100.892 L930.26,100.892 Z M933.312,111 L933.312,96.692 L935.944,96.692 L935.944,111 L933.312,111 L933.312,111 Z M933.256,90.84 L936,90.84 L936,93.276 L933.256,93.276 L933.256,90.84 L933.256,90.84 Z M942.86,98.792 C944.07334,97.205325 945.66932,96.412 947.648,96.412 C949.98135,96.412 951.53066,97.317324 952.296,99.128 C952.55733,99.76267 952.688,100.509329 952.688,101.368 L952.688,111 L950.056,111 L950.056,101.844 C950.056,100.630661 949.776,99.772003 949.216,99.268 C948.656,98.763997 947.928,98.512 947.032,98.512 C946.02399,98.512 945.13734,98.894663 944.372,99.66 C943.60666,100.425337 943.224,101.367994 943.224,102.488 L943.224,111 L940.592,111 L940.592,96.692 L942.496,96.692 L942.86,98.792 L942.86,98.792 Z M961.872,109.236 C962.35734,109.236 962.936,109.096001 963.608,108.816 L963.608,110.776 C962.936,111.112002 962.06801,111.28 961.004,111.28 C959.92133,111.28 959.09067,110.96267 958.512,110.328 C957.93333,109.69333 957.644,108.648007 957.644,107.192 L957.644,98.792 L956.076,98.792 L956.076,96.692 L957.728,96.692 L958.624,92.128 L960.276,92.128 L960.276,96.692 L963.608,96.692 L963.608,98.792 L960.276,98.792 L960.276,107.332 C960.276,108.396005 960.612,109.002666 961.284,109.152 C961.47067,109.208 961.66667,109.236 961.872,109.236 L961.872,109.236 L961.872,109.236 Z M972.792,103.748 C975.33068,99.939981 977.31866,95.861355 978.756,91.512 L981.696,91.512 C981.06133,93.808011 980.00667,96.299987 978.532,98.988 C977.37466,101.097344 976.32934,102.693328 975.396,103.776 L981.836,103.776 L981.836,98.204 C982.48934,96.93466 982.99333,95.656006 983.348,94.368 L984.58,94.368 L984.58,103.776 L987.016,103.776 L987.016,106.268 L984.58,106.268 L984.58,111 L981.836,111 L981.836,106.268 L972.792,106.268 L972.792,103.748 L972.792,103.748 Z" id="Sprint-4-Copy" fill="#FFFFFF"></path>
            </g>
            <path d="M272.88322,244.336863 L272.88322,255.514176 L271.048419,255.514176 L271.048419,244.336863 L267.023088,244.336863 L267.023088,242.670564 L276.908551,242.670564 L276.908551,244.336863 L272.88322,244.336863 Z M280.09137,251.133119 C280.128815,252.60596 280.621835,253.579519 281.570445,254.053824 C281.894969,254.216086 282.306859,254.297216 282.806128,254.297216 C283.292914,254.297216 283.692323,254.203604 284.004366,254.016379 C284.316408,253.829153 284.553557,253.610727 284.715819,253.361093 C284.977935,252.961678 285.108991,252.493621 285.108991,251.956907 L286.775291,251.956907 C286.775291,253.092743 286.400845,254.003894 285.651943,254.690388 C284.90304,255.3644 283.941963,255.701401 282.768683,255.701401 L282.693793,255.701401 C281.383214,255.701401 280.334766,255.289511 279.548419,254.465718 C278.737108,253.591999 278.331458,252.412495 278.331458,250.927172 L278.331458,250.552722 C278.331458,249.067399 278.737108,247.887896 279.548419,247.014176 C280.309803,246.177902 281.339528,245.759771 282.637626,245.759771 L282.768683,245.759771 C283.954445,245.759771 284.915522,246.121735 285.651943,246.845674 C286.400845,247.569613 286.775291,248.555653 286.775291,249.803824 L286.775291,251.133119 L280.09137,251.133119 Z M282.67507,247.163956 C281.976095,247.163956 281.401945,247.379262 280.952604,247.809881 C280.503262,248.2405 280.228669,248.892659 280.128815,249.766379 L285.034101,249.766379 L285.034101,249.541709 C285.034101,248.792807 284.803193,248.199935 284.34137,247.763075 C283.916992,247.36366 283.361564,247.163956 282.67507,247.163956 L282.67507,247.163956 Z M288.628815,252.930476 L288.647537,252.518581 L290.388727,252.518581 L290.388727,252.705806 C290.388727,253.492154 290.887988,253.991415 291.886524,254.203604 C292.186085,254.266012 292.579253,254.297216 293.06604,254.297216 C293.552826,254.297216 294.014642,254.181762 294.451502,253.95085 C294.888362,253.719939 295.106789,253.392299 295.106789,252.967921 C295.106789,252.543543 294.95389,252.234625 294.648088,252.041159 C294.342286,251.847692 293.95848,251.697914 293.496656,251.591819 C293.034833,251.485725 292.538693,251.388993 292.00822,251.301621 C291.477748,251.214249 290.981607,251.073832 290.519784,250.880366 C290.057961,250.686899 289.674154,250.418547 289.368352,250.0753 C289.062551,249.732053 288.909652,249.242153 288.909652,248.605586 C288.909652,247.719385 289.259135,247.02354 289.95811,246.518031 C290.657086,246.012522 291.611922,245.759771 292.822648,245.759771 L292.99115,245.759771 C294.102022,245.759771 294.99445,246.015642 295.668463,246.527392 C296.317511,247.02666 296.642031,247.638255 296.642031,248.362194 L296.623308,248.699198 L294.882119,248.699198 L294.882119,248.530696 C294.882119,247.619531 294.176913,247.163956 292.76648,247.163956 C291.630645,247.163956 290.956643,247.44479 290.744454,248.006467 C290.694527,248.156247 290.669564,248.293544 290.669564,248.418361 C290.669564,248.767849 290.822462,249.029961 291.128264,249.204705 C291.434066,249.379449 291.817873,249.516745 292.279696,249.616599 C292.741519,249.716453 293.23766,249.813185 293.768132,249.906797 C294.298605,250.00041 294.794745,250.147068 295.256568,250.346775 C296.329995,250.796117 296.8667,251.557489 296.8667,252.630916 C296.8667,253.716825 296.473533,254.515642 295.687185,255.027392 C294.988209,255.476734 294.027132,255.701401 292.803925,255.701401 L292.523088,255.701401 C291.249954,255.701401 290.270155,255.414326 289.583661,254.840167 C288.947094,254.315936 288.628815,253.679378 288.628815,252.930476 L288.628815,252.930476 Z M302.464718,254.334661 C302.789242,254.334661 303.17617,254.241049 303.625511,254.053824 L303.625511,255.364396 C303.17617,255.589067 302.595779,255.701401 301.884322,255.701401 C301.160383,255.701401 300.604955,255.489215 300.218022,255.064837 C299.831089,254.640459 299.637626,253.941494 299.637626,252.967921 L299.637626,247.351181 L298.589167,247.351181 L298.589167,245.946996 L299.693793,245.946996 L300.292912,242.895233 L301.397537,242.895233 L301.397537,245.946996 L303.625511,245.946996 L303.625511,247.351181 L301.397537,247.351181 L301.397537,253.061533 C301.397537,253.77299 301.622205,254.17864 302.071546,254.278493 C302.196363,254.315939 302.327419,254.334661 302.464718,254.334661 L302.464718,254.334661 Z M306.976833,251.133119 C307.014278,252.60596 307.507298,253.579519 308.455907,254.053824 C308.780432,254.216086 309.192322,254.297216 309.69159,254.297216 C310.178377,254.297216 310.577786,254.203604 310.889828,254.016379 C311.201871,253.829153 311.43902,253.610727 311.601282,253.361093 C311.863398,252.961678 311.994454,252.493621 311.994454,251.956907 L313.660753,251.956907 C313.660753,253.092743 313.286308,254.003894 312.537405,254.690388 C311.788503,255.3644 310.827426,255.701401 309.654145,255.701401 L309.579256,255.701401 C308.268676,255.701401 307.220229,255.289511 306.433881,254.465718 C305.62257,253.591999 305.216921,252.412495 305.216921,250.927172 L305.216921,250.552722 C305.216921,249.067399 305.62257,247.887896 306.433881,247.014176 C307.195265,246.177902 308.224991,245.759771 309.523088,245.759771 L309.654145,245.759771 C310.839908,245.759771 311.800985,246.121735 312.537405,246.845674 C313.286308,247.569613 313.660753,248.555653 313.660753,249.803824 L313.660753,251.133119 L306.976833,251.133119 Z M309.560533,247.163956 C308.861557,247.163956 308.287408,247.379262 307.838066,247.809881 C307.388725,248.2405 307.114131,248.892659 307.014278,249.766379 L311.919564,249.766379 L311.919564,249.541709 C311.919564,248.792807 311.688656,248.199935 311.226833,247.763075 C310.802455,247.36366 310.247027,247.163956 309.560533,247.163956 L309.560533,247.163956 Z M317.742251,247.351181 C318.553562,246.290236 319.620732,245.759771 320.943793,245.759771 C322.504006,245.759771 323.539972,246.365125 324.051722,247.57585 C324.226466,248.000228 324.313837,248.499489 324.313837,249.073648 L324.313837,255.514176 L322.553925,255.514176 L322.553925,249.39193 C322.553925,248.580619 322.366702,248.006469 321.992251,247.669463 C321.6178,247.332456 321.131021,247.163956 320.531899,247.163956 C319.857886,247.163956 319.265014,247.419827 318.753264,247.931577 C318.241514,248.443327 317.985643,249.073644 317.985643,249.822546 L317.985643,255.514176 L316.225731,255.514176 L316.225731,245.946996 L317.498859,245.946996 L317.742251,247.351181 Z M345.657449,253.847877 C347.305035,253.847877 348.378445,253.105226 348.877714,251.619903 C349.052458,251.108153 349.139828,250.484077 349.139828,249.747656 L349.139828,248.437084 C349.139828,246.36512 348.440863,245.079524 347.042912,244.580256 C346.618534,244.417993 346.156718,244.336863 345.657449,244.336863 L343.036304,244.336863 L343.036304,253.847877 L345.657449,253.847877 Z M341.201502,255.514176 L341.201502,242.670564 L345.657449,242.670564 C347.205181,242.670564 348.453333,243.144862 349.401943,244.093471 C350.450406,245.116971 350.97463,246.564828 350.97463,248.437084 L350.97463,249.747656 C350.97463,251.619912 350.450406,253.067769 349.401943,254.091269 C348.453333,255.039878 347.205181,255.514176 345.657449,255.514176 L341.201502,255.514176 Z M354.831458,251.133119 C354.868903,252.60596 355.361923,253.579519 356.310533,254.053824 C356.635057,254.216086 357.046948,254.297216 357.546216,254.297216 C358.033002,254.297216 358.432411,254.203604 358.744454,254.016379 C359.056496,253.829153 359.293645,253.610727 359.455907,253.361093 C359.718023,252.961678 359.849079,252.493621 359.849079,251.956907 L361.515379,251.956907 C361.515379,253.092743 361.140933,254.003894 360.392031,254.690388 C359.643128,255.3644 358.682051,255.701401 357.508771,255.701401 L357.433881,255.701401 C356.123302,255.701401 355.074854,255.289511 354.288507,254.465718 C353.477196,253.591999 353.071546,252.412495 353.071546,250.927172 L353.071546,250.552722 C353.071546,249.067399 353.477196,247.887896 354.288507,247.014176 C355.049891,246.177902 356.079616,245.759771 357.377714,245.759771 L357.508771,245.759771 C358.694533,245.759771 359.65561,246.121735 360.392031,246.845674 C361.140933,247.569613 361.515379,248.555653 361.515379,249.803824 L361.515379,251.133119 L354.831458,251.133119 Z M357.415159,247.163956 C356.716183,247.163956 356.142033,247.379262 355.692692,247.809881 C355.24335,248.2405 354.968757,248.892659 354.868903,249.766379 L359.774189,249.766379 L359.774189,249.541709 C359.774189,248.792807 359.543281,248.199935 359.081458,247.763075 C358.65708,247.36366 358.101652,247.163956 357.415159,247.163956 L357.415159,247.163956 Z M363.368903,252.930476 L363.387626,252.518581 L365.128815,252.518581 L365.128815,252.705806 C365.128815,253.492154 365.628076,253.991415 366.626612,254.203604 C366.926173,254.266012 367.319341,254.297216 367.806128,254.297216 C368.292914,254.297216 368.754731,254.181762 369.19159,253.95085 C369.62845,253.719939 369.846877,253.392299 369.846877,252.967921 C369.846877,252.543543 369.693978,252.234625 369.388176,252.041159 C369.082374,251.847692 368.698568,251.697914 368.236744,251.591819 C367.774921,251.485725 367.278781,251.388993 366.748308,251.301621 C366.217836,251.214249 365.721695,251.073832 365.259872,250.880366 C364.798049,250.686899 364.414242,250.418547 364.108441,250.0753 C363.802639,249.732053 363.64974,249.242153 363.64974,248.605586 C363.64974,247.719385 363.999223,247.02354 364.698198,246.518031 C365.397174,246.012522 366.35201,245.759771 367.562736,245.759771 L367.731238,245.759771 C368.84211,245.759771 369.734538,246.015642 370.408551,246.527392 C371.057599,247.02666 371.382119,247.638255 371.382119,248.362194 L371.363396,248.699198 L369.622207,248.699198 L369.622207,248.530696 C369.622207,247.619531 368.917001,247.163956 367.506568,247.163956 C366.370733,247.163956 365.696731,247.44479 365.484542,248.006467 C365.434615,248.156247 365.409652,248.293544 365.409652,248.418361 C365.409652,248.767849 365.562551,249.029961 365.868352,249.204705 C366.174154,249.379449 366.557961,249.516745 367.019784,249.616599 C367.481607,249.716453 367.977748,249.813185 368.50822,249.906797 C369.038693,250.00041 369.534833,250.147068 369.996656,250.346775 C371.070083,250.796117 371.606789,251.557489 371.606789,252.630916 C371.606789,253.716825 371.213621,254.515642 370.427273,255.027392 C369.728298,255.476734 368.767221,255.701401 367.544013,255.701401 L367.263176,255.701401 C365.990042,255.701401 365.010243,255.414326 364.323749,254.840167 C363.687182,254.315936 363.368903,253.679378 363.368903,252.930476 L363.368903,252.930476 Z M374.078154,255.514176 L374.078154,245.946996 L375.838066,245.946996 L375.838066,255.514176 L374.078154,255.514176 Z M374.040709,242.034 L375.875511,242.034 L375.875511,243.662855 L374.040709,243.662855 L374.040709,242.034 Z M385.760974,246.714617 C386.385059,247.25133 386.697097,247.937814 386.697097,248.774088 C386.697097,249.635326 386.385059,250.340532 385.760974,250.889727 C385.099443,251.476367 384.157088,251.769683 382.933881,251.769683 L381.660753,251.769683 C381.286302,251.769683 380.974264,251.866415 380.72463,252.059881 C380.474996,252.253348 380.350181,252.499858 380.350181,252.799419 C380.350181,253.098979 380.468755,253.336128 380.705907,253.510872 C380.94306,253.685616 381.261339,253.772987 381.660753,253.772987 L385.274189,253.772987 C386.023092,253.772987 386.615964,254.003895 387.052824,254.465718 C387.489684,254.927541 387.70811,255.514173 387.70811,256.22563 C387.70811,257.111831 387.364868,257.810796 386.678374,258.322546 C386.041807,258.796851 385.199305,259.034 384.150841,259.034 L380.387626,259.034 C379.738577,259.034 379.18939,258.796851 378.740048,258.322546 C378.290707,257.848241 378.06604,257.336499 378.06604,256.787304 C378.06604,256.250591 378.197096,255.788774 378.459211,255.401841 C378.721327,255.014908 379.058328,254.734074 379.470225,254.55933 C378.896066,254.197361 378.608991,253.679378 378.608991,253.005366 C378.608991,252.543542 378.743168,252.153495 379.011524,251.835211 C379.279881,251.516928 379.644965,251.276659 380.106789,251.114396 C379.270514,250.640092 378.852383,249.859997 378.852383,248.774088 C378.852383,247.887887 379.164421,247.17644 379.788507,246.639727 C380.462519,246.053087 381.436077,245.759771 382.709211,245.759771 L382.784101,245.759771 C383.495559,245.759771 384.132116,245.865864 384.693793,246.078053 C385.579994,245.641193 386.085496,245.023358 386.210313,244.224529 L387.70811,244.224529 C387.70811,244.848614 387.53961,245.379079 387.202604,245.815938 C386.865597,246.252798 386.39754,246.533632 385.798419,246.658449 L385.760974,246.714617 Z M380.593573,248.774088 C380.593573,249.360728 380.802638,249.772618 381.220775,250.009771 C381.638913,250.246923 382.153775,250.365498 382.765379,250.365498 C383.376982,250.365498 383.894966,250.246923 384.319344,250.009771 C384.743722,249.772618 384.955907,249.360728 384.955907,248.774088 C384.955907,248.187448 384.743722,247.772437 384.319344,247.529044 C383.894966,247.285651 383.376982,247.163956 382.765379,247.163956 C382.153775,247.163956 381.638913,247.285651 381.220775,247.529044 C380.802638,247.772437 380.593573,248.187448 380.593573,248.774088 L380.593573,248.774088 Z M384.506568,257.629815 C384.905983,257.629815 385.249225,257.514361 385.536304,257.283449 C385.823383,257.052538 385.966921,256.787305 385.966921,256.487744 C385.966921,256.188184 385.863948,255.941674 385.658,255.748207 C385.452052,255.554741 385.149375,255.458009 384.74996,255.458009 L380.893132,255.458009 C380.593571,255.458009 380.3377,255.564102 380.125511,255.776291 C379.913322,255.98848 379.807229,256.244351 379.807229,256.543912 C379.807229,256.843473 379.913322,257.099344 380.125511,257.311533 C380.3377,257.523722 380.593571,257.629815 380.893132,257.629815 L384.506568,257.629815 Z M391.096877,247.351181 C391.908188,246.290236 392.975358,245.759771 394.298419,245.759771 C395.858632,245.759771 396.894598,246.365125 397.406348,247.57585 C397.581092,248.000228 397.668463,248.499489 397.668463,249.073648 L397.668463,255.514176 L395.908551,255.514176 L395.908551,249.39193 C395.908551,248.580619 395.721328,248.006469 395.346877,247.669463 C394.972425,247.332456 394.485646,247.163956 393.886524,247.163956 C393.212512,247.163956 392.61964,247.419827 392.10789,247.931577 C391.59614,248.443327 391.340269,249.073644 391.340269,249.822546 L391.340269,255.514176 L389.580357,255.514176 L389.580357,245.946996 L390.853485,245.946996 L391.096877,247.351181 Z M407.684982,242.708009 C408.196732,242.558228 408.683512,242.483339 409.145335,242.483339 C409.607158,242.483339 410.044011,242.527025 410.455907,242.614396 L410.455907,244.318141 C410.093938,244.205806 409.744455,244.149639 409.407449,244.149639 C409.057962,244.149639 408.730322,244.190204 408.42452,244.271335 C408.118718,244.352466 407.853486,244.46792 407.628815,244.6177 C407.142028,244.967188 406.898639,245.460208 406.898639,246.096775 C406.898639,246.658452 407.129547,247.138991 407.59137,247.538405 C408.078157,247.925338 408.689751,248.118802 409.426172,248.118802 L411.729035,248.118802 L412.253264,245.441489 L413.526392,245.441489 L413.526392,248.118802 L415.548419,248.118802 L415.548419,249.785101 L413.526392,249.785101 L413.526392,255.514176 L409.313837,255.514176 C408.028221,255.514176 406.967292,255.227101 406.131018,254.652943 C405.232335,254.016376 404.783,253.098984 404.783,251.90074 C404.783,250.36549 405.569336,249.360728 407.142031,248.886423 L407.198198,248.848978 C406.599076,248.586862 406.096695,248.234259 405.69104,247.791159 C405.285384,247.348058 405.082559,246.795751 405.082559,246.13422 C405.082559,245.47269 405.198014,244.923503 405.428925,244.486643 C405.659837,244.049783 405.965634,243.681579 406.346326,243.382018 C406.727018,243.082457 407.173232,242.857789 407.684982,242.708009 L407.684982,242.708009 Z M409.557229,249.785101 C408.621101,249.785101 407.897173,249.953602 407.385423,250.290608 C406.873673,250.627614 406.617802,251.133116 406.617802,251.807128 C406.617802,252.506103 406.904877,253.030327 407.479035,253.379815 C408.003267,253.691858 408.702232,253.847877 409.575952,253.847877 L411.69159,253.847877 L411.69159,249.785101 L409.557229,249.785101 Z M427.961414,251.133119 C426.363756,251.133119 425.296586,251.217369 424.759872,251.385872 C424.223159,251.554375 423.848713,251.75408 423.636524,251.984991 C423.424335,252.215903 423.318242,252.556024 423.318242,253.005366 C423.318242,253.866603 423.973522,254.297216 425.284101,254.297216 C425.983077,254.297216 426.600912,254.053826 427.137626,253.56704 C427.686821,253.05529 427.961414,252.368806 427.961414,251.507568 L427.961414,251.133119 Z M428.036304,253.978934 C427.27492,255.127251 426.157824,255.701401 424.684982,255.701401 C423.237104,255.701401 422.282268,255.252066 421.820445,254.353383 C421.645701,253.991414 421.55833,253.492153 421.55833,252.855586 C421.55833,252.219019 421.714349,251.691675 422.026392,251.273537 C422.338435,250.8554 422.775288,250.534001 423.336965,250.30933 C424.235648,249.947361 425.777115,249.766379 427.961414,249.766379 L427.961414,248.886423 C427.961414,248.399636 427.874043,248.050154 427.6993,247.837965 C427.312367,247.388623 426.669568,247.163956 425.770885,247.163956 C424.897166,247.163956 424.285571,247.376142 423.936084,247.80052 C423.736376,248.050154 423.636524,248.337229 423.636524,248.661753 L423.636524,248.886423 L421.914057,248.886423 C421.889094,248.761606 421.876612,248.555661 421.876612,248.268581 C421.876612,247.993984 421.976464,247.688187 422.176172,247.351181 C422.375879,247.014175 422.650473,246.7271 422.99996,246.489947 C423.748863,246.003161 424.684977,245.759771 425.80833,245.759771 L425.976833,245.759771 C427.249967,245.759771 428.192321,246.012522 428.803925,246.518031 C429.415529,247.02354 429.721326,247.744348 429.721326,248.680476 L429.721326,253.64193 C429.721326,253.879082 429.774372,254.047582 429.880467,254.147436 C429.986561,254.24729 430.108256,254.297216 430.245555,254.297216 C430.545116,254.297216 430.832191,254.209845 431.106789,254.035101 L431.106789,255.326952 C430.694892,255.576586 430.214354,255.701401 429.665159,255.701401 C429.103482,255.701401 428.697832,255.539141 428.448198,255.214617 C428.198564,254.890092 428.061267,254.478202 428.036304,253.978934 L428.036304,253.978934 Z M434.68278,247.351181 C435.494091,246.290236 436.561261,245.759771 437.884322,245.759771 C439.444535,245.759771 440.480501,246.365125 440.992251,247.57585 C441.166995,248.000228 441.254366,248.499489 441.254366,249.073648 L441.254366,255.514176 L439.494454,255.514176 L439.494454,249.39193 C439.494454,248.580619 439.307231,248.006469 438.93278,247.669463 C438.558329,247.332456 438.071549,247.163956 437.472427,247.163956 C436.798415,247.163956 436.205543,247.419827 435.693793,247.931577 C435.182043,248.443327 434.926172,249.073644 434.926172,249.822546 L434.926172,255.514176 L433.16626,255.514176 L433.16626,245.946996 L434.439388,245.946996 L434.68278,247.351181 Z M450.01648,251.133119 C448.418822,251.133119 447.351652,251.217369 446.814938,251.385872 C446.278225,251.554375 445.903779,251.75408 445.69159,251.984991 C445.479401,252.215903 445.373308,252.556024 445.373308,253.005366 C445.373308,253.866603 446.028588,254.297216 447.339167,254.297216 C448.038143,254.297216 448.655978,254.053826 449.192692,253.56704 C449.741887,253.05529 450.01648,252.368806 450.01648,251.507568 L450.01648,251.133119 Z M450.09137,253.978934 C449.329986,255.127251 448.21289,255.701401 446.740048,255.701401 C445.29217,255.701401 444.337334,255.252066 443.875511,254.353383 C443.700767,253.991414 443.613396,253.492153 443.613396,252.855586 C443.613396,252.219019 443.769415,251.691675 444.081458,251.273537 C444.393501,250.8554 444.830354,250.534001 445.392031,250.30933 C446.290714,249.947361 447.832181,249.766379 450.01648,249.766379 L450.01648,248.886423 C450.01648,248.399636 449.92911,248.050154 449.754366,247.837965 C449.367433,247.388623 448.724634,247.163956 447.825952,247.163956 C446.952232,247.163956 446.340638,247.376142 445.99115,247.80052 C445.791442,248.050154 445.69159,248.337229 445.69159,248.661753 L445.69159,248.886423 L443.969123,248.886423 C443.94416,248.761606 443.931678,248.555661 443.931678,248.268581 C443.931678,247.993984 444.031531,247.688187 444.231238,247.351181 C444.430945,247.014175 444.705539,246.7271 445.055026,246.489947 C445.803929,246.003161 446.740043,245.759771 447.863396,245.759771 L448.031899,245.759771 C449.305033,245.759771 450.247388,246.012522 450.858991,246.518031 C451.470595,247.02354 451.776392,247.744348 451.776392,248.680476 L451.776392,253.64193 C451.776392,253.879082 451.829439,254.047582 451.935533,254.147436 C452.041628,254.24729 452.163322,254.297216 452.300621,254.297216 C452.600182,254.297216 452.887257,254.209845 453.161855,254.035101 L453.161855,255.326952 C452.749958,255.576586 452.26942,255.701401 451.720225,255.701401 C451.158548,255.701401 450.752898,255.539141 450.503264,255.214617 C450.25363,254.890092 450.116333,254.478202 450.09137,253.978934 L450.09137,253.978934 Z M455.296216,255.514176 L455.296216,242.034 L457.056128,242.034 L457.056128,255.514176 L455.296216,255.514176 Z M459.564938,257.292811 C459.951871,257.467554 460.263909,257.554925 460.501062,257.554925 C460.738214,257.554925 460.937918,257.533082 461.100181,257.489396 C461.262443,257.445711 461.430943,257.348979 461.605687,257.199198 C462.030065,256.837229 462.373307,256.244357 462.635423,255.420564 L458.909652,245.946996 L460.781899,245.946996 L463.534101,253.005366 L463.608991,253.005366 L466.323749,245.946996 L468.046216,245.946996 L464.470225,255.139727 C463.945993,256.425343 463.50914,257.286568 463.159652,257.723427 C462.810164,258.160287 462.460682,258.481686 462.111194,258.687634 C461.761706,258.893583 461.349816,258.996555 460.875511,258.996555 C460.388724,258.996555 459.951871,258.909184 459.564938,258.734441 L459.564938,257.292811 Z M469.113396,252.930476 L469.132119,252.518581 L470.873308,252.518581 L470.873308,252.705806 C470.873308,253.492154 471.372569,253.991415 472.371106,254.203604 C472.670667,254.266012 473.063835,254.297216 473.550621,254.297216 C474.037408,254.297216 474.499224,254.181762 474.936084,253.95085 C475.372943,253.719939 475.59137,253.392299 475.59137,252.967921 C475.59137,252.543543 475.438471,252.234625 475.13267,252.041159 C474.826868,251.847692 474.443061,251.697914 473.981238,251.591819 C473.519415,251.485725 473.023274,251.388993 472.492802,251.301621 C471.962329,251.214249 471.466189,251.073832 471.004366,250.880366 C470.542542,250.686899 470.158736,250.418547 469.852934,250.0753 C469.547132,249.732053 469.394233,249.242153 469.394233,248.605586 C469.394233,247.719385 469.743716,247.02354 470.442692,246.518031 C471.141667,246.012522 472.096503,245.759771 473.307229,245.759771 L473.475731,245.759771 C474.586603,245.759771 475.479032,246.015642 476.153044,246.527392 C476.802093,247.02666 477.126612,247.638255 477.126612,248.362194 L477.10789,248.699198 L475.3667,248.699198 L475.3667,248.530696 C475.3667,247.619531 474.661495,247.163956 473.251062,247.163956 C472.115226,247.163956 471.441224,247.44479 471.229035,248.006467 C471.179108,248.156247 471.154145,248.293544 471.154145,248.418361 C471.154145,248.767849 471.307044,249.029961 471.612846,249.204705 C471.918648,249.379449 472.302454,249.516745 472.764278,249.616599 C473.226101,249.716453 473.722241,249.813185 474.252714,249.906797 C474.783186,250.00041 475.279327,250.147068 475.74115,250.346775 C476.814577,250.796117 477.351282,251.557489 477.351282,252.630916 C477.351282,253.716825 476.958114,254.515642 476.171767,255.027392 C475.472791,255.476734 474.511714,255.701401 473.288507,255.701401 L473.00767,255.701401 C471.734535,255.701401 470.754736,255.414326 470.068242,254.840167 C469.431675,254.315936 469.113396,253.679378 469.113396,252.930476 L469.113396,252.930476 Z M480.983441,251.133119 C481.020886,252.60596 481.513906,253.579519 482.462515,254.053824 C482.78704,254.216086 483.19893,254.297216 483.698198,254.297216 C484.184985,254.297216 484.584393,254.203604 484.896436,254.016379 C485.208479,253.829153 485.445628,253.610727 485.60789,253.361093 C485.870006,252.961678 486.001062,252.493621 486.001062,251.956907 L487.667361,251.956907 C487.667361,253.092743 487.292916,254.003894 486.544013,254.690388 C485.795111,255.3644 484.834034,255.701401 483.660753,255.701401 L483.585863,255.701401 C482.275284,255.701401 481.226837,255.289511 480.440489,254.465718 C479.629178,253.591999 479.223529,252.412495 479.223529,250.927172 L479.223529,250.552722 C479.223529,249.067399 479.629178,247.887896 480.440489,247.014176 C481.201873,246.177902 482.231599,245.759771 483.529696,245.759771 L483.660753,245.759771 C484.846515,245.759771 485.807592,246.121735 486.544013,246.845674 C487.292916,247.569613 487.667361,248.555653 487.667361,249.803824 L487.667361,251.133119 L480.983441,251.133119 Z M483.567141,247.163956 C482.868165,247.163956 482.294015,247.379262 481.844674,247.809881 C481.395333,248.2405 481.120739,248.892659 481.020885,249.766379 L485.926172,249.766379 L485.926172,249.541709 C485.926172,248.792807 485.695264,248.199935 485.233441,247.763075 C484.809062,247.36366 484.253635,247.163956 483.567141,247.163956 L483.567141,247.163956 Z M514.178374,255.458009 C513.891295,255.570344 513.597979,255.626511 513.298419,255.626511 C513.048784,255.626511 512.792913,255.589066 512.530797,255.514176 C512.081456,255.389359 511.756936,255.021154 511.557229,254.409551 C511.444894,254.097508 511.388727,253.654414 511.388727,253.080256 C511.388727,252.506097 511.316958,252.003716 511.173419,251.573097 C511.029879,251.142478 510.845776,250.796116 510.621106,250.534 C510.234173,250.084659 509.759875,249.859991 509.198198,249.859991 L505.940489,249.859991 L505.940489,255.514176 L504.105687,255.514176 L504.105687,242.670564 L509.572648,242.670564 C511.332568,242.670564 512.524553,243.257195 513.148639,244.430476 C513.360828,244.82989 513.466921,245.248021 513.466921,245.684881 C513.466921,246.134223 513.407633,246.52739 513.289057,246.864396 C513.170481,247.201403 513.005101,247.513441 512.792912,247.80052 C512.356052,248.399642 511.813106,248.761606 511.164057,248.886423 L511.164057,248.980035 C511.98785,249.292078 512.586963,249.916154 512.961414,250.852282 C513.136158,251.289142 513.223529,251.782162 513.223529,252.331357 C513.223529,252.893034 513.245371,253.317405 513.289057,253.604485 C513.332743,253.891564 513.39203,254.122472 513.466921,254.297216 C513.616701,254.609259 513.85385,254.821444 514.178374,254.93378 L514.178374,255.458009 Z M509.59137,248.193692 C510.140565,248.193692 510.621104,248.01271 511.033,247.65074 C511.432415,247.288771 511.632119,246.839436 511.632119,246.302722 L511.632119,246.227833 C511.632119,245.691119 511.448017,245.241784 511.079806,244.879815 C510.711596,244.517845 510.215455,244.336863 509.59137,244.336863 L505.940489,244.336863 L505.940489,248.193692 L509.59137,248.193692 Z M517.642031,251.133119 C517.679476,252.60596 518.172496,253.579519 519.121106,254.053824 C519.44563,254.216086 519.85752,254.297216 520.356789,254.297216 C520.843575,254.297216 521.242984,254.203604 521.555026,254.016379 C521.867069,253.829153 522.104218,253.610727 522.26648,253.361093 C522.528596,252.961678 522.659652,252.493621 522.659652,251.956907 L524.325952,251.956907 C524.325952,253.092743 523.951506,254.003894 523.202604,254.690388 C522.453701,255.3644 521.492624,255.701401 520.319344,255.701401 L520.244454,255.701401 C518.933875,255.701401 517.885427,255.289511 517.099079,254.465718 C516.287768,253.591999 515.882119,252.412495 515.882119,250.927172 L515.882119,250.552722 C515.882119,249.067399 516.287768,247.887896 517.099079,247.014176 C517.860463,246.177902 518.890189,245.759771 520.188286,245.759771 L520.319344,245.759771 C521.505106,245.759771 522.466183,246.121735 523.202604,246.845674 C523.951506,247.569613 524.325952,248.555653 524.325952,249.803824 L524.325952,251.133119 L517.642031,251.133119 Z M520.225731,247.163956 C519.526756,247.163956 518.952606,247.379262 518.503264,247.809881 C518.053923,248.2405 517.779329,248.892659 517.679476,249.766379 L522.584762,249.766379 L522.584762,249.541709 C522.584762,248.792807 522.353854,248.199935 521.892031,247.763075 C521.467653,247.36366 520.912225,247.163956 520.225731,247.163956 L520.225731,247.163956 Z M533.406348,247.463515 L534.024189,245.946996 L534.698198,245.946996 L534.698198,258.88422 L532.938286,258.88422 L532.938286,254.297216 C532.663689,254.684149 532.283002,255.014909 531.796216,255.289507 C531.309429,255.564104 530.766483,255.701401 530.167361,255.701401 C529.568239,255.701401 529.040895,255.601549 528.585313,255.401841 C528.12973,255.202134 527.733442,254.902578 527.396436,254.503163 C526.672497,253.641925 526.310533,252.456181 526.310533,250.945894 L526.310533,250.739947 C526.310533,249.092362 526.691219,247.825488 527.452604,246.939286 C528.139097,246.152939 529.050248,245.759771 530.186084,245.759771 C531.608998,245.759771 532.682409,246.32768 533.406348,247.463515 L533.406348,247.463515 Z M532.957009,250.721225 C532.957009,248.848969 532.47647,247.725632 531.515379,247.351181 C531.215818,247.226364 530.885058,247.163956 530.523088,247.163956 C529.736741,247.163956 529.143868,247.419827 528.744454,247.931577 C528.295112,248.518217 528.070445,249.448091 528.070445,250.721225 C528.070445,252.605962 528.557224,253.741781 529.530797,254.128714 C529.830358,254.241049 530.161119,254.297216 530.523088,254.297216 C531.296954,254.297216 531.883585,254.041345 532.283,253.529595 C532.732341,252.942954 532.957009,252.00684 532.957009,250.721225 L532.957009,250.721225 Z M547.167361,255.326952 C546.79291,255.576586 546.399742,255.701401 545.987846,255.701401 C545.563468,255.701401 545.248309,255.657716 545.042361,255.570344 C544.836413,255.482972 544.664792,255.364397 544.527493,255.214617 C544.290341,254.952501 544.159285,254.590537 544.134322,254.128714 C543.647535,254.840171 542.954811,255.320709 542.056128,255.570344 C541.756567,255.657716 541.407084,255.701401 541.00767,255.701401 C540.595773,255.701401 540.183883,255.635873 539.771987,255.504815 C539.36009,255.373757 538.998126,255.177173 538.686084,254.915057 C538.037035,254.328417 537.712515,253.485914 537.712515,252.387524 L537.712515,245.946996 L539.472427,245.946996 L539.472427,252.069242 C539.472427,252.880553 539.65965,253.454703 540.034101,253.791709 C540.408553,254.128715 540.895332,254.297216 541.494454,254.297216 C542.168466,254.297216 542.761338,254.041345 543.273088,253.529595 C543.784838,253.017845 544.040709,252.387528 544.040709,251.638626 L544.040709,245.946996 L545.800621,245.946996 L545.800621,253.64193 C545.800621,253.879082 545.853668,254.047582 545.959762,254.147436 C546.065857,254.24729 546.187551,254.297216 546.32485,254.297216 C546.611929,254.297216 546.892764,254.209845 547.167361,254.035101 L547.167361,255.326952 Z M549.376612,255.514176 L549.376612,245.946996 L551.136524,245.946996 L551.136524,255.514176 L549.376612,255.514176 Z M549.339167,242.034 L551.173969,242.034 L551.173969,243.662855 L549.339167,243.662855 L549.339167,242.034 Z M561.377714,248.755366 L561.321546,249.466819 L559.767581,249.466819 L559.767581,249.054925 C559.767581,248.618065 559.655248,248.262342 559.430577,247.987744 C559.018681,247.438549 558.513179,247.163956 557.914057,247.163956 C557.252527,247.163956 556.753266,247.451031 556.41626,248.025189 C556.141662,248.499494 556.004366,249.092366 556.004366,249.803824 L556.004366,255.514176 L554.244454,255.514176 L554.244454,245.946996 L555.498859,245.946996 L555.760974,247.369903 C555.948199,246.808226 556.459941,246.352651 557.296216,246.003163 C557.658185,245.840901 558.076316,245.759771 558.550621,245.759771 C559.024926,245.759771 559.433696,245.83778 559.776943,245.993802 C560.12019,246.149823 560.410385,246.365129 560.647537,246.639727 C561.134324,247.188922 561.377714,247.894128 561.377714,248.755366 L561.377714,248.755366 Z M564.579256,251.133119 C564.616701,252.60596 565.109721,253.579519 566.05833,254.053824 C566.382855,254.216086 566.794745,254.297216 567.294013,254.297216 C567.7808,254.297216 568.180208,254.203604 568.492251,254.016379 C568.804294,253.829153 569.041443,253.610727 569.203705,253.361093 C569.465821,252.961678 569.596877,252.493621 569.596877,251.956907 L571.263176,251.956907 C571.263176,253.092743 570.888731,254.003894 570.139828,254.690388 C569.390926,255.3644 568.429849,255.701401 567.256568,255.701401 L567.181678,255.701401 C565.871099,255.701401 564.822652,255.289511 564.036304,254.465718 C563.224993,253.591999 562.819344,252.412495 562.819344,250.927172 L562.819344,250.552722 C562.819344,249.067399 563.224993,247.887896 564.036304,247.014176 C564.797688,246.177902 565.827413,245.759771 567.125511,245.759771 L567.256568,245.759771 C568.44233,245.759771 569.403407,246.121735 570.139828,246.845674 C570.888731,247.569613 571.263176,248.555653 571.263176,249.803824 L571.263176,251.133119 L564.579256,251.133119 Z M567.162956,247.163956 C566.46398,247.163956 565.88983,247.379262 565.440489,247.809881 C564.991148,248.2405 564.716554,248.892659 564.6167,249.766379 L569.521987,249.766379 L569.521987,249.541709 C569.521987,248.792807 569.291079,248.199935 568.829256,247.763075 C568.404877,247.36366 567.84945,247.163956 567.162956,247.163956 L567.162956,247.163956 Z M579.557229,249.39193 C579.557229,247.906606 578.983079,247.163956 577.834762,247.163956 C577.223158,247.163956 576.695814,247.419827 576.252714,247.931577 C575.809613,248.443327 575.588066,249.073644 575.588066,249.822546 L575.588066,255.514176 L573.828154,255.514176 L573.828154,245.946996 L575.101282,245.946996 L575.344674,247.351181 C576.081095,246.290236 577.085857,245.759771 578.358991,245.759771 C579.619644,245.759771 580.49335,246.290236 580.980137,247.351181 C581.44196,246.702132 581.925619,246.27464 582.431128,246.068692 C582.936637,245.862743 583.432777,245.759771 583.919564,245.759771 C584.393869,245.759771 584.81824,245.825299 585.192692,245.956357 C585.567143,246.087415 585.891662,246.290239 586.16626,246.564837 C586.7529,247.126514 587.046216,247.962776 587.046216,249.073648 L587.046216,255.514176 L585.286304,255.514176 L585.286304,249.39193 C585.286304,247.906606 584.712154,247.163956 583.563837,247.163956 C582.952233,247.163956 582.424889,247.419827 581.981789,247.931577 C581.538688,248.443327 581.317141,249.073644 581.317141,249.822546 L581.317141,255.514176 L579.557229,255.514176 L579.557229,249.39193 Z M591.221326,251.133119 C591.258771,252.60596 591.751791,253.579519 592.700401,254.053824 C593.024925,254.216086 593.436815,254.297216 593.936084,254.297216 C594.42287,254.297216 594.822279,254.203604 595.134322,254.016379 C595.446364,253.829153 595.683513,253.610727 595.845775,253.361093 C596.107891,252.961678 596.238947,252.493621 596.238947,251.956907 L597.905247,251.956907 C597.905247,253.092743 597.530801,254.003894 596.781899,254.690388 C596.032996,255.3644 595.071919,255.701401 593.898639,255.701401 L593.823749,255.701401 C592.51317,255.701401 591.464722,255.289511 590.678374,254.465718 C589.867063,253.591999 589.461414,252.412495 589.461414,250.927172 L589.461414,250.552722 C589.461414,249.067399 589.867063,247.887896 590.678374,247.014176 C591.439759,246.177902 592.469484,245.759771 593.767581,245.759771 L593.898639,245.759771 C595.084401,245.759771 596.045478,246.121735 596.781899,246.845674 C597.530801,247.569613 597.905247,248.555653 597.905247,249.803824 L597.905247,251.133119 L591.221326,251.133119 Z M593.805026,247.163956 C593.106051,247.163956 592.531901,247.379262 592.082559,247.809881 C591.633218,248.2405 591.358625,248.892659 591.258771,249.766379 L596.164057,249.766379 L596.164057,249.541709 C596.164057,248.792807 595.933149,248.199935 595.471326,247.763075 C595.046948,247.36366 594.49152,247.163956 593.805026,247.163956 L593.805026,247.163956 Z M601.986744,247.351181 C602.798055,246.290236 603.865225,245.759771 605.188286,245.759771 C606.7485,245.759771 607.784466,246.365125 608.296216,247.57585 C608.47096,248.000228 608.55833,248.499489 608.55833,249.073648 L608.55833,255.514176 L606.798419,255.514176 L606.798419,249.39193 C606.798419,248.580619 606.611196,248.006469 606.236744,247.669463 C605.862293,247.332456 605.375514,247.163956 604.776392,247.163956 C604.10238,247.163956 603.509508,247.419827 602.997758,247.931577 C602.486008,248.443327 602.230137,249.073644 602.230137,249.822546 L602.230137,255.514176 L600.470225,255.514176 L600.470225,245.946996 L601.743352,245.946996 L601.986744,247.351181 Z M614.6993,254.334661 C615.023824,254.334661 615.410751,254.241049 615.860093,254.053824 L615.860093,255.364396 C615.410751,255.589067 614.83036,255.701401 614.118903,255.701401 C613.394964,255.701401 612.839536,255.489215 612.452604,255.064837 C612.065671,254.640459 611.872207,253.941494 611.872207,252.967921 L611.872207,247.351181 L610.823749,247.351181 L610.823749,245.946996 L611.928374,245.946996 L612.527493,242.895233 L613.632119,242.895233 L613.632119,245.946996 L615.860093,245.946996 L615.860093,247.351181 L613.632119,247.351181 L613.632119,253.061533 C613.632119,253.77299 613.856786,254.17864 614.306128,254.278493 C614.430945,254.315939 614.562001,254.334661 614.6993,254.334661 L614.6993,254.334661 Z M617.339167,252.930476 L617.35789,252.518581 L619.099079,252.518581 L619.099079,252.705806 C619.099079,253.492154 619.59834,253.991415 620.596877,254.203604 C620.896438,254.266012 621.289605,254.297216 621.776392,254.297216 C622.263179,254.297216 622.724995,254.181762 623.161855,253.95085 C623.598714,253.719939 623.817141,253.392299 623.817141,252.967921 C623.817141,252.543543 623.664242,252.234625 623.358441,252.041159 C623.052639,251.847692 622.668832,251.697914 622.207009,251.591819 C621.745186,251.485725 621.249045,251.388993 620.718573,251.301621 C620.1881,251.214249 619.69196,251.073832 619.230137,250.880366 C618.768313,250.686899 618.384507,250.418547 618.078705,250.0753 C617.772903,249.732053 617.620004,249.242153 617.620004,248.605586 C617.620004,247.719385 617.969487,247.02354 618.668463,246.518031 C619.367438,246.012522 620.322274,245.759771 621.533,245.759771 L621.701502,245.759771 C622.812374,245.759771 623.704803,246.015642 624.378815,246.527392 C625.027864,247.02666 625.352383,247.638255 625.352383,248.362194 L625.333661,248.699198 L623.592471,248.699198 L623.592471,248.530696 C623.592471,247.619531 622.887265,247.163956 621.476833,247.163956 C620.340997,247.163956 619.666995,247.44479 619.454806,248.006467 C619.404879,248.156247 619.379916,248.293544 619.379916,248.418361 C619.379916,248.767849 619.532815,249.029961 619.838617,249.204705 C620.144419,249.379449 620.528225,249.516745 620.990048,249.616599 C621.451872,249.716453 621.948012,249.813185 622.478485,249.906797 C623.008957,250.00041 623.505098,250.147068 623.966921,250.346775 C625.040348,250.796117 625.577053,251.557489 625.577053,252.630916 C625.577053,253.716825 625.183885,254.515642 624.397537,255.027392 C623.698562,255.476734 622.737485,255.701401 621.514278,255.701401 L621.233441,255.701401 C619.960306,255.701401 618.980507,255.414326 618.294013,254.840167 C617.657446,254.315936 617.339167,253.679378 617.339167,252.930476 L617.339167,252.930476 Z M643.756568,244.336863 L643.756568,248.493251 L647.295115,248.493251 C647.881755,248.493251 648.393497,248.287306 648.830357,247.87541 C649.254735,247.475995 649.466921,246.989216 649.466921,246.415057 C649.466921,245.840899 649.260976,245.354119 648.849079,244.954705 C648.41222,244.542809 647.894236,244.336863 647.295115,244.336863 L643.756568,244.336863 Z M643.756568,250.159551 L643.756568,255.514176 L641.921767,255.514176 L641.921767,242.670564 L647.463617,242.670564 C648.549525,242.670564 649.454435,243.007565 650.178374,243.681577 C650.927277,244.393034 651.301722,245.304185 651.301722,246.415057 C651.301722,247.525929 650.927277,248.43708 650.178374,249.148537 C649.454435,249.82255 648.549525,250.159551 647.463617,250.159551 L643.756568,250.159551 Z M660.569344,248.755366 L660.513176,249.466819 L658.959211,249.466819 L658.959211,249.054925 C658.959211,248.618065 658.846878,248.262342 658.622207,247.987744 C658.210311,247.438549 657.704809,247.163956 657.105687,247.163956 C656.444157,247.163956 655.944896,247.451031 655.60789,248.025189 C655.333292,248.499494 655.195996,249.092366 655.195996,249.803824 L655.195996,255.514176 L653.436084,255.514176 L653.436084,245.946996 L654.690489,245.946996 L654.952604,247.369903 C655.139829,246.808226 655.651571,246.352651 656.487846,246.003163 C656.849815,245.840901 657.267946,245.759771 657.742251,245.759771 C658.216556,245.759771 658.625326,245.83778 658.968573,245.993802 C659.31182,246.149823 659.602015,246.365129 659.839167,246.639727 C660.325954,247.188922 660.569344,247.894128 660.569344,248.755366 L660.569344,248.755366 Z M662.610093,255.514176 L662.610093,245.946996 L664.370004,245.946996 L664.370004,255.514176 L662.610093,255.514176 Z M662.572648,242.034 L664.407449,242.034 L664.407449,243.662855 L662.572648,243.662855 L662.572648,242.034 Z M673.937185,250.552722 C673.937185,249.404405 673.681314,248.53694 673.169564,247.9503 C672.720222,247.426068 672.096146,247.163956 671.297317,247.163956 C670.061628,247.163956 669.250329,247.77555 668.863396,248.998758 C668.726098,249.435617 668.657449,249.953601 668.657449,250.552722 L668.657449,250.908449 C668.657449,252.056766 668.91332,252.924232 669.42507,253.510872 C669.874412,254.035104 670.498488,254.297216 671.297317,254.297216 C672.533006,254.297216 673.344305,253.679381 673.731238,252.443692 C673.868537,252.019314 673.937185,251.507571 673.937185,250.908449 L673.937185,250.552722 Z M675.697097,251.076952 C675.697097,252.587238 675.266484,253.75426 674.405247,254.578053 C673.618899,255.326955 672.582933,255.701401 671.297317,255.701401 C670.011701,255.701401 668.975735,255.326955 668.189388,254.578053 C667.32815,253.75426 666.897537,252.587238 666.897537,251.076952 L666.897537,250.38422 C666.897537,248.873934 667.32815,247.713152 668.189388,246.901841 C668.975735,246.140457 670.011701,245.759771 671.297317,245.759771 C672.582933,245.759771 673.618899,246.140457 674.405247,246.901841 C675.266484,247.713152 675.697097,248.873934 675.697097,250.38422 L675.697097,251.076952 Z M685.35789,248.755366 L685.301722,249.466819 L683.747758,249.466819 L683.747758,249.054925 C683.747758,248.618065 683.635424,248.262342 683.410753,247.987744 C682.998857,247.438549 682.493355,247.163956 681.894233,247.163956 C681.232703,247.163956 680.733442,247.451031 680.396436,248.025189 C680.121839,248.499494 679.984542,249.092366 679.984542,249.803824 L679.984542,255.514176 L678.22463,255.514176 L678.22463,245.946996 L679.479035,245.946996 L679.74115,247.369903 C679.928375,246.808226 680.440118,246.352651 681.276392,246.003163 C681.638362,245.840901 682.056492,245.759771 682.530797,245.759771 C683.005102,245.759771 683.413872,245.83778 683.757119,245.993802 C684.100366,246.149823 684.390561,246.365129 684.627714,246.639727 C685.1145,247.188922 685.35789,247.894128 685.35789,248.755366 L685.35789,248.755366 Z M687.398639,255.514176 L687.398639,245.946996 L689.158551,245.946996 L689.158551,255.514176 L687.398639,255.514176 Z M687.361194,242.034 L689.195996,242.034 L689.195996,243.662855 L687.361194,243.662855 L687.361194,242.034 Z M695.393132,254.334661 C695.717657,254.334661 696.104584,254.241049 696.553925,254.053824 L696.553925,255.364396 C696.104584,255.589067 695.524193,255.701401 694.812736,255.701401 C694.088797,255.701401 693.533369,255.489215 693.146436,255.064837 C692.759503,254.640459 692.56604,253.941494 692.56604,252.967921 L692.56604,247.351181 L691.517581,247.351181 L691.517581,245.946996 L692.622207,245.946996 L693.221326,242.895233 L694.325952,242.895233 L694.325952,245.946996 L696.553925,245.946996 L696.553925,247.351181 L694.325952,247.351181 L694.325952,253.061533 C694.325952,253.77299 694.550619,254.17864 694.99996,254.278493 C695.124777,254.315939 695.255833,254.334661 695.393132,254.334661 L695.393132,254.334661 Z M699.905247,251.133119 C699.942692,252.60596 700.435712,253.579519 701.384322,254.053824 C701.708846,254.216086 702.120736,254.297216 702.620004,254.297216 C703.106791,254.297216 703.5062,254.203604 703.818242,254.016379 C704.130285,253.829153 704.367434,253.610727 704.529696,253.361093 C704.791812,252.961678 704.922868,252.493621 704.922868,251.956907 L706.589167,251.956907 C706.589167,253.092743 706.214722,254.003894 705.465819,254.690388 C704.716917,255.3644 703.75584,255.701401 702.582559,255.701401 L702.50767,255.701401 C701.19709,255.701401 700.148643,255.289511 699.362295,254.465718 C698.550984,253.591999 698.145335,252.412495 698.145335,250.927172 L698.145335,250.552722 C698.145335,249.067399 698.550984,247.887896 699.362295,247.014176 C700.123679,246.177902 701.153405,245.759771 702.451502,245.759771 L702.582559,245.759771 C703.768322,245.759771 704.729399,246.121735 705.465819,246.845674 C706.214722,247.569613 706.589167,248.555653 706.589167,249.803824 L706.589167,251.133119 L699.905247,251.133119 Z M702.488947,247.163956 C701.789972,247.163956 701.215822,247.379262 700.76648,247.809881 C700.317139,248.2405 700.042545,248.892659 699.942692,249.766379 L704.847978,249.766379 L704.847978,249.541709 C704.847978,248.792807 704.61707,248.199935 704.155247,247.763075 C703.730869,247.36366 703.175441,247.163956 702.488947,247.163956 L702.488947,247.163956 Z M716.287405,248.755366 L716.231238,249.466819 L714.677273,249.466819 L714.677273,249.054925 C714.677273,248.618065 714.564939,248.262342 714.340269,247.987744 C713.928372,247.438549 713.422871,247.163956 712.823749,247.163956 C712.162218,247.163956 711.662958,247.451031 711.325952,248.025189 C711.051354,248.499494 710.914057,249.092366 710.914057,249.803824 L710.914057,255.514176 L709.154145,255.514176 L709.154145,245.946996 L710.408551,245.946996 L710.670665,247.369903 C710.857891,246.808226 711.369633,246.352651 712.205907,246.003163 C712.567877,245.840901 712.986008,245.759771 713.460313,245.759771 C713.934618,245.759771 714.343387,245.83778 714.686634,245.993802 C715.029881,246.149823 715.320077,246.365129 715.557229,246.639727 C716.044016,247.188922 716.287405,247.894128 716.287405,248.755366 L716.287405,248.755366 Z M718.328154,255.514176 L718.328154,245.946996 L720.088066,245.946996 L720.088066,255.514176 L718.328154,255.514176 Z M718.290709,242.034 L720.125511,242.034 L720.125511,243.662855 L718.290709,243.662855 L718.290709,242.034 Z M724.712515,247.351181 C725.523826,246.290236 726.590996,245.759771 727.914057,245.759771 C729.474271,245.759771 730.510237,246.365125 731.021987,247.57585 C731.196731,248.000228 731.284101,248.499489 731.284101,249.073648 L731.284101,255.514176 L729.524189,255.514176 L729.524189,249.39193 C729.524189,248.580619 729.336967,248.006469 728.962515,247.669463 C728.588064,247.332456 728.101285,247.163956 727.502163,247.163956 C726.828151,247.163956 726.235279,247.419827 725.723529,247.931577 C725.211779,248.443327 724.955907,249.073644 724.955907,249.822546 L724.955907,255.514176 L723.195996,255.514176 L723.195996,245.946996 L724.469123,245.946996 L724.712515,247.351181 Z M741.113396,246.714617 C741.737482,247.25133 742.04952,247.937814 742.04952,248.774088 C742.04952,249.635326 741.737482,250.340532 741.113396,250.889727 C740.451866,251.476367 739.509511,251.769683 738.286304,251.769683 L737.013176,251.769683 C736.638725,251.769683 736.326687,251.866415 736.077053,252.059881 C735.827419,252.253348 735.702604,252.499858 735.702604,252.799419 C735.702604,253.098979 735.821178,253.336128 736.05833,253.510872 C736.295483,253.685616 736.613762,253.772987 737.013176,253.772987 L740.626612,253.772987 C741.375515,253.772987 741.968387,254.003895 742.405247,254.465718 C742.842106,254.927541 743.060533,255.514173 743.060533,256.22563 C743.060533,257.111831 742.717291,257.810796 742.030797,258.322546 C741.39423,258.796851 740.551728,259.034 739.503264,259.034 L735.740048,259.034 C735.091,259.034 734.541813,258.796851 734.092471,258.322546 C733.64313,257.848241 733.418463,257.336499 733.418463,256.787304 C733.418463,256.250591 733.549519,255.788774 733.811634,255.401841 C734.07375,255.014908 734.410751,254.734074 734.822648,254.55933 C734.248489,254.197361 733.961414,253.679378 733.961414,253.005366 C733.961414,252.543542 734.09559,252.153495 734.363947,251.835211 C734.632304,251.516928 734.997388,251.276659 735.459211,251.114396 C734.622937,250.640092 734.204806,249.859997 734.204806,248.774088 C734.204806,247.887887 734.516844,247.17644 735.14093,246.639727 C735.814942,246.053087 736.7885,245.759771 738.061634,245.759771 L738.136524,245.759771 C738.847982,245.759771 739.484539,245.865864 740.046216,246.078053 C740.932417,245.641193 741.437919,245.023358 741.562736,244.224529 L743.060533,244.224529 C743.060533,244.848614 742.892033,245.379079 742.555026,245.815938 C742.21802,246.252798 741.749963,246.533632 741.150841,246.658449 L741.113396,246.714617 Z M735.945996,248.774088 C735.945996,249.360728 736.155061,249.772618 736.573198,250.009771 C736.991335,250.246923 737.506198,250.365498 738.117802,250.365498 C738.729405,250.365498 739.247388,250.246923 739.671767,250.009771 C740.096145,249.772618 740.30833,249.360728 740.30833,248.774088 C740.30833,248.187448 740.096145,247.772437 739.671767,247.529044 C739.247388,247.285651 738.729405,247.163956 738.117802,247.163956 C737.506198,247.163956 736.991335,247.285651 736.573198,247.529044 C736.155061,247.772437 735.945996,248.187448 735.945996,248.774088 L735.945996,248.774088 Z M739.858991,257.629815 C740.258406,257.629815 740.601648,257.514361 740.888727,257.283449 C741.175806,257.052538 741.319344,256.787305 741.319344,256.487744 C741.319344,256.188184 741.216371,255.941674 741.010423,255.748207 C740.804475,255.554741 740.501798,255.458009 740.102383,255.458009 L736.245555,255.458009 C735.945994,255.458009 735.690123,255.564102 735.477934,255.776291 C735.265745,255.98848 735.159652,256.244351 735.159652,256.543912 C735.159652,256.843473 735.265745,257.099344 735.477934,257.311533 C735.690123,257.523722 735.945994,257.629815 736.245555,257.629815 L739.858991,257.629815 Z M767.025291,248.249859 C767.025291,246.177896 766.332566,244.892299 764.947097,244.393031 C764.510237,244.230769 764.04218,244.149639 763.542912,244.149639 C763.031162,244.149639 762.563105,244.227648 762.138727,244.38367 C761.714349,244.539691 761.352385,244.77996 761.052824,245.104485 C760.391293,245.80346 760.060533,246.851908 760.060533,248.249859 L760.060533,249.934881 C760.060533,252.006844 760.753257,253.292441 762.138727,253.791709 C762.563105,253.953971 763.031162,254.035101 763.542912,254.035101 C764.04218,254.035101 764.507117,253.957092 764.937736,253.80107 C765.368355,253.645049 765.733439,253.40478 766.033,253.080256 C766.69453,252.38128 767.025291,251.332832 767.025291,249.934881 L767.025291,248.249859 Z M768.860093,249.934881 C768.860093,251.807137 768.342109,253.254993 767.306128,254.278493 C766.332555,255.227103 765.078162,255.701401 763.542912,255.701401 C762.007662,255.701401 760.753269,255.227103 759.779696,254.278493 C758.743714,253.254993 758.225731,251.807137 758.225731,249.934881 L758.225731,248.249859 C758.225731,246.377603 758.743714,244.929747 759.779696,243.906247 C760.753269,242.957637 762.007662,242.483339 763.542912,242.483339 C765.078162,242.483339 766.332555,242.957637 767.306128,243.906247 C768.342109,244.929747 768.860093,246.377603 768.860093,248.249859 L768.860093,249.934881 Z M773.31604,254.297216 L773.31604,258.902943 L771.556128,258.902943 L771.556128,245.946996 L772.8667,245.946996 C772.929109,246.184148 773.010239,246.621001 773.110093,247.257568 C773.82155,246.259032 774.80759,245.759771 776.068242,245.759771 C777.204078,245.759771 778.115229,246.152939 778.801722,246.939286 C779.563107,247.825488 779.943793,249.092362 779.943793,250.739947 L779.943793,250.945894 C779.943793,252.456181 779.581829,253.641925 778.85789,254.503163 C778.183878,255.301992 777.254004,255.701401 776.068242,255.701401 C774.88248,255.701401 773.965088,255.233344 773.31604,254.297216 L773.31604,254.297216 Z M778.183881,250.721225 C778.183881,248.848969 777.703343,247.725632 776.742251,247.351181 C776.44269,247.226364 776.11193,247.163956 775.74996,247.163956 C774.963613,247.163956 774.370741,247.419827 773.971326,247.931577 C773.521985,248.518217 773.297317,249.448091 773.297317,250.721225 C773.297317,252.605962 773.784096,253.741781 774.75767,254.128714 C775.057231,254.241049 775.387991,254.297216 775.74996,254.297216 C776.523826,254.297216 777.110458,254.041345 777.509872,253.529595 C777.959214,252.942954 778.183881,252.00684 778.183881,250.721225 L778.183881,250.721225 Z M782.546216,255.514176 L782.546216,242.034 L784.306128,242.034 L784.306128,255.514176 L782.546216,255.514176 Z M788.64974,251.133119 C788.687185,252.60596 789.180205,253.579519 790.128815,254.053824 C790.453339,254.216086 790.86523,254.297216 791.364498,254.297216 C791.851284,254.297216 792.250693,254.203604 792.562736,254.016379 C792.874778,253.829153 793.111927,253.610727 793.274189,253.361093 C793.536305,252.961678 793.667361,252.493621 793.667361,251.956907 L795.333661,251.956907 C795.333661,253.092743 794.959215,254.003894 794.210313,254.690388 C793.46141,255.3644 792.500333,255.701401 791.327053,255.701401 L791.252163,255.701401 C789.941584,255.701401 788.893136,255.289511 788.106789,254.465718 C787.295478,253.591999 786.889828,252.412495 786.889828,250.927172 L786.889828,250.552722 C786.889828,249.067399 787.295478,247.887896 788.106789,247.014176 C788.868173,246.177902 789.897898,245.759771 791.195996,245.759771 L791.327053,245.759771 C792.512815,245.759771 793.473892,246.121735 794.210313,246.845674 C794.959215,247.569613 795.333661,248.555653 795.333661,249.803824 L795.333661,251.133119 L788.64974,251.133119 Z M791.233441,247.163956 C790.534465,247.163956 789.960315,247.379262 789.510974,247.809881 C789.061632,248.2405 788.787039,248.892659 788.687185,249.766379 L793.592471,249.766379 L793.592471,249.541709 C793.592471,248.792807 793.361563,248.199935 792.89974,247.763075 C792.475362,247.36366 791.919934,247.163956 791.233441,247.163956 L791.233441,247.163956 Z M802.073749,255.514176 L800.201502,255.514176 L796.569344,245.946996 L798.44159,245.946996 L801.17507,253.26748 L801.24996,253.26748 L803.983441,245.946996 L805.705907,245.946996 L802.073749,255.514176 Z M808.645335,251.133119 C808.68278,252.60596 809.1758,253.579519 810.12441,254.053824 C810.448934,254.216086 810.860824,254.297216 811.360093,254.297216 C811.846879,254.297216 812.246288,254.203604 812.55833,254.016379 C812.870373,253.829153 813.107522,253.610727 813.269784,253.361093 C813.5319,252.961678 813.662956,252.493621 813.662956,251.956907 L815.329256,251.956907 C815.329256,253.092743 814.95481,254.003894 814.205907,254.690388 C813.457005,255.3644 812.495928,255.701401 811.322648,255.701401 L811.247758,255.701401 C809.937178,255.701401 808.888731,255.289511 808.102383,254.465718 C807.291072,253.591999 806.885423,252.412495 806.885423,250.927172 L806.885423,250.552722 C806.885423,249.067399 807.291072,247.887896 808.102383,247.014176 C808.863767,246.177902 809.893493,245.759771 811.19159,245.759771 L811.322648,245.759771 C812.50841,245.759771 813.469487,246.121735 814.205907,246.845674 C814.95481,247.569613 815.329256,248.555653 815.329256,249.803824 L815.329256,251.133119 L808.645335,251.133119 Z M811.229035,247.163956 C810.53006,247.163956 809.95591,247.379262 809.506568,247.809881 C809.057227,248.2405 808.782633,248.892659 808.68278,249.766379 L813.588066,249.766379 L813.588066,249.541709 C813.588066,248.792807 813.357158,248.199935 812.895335,247.763075 C812.470957,247.36366 811.915529,247.163956 811.229035,247.163956 L811.229035,247.163956 Z M825.027493,248.755366 L824.971326,249.466819 L823.417361,249.466819 L823.417361,249.054925 C823.417361,248.618065 823.305028,248.262342 823.080357,247.987744 C822.66846,247.438549 822.162959,247.163956 821.563837,247.163956 C820.902307,247.163956 820.403046,247.451031 820.06604,248.025189 C819.791442,248.499494 819.654145,249.092366 819.654145,249.803824 L819.654145,255.514176 L817.894233,255.514176 L817.894233,245.946996 L819.148639,245.946996 L819.410753,247.369903 C819.597979,246.808226 820.109721,246.352651 820.945996,246.003163 C821.307965,245.840901 821.726096,245.759771 822.200401,245.759771 C822.674706,245.759771 823.083476,245.83778 823.426722,245.993802 C823.769969,246.149823 824.060165,246.365129 824.297317,246.639727 C824.784104,247.188922 825.027493,247.894128 825.027493,248.755366 L825.027493,248.755366 Z M827.068242,255.514176 L827.068242,245.946996 L828.828154,245.946996 L828.828154,255.514176 L827.068242,255.514176 Z M827.030797,242.034 L828.865599,242.034 L828.865599,243.662855 L827.030797,243.662855 L827.030797,242.034 Z M833.452604,247.351181 C834.263914,246.290236 835.331084,245.759771 836.654145,245.759771 C838.214359,245.759771 839.250325,246.365125 839.762075,247.57585 C839.936819,248.000228 840.024189,248.499489 840.024189,249.073648 L840.024189,255.514176 L838.264278,255.514176 L838.264278,249.39193 C838.264278,248.580619 838.077055,248.006469 837.702604,247.669463 C837.328152,247.332456 836.841373,247.163956 836.242251,247.163956 C835.568239,247.163956 834.975367,247.419827 834.463617,247.931577 C833.951867,248.443327 833.695996,249.073644 833.695996,249.822546 L833.695996,255.514176 L831.936084,255.514176 L831.936084,245.946996 L833.209211,245.946996 L833.452604,247.351181 Z M849.853485,246.714617 C850.47757,247.25133 850.789608,247.937814 850.789608,248.774088 C850.789608,249.635326 850.47757,250.340532 849.853485,250.889727 C849.191954,251.476367 848.249599,251.769683 847.026392,251.769683 L845.753264,251.769683 C845.378813,251.769683 845.066775,251.866415 844.817141,252.059881 C844.567507,252.253348 844.442692,252.499858 844.442692,252.799419 C844.442692,253.098979 844.561266,253.336128 844.798419,253.510872 C845.035571,253.685616 845.35385,253.772987 845.753264,253.772987 L849.3667,253.772987 C850.115603,253.772987 850.708475,254.003895 851.145335,254.465718 C851.582195,254.927541 851.800621,255.514173 851.800621,256.22563 C851.800621,257.111831 851.457379,257.810796 850.770885,258.322546 C850.134318,258.796851 849.291816,259.034 848.243352,259.034 L844.480137,259.034 C843.831088,259.034 843.281901,258.796851 842.832559,258.322546 C842.383218,257.848241 842.158551,257.336499 842.158551,256.787304 C842.158551,256.250591 842.289607,255.788774 842.551722,255.401841 C842.813838,255.014908 843.150839,254.734074 843.562736,254.55933 C842.988577,254.197361 842.701502,253.679378 842.701502,253.005366 C842.701502,252.543542 842.835679,252.153495 843.104035,251.835211 C843.372392,251.516928 843.737476,251.276659 844.1993,251.114396 C843.363025,250.640092 842.944894,249.859997 842.944894,248.774088 C842.944894,247.887887 843.256932,247.17644 843.881018,246.639727 C844.55503,246.053087 845.528588,245.759771 846.801722,245.759771 L846.876612,245.759771 C847.58807,245.759771 848.224627,245.865864 848.786304,246.078053 C849.672505,245.641193 850.178007,245.023358 850.302824,244.224529 L851.800621,244.224529 C851.800621,244.848614 851.632121,245.379079 851.295115,245.815938 C850.958108,246.252798 850.490051,246.533632 849.89093,246.658449 L849.853485,246.714617 Z M844.686084,248.774088 C844.686084,249.360728 844.895149,249.772618 845.313286,250.009771 C845.731424,250.246923 846.246286,250.365498 846.85789,250.365498 C847.469494,250.365498 847.987477,250.246923 848.411855,250.009771 C848.836233,249.772618 849.048419,249.360728 849.048419,248.774088 C849.048419,248.187448 848.836233,247.772437 848.411855,247.529044 C847.987477,247.285651 847.469494,247.163956 846.85789,247.163956 C846.246286,247.163956 845.731424,247.285651 845.313286,247.529044 C844.895149,247.772437 844.686084,248.187448 844.686084,248.774088 L844.686084,248.774088 Z M848.599079,257.629815 C848.998494,257.629815 849.341736,257.514361 849.628815,257.283449 C849.915894,257.052538 850.059432,256.787305 850.059432,256.487744 C850.059432,256.188184 849.956459,255.941674 849.750511,255.748207 C849.544563,255.554741 849.241886,255.458009 848.842471,255.458009 L844.985643,255.458009 C844.686082,255.458009 844.430211,255.564102 844.218022,255.776291 C844.005833,255.98848 843.89974,256.244351 843.89974,256.543912 C843.89974,256.843473 844.005833,257.099344 844.218022,257.311533 C844.430211,257.523722 844.686082,257.629815 844.985643,257.629815 L848.599079,257.629815 Z M872.151943,244.336863 L872.151943,255.514176 L870.317141,255.514176 L870.317141,244.336863 L866.291811,244.336863 L866.291811,242.670564 L876.177273,242.670564 L876.177273,244.336863 L872.151943,244.336863 Z M879.360093,251.133119 C879.397538,252.60596 879.890558,253.579519 880.839167,254.053824 C881.163692,254.216086 881.575582,254.297216 882.07485,254.297216 C882.561637,254.297216 882.961045,254.203604 883.273088,254.016379 C883.585131,253.829153 883.82228,253.610727 883.984542,253.361093 C884.246658,252.961678 884.377714,252.493621 884.377714,251.956907 L886.044013,251.956907 C886.044013,253.092743 885.669568,254.003894 884.920665,254.690388 C884.171763,255.3644 883.210686,255.701401 882.037405,255.701401 L881.962515,255.701401 C880.651936,255.701401 879.603489,255.289511 878.817141,254.465718 C878.00583,253.591999 877.600181,252.412495 877.600181,250.927172 L877.600181,250.552722 C877.600181,249.067399 878.00583,247.887896 878.817141,247.014176 C879.578525,246.177902 880.60825,245.759771 881.906348,245.759771 L882.037405,245.759771 C883.223167,245.759771 884.184244,246.121735 884.920665,246.845674 C885.669568,247.569613 886.044013,248.555653 886.044013,249.803824 L886.044013,251.133119 L879.360093,251.133119 Z M881.943793,247.163956 C881.244817,247.163956 880.670667,247.379262 880.221326,247.809881 C879.771985,248.2405 879.497391,248.892659 879.397537,249.766379 L884.302824,249.766379 L884.302824,249.541709 C884.302824,248.792807 884.071916,248.199935 883.610093,247.763075 C883.185714,247.36366 882.630287,247.163956 881.943793,247.163956 L881.943793,247.163956 Z M887.897537,252.930476 L887.91626,252.518581 L889.657449,252.518581 L889.657449,252.705806 C889.657449,253.492154 890.15671,253.991415 891.155247,254.203604 C891.454808,254.266012 891.847976,254.297216 892.334762,254.297216 C892.821549,254.297216 893.283365,254.181762 893.720225,253.95085 C894.157084,253.719939 894.375511,253.392299 894.375511,252.967921 C894.375511,252.543543 894.222612,252.234625 893.916811,252.041159 C893.611009,251.847692 893.227202,251.697914 892.765379,251.591819 C892.303556,251.485725 891.807415,251.388993 891.276943,251.301621 C890.74647,251.214249 890.25033,251.073832 889.788507,250.880366 C889.326683,250.686899 888.942877,250.418547 888.637075,250.0753 C888.331273,249.732053 888.178374,249.242153 888.178374,248.605586 C888.178374,247.719385 888.527857,247.02354 889.226833,246.518031 C889.925808,246.012522 890.880644,245.759771 892.09137,245.759771 L892.259872,245.759771 C893.370744,245.759771 894.263173,246.015642 894.937185,246.527392 C895.586234,247.02666 895.910753,247.638255 895.910753,248.362194 L895.892031,248.699198 L894.150841,248.699198 L894.150841,248.530696 C894.150841,247.619531 893.445636,247.163956 892.035203,247.163956 C890.899367,247.163956 890.225365,247.44479 890.013176,248.006467 C889.963249,248.156247 889.938286,248.293544 889.938286,248.418361 C889.938286,248.767849 890.091185,249.029961 890.396987,249.204705 C890.702789,249.379449 891.086595,249.516745 891.548419,249.616599 C892.010242,249.716453 892.506382,249.813185 893.036855,249.906797 C893.567327,250.00041 894.063468,250.147068 894.525291,250.346775 C895.598718,250.796117 896.135423,251.557489 896.135423,252.630916 C896.135423,253.716825 895.742255,254.515642 894.955907,255.027392 C894.256932,255.476734 893.295855,255.701401 892.072648,255.701401 L891.791811,255.701401 C890.518676,255.701401 889.538877,255.414326 888.852383,254.840167 C888.215816,254.315936 887.897537,253.679378 887.897537,252.930476 L887.897537,252.930476 Z M901.733441,254.334661 C902.057965,254.334661 902.444892,254.241049 902.894233,254.053824 L902.894233,255.364396 C902.444892,255.589067 901.864501,255.701401 901.153044,255.701401 C900.429105,255.701401 899.873677,255.489215 899.486744,255.064837 C899.099812,254.640459 898.906348,253.941494 898.906348,252.967921 L898.906348,247.351181 L897.85789,247.351181 L897.85789,245.946996 L898.962515,245.946996 L899.561634,242.895233 L900.66626,242.895233 L900.66626,245.946996 L902.894233,245.946996 L902.894233,247.351181 L900.66626,247.351181 L900.66626,253.061533 C900.66626,253.77299 900.890927,254.17864 901.340269,254.278493 C901.465086,254.315939 901.596142,254.334661 901.733441,254.334661 L901.733441,254.334661 Z M906.245555,251.133119 C906.283,252.60596 906.77602,253.579519 907.72463,254.053824 C908.049154,254.216086 908.461044,254.297216 908.960313,254.297216 C909.447099,254.297216 909.846508,254.203604 910.158551,254.016379 C910.470593,253.829153 910.707742,253.610727 910.870004,253.361093 C911.13212,252.961678 911.263176,252.493621 911.263176,251.956907 L912.929476,251.956907 C912.929476,253.092743 912.55503,254.003894 911.806128,254.690388 C911.057225,255.3644 910.096148,255.701401 908.922868,255.701401 L908.847978,255.701401 C907.537399,255.701401 906.488951,255.289511 905.702604,254.465718 C904.891293,253.591999 904.485643,252.412495 904.485643,250.927172 L904.485643,250.552722 C904.485643,249.067399 904.891293,247.887896 905.702604,247.014176 C906.463988,246.177902 907.493713,245.759771 908.791811,245.759771 L908.922868,245.759771 C910.10863,245.759771 911.069707,246.121735 911.806128,246.845674 C912.55503,247.569613 912.929476,248.555653 912.929476,249.803824 L912.929476,251.133119 L906.245555,251.133119 Z M908.829256,247.163956 C908.13028,247.163956 907.55613,247.379262 907.106789,247.809881 C906.657447,248.2405 906.382854,248.892659 906.283,249.766379 L911.188286,249.766379 L911.188286,249.541709 C911.188286,248.792807 910.957378,248.199935 910.495555,247.763075 C910.071177,247.36366 909.515749,247.163956 908.829256,247.163956 L908.829256,247.163956 Z M917.010974,247.351181 C917.822285,246.290236 918.889454,245.759771 920.212515,245.759771 C921.772729,245.759771 922.808695,246.365125 923.320445,247.57585 C923.495189,248.000228 923.582559,248.499489 923.582559,249.073648 L923.582559,255.514176 L921.822648,255.514176 L921.822648,249.39193 C921.822648,248.580619 921.635425,248.006469 921.260974,247.669463 C920.886522,247.332456 920.399743,247.163956 919.800621,247.163956 C919.126609,247.163956 918.533737,247.419827 918.021987,247.931577 C917.510237,248.443327 917.254366,249.073644 917.254366,249.822546 L917.254366,255.514176 L915.494454,255.514176 L915.494454,245.946996 L916.767581,245.946996 L917.010974,247.351181 Z" id="Testen---Design-&amp;-an" fill="#FCF267"></path>
        </g>
    </g>
</svg>