<?xml version="1.0" encoding="UTF-8" standalone="no"?>
<svg width="1024px" height="673px" viewBox="0 0 1024 673" version="1.1" xmlns="http://www.w3.org/2000/svg" xmlns:xlink="http://www.w3.org/1999/xlink">
    <!-- Generator: Sketch 3.6.1 (26313) - http://www.bohemiancoding.com/sketch -->
    <title>slide-sprints</title>
    <desc>Created with Sketch.</desc>
    <defs>
        <rect id="path-1" x="0" y="0" width="1024" height="673"></rect>
    </defs>
    <g id="Page-1" stroke="none" stroke-width="1" fill="none" fill-rule="evenodd">
        <g id="slide-sprints">
            <mask id="mask-2" fill="white">
                <use xlink:href="#path-1"></use>
            </mask>
            <g id="Rectangle-1">
                <use fill="none" xlink:href="#path-1"></use>
                <use fill="#303030" xlink:href="#path-1"></use>
            </g>
            <path d="M73.102,246.567999 L72.892,246.567999 L66.34,225.987999 L59.536,225.987999 L68.986,254.799999 L76.42,254.799999 L85.912,225.987999 L79.696,225.987999 L73.102,246.567999 Z M89.272,225.987999 L89.272,231.153999 L92.674,231.153999 L92.674,249.633999 L89.272,249.633999 L89.272,254.799999 L102.544,254.799999 L102.544,249.633999 L99.184,249.633999 L99.184,231.153999 L102.544,231.153999 L102.544,225.987999 L89.272,225.987999 Z M123.88,234.513999 L129.97,234.513999 L129.97,234.009999 C129.97,228.129999 125.014,225.567999 119.008,225.567999 C112.918,225.567999 107.752,228.339999 107.752,234.093999 C107.752,245.097999 124.006,241.233999 124.006,246.777999 C124.006,248.415999 122.746,250.053999 118.504,250.053999 C115.06,250.053999 113.212,248.457999 113.212,246.063999 C113.212,245.853999 113.254,245.475999 113.254,245.391999 L107.122,245.391999 C107.122,245.601999 107.08,245.979999 107.08,246.315999 C107.08,252.657999 112.54,255.219999 118.714,255.219999 C125.686,255.219999 130.6,252.573999 130.6,245.727999 C130.6,235.227999 114.262,238.881999 114.262,233.421999 C114.262,231.825999 116.026,230.733999 119.134,230.733999 C122.116,230.733999 123.88,232.035999 123.88,234.135999 L123.88,234.513999 Z M135.304,225.987999 L135.304,231.153999 L138.706,231.153999 L138.706,249.633999 L135.304,249.633999 L135.304,254.799999 L148.576,254.799999 L148.576,249.633999 L145.216,249.633999 L145.216,231.153999 L148.576,231.153999 L148.576,225.987999 L135.304,225.987999 Z M154.666,254.799999 L175.078,254.799999 L174.364,249.633999 L161.05,249.633999 L161.05,242.619999 L173.356,242.619999 L173.356,237.453999 L161.05,237.453999 L161.05,231.153999 L174.238,231.153999 L174.952,225.987999 L154.666,225.987999 L154.666,254.799999 Z" id="VISIE" fill="#FCF267" mask="url(#mask-2)"></path>
            <path d="M215.837325,237 C215.837325,292.694822 260.233967,337.844395 315,337.844395 C369.766033,337.844395 414.162675,292.694822 414.162675,237 C414.162675,181.305178 369.766033,136.155605 315,136.155605 C260.233967,136.155605 215.837325,181.305178 215.837325,237 Z" id="Oval-31-Copy" stroke="#FFFFFF" stroke-width="7" mask="url(#mask-2)"></path>
            <path d="M385.837325,237 C385.837325,292.694822 430.233967,337.844395 485,337.844395 C539.766033,337.844395 584.162675,292.694822 584.162675,237 C584.162675,181.305178 539.766033,136.155605 485,136.155605 C430.233967,136.155605 385.837325,181.305178 385.837325,237 Z" id="Oval-31-Copy-2" stroke="#FFFFFF" stroke-width="7" mask="url(#mask-2)"></path>
            <path d="M722.837325,237 C722.837325,292.694822 767.233967,337.844395 822,337.844395 C876.766033,337.844395 921.162675,292.694822 921.162675,237 C921.162675,181.305178 876.766033,136.155605 822,136.155605 C767.233967,136.155605 722.837325,181.305178 722.837325,237 Z" id="Oval-31-Copy-4" stroke="#FFFFFF" stroke-width="7" mask="url(#mask-2)"></path>
            <path d="M895.837325,237 C895.837325,292.694822 940.233967,337.844395 995,337.844395 C1049.76603,337.844395 1094.16267,292.694822 1094.16267,237 C1094.16267,181.305178 1049.76603,136.155605 995,136.155605 C940.233967,136.155605 895.837325,181.305178 895.837325,237 Z" id="Oval-31-Copy-6" stroke="#FFFFFF" stroke-width="7" mask="url(#mask-2)"></path>
            <path d="M558.837325,237 C558.837325,292.694822 603.233967,337.844395 658,337.844395 C712.766033,337.844395 757.162675,292.694822 757.162675,237 C757.162675,181.305178 712.766033,136.155605 658,136.155605 C603.233967,136.155605 558.837325,181.305178 558.837325,237 Z" id="Oval-31-Copy-5" stroke="#FFF568" stroke-width="7" mask="url(#mask-2)"></path>
            <path d="M266.616,240.98 L266.588,241.568 C266.588,242.669339 267.003329,243.481331 267.834,244.004 C268.664671,244.526669 269.779993,244.788 271.18,244.788 C272.580007,244.788 273.685996,244.531336 274.498,244.018 C275.310004,243.504664 275.716,242.800004 275.716,241.904 C275.716,241.007996 275.436003,240.350002 274.876,239.93 C274.315997,239.509998 273.611338,239.169335 272.762,238.908 C271.912662,238.646665 270.993338,238.404001 270.004,238.18 C269.014662,237.955999 268.095338,237.638669 267.246,237.228 C266.396662,236.817331 265.692003,236.26667 265.132,235.576 C264.571997,234.88533 264.292,234.017339 264.292,232.972 C264.292,231.926661 264.473998,231.077337 264.838,230.424 C265.202002,229.770663 265.691997,229.229335 266.308,228.8 C267.521339,227.941329 269.145323,227.512 271.18,227.512 C273.158677,227.512 274.754661,227.931996 275.968,228.772 C277.29334,229.686671 277.956,231.058658 277.956,232.888 L277.956,233.224 L275.212,233.224 L275.212,232.804 C275.212,231.889329 274.83867,231.194002 274.092,230.718 C273.34533,230.241998 272.393339,230.004 271.236,230.004 C269.27599,230.004 267.988003,230.470662 267.372,231.404 C267.147999,231.721335 267.036,232.103998 267.036,232.552 C267.036,233.29867 267.315997,233.867998 267.876,234.26 C268.436003,234.652002 269.140662,234.978665 269.99,235.24 C270.839338,235.501335 271.758662,235.748666 272.748,235.982 C273.737338,236.215334 274.656662,236.532665 275.506,236.934 C276.355338,237.335335 277.059997,237.876663 277.62,238.558 C278.180003,239.239337 278.46,240.139994 278.46,241.26 C278.46,242.398672 278.273335,243.345996 277.9,244.102 C277.526665,244.858004 277.013337,245.469331 276.36,245.936 C275.109327,246.832004 273.373344,247.28 271.152,247.28 C267.773316,247.28 265.533339,246.253344 264.432,244.2 C264.039998,243.471996 263.844,242.585339 263.844,241.54 L263.872,240.98 L266.616,240.98 Z M284.9,245.18 L284.9,252.068 L282.268,252.068 L282.268,232.692 L284.228,232.692 C284.321334,233.046668 284.442666,233.699995 284.592,234.652 C285.656005,233.158659 287.130657,232.412 289.016,232.412 C290.714675,232.412 292.077328,232.999994 293.104,234.176 C294.242672,235.50134 294.812,237.395988 294.812,239.86 L294.812,240.168 C294.812,242.426678 294.270672,244.199994 293.188,245.488 C292.179995,246.682673 290.789342,247.28 289.016,247.28 C287.242658,247.28 285.870672,246.580007 284.9,245.18 L284.9,245.18 Z M292.18,239.832 C292.18,237.031986 291.461341,235.352003 290.024,234.792 C289.575998,234.605332 289.081336,234.512 288.54,234.512 C287.363994,234.512 286.477336,234.894663 285.88,235.66 C285.207997,236.537338 284.872,237.92799 284.872,239.832 C284.872,242.650681 285.599993,244.34933 287.056,244.928 C287.504002,245.096001 287.998664,245.18 288.54,245.18 C289.697339,245.18 290.574664,244.797337 291.172,244.032 C291.844003,243.154662 292.18,241.754676 292.18,239.832 L292.18,239.832 Z M309.26,236.892 L309.176,237.956 L306.852,237.956 L306.852,237.34 C306.852,236.686663 306.684002,236.154669 306.348,235.744 C305.731997,234.922663 304.976004,234.512 304.08,234.512 C303.090662,234.512 302.344003,234.941329 301.84,235.8 C301.429331,236.509337 301.224,237.395995 301.224,238.46 L301.224,247 L298.592,247 L298.592,232.692 L300.468,232.692 L300.86,234.82 C301.140001,233.979996 301.905327,233.298669 303.156,232.776 C303.697336,232.533332 304.322663,232.412 305.032,232.412 C305.741337,232.412 306.352664,232.528665 306.866,232.762 C307.379336,232.995335 307.813332,233.317331 308.168,233.728 C308.896004,234.549337 309.26,235.603994 309.26,236.892 L309.26,236.892 Z M312.312,247 L312.312,232.692 L314.944,232.692 L314.944,247 L312.312,247 Z M312.256,226.84 L315,226.84 L315,229.276 L312.256,229.276 L312.256,226.84 Z M321.86,234.792 C323.073339,233.205325 324.669323,232.412 326.648,232.412 C328.981345,232.412 330.530663,233.317324 331.296,235.128 C331.557335,235.76267 331.688,236.509329 331.688,237.368 L331.688,247 L329.056,247 L329.056,237.844 C329.056,236.630661 328.776003,235.772003 328.216,235.268 C327.655997,234.763997 326.928004,234.512 326.032,234.512 C325.023995,234.512 324.137337,234.894663 323.372,235.66 C322.606663,236.425337 322.224,237.367994 322.224,238.488 L322.224,247 L319.592,247 L319.592,232.692 L321.496,232.692 L321.86,234.792 Z M340.872,245.236 C341.357336,245.236 341.935997,245.096001 342.608,244.816 L342.608,246.776 C341.935997,247.112002 341.068005,247.28 340.004,247.28 C338.921328,247.28 338.09067,246.96267 337.512,246.328 C336.93333,245.69333 336.644,244.648007 336.644,243.192 L336.644,234.792 L335.076,234.792 L335.076,232.692 L336.728,232.692 L337.624,228.128 L339.276,228.128 L339.276,232.692 L342.608,232.692 L342.608,234.792 L339.276,234.792 L339.276,243.332 C339.276,244.396005 339.611997,245.002666 340.284,245.152 C340.470668,245.208 340.666666,245.236 340.872,245.236 L340.872,245.236 Z M353.108,229.668 C355.292011,229.443999 357.550655,228.818672 359.884,227.792 L360.948,227.792 L360.948,244.508 L365.988,244.508 L365.988,247 L353.164,247 L353.164,244.508 L358.204,244.508 L358.204,231.46 L353.108,231.46 L353.108,229.668 Z" id="Sprint-1" fill="#FFFFFF" mask="url(#mask-2)"></path>
            <path d="M610.004,240.98 L609.976,241.568 C609.976,242.669339 610.391329,243.481331 611.222,244.004 C612.052671,244.526669 613.167993,244.788 614.568,244.788 C615.968007,244.788 617.073996,244.531336 617.886,244.018 C618.698004,243.504664 619.104,242.800004 619.104,241.904 C619.104,241.007996 618.824003,240.350002 618.264,239.93 C617.703997,239.509998 616.999338,239.169335 616.15,238.908 C615.300662,238.646665 614.381338,238.404001 613.392,238.18 C612.402662,237.955999 611.483338,237.638669 610.634,237.228 C609.784662,236.817331 609.080003,236.26667 608.52,235.576 C607.959997,234.88533 607.68,234.017339 607.68,232.972 C607.68,231.926661 607.861998,231.077337 608.226,230.424 C608.590002,229.770663 609.079997,229.229335 609.696,228.8 C610.909339,227.941329 612.533323,227.512 614.568,227.512 C616.546677,227.512 618.142661,227.931996 619.356,228.772 C620.68134,229.686671 621.344,231.058658 621.344,232.888 L621.344,233.224 L618.6,233.224 L618.6,232.804 C618.6,231.889329 618.22667,231.194002 617.48,230.718 C616.73333,230.241998 615.781339,230.004 614.624,230.004 C612.66399,230.004 611.376003,230.470662 610.76,231.404 C610.535999,231.721335 610.424,232.103998 610.424,232.552 C610.424,233.29867 610.703997,233.867998 611.264,234.26 C611.824003,234.652002 612.528662,234.978665 613.378,235.24 C614.227338,235.501335 615.146662,235.748666 616.136,235.982 C617.125338,236.215334 618.044662,236.532665 618.894,236.934 C619.743338,237.335335 620.447997,237.876663 621.008,238.558 C621.568003,239.239337 621.848,240.139994 621.848,241.26 C621.848,242.398672 621.661335,243.345996 621.288,244.102 C620.914665,244.858004 620.401337,245.469331 619.748,245.936 C618.497327,246.832004 616.761344,247.28 614.54,247.28 C611.161316,247.28 608.921339,246.253344 607.82,244.2 C607.427998,243.471996 607.232,242.585339 607.232,241.54 L607.26,240.98 L610.004,240.98 Z M628.288,245.18 L628.288,252.068 L625.656,252.068 L625.656,232.692 L627.616,232.692 C627.709334,233.046668 627.830666,233.699995 627.98,234.652 C629.044005,233.158659 630.518657,232.412 632.404,232.412 C634.102675,232.412 635.465328,232.999994 636.492,234.176 C637.630672,235.50134 638.2,237.395988 638.2,239.86 L638.2,240.168 C638.2,242.426678 637.658672,244.199994 636.576,245.488 C635.567995,246.682673 634.177342,247.28 632.404,247.28 C630.630658,247.28 629.258672,246.580007 628.288,245.18 L628.288,245.18 Z M635.568,239.832 C635.568,237.031986 634.849341,235.352003 633.412,234.792 C632.963998,234.605332 632.469336,234.512 631.928,234.512 C630.751994,234.512 629.865336,234.894663 629.268,235.66 C628.595997,236.537338 628.26,237.92799 628.26,239.832 C628.26,242.650681 628.987993,244.34933 630.444,244.928 C630.892002,245.096001 631.386664,245.18 631.928,245.18 C633.085339,245.18 633.962664,244.797337 634.56,244.032 C635.232003,243.154662 635.568,241.754676 635.568,239.832 L635.568,239.832 Z M652.648,236.892 L652.564,237.956 L650.24,237.956 L650.24,237.34 C650.24,236.686663 650.072002,236.154669 649.736,235.744 C649.119997,234.922663 648.364004,234.512 647.468,234.512 C646.478662,234.512 645.732003,234.941329 645.228,235.8 C644.817331,236.509337 644.612,237.395995 644.612,238.46 L644.612,247 L641.98,247 L641.98,232.692 L643.856,232.692 L644.248,234.82 C644.528001,233.979996 645.293327,233.298669 646.544,232.776 C647.085336,232.533332 647.710663,232.412 648.42,232.412 C649.129337,232.412 649.740664,232.528665 650.254,232.762 C650.767336,232.995335 651.201332,233.317331 651.556,233.728 C652.284004,234.549337 652.648,235.603994 652.648,236.892 L652.648,236.892 Z M655.7,247 L655.7,232.692 L658.332,232.692 L658.332,247 L655.7,247 Z M655.644,226.84 L658.388,226.84 L658.388,229.276 L655.644,229.276 L655.644,226.84 Z M665.248,234.792 C666.461339,233.205325 668.057323,232.412 670.036,232.412 C672.369345,232.412 673.918663,233.317324 674.684,235.128 C674.945335,235.76267 675.076,236.509329 675.076,237.368 L675.076,247 L672.444,247 L672.444,237.844 C672.444,236.630661 672.164003,235.772003 671.604,235.268 C671.043997,234.763997 670.316004,234.512 669.42,234.512 C668.411995,234.512 667.525337,234.894663 666.76,235.66 C665.994663,236.425337 665.612,237.367994 665.612,238.488 L665.612,247 L662.98,247 L662.98,232.692 L664.884,232.692 L665.248,234.792 Z M684.26,245.236 C684.745336,245.236 685.323997,245.096001 685.996,244.816 L685.996,246.776 C685.323997,247.112002 684.456005,247.28 683.392,247.28 C682.309328,247.28 681.47867,246.96267 680.9,246.328 C680.32133,245.69333 680.032,244.648007 680.032,243.192 L680.032,234.792 L678.464,234.792 L678.464,232.692 L680.116,232.692 L681.012,228.128 L682.664,228.128 L682.664,232.692 L685.996,232.692 L685.996,234.792 L682.664,234.792 L682.664,243.332 C682.664,244.396005 682.999997,245.002666 683.672,245.152 C683.858668,245.208 684.054666,245.236 684.26,245.236 L684.26,245.236 Z M698.148,241.652 C698.148,242.678672 698.49333,243.457997 699.184,243.99 C699.87467,244.522003 700.863994,244.788 702.152,244.788 C703.42134,244.788 704.438663,244.526669 705.204,244.004 C705.969337,243.481331 706.352,242.669339 706.352,241.568 C706.352,240.447994 705.913338,239.626669 705.036,239.104 C704.326663,238.693331 703.328006,238.488 702.04,238.488 L699.94,238.488 L699.94,235.968 L702.096,235.968 C703.813342,235.968 704.979997,235.408006 705.596,234.288 C705.801334,233.914665 705.904,233.466669 705.904,232.944 C705.904,232.421331 705.801334,231.973335 705.596,231.6 C705.390666,231.226665 705.110668,230.918668 704.756,230.676 C704.12133,230.227998 703.253339,230.004 702.152,230.004 C700.527992,230.004 699.436003,230.563994 698.876,231.684 C698.689332,232.057335 698.596,232.486664 698.596,232.972 L698.596,233.224 L695.852,233.224 L695.852,232.72 C695.852,231.151992 696.449327,229.892005 697.644,228.94 C698.857339,227.987995 700.359991,227.512 702.152,227.512 L702.404,227.512 C704.214676,227.512 705.698661,227.978662 706.856,228.912 C708.050673,229.901338 708.648,231.170659 708.648,232.72 C708.648,233.858672 708.35867,234.75933 707.78,235.422 C707.20133,236.08467 706.473338,236.621331 705.596,237.032 L705.624,237.116 C706.632005,237.433335 707.462663,237.979329 708.116,238.754 C708.769337,239.528671 709.096,240.559994 709.096,241.848 C709.096,243.453341 708.46134,244.759995 707.192,245.768 C705.941327,246.776005 704.345343,247.28 702.404,247.28 L702.068,247.28 C699.977323,247.28 698.334673,246.748005 697.14,245.684 C695.982661,244.675995 695.404,243.304009 695.404,241.568 L695.404,241.344 L698.148,241.344 L698.148,241.652 Z" id="Sprint-3" fill="#FFF568" mask="url(#mask-2)"></path>
            <path d="M436.616,240.98 L436.588,241.568 C436.588,242.669339 437.003329,243.481331 437.834,244.004 C438.664671,244.526669 439.779993,244.788 441.18,244.788 C442.580007,244.788 443.685996,244.531336 444.498,244.018 C445.310004,243.504664 445.716,242.800004 445.716,241.904 C445.716,241.007996 445.436003,240.350002 444.876,239.93 C444.315997,239.509998 443.611338,239.169335 442.762,238.908 C441.912662,238.646665 440.993338,238.404001 440.004,238.18 C439.014662,237.955999 438.095338,237.638669 437.246,237.228 C436.396662,236.817331 435.692003,236.26667 435.132,235.576 C434.571997,234.88533 434.292,234.017339 434.292,232.972 C434.292,231.926661 434.473998,231.077337 434.838,230.424 C435.202002,229.770663 435.691997,229.229335 436.308,228.8 C437.521339,227.941329 439.145323,227.512 441.18,227.512 C443.158677,227.512 444.754661,227.931996 445.968,228.772 C447.29334,229.686671 447.956,231.058658 447.956,232.888 L447.956,233.224 L445.212,233.224 L445.212,232.804 C445.212,231.889329 444.83867,231.194002 444.092,230.718 C443.34533,230.241998 442.393339,230.004 441.236,230.004 C439.27599,230.004 437.988003,230.470662 437.372,231.404 C437.147999,231.721335 437.036,232.103998 437.036,232.552 C437.036,233.29867 437.315997,233.867998 437.876,234.26 C438.436003,234.652002 439.140662,234.978665 439.99,235.24 C440.839338,235.501335 441.758662,235.748666 442.748,235.982 C443.737338,236.215334 444.656662,236.532665 445.506,236.934 C446.355338,237.335335 447.059997,237.876663 447.62,238.558 C448.180003,239.239337 448.46,240.139994 448.46,241.26 C448.46,242.398672 448.273335,243.345996 447.9,244.102 C447.526665,244.858004 447.013337,245.469331 446.36,245.936 C445.109327,246.832004 443.373344,247.28 441.152,247.28 C437.773316,247.28 435.533339,246.253344 434.432,244.2 C434.039998,243.471996 433.844,242.585339 433.844,241.54 L433.872,240.98 L436.616,240.98 Z M454.9,245.18 L454.9,252.068 L452.268,252.068 L452.268,232.692 L454.228,232.692 C454.321334,233.046668 454.442666,233.699995 454.592,234.652 C455.656005,233.158659 457.130657,232.412 459.016,232.412 C460.714675,232.412 462.077328,232.999994 463.104,234.176 C464.242672,235.50134 464.812,237.395988 464.812,239.86 L464.812,240.168 C464.812,242.426678 464.270672,244.199994 463.188,245.488 C462.179995,246.682673 460.789342,247.28 459.016,247.28 C457.242658,247.28 455.870672,246.580007 454.9,245.18 L454.9,245.18 Z M462.18,239.832 C462.18,237.031986 461.461341,235.352003 460.024,234.792 C459.575998,234.605332 459.081336,234.512 458.54,234.512 C457.363994,234.512 456.477336,234.894663 455.88,235.66 C455.207997,236.537338 454.872,237.92799 454.872,239.832 C454.872,242.650681 455.599993,244.34933 457.056,244.928 C457.504002,245.096001 457.998664,245.18 458.54,245.18 C459.697339,245.18 460.574664,244.797337 461.172,244.032 C461.844003,243.154662 462.18,241.754676 462.18,239.832 L462.18,239.832 Z M479.26,236.892 L479.176,237.956 L476.852,237.956 L476.852,237.34 C476.852,236.686663 476.684002,236.154669 476.348,235.744 C475.731997,234.922663 474.976004,234.512 474.08,234.512 C473.090662,234.512 472.344003,234.941329 471.84,235.8 C471.429331,236.509337 471.224,237.395995 471.224,238.46 L471.224,247 L468.592,247 L468.592,232.692 L470.468,232.692 L470.86,234.82 C471.140001,233.979996 471.905327,233.298669 473.156,232.776 C473.697336,232.533332 474.322663,232.412 475.032,232.412 C475.741337,232.412 476.352664,232.528665 476.866,232.762 C477.379336,232.995335 477.813332,233.317331 478.168,233.728 C478.896004,234.549337 479.26,235.603994 479.26,236.892 L479.26,236.892 Z M482.312,247 L482.312,232.692 L484.944,232.692 L484.944,247 L482.312,247 Z M482.256,226.84 L485,226.84 L485,229.276 L482.256,229.276 L482.256,226.84 Z M491.86,234.792 C493.073339,233.205325 494.669323,232.412 496.648,232.412 C498.981345,232.412 500.530663,233.317324 501.296,235.128 C501.557335,235.76267 501.688,236.509329 501.688,237.368 L501.688,247 L499.056,247 L499.056,237.844 C499.056,236.630661 498.776003,235.772003 498.216,235.268 C497.655997,234.763997 496.928004,234.512 496.032,234.512 C495.023995,234.512 494.137337,234.894663 493.372,235.66 C492.606663,236.425337 492.224,237.367994 492.224,238.488 L492.224,247 L489.592,247 L489.592,232.692 L491.496,232.692 L491.86,234.792 Z M510.872,245.236 C511.357336,245.236 511.935997,245.096001 512.608,244.816 L512.608,246.776 C511.935997,247.112002 511.068005,247.28 510.004,247.28 C508.921328,247.28 508.09067,246.96267 507.512,246.328 C506.93333,245.69333 506.644,244.648007 506.644,243.192 L506.644,234.792 L505.076,234.792 L505.076,232.692 L506.728,232.692 L507.624,228.128 L509.276,228.128 L509.276,232.692 L512.608,232.692 L512.608,234.792 L509.276,234.792 L509.276,243.332 C509.276,244.396005 509.611997,245.002666 510.284,245.152 C510.470668,245.208 510.666666,245.236 510.872,245.236 L510.872,245.236 Z M522.352,246.328 C522.352,245.151994 522.687997,244.060005 523.36,243.052 C523.789335,242.398663 524.32133,241.838669 524.956,241.372 L530.528,237.172 C531.760006,236.201328 532.459999,235.202672 532.628,234.176 C532.684,233.858665 532.712,233.550668 532.712,233.252 C532.712,232.971999 532.665334,232.650002 532.572,232.286 C532.478666,231.921998 532.301335,231.572002 532.04,231.236 C531.367997,230.414663 530.388006,230.004 529.1,230.004 C527.494659,230.004 526.356003,230.582661 525.684,231.74 C525.291998,232.412003 525.096,233.06533 525.096,233.7 L525.096,234.092 C525.096,234.204001 525.105333,234.315999 525.124,234.428 L522.38,234.428 C522.361333,234.297333 522.352,234.204 522.352,234.148 L522.352,233.924 C522.352,232.710661 522.678663,231.544006 523.332,230.424 C523.985337,229.285328 525.021326,228.454669 526.44,227.932 C527.18667,227.651999 528.119994,227.512 529.24,227.512 C530.360006,227.512 531.321329,227.698665 532.124,228.072 C532.926671,228.445335 533.570664,228.911997 534.056,229.472 C534.989338,230.517339 535.456,231.739993 535.456,233.14 C535.456,234.316006 535.288002,235.22133 534.952,235.856 C534.335997,236.994672 533.36534,238.077328 532.04,239.104 L526.692,243.192 C526.225331,243.509335 525.884668,243.784666 525.67,244.018 C525.455332,244.251334 525.348,244.414666 525.348,244.508 L535.54,244.508 L535.54,247 L522.352,247 L522.352,246.328 Z" id="Sprint-2" fill="#FFFFFF" mask="url(#mask-2)"></path>
            <path d="M773.616,240.98 L773.588,241.568 C773.588,242.669339 774.003329,243.481331 774.834,244.004 C775.664671,244.526669 776.779993,244.788 778.18,244.788 C779.580007,244.788 780.685996,244.531336 781.498,244.018 C782.310004,243.504664 782.716,242.800004 782.716,241.904 C782.716,241.007996 782.436003,240.350002 781.876,239.93 C781.315997,239.509998 780.611338,239.169335 779.762,238.908 C778.912662,238.646665 777.993338,238.404001 777.004,238.18 C776.014662,237.955999 775.095338,237.638669 774.246,237.228 C773.396662,236.817331 772.692003,236.26667 772.132,235.576 C771.571997,234.88533 771.292,234.017339 771.292,232.972 C771.292,231.926661 771.473998,231.077337 771.838,230.424 C772.202002,229.770663 772.691997,229.229335 773.308,228.8 C774.521339,227.941329 776.145323,227.512 778.18,227.512 C780.158677,227.512 781.754661,227.931996 782.968,228.772 C784.29334,229.686671 784.956,231.058658 784.956,232.888 L784.956,233.224 L782.212,233.224 L782.212,232.804 C782.212,231.889329 781.83867,231.194002 781.092,230.718 C780.34533,230.241998 779.393339,230.004 778.236,230.004 C776.27599,230.004 774.988003,230.470662 774.372,231.404 C774.147999,231.721335 774.036,232.103998 774.036,232.552 C774.036,233.29867 774.315997,233.867998 774.876,234.26 C775.436003,234.652002 776.140662,234.978665 776.99,235.24 C777.839338,235.501335 778.758662,235.748666 779.748,235.982 C780.737338,236.215334 781.656662,236.532665 782.506,236.934 C783.355338,237.335335 784.059997,237.876663 784.62,238.558 C785.180003,239.239337 785.46,240.139994 785.46,241.26 C785.46,242.398672 785.273335,243.345996 784.9,244.102 C784.526665,244.858004 784.013337,245.469331 783.36,245.936 C782.109327,246.832004 780.373344,247.28 778.152,247.28 C774.773316,247.28 772.533339,246.253344 771.432,244.2 C771.039998,243.471996 770.844,242.585339 770.844,241.54 L770.872,240.98 L773.616,240.98 Z M791.9,245.18 L791.9,252.068 L789.268,252.068 L789.268,232.692 L791.228,232.692 C791.321334,233.046668 791.442666,233.699995 791.592,234.652 C792.656005,233.158659 794.130657,232.412 796.016,232.412 C797.714675,232.412 799.077328,232.999994 800.104,234.176 C801.242672,235.50134 801.812,237.395988 801.812,239.86 L801.812,240.168 C801.812,242.426678 801.270672,244.199994 800.188,245.488 C799.179995,246.682673 797.789342,247.28 796.016,247.28 C794.242658,247.28 792.870672,246.580007 791.9,245.18 L791.9,245.18 Z M799.18,239.832 C799.18,237.031986 798.461341,235.352003 797.024,234.792 C796.575998,234.605332 796.081336,234.512 795.54,234.512 C794.363994,234.512 793.477336,234.894663 792.88,235.66 C792.207997,236.537338 791.872,237.92799 791.872,239.832 C791.872,242.650681 792.599993,244.34933 794.056,244.928 C794.504002,245.096001 794.998664,245.18 795.54,245.18 C796.697339,245.18 797.574664,244.797337 798.172,244.032 C798.844003,243.154662 799.18,241.754676 799.18,239.832 L799.18,239.832 Z M816.26,236.892 L816.176,237.956 L813.852,237.956 L813.852,237.34 C813.852,236.686663 813.684002,236.154669 813.348,235.744 C812.731997,234.922663 811.976004,234.512 811.08,234.512 C810.090662,234.512 809.344003,234.941329 808.84,235.8 C808.429331,236.509337 808.224,237.395995 808.224,238.46 L808.224,247 L805.592,247 L805.592,232.692 L807.468,232.692 L807.86,234.82 C808.140001,233.979996 808.905327,233.298669 810.156,232.776 C810.697336,232.533332 811.322663,232.412 812.032,232.412 C812.741337,232.412 813.352664,232.528665 813.866,232.762 C814.379336,232.995335 814.813332,233.317331 815.168,233.728 C815.896004,234.549337 816.26,235.603994 816.26,236.892 L816.26,236.892 Z M819.312,247 L819.312,232.692 L821.944,232.692 L821.944,247 L819.312,247 Z M819.256,226.84 L822,226.84 L822,229.276 L819.256,229.276 L819.256,226.84 Z M828.86,234.792 C830.073339,233.205325 831.669323,232.412 833.648,232.412 C835.981345,232.412 837.530663,233.317324 838.296,235.128 C838.557335,235.76267 838.688,236.509329 838.688,237.368 L838.688,247 L836.056,247 L836.056,237.844 C836.056,236.630661 835.776003,235.772003 835.216,235.268 C834.655997,234.763997 833.928004,234.512 833.032,234.512 C832.023995,234.512 831.137337,234.894663 830.372,235.66 C829.606663,236.425337 829.224,237.367994 829.224,238.488 L829.224,247 L826.592,247 L826.592,232.692 L828.496,232.692 L828.86,234.792 Z M847.872,245.236 C848.357336,245.236 848.935997,245.096001 849.608,244.816 L849.608,246.776 C848.935997,247.112002 848.068005,247.28 847.004,247.28 C845.921328,247.28 845.09067,246.96267 844.512,246.328 C843.93333,245.69333 843.644,244.648007 843.644,243.192 L843.644,234.792 L842.076,234.792 L842.076,232.692 L843.728,232.692 L844.624,228.128 L846.276,228.128 L846.276,232.692 L849.608,232.692 L849.608,234.792 L846.276,234.792 L846.276,243.332 C846.276,244.396005 846.611997,245.002666 847.284,245.152 C847.470668,245.208 847.666666,245.236 847.872,245.236 L847.872,245.236 Z M858.792,239.748 C861.330679,235.939981 863.318659,231.861355 864.756,227.512 L867.696,227.512 C867.06133,229.808011 866.006674,232.299987 864.532,234.988 C863.374661,237.097344 862.329338,238.693328 861.396,239.776 L867.836,239.776 L867.836,234.204 C868.489337,232.93466 868.993332,231.656006 869.348,230.368 L870.58,230.368 L870.58,239.776 L873.016,239.776 L873.016,242.268 L870.58,242.268 L870.58,247 L867.836,247 L867.836,242.268 L858.792,242.268 L858.792,239.748 Z" id="Sprint-4" fill="#FFFFFF" mask="url(#mask-2)"></path>
            <path d="M946.616,240.98 L946.588,241.568 C946.588,242.669339 947.003329,243.481331 947.834,244.004 C948.664671,244.526669 949.779993,244.788 951.18,244.788 C952.580007,244.788 953.685996,244.531336 954.498,244.018 C955.310004,243.504664 955.716,242.800004 955.716,241.904 C955.716,241.007996 955.436003,240.350002 954.876,239.93 C954.315997,239.509998 953.611338,239.169335 952.762,238.908 C951.912662,238.646665 950.993338,238.404001 950.004,238.18 C949.014662,237.955999 948.095338,237.638669 947.246,237.228 C946.396662,236.817331 945.692003,236.26667 945.132,235.576 C944.571997,234.88533 944.292,234.017339 944.292,232.972 C944.292,231.926661 944.473998,231.077337 944.838,230.424 C945.202002,229.770663 945.691997,229.229335 946.308,228.8 C947.521339,227.941329 949.145323,227.512 951.18,227.512 C953.158677,227.512 954.754661,227.931996 955.968,228.772 C957.29334,229.686671 957.956,231.058658 957.956,232.888 L957.956,233.224 L955.212,233.224 L955.212,232.804 C955.212,231.889329 954.83867,231.194002 954.092,230.718 C953.34533,230.241998 952.393339,230.004 951.236,230.004 C949.27599,230.004 947.988003,230.470662 947.372,231.404 C947.147999,231.721335 947.036,232.103998 947.036,232.552 C947.036,233.29867 947.315997,233.867998 947.876,234.26 C948.436003,234.652002 949.140662,234.978665 949.99,235.24 C950.839338,235.501335 951.758662,235.748666 952.748,235.982 C953.737338,236.215334 954.656662,236.532665 955.506,236.934 C956.355338,237.335335 957.059997,237.876663 957.62,238.558 C958.180003,239.239337 958.46,240.139994 958.46,241.26 C958.46,242.398672 958.273335,243.345996 957.9,244.102 C957.526665,244.858004 957.013337,245.469331 956.36,245.936 C955.109327,246.832004 953.373344,247.28 951.152,247.28 C947.773316,247.28 945.533339,246.253344 944.432,244.2 C944.039998,243.471996 943.844,242.585339 943.844,241.54 L943.872,240.98 L946.616,240.98 Z M964.9,245.18 L964.9,252.068 L962.268,252.068 L962.268,232.692 L964.228,232.692 C964.321334,233.046668 964.442666,233.699995 964.592,234.652 C965.656005,233.158659 967.130657,232.412 969.016,232.412 C970.714675,232.412 972.077328,232.999994 973.104,234.176 C974.242672,235.50134 974.812,237.395988 974.812,239.86 L974.812,240.168 C974.812,242.426678 974.270672,244.199994 973.188,245.488 C972.179995,246.682673 970.789342,247.28 969.016,247.28 C967.242658,247.28 965.870672,246.580007 964.9,245.18 L964.9,245.18 Z M972.18,239.832 C972.18,237.031986 971.461341,235.352003 970.024,234.792 C969.575998,234.605332 969.081336,234.512 968.54,234.512 C967.363994,234.512 966.477336,234.894663 965.88,235.66 C965.207997,236.537338 964.872,237.92799 964.872,239.832 C964.872,242.650681 965.599993,244.34933 967.056,244.928 C967.504002,245.096001 967.998664,245.18 968.54,245.18 C969.697339,245.18 970.574664,244.797337 971.172,244.032 C971.844003,243.154662 972.18,241.754676 972.18,239.832 L972.18,239.832 Z M989.26,236.892 L989.176,237.956 L986.852,237.956 L986.852,237.34 C986.852,236.686663 986.684002,236.154669 986.348,235.744 C985.731997,234.922663 984.976004,234.512 984.08,234.512 C983.090662,234.512 982.344003,234.941329 981.84,235.8 C981.429331,236.509337 981.224,237.395995 981.224,238.46 L981.224,247 L978.592,247 L978.592,232.692 L980.468,232.692 L980.86,234.82 C981.140001,233.979996 981.905327,233.298669 983.156,232.776 C983.697336,232.533332 984.322663,232.412 985.032,232.412 C985.741337,232.412 986.352664,232.528665 986.866,232.762 C987.379336,232.995335 987.813332,233.317331 988.168,233.728 C988.896004,234.549337 989.26,235.603994 989.26,236.892 L989.26,236.892 Z M992.312,247 L992.312,232.692 L994.944,232.692 L994.944,247 L992.312,247 Z M992.256,226.84 L995,226.84 L995,229.276 L992.256,229.276 L992.256,226.84 Z M1001.86,234.792 C1003.07334,233.205325 1004.66932,232.412 1006.648,232.412 C1008.98135,232.412 1010.53066,233.317324 1011.296,235.128 C1011.55733,235.76267 1011.688,236.509329 1011.688,237.368 L1011.688,247 L1009.056,247 L1009.056,237.844 C1009.056,236.630661 1008.776,235.772003 1008.216,235.268 C1007.656,234.763997 1006.928,234.512 1006.032,234.512 C1005.02399,234.512 1004.13734,234.894663 1003.372,235.66 C1002.60666,236.425337 1002.224,237.367994 1002.224,238.488 L1002.224,247 L999.592,247 L999.592,232.692 L1001.496,232.692 L1001.86,234.792 Z M1020.872,245.236 C1021.35734,245.236 1021.936,245.096001 1022.608,244.816 L1022.608,246.776 C1021.936,247.112002 1021.06801,247.28 1020.004,247.28 C1018.92133,247.28 1018.09067,246.96267 1017.512,246.328 C1016.93333,245.69333 1016.644,244.648007 1016.644,243.192 L1016.644,234.792 L1015.076,234.792 L1015.076,232.692 L1016.728,232.692 L1017.624,228.128 L1019.276,228.128 L1019.276,232.692 L1022.608,232.692 L1022.608,234.792 L1019.276,234.792 L1019.276,243.332 C1019.276,244.396005 1019.612,245.002666 1020.284,245.152 C1020.47067,245.208 1020.66667,245.236 1020.872,245.236 L1020.872,245.236 Z M1031.792,239.748 C1034.33068,235.939981 1036.31866,231.861355 1037.756,227.512 L1040.696,227.512 C1040.06133,229.808011 1039.00667,232.299987 1037.532,234.988 C1036.37466,237.097344 1035.32934,238.693328 1034.396,239.776 L1040.836,239.776 L1040.836,234.204 C1041.48934,232.93466 1041.99333,231.656006 1042.348,230.368 L1043.58,230.368 L1043.58,239.776 L1046.016,239.776 L1046.016,242.268 L1043.58,242.268 L1043.58,247 L1040.836,247 L1040.836,242.268 L1031.792,242.268 L1031.792,239.748 Z" id="Sprint-4-Copy" fill="#FFFFFF" mask="url(#mask-2)"></path>
            <path d="M612.436,387.466 L612.436,400.6 L610.28,400.6 L610.28,387.466 L605.55,387.466 L605.55,385.508 L617.166,385.508 L617.166,387.466 L612.436,387.466 Z M620.906,395.452 C620.95,397.182676 621.529328,398.326664 622.644,398.884 C623.025335,399.074668 623.50933,399.17 624.096,399.17 C624.668003,399.17 625.137331,399.060001 625.504,398.84 C625.870668,398.619999 626.149332,398.363335 626.34,398.07 C626.648002,397.600665 626.802,397.05067 626.802,396.42 L628.76,396.42 C628.76,397.754674 628.320004,398.82533 627.44,399.632 C626.559996,400.424004 625.430674,400.82 624.052,400.82 L623.964,400.82 C622.423992,400.82 621.192005,400.336005 620.268,399.368 C619.314662,398.341329 618.838,396.955342 618.838,395.21 L618.838,394.77 C618.838,393.024658 619.314662,391.638672 620.268,390.612 C621.162671,389.629329 622.372659,389.138 623.898,389.138 L624.052,389.138 C625.44534,389.138 626.574662,389.563329 627.44,390.414 C628.320004,391.264671 628.76,392.423326 628.76,393.89 L628.76,395.452 L620.906,395.452 Z M623.942,390.788 C623.120663,390.788 622.446003,391.040998 621.918,391.547 C621.389997,392.053003 621.067334,392.819329 620.95,393.846 L626.714,393.846 L626.714,393.582 C626.714,392.701996 626.442669,392.005336 625.9,391.492 C625.401331,391.022665 624.748671,390.788 623.942,390.788 L623.942,390.788 Z M630.938,397.564 L630.96,397.08 L633.006,397.08 L633.006,397.3 C633.006,398.224005 633.592661,398.810666 634.766,399.06 C635.118002,399.133334 635.579997,399.17 636.152,399.17 C636.724003,399.17 637.266664,399.034335 637.78,398.763 C638.293336,398.491666 638.55,398.10667 638.55,397.608 C638.55,397.109331 638.370335,396.746335 638.011,396.519 C637.651665,396.291666 637.200669,396.115668 636.658,395.991 C636.115331,395.866333 635.532336,395.752668 634.909,395.65 C634.285664,395.547333 633.702669,395.382335 633.16,395.155 C632.617331,394.927666 632.166335,394.612336 631.807,394.209 C631.447665,393.805665 631.268,393.230004 631.268,392.482 C631.268,391.440662 631.678663,390.623003 632.5,390.029 C633.321337,389.434997 634.443326,389.138 635.866,389.138 L636.064,389.138 C637.36934,389.138 638.417996,389.438664 639.21,390.04 C639.97267,390.62667 640.354,391.345329 640.354,392.196 L640.332,392.592 L638.286,392.592 L638.286,392.394 C638.286,391.323328 637.457342,390.788 635.8,390.788 C634.465327,390.788 633.673335,391.117997 633.424,391.778 C633.365333,391.954001 633.336,392.115333 633.336,392.262 C633.336,392.672669 633.515665,392.980666 633.875,393.186 C634.234335,393.391335 634.685331,393.552666 635.228,393.67 C635.770669,393.787334 636.353664,393.901 636.977,394.011 C637.600336,394.121001 638.183331,394.293333 638.726,394.528 C639.98734,395.056003 640.618,395.950661 640.618,397.212 C640.618,398.488007 640.156005,399.426664 639.232,400.028 C638.410663,400.556003 637.281341,400.82 635.844,400.82 L635.514,400.82 C634.017993,400.82 632.866671,400.48267 632.06,399.808 C631.311996,399.191997 630.938,398.444005 630.938,397.564 L630.938,397.564 Z M647.196,399.214 C647.577335,399.214 648.031997,399.104001 648.56,398.884 L648.56,400.424 C648.031997,400.688002 647.350004,400.82 646.514,400.82 C645.663329,400.82 645.010669,400.57067 644.556,400.072 C644.101331,399.573331 643.874,398.752006 643.874,397.608 L643.874,391.008 L642.642,391.008 L642.642,389.358 L643.94,389.358 L644.644,385.772 L645.942,385.772 L645.942,389.358 L648.56,389.358 L648.56,391.008 L645.942,391.008 L645.942,397.718 C645.942,398.554005 646.205997,399.030666 646.734,399.148 C646.880667,399.192001 647.034666,399.214 647.196,399.214 L647.196,399.214 Z M652.498,395.452 C652.542,397.182676 653.121328,398.326664 654.236,398.884 C654.617335,399.074668 655.10133,399.17 655.688,399.17 C656.260003,399.17 656.729331,399.060001 657.096,398.84 C657.462668,398.619999 657.741332,398.363335 657.932,398.07 C658.240002,397.600665 658.394,397.05067 658.394,396.42 L660.352,396.42 C660.352,397.754674 659.912004,398.82533 659.032,399.632 C658.151996,400.424004 657.022674,400.82 655.644,400.82 L655.556,400.82 C654.015992,400.82 652.784005,400.336005 651.86,399.368 C650.906662,398.341329 650.43,396.955342 650.43,395.21 L650.43,394.77 C650.43,393.024658 650.906662,391.638672 651.86,390.612 C652.754671,389.629329 653.964659,389.138 655.49,389.138 L655.644,389.138 C657.03734,389.138 658.166662,389.563329 659.032,390.414 C659.912004,391.264671 660.352,392.423326 660.352,393.89 L660.352,395.452 L652.498,395.452 Z M655.534,390.788 C654.712663,390.788 654.038003,391.040998 653.51,391.547 C652.981997,392.053003 652.659334,392.819329 652.542,393.846 L658.306,393.846 L658.306,393.582 C658.306,392.701996 658.034669,392.005336 657.492,391.492 C656.993331,391.022665 656.340671,390.788 655.534,390.788 L655.534,390.788 Z M665.148,391.008 C666.101338,389.761327 667.355326,389.138 668.91,389.138 C670.743343,389.138 671.960664,389.849327 672.562,391.272 C672.767334,391.77067 672.87,392.35733 672.87,393.032 L672.87,400.6 L670.802,400.6 L670.802,393.406 C670.802,392.452662 670.582002,391.778002 670.142,391.382 C669.701998,390.985998 669.130004,390.788 668.426,390.788 C667.633996,390.788 666.937336,391.088664 666.336,391.69 C665.734664,392.291337 665.434,393.031996 665.434,393.912 L665.434,400.6 L663.366,400.6 L663.366,389.358 L664.862,389.358 L665.148,391.008 Z M612.26,427.242001 C614.19601,427.242001 615.45733,426.369343 616.044,424.624001 C616.249334,424.022664 616.352,423.289338 616.352,422.424001 L616.352,420.884001 C616.352,418.449322 615.530675,416.93867 613.888,416.352001 C613.389331,416.161333 612.84667,416.066001 612.26,416.066001 L609.18,416.066001 L609.18,427.242001 L612.26,427.242001 Z M607.024,429.200001 L607.024,414.108001 L612.26,414.108001 C614.078676,414.108001 615.545328,414.665329 616.66,415.780001 C617.892006,416.982673 618.508,418.68399 618.508,420.884001 L618.508,422.424001 C618.508,424.624012 617.892006,426.325328 616.66,427.528001 C615.545328,428.642673 614.078676,429.200001 612.26,429.200001 L607.024,429.200001 Z M623.04,424.052001 C623.084,425.782676 623.663328,426.926665 624.778,427.484001 C625.159335,427.674668 625.64333,427.770001 626.23,427.770001 C626.802003,427.770001 627.271331,427.660002 627.638,427.440001 C628.004668,427.22 628.283332,426.963336 628.474,426.670001 C628.782002,426.200665 628.936,425.650671 628.936,425.020001 L630.894,425.020001 C630.894,426.354674 630.454004,427.42533 629.574,428.232001 C628.693996,429.024005 627.564674,429.420001 626.186,429.420001 L626.098,429.420001 C624.557992,429.420001 623.326005,428.936006 622.402,427.968001 C621.448662,426.941329 620.972,425.555343 620.972,423.810001 L620.972,423.370001 C620.972,421.624659 621.448662,420.238673 622.402,419.212001 C623.296671,418.229329 624.506659,417.738001 626.032,417.738001 L626.186,417.738001 C627.57934,417.738001 628.708662,418.16333 629.574,419.014001 C630.454004,419.864672 630.894,421.023327 630.894,422.490001 L630.894,424.052001 L623.04,424.052001 Z M626.076,419.388001 C625.254663,419.388001 624.580003,419.640998 624.052,420.147001 C623.523997,420.653003 623.201334,421.419329 623.084,422.446001 L628.848,422.446001 L628.848,422.182001 C628.848,421.301996 628.576669,420.605337 628.034,420.092001 C627.535331,419.622665 626.882671,419.388001 626.076,419.388001 L626.076,419.388001 Z M633.072,426.164001 L633.094,425.680001 L635.14,425.680001 L635.14,425.900001 C635.14,426.824005 635.726661,427.410666 636.9,427.660001 C637.252002,427.733334 637.713997,427.770001 638.286,427.770001 C638.858003,427.770001 639.400664,427.634335 639.914,427.363001 C640.427336,427.091666 640.684,426.70667 640.684,426.208001 C640.684,425.709332 640.504335,425.346335 640.145,425.119001 C639.785665,424.891666 639.334669,424.715668 638.792,424.591001 C638.249331,424.466333 637.666336,424.352668 637.043,424.250001 C636.419664,424.147334 635.836669,423.982335 635.294,423.755001 C634.751331,423.527666 634.300335,423.212336 633.941,422.809001 C633.581665,422.405665 633.402,421.830005 633.402,421.082001 C633.402,420.040662 633.812663,419.223004 634.634,418.629001 C635.455337,418.034998 636.577326,417.738001 638,417.738001 L638.198,417.738001 C639.50334,417.738001 640.551996,418.038664 641.344,418.640001 C642.10667,419.22667 642.488,419.94533 642.488,420.796001 L642.466,421.192001 L640.42,421.192001 L640.42,420.994001 C640.42,419.923329 639.591342,419.388001 637.934,419.388001 C636.599327,419.388001 635.807335,419.717997 635.558,420.378001 C635.499333,420.554002 635.47,420.715333 635.47,420.862001 C635.47,421.272669 635.649665,421.580666 636.009,421.786001 C636.368335,421.991335 636.819331,422.152667 637.362,422.270001 C637.904669,422.387335 638.487664,422.501 639.111,422.611001 C639.734336,422.721001 640.317331,422.893333 640.86,423.128001 C642.12134,423.656003 642.752,424.550661 642.752,425.812001 C642.752,427.088007 642.290005,428.026664 641.366,428.628001 C640.544663,429.156003 639.415341,429.420001 637.978,429.420001 L637.648,429.420001 C636.151993,429.420001 635.000671,429.082671 634.194,428.408001 C633.445996,427.791998 633.072,427.044005 633.072,426.164001 L633.072,426.164001 Z M645.656,429.200001 L645.656,417.958001 L647.724,417.958001 L647.724,429.200001 L645.656,429.200001 Z M645.612,413.360001 L647.768,413.360001 L647.768,415.274001 L645.612,415.274001 L645.612,413.360001 Z M659.384,418.860001 C660.117337,419.490671 660.484,420.297329 660.484,421.280001 C660.484,422.292006 660.117337,423.120664 659.384,423.766001 C658.606663,424.455338 657.499341,424.800001 656.062,424.800001 L654.566,424.800001 C654.125998,424.800001 653.759335,424.913666 653.466,425.141001 C653.172665,425.368335 653.026,425.657999 653.026,426.010001 C653.026,426.362003 653.165332,426.640666 653.444,426.846001 C653.722668,427.051335 654.096664,427.154001 654.566,427.154001 L658.812,427.154001 C659.692004,427.154001 660.388664,427.425331 660.902,427.968001 C661.415336,428.51067 661.672,429.199997 661.672,430.036001 C661.672,431.077339 661.268671,431.898664 660.462,432.500001 C659.713996,433.057337 658.724006,433.336001 657.492,433.336001 L653.07,433.336001 C652.30733,433.336001 651.662003,433.057337 651.134,432.500001 C650.605997,431.942665 650.342,431.341337 650.342,430.696001 C650.342,430.065331 650.495998,429.52267 650.804,429.068001 C651.112002,428.613332 651.507998,428.283335 651.992,428.078001 C651.31733,427.652665 650.98,427.044005 650.98,426.252001 C650.98,425.709331 651.137665,425.251003 651.453,424.877001 C651.768335,424.502999 652.197331,424.220668 652.74,424.030001 C651.757328,423.472665 651.266,422.556007 651.266,421.280001 C651.266,420.238662 651.632663,419.402671 652.366,418.772001 C653.158004,418.082664 654.301993,417.738001 655.798,417.738001 L655.886,417.738001 C656.722004,417.738001 657.469997,417.862666 658.13,418.112001 C659.171339,417.598665 659.765333,416.872672 659.912,415.934001 L661.672,415.934001 C661.672,416.667338 661.474002,417.290665 661.078,417.804001 C660.681998,418.317337 660.132004,418.647333 659.428,418.794001 L659.384,418.860001 Z M653.312,421.280001 C653.312,421.969338 653.557664,422.453333 654.049,422.732001 C654.540336,423.010669 655.14533,423.150001 655.864,423.150001 C656.58267,423.150001 657.191331,423.010669 657.69,422.732001 C658.188669,422.453333 658.438,421.969338 658.438,421.280001 C658.438,420.590664 658.188669,420.103002 657.69,419.817001 C657.191331,419.530999 656.58267,419.388001 655.864,419.388001 C655.14533,419.388001 654.540336,419.530999 654.049,419.817001 C653.557664,420.103002 653.312,420.590664 653.312,421.280001 L653.312,421.280001 Z M657.91,431.686001 C658.379336,431.686001 658.782665,431.550335 659.12,431.279001 C659.457335,431.007666 659.626,430.696003 659.626,430.344001 C659.626,429.991999 659.505001,429.702335 659.263,429.475001 C659.020999,429.247666 658.665336,429.134001 658.196,429.134001 L653.664,429.134001 C653.311998,429.134001 653.011335,429.258666 652.762,429.508001 C652.512665,429.757335 652.388,430.057999 652.388,430.410001 C652.388,430.762003 652.512665,431.062666 652.762,431.312001 C653.011335,431.561335 653.311998,431.686001 653.664,431.686001 L657.91,431.686001 Z M665.654,419.608001 C666.607338,418.361328 667.861326,417.738001 669.416,417.738001 C671.249343,417.738001 672.466664,418.449327 673.068,419.872001 C673.273334,420.37067 673.376,420.957331 673.376,421.632001 L673.376,429.200001 L671.308,429.200001 L671.308,422.006001 C671.308,421.052663 671.088002,420.378003 670.648,419.982001 C670.207998,419.585999 669.636004,419.388001 668.932,419.388001 C668.139996,419.388001 667.443336,419.688664 666.842,420.290001 C666.240664,420.891337 665.94,421.631996 665.94,422.512001 L665.94,429.200001 L663.872,429.200001 L663.872,417.958001 L665.368,417.958001 L665.654,419.608001 Z M685.146,414.152001 C685.747336,413.976 686.319331,413.888001 686.862,413.888001 C687.404669,413.888001 687.917998,413.939334 688.402,414.042001 L688.402,416.044001 C687.976665,415.912 687.566002,415.846001 687.17,415.846001 C686.759331,415.846001 686.374335,415.893667 686.015,415.989001 C685.655665,416.084335 685.344001,416.22 685.08,416.396001 C684.507997,416.806669 684.222,417.385997 684.222,418.134001 C684.222,418.794004 684.493331,419.358665 685.036,419.828001 C685.608003,420.28267 686.326662,420.510001 687.192,420.510001 L689.898,420.510001 L690.514,417.364001 L692.01,417.364001 L692.01,420.510001 L694.386,420.510001 L694.386,422.468001 L692.01,422.468001 L692.01,429.200001 L687.06,429.200001 C685.549326,429.200001 684.302672,428.862671 683.32,428.188001 C682.263995,427.439997 681.736,426.362008 681.736,424.954001 C681.736,423.149992 682.659991,421.969337 684.508,421.412001 L684.574,421.368001 C683.869996,421.059999 683.279669,420.64567 682.803,420.125001 C682.326331,419.604331 682.088,418.955338 682.088,418.178001 C682.088,417.400664 682.223665,416.755337 682.495,416.242001 C682.766335,415.728665 683.125664,415.296003 683.573,414.944001 C684.020336,414.591999 684.544664,414.328002 685.146,414.152001 L685.146,414.152001 Z M687.346,422.468001 C686.245994,422.468001 685.395336,422.665999 684.794,423.062001 C684.192664,423.458003 683.892,424.051997 683.892,424.844001 C683.892,425.665338 684.22933,426.281332 684.904,426.692001 C685.520003,427.058669 686.341328,427.242001 687.368,427.242001 L689.854,427.242001 L689.854,422.468001 L687.346,422.468001 Z M708.972,424.052001 C707.094657,424.052001 705.84067,424.151 705.21,424.349001 C704.57933,424.547002 704.139335,424.781666 703.89,425.053001 C703.640665,425.324335 703.516,425.723998 703.516,426.252001 C703.516,427.264006 704.285992,427.770001 705.826,427.770001 C706.647337,427.770001 707.37333,427.484004 708.004,426.912001 C708.649337,426.310664 708.972,425.504006 708.972,424.492001 L708.972,424.052001 Z M709.06,427.396001 C708.165329,428.745341 706.852675,429.420001 705.122,429.420001 C703.420658,429.420001 702.298669,428.892006 701.756,427.836001 C701.550666,427.410665 701.448,426.824005 701.448,426.076001 C701.448,425.327997 701.631331,424.708337 701.998,424.217001 C702.364668,423.725665 702.877997,423.348002 703.538,423.084001 C704.594005,422.658665 706.405321,422.446001 708.972,422.446001 L708.972,421.412001 C708.972,420.839998 708.869334,420.429335 708.664,420.180001 C708.209331,419.651998 707.454005,419.388001 706.398,419.388001 C705.371328,419.388001 704.652669,419.637332 704.242,420.136001 C704.007332,420.429336 703.89,420.766666 703.89,421.148001 L703.89,421.412001 L701.866,421.412001 C701.836667,421.265333 701.822,421.023336 701.822,420.686001 C701.822,420.363332 701.939332,420.004003 702.174,419.608001 C702.408668,419.211999 702.731331,418.874669 703.142,418.596001 C704.022004,418.023998 705.121993,417.738001 706.442,417.738001 L706.64,417.738001 C708.136007,417.738001 709.24333,418.034998 709.962,418.629001 C710.68067,419.223004 711.04,420.069995 711.04,421.170001 L711.04,427.000001 C711.04,427.278669 711.102333,427.476667 711.227,427.594001 C711.351667,427.711335 711.494666,427.770001 711.656,427.770001 C712.008002,427.770001 712.345332,427.667335 712.668,427.462001 L712.668,428.980001 C712.183998,429.273336 711.619337,429.420001 710.974,429.420001 C710.313997,429.420001 709.837335,429.229336 709.544,428.848001 C709.250665,428.466666 709.089333,427.98267 709.06,427.396001 L709.06,427.396001 Z M716.87,419.608001 C717.823338,418.361328 719.077326,417.738001 720.632,417.738001 C722.465343,417.738001 723.682664,418.449327 724.284,419.872001 C724.489334,420.37067 724.592,420.957331 724.592,421.632001 L724.592,429.200001 L722.524,429.200001 L722.524,422.006001 C722.524,421.052663 722.304002,420.378003 721.864,419.982001 C721.423998,419.585999 720.852004,419.388001 720.148,419.388001 C719.355996,419.388001 718.659336,419.688664 718.058,420.290001 C717.456664,420.891337 717.156,421.631996 717.156,422.512001 L717.156,429.200001 L715.088,429.200001 L715.088,417.958001 L716.584,417.958001 L716.87,419.608001 Z M734.888,424.052001 C733.010657,424.052001 731.75667,424.151 731.126,424.349001 C730.49533,424.547002 730.055335,424.781666 729.806,425.053001 C729.556665,425.324335 729.432,425.723998 729.432,426.252001 C729.432,427.264006 730.201992,427.770001 731.742,427.770001 C732.563337,427.770001 733.28933,427.484004 733.92,426.912001 C734.565337,426.310664 734.888,425.504006 734.888,424.492001 L734.888,424.052001 Z M734.976,427.396001 C734.081329,428.745341 732.768675,429.420001 731.038,429.420001 C729.336658,429.420001 728.214669,428.892006 727.672,427.836001 C727.466666,427.410665 727.364,426.824005 727.364,426.076001 C727.364,425.327997 727.547331,424.708337 727.914,424.217001 C728.280668,423.725665 728.793997,423.348002 729.454,423.084001 C730.510005,422.658665 732.32132,422.446001 734.888,422.446001 L734.888,421.412001 C734.888,420.839998 734.785334,420.429335 734.58,420.180001 C734.125331,419.651998 733.370005,419.388001 732.314,419.388001 C731.287328,419.388001 730.568669,419.637332 730.158,420.136001 C729.923332,420.429336 729.806,420.766666 729.806,421.148001 L729.806,421.412001 L727.782,421.412001 C727.752667,421.265333 727.738,421.023336 727.738,420.686001 C727.738,420.363332 727.855332,420.004003 728.09,419.608001 C728.324668,419.211999 728.647331,418.874669 729.058,418.596001 C729.938004,418.023998 731.037993,417.738001 732.358,417.738001 L732.556,417.738001 C734.052007,417.738001 735.15933,418.034998 735.878,418.629001 C736.59667,419.223004 736.956,420.069995 736.956,421.170001 L736.956,427.000001 C736.956,427.278669 737.018333,427.476667 737.143,427.594001 C737.267667,427.711335 737.410666,427.770001 737.572,427.770001 C737.924002,427.770001 738.261332,427.667335 738.584,427.462001 L738.584,428.980001 C738.099998,429.273336 737.535337,429.420001 736.89,429.420001 C736.229997,429.420001 735.753335,429.229336 735.46,428.848001 C735.166665,428.466666 735.005333,427.98267 734.976,427.396001 L734.976,427.396001 Z M741.092,429.200001 L741.092,413.360001 L743.16,413.360001 L743.16,429.200001 L741.092,429.200001 Z M746.108,431.290001 C746.562669,431.495335 746.929332,431.598001 747.208,431.598001 C747.486668,431.598001 747.721332,431.572334 747.912,431.521001 C748.102668,431.469667 748.300666,431.356002 748.506,431.180001 C749.004669,430.754665 749.407998,430.058006 749.716,429.090001 L745.338,417.958001 L747.538,417.958001 L750.772,426.252001 L750.86,426.252001 L754.05,417.958001 L756.074,417.958001 L751.872,428.760001 C751.255997,430.270675 750.742669,431.282665 750.332,431.796001 C749.921331,432.309337 749.510669,432.687 749.1,432.929001 C748.689331,433.171002 748.205336,433.292001 747.648,433.292001 C747.075997,433.292001 746.562669,433.189335 746.108,432.984001 L746.108,431.290001 Z M757.328,426.164001 L757.35,425.680001 L759.396,425.680001 L759.396,425.900001 C759.396,426.824005 759.982661,427.410666 761.156,427.660001 C761.508002,427.733334 761.969997,427.770001 762.542,427.770001 C763.114003,427.770001 763.656664,427.634335 764.17,427.363001 C764.683336,427.091666 764.94,426.70667 764.94,426.208001 C764.94,425.709332 764.760335,425.346335 764.401,425.119001 C764.041665,424.891666 763.590669,424.715668 763.048,424.591001 C762.505331,424.466333 761.922336,424.352668 761.299,424.250001 C760.675664,424.147334 760.092669,423.982335 759.55,423.755001 C759.007331,423.527666 758.556335,423.212336 758.197,422.809001 C757.837665,422.405665 757.658,421.830005 757.658,421.082001 C757.658,420.040662 758.068663,419.223004 758.89,418.629001 C759.711337,418.034998 760.833326,417.738001 762.256,417.738001 L762.454,417.738001 C763.75934,417.738001 764.807996,418.038664 765.6,418.640001 C766.36267,419.22667 766.744,419.94533 766.744,420.796001 L766.722,421.192001 L764.676,421.192001 L764.676,420.994001 C764.676,419.923329 763.847342,419.388001 762.19,419.388001 C760.855327,419.388001 760.063335,419.717997 759.814,420.378001 C759.755333,420.554002 759.726,420.715333 759.726,420.862001 C759.726,421.272669 759.905665,421.580666 760.265,421.786001 C760.624335,421.991335 761.075331,422.152667 761.618,422.270001 C762.160669,422.387335 762.743664,422.501 763.367,422.611001 C763.990336,422.721001 764.573331,422.893333 765.116,423.128001 C766.37734,423.656003 767.008,424.550661 767.008,425.812001 C767.008,427.088007 766.546005,428.026664 765.622,428.628001 C764.800663,429.156003 763.671341,429.420001 762.234,429.420001 L761.904,429.420001 C760.407993,429.420001 759.256671,429.082671 758.45,428.408001 C757.701996,427.791998 757.328,427.044005 757.328,426.164001 L757.328,426.164001 Z M771.276,424.052001 C771.32,425.782676 771.899328,426.926665 773.014,427.484001 C773.395335,427.674668 773.87933,427.770001 774.466,427.770001 C775.038003,427.770001 775.507331,427.660002 775.874,427.440001 C776.240668,427.22 776.519332,426.963336 776.71,426.670001 C777.018002,426.200665 777.172,425.650671 777.172,425.020001 L779.13,425.020001 C779.13,426.354674 778.690004,427.42533 777.81,428.232001 C776.929996,429.024005 775.800674,429.420001 774.422,429.420001 L774.334,429.420001 C772.793992,429.420001 771.562005,428.936006 770.638,427.968001 C769.684662,426.941329 769.208,425.555343 769.208,423.810001 L769.208,423.370001 C769.208,421.624659 769.684662,420.238673 770.638,419.212001 C771.532671,418.229329 772.742659,417.738001 774.268,417.738001 L774.422,417.738001 C775.81534,417.738001 776.944662,418.16333 777.81,419.014001 C778.690004,419.864672 779.13,421.023327 779.13,422.490001 L779.13,424.052001 L771.276,424.052001 Z M774.312,419.388001 C773.490663,419.388001 772.816003,419.640998 772.288,420.147001 C771.759997,420.653003 771.437334,421.419329 771.32,422.446001 L777.084,422.446001 L777.084,422.182001 C777.084,421.301996 776.812669,420.605337 776.27,420.092001 C775.771331,419.622665 775.118671,419.388001 774.312,419.388001 L774.312,419.388001 Z M618.86,457.734001 C618.522665,457.866002 618.178002,457.932001 617.826,457.932001 C617.532665,457.932001 617.232002,457.888002 616.924,457.800001 C616.395997,457.653334 616.014668,457.220671 615.78,456.502001 C615.647999,456.135333 615.582,455.614671 615.582,454.940001 C615.582,454.265331 615.497668,453.675004 615.329,453.169001 C615.160332,452.662999 614.944001,452.256003 614.68,451.948001 C614.225331,451.419999 613.668003,451.156001 613.008,451.156001 L609.18,451.156001 L609.18,457.800001 L607.024,457.800001 L607.024,442.708001 L613.448,442.708001 C615.51601,442.708001 616.916663,443.397328 617.65,444.776001 C617.899335,445.245337 618.024,445.736665 618.024,446.250001 C618.024,446.778004 617.954334,447.239999 617.815,447.636001 C617.675666,448.032003 617.481335,448.398666 617.232,448.736001 C616.718664,449.440005 616.08067,449.865334 615.318,450.012001 L615.318,450.122001 C616.286005,450.48867 616.989998,451.221996 617.43,452.322001 C617.635334,452.835337 617.738,453.414665 617.738,454.060001 C617.738,454.720004 617.763666,455.218666 617.815,455.556001 C617.866334,455.893336 617.936,456.164667 618.024,456.370001 C618.200001,456.73667 618.478665,456.986 618.86,457.118001 L618.86,457.734001 Z M613.47,449.198001 C614.115337,449.198001 614.679998,448.985337 615.164,448.560001 C615.633336,448.134666 615.868,447.606671 615.868,446.976001 L615.868,446.888001 C615.868,446.257331 615.651669,445.729337 615.219,445.304001 C614.786331,444.878666 614.203337,444.666001 613.47,444.666001 L609.18,444.666001 L609.18,449.198001 L613.47,449.198001 Z M622.93,452.652001 C622.974,454.382676 623.553328,455.526665 624.668,456.084001 C625.049335,456.274669 625.53333,456.370001 626.12,456.370001 C626.692003,456.370001 627.161331,456.260002 627.528,456.040001 C627.894668,455.82 628.173332,455.563336 628.364,455.270001 C628.672002,454.800665 628.826,454.250671 628.826,453.620001 L630.784,453.620001 C630.784,454.954674 630.344004,456.02533 629.464,456.832001 C628.583996,457.624005 627.454674,458.020001 626.076,458.020001 L625.988,458.020001 C624.447992,458.020001 623.216005,457.536006 622.292,456.568001 C621.338662,455.541329 620.862,454.155343 620.862,452.410001 L620.862,451.970001 C620.862,450.224659 621.338662,448.838673 622.292,447.812001 C623.186671,446.82933 624.396659,446.338001 625.922,446.338001 L626.076,446.338001 C627.46934,446.338001 628.598662,446.76333 629.464,447.614001 C630.344004,448.464672 630.784,449.623327 630.784,451.090001 L630.784,452.652001 L622.93,452.652001 Z M625.966,447.988001 C625.144663,447.988001 624.470003,448.240999 623.942,448.747001 C623.413997,449.253004 623.091334,450.019329 622.974,451.046001 L628.738,451.046001 L628.738,450.782001 C628.738,449.901997 628.466669,449.205337 627.924,448.692001 C627.425331,448.222665 626.772671,447.988001 625.966,447.988001 L625.966,447.988001 Z M641.454,448.340001 L642.18,446.558001 L642.972,446.558001 L642.972,461.760001 L640.904,461.760001 L640.904,456.370001 C640.581332,456.82467 640.134003,457.213333 639.562,457.536001 C638.989997,457.858669 638.352004,458.020001 637.648,458.020001 C636.943996,458.020001 636.324336,457.902669 635.789,457.668001 C635.253664,457.433333 634.788002,457.081337 634.392,456.612001 C633.541329,455.599996 633.116,454.206677 633.116,452.432001 L633.116,452.190001 C633.116,450.253991 633.563329,448.76534 634.458,447.724001 C635.264671,446.799997 636.335327,446.338001 637.67,446.338001 C639.342008,446.338001 640.603329,447.005328 641.454,448.340001 L641.454,448.340001 Z M640.926,452.168001 C640.926,449.96799 640.361339,448.648003 639.232,448.208001 C638.879998,448.061334 638.491335,447.988001 638.066,447.988001 C637.141995,447.988001 636.445336,448.288665 635.976,448.890001 C635.447997,449.579338 635.184,450.671994 635.184,452.168001 C635.184,454.382679 635.755994,455.717332 636.9,456.172001 C637.252002,456.304002 637.640665,456.370001 638.066,456.370001 C638.975338,456.370001 639.664664,456.069337 640.134,455.468001 C640.662003,454.778664 640.926,453.678675 640.926,452.168001 L640.926,452.168001 Z M657.624,457.580001 C657.183998,457.873336 656.722002,458.020001 656.238,458.020001 C655.739331,458.020001 655.369001,457.968668 655.127,457.866001 C654.884999,457.763334 654.683334,457.624002 654.522,457.448001 C654.243332,457.14 654.089333,456.714671 654.06,456.172001 C653.487997,457.008005 652.674005,457.572666 651.618,457.866001 C651.265998,457.968668 650.855336,458.020001 650.386,458.020001 C649.901998,458.020001 649.418002,457.943002 648.934,457.789001 C648.449998,457.635 648.024668,457.404003 647.658,457.096001 C646.89533,456.406664 646.514,455.416674 646.514,454.126001 L646.514,446.558001 L648.582,446.558001 L648.582,453.752001 C648.582,454.705339 648.801998,455.379999 649.242,455.776001 C649.682002,456.172003 650.253996,456.370001 650.958,456.370001 C651.750004,456.370001 652.446664,456.069337 653.048,455.468001 C653.649336,454.866665 653.95,454.126006 653.95,453.246001 L653.95,446.558001 L656.018,446.558001 L656.018,455.600001 C656.018,455.878669 656.080333,456.076667 656.205,456.194001 C656.329667,456.311335 656.472666,456.370001 656.634,456.370001 C656.971335,456.370001 657.301332,456.267336 657.624,456.062001 L657.624,457.580001 Z M660.22,457.800001 L660.22,446.558001 L662.288,446.558001 L662.288,457.800001 L660.22,457.800001 Z M660.176,441.960001 L662.332,441.960001 L662.332,443.874001 L660.176,443.874001 L660.176,441.960001 Z M674.322,449.858001 L674.256,450.694001 L672.43,450.694001 L672.43,450.210001 C672.43,449.696665 672.298001,449.278669 672.034,448.956001 C671.549998,448.310665 670.956004,447.988001 670.252,447.988001 C669.474663,447.988001 668.888002,448.325331 668.492,449.000001 C668.169332,449.557337 668.008,450.253997 668.008,451.090001 L668.008,457.800001 L665.94,457.800001 L665.94,446.558001 L667.414,446.558001 L667.722,448.230001 C667.942001,447.569998 668.543328,447.03467 669.526,446.624001 C669.951335,446.433334 670.442664,446.338001 671,446.338001 C671.557336,446.338001 672.037665,446.429667 672.441,446.613001 C672.844335,446.796335 673.185332,447.049333 673.464,447.372001 C674.036003,448.017338 674.322,448.845996 674.322,449.858001 L674.322,449.858001 Z M678.084,452.652001 C678.128,454.382676 678.707328,455.526665 679.822,456.084001 C680.203335,456.274669 680.68733,456.370001 681.274,456.370001 C681.846003,456.370001 682.315331,456.260002 682.682,456.040001 C683.048668,455.82 683.327332,455.563336 683.518,455.270001 C683.826002,454.800665 683.98,454.250671 683.98,453.620001 L685.938,453.620001 C685.938,454.954674 685.498004,456.02533 684.618,456.832001 C683.737996,457.624005 682.608674,458.020001 681.23,458.020001 L681.142,458.020001 C679.601992,458.020001 678.370005,457.536006 677.446,456.568001 C676.492662,455.541329 676.016,454.155343 676.016,452.410001 L676.016,451.970001 C676.016,450.224659 676.492662,448.838673 677.446,447.812001 C678.340671,446.82933 679.550659,446.338001 681.076,446.338001 L681.23,446.338001 C682.62334,446.338001 683.752662,446.76333 684.618,447.614001 C685.498004,448.464672 685.938,449.623327 685.938,451.090001 L685.938,452.652001 L678.084,452.652001 Z M681.12,447.988001 C680.298663,447.988001 679.624003,448.240999 679.096,448.747001 C678.567997,449.253004 678.245334,450.019329 678.128,451.046001 L683.892,451.046001 L683.892,450.782001 C683.892,449.901997 683.620669,449.205337 683.078,448.692001 C682.579331,448.222665 681.926671,447.988001 681.12,447.988001 L681.12,447.988001 Z M695.684,450.606001 C695.684,448.860659 695.00934,447.988001 693.66,447.988001 C692.94133,447.988001 692.321669,448.288665 691.801,448.890001 C691.280331,449.491337 691.02,450.231997 691.02,451.112001 L691.02,457.800001 L688.952,457.800001 L688.952,446.558001 L690.448,446.558001 L690.734,448.208001 C691.599338,446.961328 692.779993,446.338001 694.276,446.338001 C695.757341,446.338001 696.783997,446.961328 697.356,448.208001 C697.898669,447.445331 698.466997,446.943002 699.061,446.701001 C699.655003,446.459 700.237997,446.338001 700.81,446.338001 C701.367336,446.338001 701.865998,446.415 702.306,446.569001 C702.746002,446.723002 703.127332,446.961333 703.45,447.284001 C704.139337,447.944004 704.484,448.926661 704.484,450.232001 L704.484,457.800001 L702.416,457.800001 L702.416,450.606001 C702.416,448.860659 701.74134,447.988001 700.392,447.988001 C699.67333,447.988001 699.053669,448.288665 698.533,448.890001 C698.012331,449.491337 697.752,450.231997 697.752,451.112001 L697.752,457.800001 L695.684,457.800001 L695.684,450.606001 Z M709.39,452.652001 C709.434,454.382676 710.013328,455.526665 711.128,456.084001 C711.509335,456.274669 711.99333,456.370001 712.58,456.370001 C713.152003,456.370001 713.621331,456.260002 713.988,456.040001 C714.354669,455.82 714.633332,455.563336 714.824,455.270001 C715.132002,454.800665 715.286,454.250671 715.286,453.620001 L717.244,453.620001 C717.244,454.954674 716.804004,456.02533 715.924,456.832001 C715.043996,457.624005 713.914674,458.020001 712.536,458.020001 L712.448,458.020001 C710.907992,458.020001 709.676005,457.536006 708.752,456.568001 C707.798662,455.541329 707.322,454.155343 707.322,452.410001 L707.322,451.970001 C707.322,450.224659 707.798662,448.838673 708.752,447.812001 C709.646671,446.82933 710.856659,446.338001 712.382,446.338001 L712.536,446.338001 C713.92934,446.338001 715.058662,446.76333 715.924,447.614001 C716.804004,448.464672 717.244,449.623327 717.244,451.090001 L717.244,452.652001 L709.39,452.652001 Z M712.426,447.988001 C711.604663,447.988001 710.930003,448.240999 710.402,448.747001 C709.873997,449.253004 709.551334,450.019329 709.434,451.046001 L715.198,451.046001 L715.198,450.782001 C715.198,449.901997 714.926669,449.205337 714.384,448.692001 C713.885331,448.222665 713.232671,447.988001 712.426,447.988001 L712.426,447.988001 Z M722.04,448.208001 C722.993338,446.961328 724.247326,446.338001 725.802,446.338001 C727.635342,446.338001 728.852664,447.049327 729.454,448.472001 C729.659334,448.97067 729.762,449.557331 729.762,450.232001 L729.762,457.800001 L727.694,457.800001 L727.694,450.606001 C727.694,449.652663 727.474002,448.978003 727.034,448.582001 C726.593998,448.185999 726.022004,447.988001 725.318,447.988001 C724.525996,447.988001 723.829336,448.288665 723.228,448.890001 C722.626664,449.491337 722.326,450.231997 722.326,451.112001 L722.326,457.800001 L720.258,457.800001 L720.258,446.558001 L721.754,446.558001 L722.04,448.208001 Z M736.978,456.414001 C737.359335,456.414001 737.813997,456.304002 738.342,456.084001 L738.342,457.624001 C737.813997,457.888002 737.132004,458.020001 736.296,458.020001 C735.445329,458.020001 734.792669,457.77067 734.338,457.272001 C733.883331,456.773332 733.656,455.952007 733.656,454.808001 L733.656,448.208001 L732.424,448.208001 L732.424,446.558001 L733.722,446.558001 L734.426,442.972001 L735.724,442.972001 L735.724,446.558001 L738.342,446.558001 L738.342,448.208001 L735.724,448.208001 L735.724,454.918001 C735.724,455.754005 735.987997,456.230667 736.516,456.348001 C736.662667,456.392001 736.816666,456.414001 736.978,456.414001 L736.978,456.414001 Z M740.08,454.764001 L740.102,454.280001 L742.148,454.280001 L742.148,454.500001 C742.148,455.424006 742.734661,456.010667 743.908,456.260001 C744.260002,456.333335 744.721997,456.370001 745.294,456.370001 C745.866003,456.370001 746.408664,456.234336 746.922,455.963001 C747.435336,455.691666 747.692,455.30667 747.692,454.808001 C747.692,454.309332 747.512335,453.946336 747.153,453.719001 C746.793665,453.491667 746.342669,453.315668 745.8,453.191001 C745.257331,453.066334 744.674336,452.952668 744.051,452.850001 C743.427664,452.747334 742.844669,452.582336 742.302,452.355001 C741.759331,452.127667 741.308335,451.812336 740.949,451.409001 C740.589665,451.005666 740.41,450.430005 740.41,449.682001 C740.41,448.640663 740.820663,447.823004 741.642,447.229001 C742.463337,446.634998 743.585326,446.338001 745.008,446.338001 L745.206,446.338001 C746.51134,446.338001 747.559996,446.638665 748.352,447.240001 C749.11467,447.826671 749.496,448.54533 749.496,449.396001 L749.474,449.792001 L747.428,449.792001 L747.428,449.594001 C747.428,448.523329 746.599342,447.988001 744.942,447.988001 C743.607327,447.988001 742.815335,448.317998 742.566,448.978001 C742.507333,449.154002 742.478,449.315334 742.478,449.462001 C742.478,449.87267 742.657665,450.180667 743.017,450.386001 C743.376335,450.591336 743.827331,450.752667 744.37,450.870001 C744.912669,450.987335 745.495664,451.101001 746.119,451.211001 C746.742336,451.321002 747.325331,451.493333 747.868,451.728001 C749.12934,452.256004 749.76,453.150662 749.76,454.412001 C749.76,455.688008 749.298005,456.626665 748.374,457.228001 C747.552663,457.756004 746.423341,458.020001 744.986,458.020001 L744.656,458.020001 C743.159993,458.020001 742.008671,457.682671 741.202,457.008001 C740.453996,456.391998 740.08,455.644006 740.08,454.764001 L740.08,454.764001 Z M609.18,473.266002 L609.18,478.150002 L613.338,478.150002 C614.027337,478.150002 614.628664,477.908004 615.142,477.424002 C615.640669,476.954666 615.89,476.382672 615.89,475.708002 C615.89,475.033331 615.648002,474.461337 615.164,473.992002 C614.650664,473.507999 614.042004,473.266002 613.338,473.266002 L609.18,473.266002 Z M609.18,480.108002 L609.18,486.400002 L607.024,486.400002 L607.024,471.308002 L613.536,471.308002 C614.812006,471.308002 615.875329,471.703998 616.726,472.496002 C617.606004,473.332006 618.046,474.402662 618.046,475.708002 C618.046,477.013341 617.606004,478.083997 616.726,478.920002 C615.875329,479.712005 614.812006,480.108002 613.536,480.108002 L609.18,480.108002 Z M628.936,478.458002 L628.87,479.294002 L627.044,479.294002 L627.044,478.810002 C627.044,478.296666 626.912001,477.87867 626.648,477.556002 C626.163998,476.910665 625.570004,476.588002 624.866,476.588002 C624.088663,476.588002 623.502002,476.925331 623.106,477.600002 C622.783332,478.157338 622.622,478.853997 622.622,479.690002 L622.622,486.400002 L620.554,486.400002 L620.554,475.158002 L622.028,475.158002 L622.336,476.830002 C622.556001,476.169998 623.157328,475.63467 624.14,475.224002 C624.565335,475.033334 625.056664,474.938002 625.614,474.938002 C626.171336,474.938002 626.651665,475.029667 627.055,475.213002 C627.458335,475.396336 627.799332,475.649333 628.078,475.972002 C628.650003,476.617338 628.936,477.445996 628.936,478.458002 L628.936,478.458002 Z M631.334,486.400002 L631.334,475.158002 L633.402,475.158002 L633.402,486.400002 L631.334,486.400002 Z M631.29,470.560002 L633.446,470.560002 L633.446,472.474002 L631.29,472.474002 L631.29,470.560002 Z M644.644,480.570002 C644.644,479.220661 644.343336,478.201338 643.742,477.512002 C643.213997,476.895998 642.480671,476.588002 641.542,476.588002 C640.089993,476.588002 639.136669,477.306661 638.682,478.744002 C638.520666,479.257337 638.44,479.865998 638.44,480.570002 L638.44,480.988002 C638.44,482.337342 638.740664,483.356665 639.342,484.046002 C639.870003,484.662005 640.603329,484.970002 641.542,484.970002 C642.994007,484.970002 643.947331,484.244009 644.402,482.792002 C644.563334,482.293332 644.644,481.692005 644.644,480.988002 L644.644,480.570002 Z M646.712,481.186002 C646.712,482.960677 646.206005,484.331997 645.194,485.300002 C644.269995,486.180006 643.052674,486.620002 641.542,486.620002 C640.031326,486.620002 638.814005,486.180006 637.89,485.300002 C636.877995,484.331997 636.372,482.960677 636.372,481.186002 L636.372,480.372002 C636.372,478.597326 636.877995,477.23334 637.89,476.280002 C638.814005,475.38533 640.031326,474.938002 641.542,474.938002 C643.052674,474.938002 644.269995,475.38533 645.194,476.280002 C646.206005,477.23334 646.712,478.597326 646.712,480.372002 L646.712,481.186002 Z M658.064,478.458002 L657.998,479.294002 L656.172,479.294002 L656.172,478.810002 C656.172,478.296666 656.040001,477.87867 655.776,477.556002 C655.291998,476.910665 654.698004,476.588002 653.994,476.588002 C653.216663,476.588002 652.630002,476.925331 652.234,477.600002 C651.911332,478.157338 651.75,478.853997 651.75,479.690002 L651.75,486.400002 L649.682,486.400002 L649.682,475.158002 L651.156,475.158002 L651.464,476.830002 C651.684001,476.169998 652.285328,475.63467 653.268,475.224002 C653.693335,475.033334 654.184664,474.938002 654.742,474.938002 C655.299336,474.938002 655.779665,475.029667 656.183,475.213002 C656.586335,475.396336 656.927332,475.649333 657.206,475.972002 C657.778003,476.617338 658.064,477.445996 658.064,478.458002 L658.064,478.458002 Z M660.462,486.400002 L660.462,475.158002 L662.53,475.158002 L662.53,486.400002 L660.462,486.400002 Z M660.418,470.560002 L662.574,470.560002 L662.574,472.474002 L660.418,472.474002 L660.418,470.560002 Z M669.856,485.014002 C670.237335,485.014002 670.691997,484.904003 671.22,484.684002 L671.22,486.224002 C670.691997,486.488003 670.010004,486.620002 669.174,486.620002 C668.323329,486.620002 667.670669,486.370671 667.216,485.872002 C666.761331,485.373332 666.534,484.552007 666.534,483.408002 L666.534,476.808002 L665.302,476.808002 L665.302,475.158002 L666.6,475.158002 L667.304,471.572002 L668.602,471.572002 L668.602,475.158002 L671.22,475.158002 L671.22,476.808002 L668.602,476.808002 L668.602,483.518002 C668.602,484.354006 668.865997,484.830668 669.394,484.948002 C669.540667,484.992002 669.694666,485.014002 669.856,485.014002 L669.856,485.014002 Z M675.158,481.252002 C675.202,482.982677 675.781328,484.126665 676.896,484.684002 C677.277335,484.874669 677.76133,484.970002 678.348,484.970002 C678.920003,484.970002 679.389332,484.860003 679.756,484.640002 C680.122668,484.42 680.401332,484.163336 680.592,483.870002 C680.900002,483.400666 681.054,482.850671 681.054,482.220002 L683.012,482.220002 C683.012,483.554675 682.572004,484.625331 681.692,485.432002 C680.811996,486.224005 679.682674,486.620002 678.304,486.620002 L678.216,486.620002 C676.675992,486.620002 675.444005,486.136006 674.52,485.168002 C673.566662,484.14133 673.09,482.755344 673.09,481.010002 L673.09,480.570002 C673.09,478.824659 673.566662,477.438673 674.52,476.412002 C675.414671,475.42933 676.624659,474.938002 678.15,474.938002 L678.304,474.938002 C679.69734,474.938002 680.826662,475.363331 681.692,476.214002 C682.572004,477.064672 683.012,478.223328 683.012,479.690002 L683.012,481.252002 L675.158,481.252002 Z M678.194,476.588002 C677.372663,476.588002 676.698003,476.840999 676.17,477.347002 C675.641997,477.853004 675.319334,478.61933 675.202,479.646002 L680.966,479.646002 L680.966,479.382002 C680.966,478.501997 680.694669,477.805337 680.152,477.292002 C679.653331,476.822666 679.000671,476.588002 678.194,476.588002 L678.194,476.588002 Z M694.408,478.458002 L694.342,479.294002 L692.516,479.294002 L692.516,478.810002 C692.516,478.296666 692.384001,477.87867 692.12,477.556002 C691.635998,476.910665 691.042004,476.588002 690.338,476.588002 C689.560663,476.588002 688.974002,476.925331 688.578,477.600002 C688.255332,478.157338 688.094,478.853997 688.094,479.690002 L688.094,486.400002 L686.026,486.400002 L686.026,475.158002 L687.5,475.158002 L687.808,476.830002 C688.028001,476.169998 688.629328,475.63467 689.612,475.224002 C690.037335,475.033334 690.528664,474.938002 691.086,474.938002 C691.643336,474.938002 692.123665,475.029667 692.527,475.213002 C692.930335,475.396336 693.271332,475.649333 693.55,475.972002 C694.122003,476.617338 694.408,477.445996 694.408,478.458002 L694.408,478.458002 Z M696.806,486.400002 L696.806,475.158002 L698.874,475.158002 L698.874,486.400002 L696.806,486.400002 Z M696.762,470.560002 L698.918,470.560002 L698.918,472.474002 L696.762,472.474002 L696.762,470.560002 Z M704.308,476.808002 C705.261338,475.561329 706.515326,474.938002 708.07,474.938002 C709.903343,474.938002 711.120664,475.649328 711.722,477.072002 C711.927334,477.570671 712.03,478.157331 712.03,478.832002 L712.03,486.400002 L709.962,486.400002 L709.962,479.206002 C709.962,478.252663 709.742002,477.578004 709.302,477.182002 C708.861998,476.786 708.290004,476.588002 707.586,476.588002 C706.793996,476.588002 706.097336,476.888665 705.496,477.490002 C704.894664,478.091338 704.594,478.831997 704.594,479.712002 L704.594,486.400002 L702.526,486.400002 L702.526,475.158002 L704.022,475.158002 L704.308,476.808002 Z M723.58,476.060002 C724.313337,476.690671 724.68,477.49733 724.68,478.480002 C724.68,479.492007 724.313337,480.320665 723.58,480.966002 C722.802663,481.655338 721.695341,482.000002 720.258,482.000002 L718.762,482.000002 C718.321998,482.000002 717.955335,482.113667 717.662,482.341002 C717.368665,482.568336 717.222,482.858 717.222,483.210002 C717.222,483.562003 717.361332,483.840667 717.64,484.046002 C717.918668,484.251336 718.292664,484.354002 718.762,484.354002 L723.008,484.354002 C723.888004,484.354002 724.584664,484.625332 725.098,485.168002 C725.611336,485.710671 725.868,486.399997 725.868,487.236002 C725.868,488.27734 725.464671,489.098665 724.658,489.700002 C723.909996,490.257338 722.920006,490.536002 721.688,490.536002 L717.266,490.536002 C716.50333,490.536002 715.858003,490.257338 715.33,489.700002 C714.801997,489.142665 714.538,488.541338 714.538,487.896002 C714.538,487.265332 714.691998,486.72267 715,486.268002 C715.308002,485.813333 715.703998,485.483336 716.188,485.278002 C715.51333,484.852666 715.176,484.244005 715.176,483.452002 C715.176,482.909332 715.333665,482.451003 715.649,482.077002 C715.964335,481.703 716.393331,481.420669 716.936,481.230002 C715.953328,480.672665 715.462,479.756008 715.462,478.480002 C715.462,477.438663 715.828663,476.602671 716.562,475.972002 C717.354004,475.282665 718.497993,474.938002 719.994,474.938002 L720.082,474.938002 C720.918004,474.938002 721.665997,475.062667 722.326,475.312002 C723.367339,474.798666 723.961333,474.072673 724.108,473.134002 L725.868,473.134002 C725.868,473.867339 725.670002,474.490666 725.274,475.004002 C724.877998,475.517337 724.328004,475.847334 723.624,475.994002 L723.58,476.060002 Z M717.508,478.480002 C717.508,479.169338 717.753664,479.653333 718.245,479.932002 C718.736336,480.21067 719.34133,480.350002 720.06,480.350002 C720.77867,480.350002 721.387331,480.21067 721.886,479.932002 C722.384669,479.653333 722.634,479.169338 722.634,478.480002 C722.634,477.790665 722.384669,477.303003 721.886,477.017002 C721.387331,476.731 720.77867,476.588002 720.06,476.588002 C719.34133,476.588002 718.736336,476.731 718.245,477.017002 C717.753664,477.303003 717.508,477.790665 717.508,478.480002 L717.508,478.480002 Z M722.106,488.886002 C722.575336,488.886002 722.978665,488.750336 723.316,488.479002 C723.653335,488.207667 723.822,487.896003 723.822,487.544002 C723.822,487.192 723.701001,486.902336 723.459,486.675002 C723.216999,486.447667 722.861336,486.334002 722.392,486.334002 L717.86,486.334002 C717.507998,486.334002 717.207335,486.458667 716.958,486.708002 C716.708665,486.957336 716.584,487.258 716.584,487.610002 C716.584,487.962003 716.708665,488.262667 716.958,488.512002 C717.207335,488.761336 717.507998,488.886002 717.86,488.886002 L722.106,488.886002 Z M616.682,506.464002 C616.682,504.029323 615.868008,502.518672 614.24,501.932002 C613.726664,501.741334 613.17667,501.646002 612.59,501.646002 C611.988664,501.646002 611.438669,501.737668 610.94,501.921002 C610.441331,502.104336 610.016002,502.386667 609.664,502.768002 C608.886663,503.589339 608.498,504.821327 608.498,506.464002 L608.498,508.444002 C608.498,510.878681 609.311992,512.389332 610.94,512.976002 C611.438669,513.16667 611.988664,513.262002 612.59,513.262002 C613.17667,513.262002 613.722997,513.170336 614.229,512.987002 C614.735003,512.803668 615.163998,512.521337 615.516,512.140002 C616.293337,511.318664 616.682,510.086677 616.682,508.444002 L616.682,506.464002 Z M618.838,508.444002 C618.838,510.644013 618.229339,512.345329 617.012,513.548002 C615.867994,514.662674 614.394009,515.220002 612.59,515.220002 C610.785991,515.220002 609.312006,514.662674 608.168,513.548002 C606.950661,512.345329 606.342,510.644013 606.342,508.444002 L606.342,506.464002 C606.342,504.263991 606.950661,502.562675 608.168,501.360002 C609.312006,500.24533 610.785991,499.688002 612.59,499.688002 C614.394009,499.688002 615.867994,500.24533 617.012,501.360002 C618.229339,502.562675 618.838,504.263991 618.838,506.464002 L618.838,508.444002 Z M624.074,513.570002 L624.074,518.982002 L622.006,518.982002 L622.006,503.758002 L623.546,503.758002 C623.619334,504.03667 623.714666,504.549998 623.832,505.298002 C624.668004,504.124663 625.826659,503.538002 627.308,503.538002 C628.642673,503.538002 629.713329,503.999997 630.52,504.924002 C631.414671,505.96534 631.862,507.453992 631.862,509.390002 L631.862,509.632002 C631.862,511.406677 631.436671,512.799997 630.586,513.812002 C629.793996,514.750673 628.70134,515.220002 627.308,515.220002 C625.91466,515.220002 624.83667,514.670007 624.074,513.570002 L624.074,513.570002 Z M629.794,509.368002 C629.794,507.167991 629.229339,505.848004 628.1,505.408002 C627.747998,505.261335 627.359335,505.188002 626.934,505.188002 C626.009995,505.188002 625.313336,505.488666 624.844,506.090002 C624.315997,506.779339 624.052,507.871994 624.052,509.368002 C624.052,511.58268 624.623994,512.917333 625.768,513.372002 C626.120002,513.504003 626.508665,513.570002 626.934,513.570002 C627.843338,513.570002 628.532664,513.269338 629.002,512.668002 C629.530003,511.978665 629.794,510.878676 629.794,509.368002 L629.794,509.368002 Z M634.92,515.000002 L634.92,499.160002 L636.988,499.160002 L636.988,515.000002 L634.92,515.000002 Z M642.092,509.852002 C642.136,511.582677 642.715328,512.726666 643.83,513.284002 C644.211335,513.47467 644.69533,513.570002 645.282,513.570002 C645.854003,513.570002 646.323331,513.460003 646.69,513.240002 C647.056669,513.020001 647.335332,512.763337 647.526,512.470002 C647.834002,512.000666 647.988,511.450672 647.988,510.820002 L649.946,510.820002 C649.946,512.154675 649.506004,513.225331 648.626,514.032002 C647.745996,514.824006 646.616674,515.220002 645.238,515.220002 L645.15,515.220002 C643.609992,515.220002 642.378005,514.736007 641.454,513.768002 C640.500662,512.74133 640.024,511.355344 640.024,509.610002 L640.024,509.170002 C640.024,507.42466 640.500662,506.038674 641.454,505.012002 C642.348671,504.02933 643.558659,503.538002 645.084,503.538002 L645.238,503.538002 C646.63134,503.538002 647.760662,503.963331 648.626,504.814002 C649.506004,505.664673 649.946,506.823328 649.946,508.290002 L649.946,509.852002 L642.092,509.852002 Z M645.128,505.188002 C644.306663,505.188002 643.632003,505.440999 643.104,505.947002 C642.575997,506.453004 642.253334,507.21933 642.136,508.246002 L647.9,508.246002 L647.9,507.982002 C647.9,507.101998 647.628669,506.405338 647.086,505.892002 C646.587331,505.422666 645.934671,505.188002 645.128,505.188002 L645.128,505.188002 Z M657.866,515.000002 L655.666,515.000002 L651.398,503.758002 L653.598,503.758002 L656.81,512.360002 L656.898,512.360002 L660.11,503.758002 L662.134,503.758002 L657.866,515.000002 Z M665.588,509.852002 C665.632,511.582677 666.211328,512.726666 667.326,513.284002 C667.707335,513.47467 668.19133,513.570002 668.778,513.570002 C669.350003,513.570002 669.819331,513.460003 670.186,513.240002 C670.552668,513.020001 670.831332,512.763337 671.022,512.470002 C671.330002,512.000666 671.484,511.450672 671.484,510.820002 L673.442,510.820002 C673.442,512.154675 673.002004,513.225331 672.122,514.032002 C671.241996,514.824006 670.112674,515.220002 668.734,515.220002 L668.646,515.220002 C667.105992,515.220002 665.874005,514.736007 664.95,513.768002 C663.996662,512.74133 663.52,511.355344 663.52,509.610002 L663.52,509.170002 C663.52,507.42466 663.996662,506.038674 664.95,505.012002 C665.844671,504.02933 667.054659,503.538002 668.58,503.538002 L668.734,503.538002 C670.12734,503.538002 671.256662,503.963331 672.122,504.814002 C673.002004,505.664673 673.442,506.823328 673.442,508.290002 L673.442,509.852002 L665.588,509.852002 Z M668.624,505.188002 C667.802663,505.188002 667.128003,505.440999 666.6,505.947002 C666.071997,506.453004 665.749334,507.21933 665.632,508.246002 L671.396,508.246002 L671.396,507.982002 C671.396,507.101998 671.124669,506.405338 670.582,505.892002 C670.083331,505.422666 669.430671,505.188002 668.624,505.188002 L668.624,505.188002 Z M684.838,507.058002 L684.772,507.894002 L682.946,507.894002 L682.946,507.410002 C682.946,506.896666 682.814001,506.47867 682.55,506.156002 C682.065998,505.510665 681.472004,505.188002 680.768,505.188002 C679.990663,505.188002 679.404002,505.525332 679.008,506.200002 C678.685332,506.757338 678.524,507.453998 678.524,508.290002 L678.524,515.000002 L676.456,515.000002 L676.456,503.758002 L677.93,503.758002 L678.238,505.430002 C678.458001,504.769999 679.059328,504.234671 680.042,503.824002 C680.467335,503.633334 680.958664,503.538002 681.516,503.538002 C682.073336,503.538002 682.553665,503.629668 682.957,503.813002 C683.360335,503.996336 683.701332,504.249334 683.98,504.572002 C684.552003,505.217338 684.838,506.045997 684.838,507.058002 L684.838,507.058002 Z M687.236,515.000002 L687.236,503.758002 L689.304,503.758002 L689.304,515.000002 L687.236,515.000002 Z M687.192,499.160002 L689.348,499.160002 L689.348,501.074002 L687.192,501.074002 L687.192,499.160002 Z M694.738,505.408002 C695.691338,504.161329 696.945326,503.538002 698.5,503.538002 C700.333343,503.538002 701.550664,504.249328 702.152,505.672002 C702.357334,506.170671 702.46,506.757332 702.46,507.432002 L702.46,515.000002 L700.392,515.000002 L700.392,507.806002 C700.392,506.852664 700.172002,506.178004 699.732,505.782002 C699.291998,505.386 698.720004,505.188002 698.016,505.188002 C697.223996,505.188002 696.527336,505.488666 695.926,506.090002 C695.324664,506.691338 695.024,507.431998 695.024,508.312002 L695.024,515.000002 L692.956,515.000002 L692.956,503.758002 L694.452,503.758002 L694.738,505.408002 Z M714.01,504.660002 C714.743337,505.290672 715.11,506.09733 715.11,507.080002 C715.11,508.092007 714.743337,508.920665 714.01,509.566002 C713.232663,510.255339 712.125341,510.600002 710.688,510.600002 L709.192,510.600002 C708.751998,510.600002 708.385335,510.713667 708.092,510.941002 C707.798665,511.168336 707.652,511.458 707.652,511.810002 C707.652,512.162004 707.791332,512.440668 708.07,512.646002 C708.348668,512.851336 708.722664,512.954002 709.192,512.954002 L713.438,512.954002 C714.318004,512.954002 715.014664,513.225333 715.528,513.768002 C716.041336,514.310671 716.298,514.999998 716.298,515.836002 C716.298,516.87734 715.894671,517.698666 715.088,518.300002 C714.339996,518.857338 713.350006,519.136002 712.118,519.136002 L707.696,519.136002 C706.93333,519.136002 706.288003,518.857338 705.76,518.300002 C705.231997,517.742666 704.968,517.141338 704.968,516.496002 C704.968,515.865332 705.121998,515.322671 705.43,514.868002 C705.738002,514.413333 706.133998,514.083336 706.618,513.878002 C705.94333,513.452666 705.606,512.844006 705.606,512.052002 C705.606,511.509333 705.763665,511.051004 706.079,510.677002 C706.394335,510.303 706.823331,510.02067 707.366,509.830002 C706.383328,509.272666 705.892,508.356008 705.892,507.080002 C705.892,506.038663 706.258663,505.202672 706.992,504.572002 C707.784004,503.882665 708.927993,503.538002 710.424,503.538002 L710.512,503.538002 C711.348004,503.538002 712.095997,503.662667 712.756,503.912002 C713.797339,503.398666 714.391333,502.672673 714.538,501.734002 L716.298,501.734002 C716.298,502.467339 716.100002,503.090666 715.704,503.604002 C715.307998,504.117338 714.758004,504.447335 714.054,504.594002 L714.01,504.660002 Z M707.938,507.080002 C707.938,507.769339 708.183664,508.253334 708.675,508.532002 C709.166336,508.81067 709.77133,508.950002 710.49,508.950002 C711.20867,508.950002 711.817331,508.81067 712.316,508.532002 C712.814669,508.253334 713.064,507.769339 713.064,507.080002 C713.064,506.390665 712.814669,505.903003 712.316,505.617002 C711.817331,505.331 711.20867,505.188002 710.49,505.188002 C709.77133,505.188002 709.166336,505.331 708.675,505.617002 C708.183664,505.903003 707.938,506.390665 707.938,507.080002 L707.938,507.080002 Z M712.536,517.486002 C713.005336,517.486002 713.408665,517.350337 713.746,517.079002 C714.083335,516.807667 714.252,516.496004 714.252,516.144002 C714.252,515.792 714.131001,515.502336 713.889,515.275002 C713.646999,515.047667 713.291336,514.934002 712.822,514.934002 L708.29,514.934002 C707.937998,514.934002 707.637335,515.058667 707.388,515.308002 C707.138665,515.557336 707.014,515.858 707.014,516.210002 C707.014,516.562004 707.138665,516.862667 707.388,517.112002 C707.637335,517.361336 707.937998,517.486002 708.29,517.486002 L712.536,517.486002 Z M612.436,530.466002 L612.436,543.600002 L610.28,543.600002 L610.28,530.466002 L605.55,530.466002 L605.55,528.508002 L617.166,528.508002 L617.166,530.466002 L612.436,530.466002 Z M620.906,538.452002 C620.95,540.182678 621.529328,541.326666 622.644,541.884002 C623.025335,542.07467 623.50933,542.170002 624.096,542.170002 C624.668003,542.170002 625.137331,542.060003 625.504,541.840002 C625.870668,541.620001 626.149332,541.363337 626.34,541.070002 C626.648002,540.600667 626.802,540.050672 626.802,539.420002 L628.76,539.420002 C628.76,540.754676 628.320004,541.825332 627.44,542.632002 C626.559996,543.424006 625.430674,543.820002 624.052,543.820002 L623.964,543.820002 C622.423992,543.820002 621.192005,543.336007 620.268,542.368002 C619.314662,541.34133 618.838,539.955344 618.838,538.210002 L618.838,537.770002 C618.838,536.02466 619.314662,534.638674 620.268,533.612002 C621.162671,532.629331 622.372659,532.138002 623.898,532.138002 L624.052,532.138002 C625.44534,532.138002 626.574662,532.563331 627.44,533.414002 C628.320004,534.264673 628.76,535.423328 628.76,536.890002 L628.76,538.452002 L620.906,538.452002 Z M623.942,533.788002 C623.120663,533.788002 622.446003,534.041 621.918,534.547002 C621.389997,535.053005 621.067334,535.81933 620.95,536.846002 L626.714,536.846002 L626.714,536.582002 C626.714,535.701998 626.442669,535.005338 625.9,534.492002 C625.401331,534.022667 624.748671,533.788002 623.942,533.788002 L623.942,533.788002 Z M630.938,540.564002 L630.96,540.080002 L633.006,540.080002 L633.006,540.300002 C633.006,541.224007 633.592661,541.810668 634.766,542.060002 C635.118002,542.133336 635.579997,542.170002 636.152,542.170002 C636.724003,542.170002 637.266664,542.034337 637.78,541.763002 C638.293336,541.491668 638.55,541.106671 638.55,540.608002 C638.55,540.109333 638.370335,539.746337 638.011,539.519002 C637.651665,539.291668 637.200669,539.11567 636.658,538.991002 C636.115331,538.866335 635.532336,538.752669 634.909,538.650002 C634.285664,538.547335 633.702669,538.382337 633.16,538.155002 C632.617331,537.927668 632.166335,537.612338 631.807,537.209002 C631.447665,536.805667 631.268,536.230006 631.268,535.482002 C631.268,534.440664 631.678663,533.623005 632.5,533.029002 C633.321337,532.434999 634.443326,532.138002 635.866,532.138002 L636.064,532.138002 C637.36934,532.138002 638.417996,532.438666 639.21,533.040002 C639.97267,533.626672 640.354,534.345331 640.354,535.196002 L640.332,535.592002 L638.286,535.592002 L638.286,535.394002 C638.286,534.32333 637.457342,533.788002 635.8,533.788002 C634.465327,533.788002 633.673335,534.117999 633.424,534.778002 C633.365333,534.954003 633.336,535.115335 633.336,535.262002 C633.336,535.672671 633.515665,535.980668 633.875,536.186002 C634.234335,536.391337 634.685331,536.552668 635.228,536.670002 C635.770669,536.787336 636.353664,536.901002 636.977,537.011002 C637.600336,537.121003 638.183331,537.293334 638.726,537.528002 C639.98734,538.056005 640.618,538.950663 640.618,540.212002 C640.618,541.488009 640.156005,542.426666 639.232,543.028002 C638.410663,543.556005 637.281341,543.820002 635.844,543.820002 L635.514,543.820002 C634.017993,543.820002 632.866671,543.482672 632.06,542.808002 C631.311996,542.191999 630.938,541.444007 630.938,540.564002 L630.938,540.564002 Z M647.196,542.214002 C647.577335,542.214002 648.031997,542.104003 648.56,541.884002 L648.56,543.424002 C648.031997,543.688004 647.350004,543.820002 646.514,543.820002 C645.663329,543.820002 645.010669,543.570671 644.556,543.072002 C644.101331,542.573333 643.874,541.752008 643.874,540.608002 L643.874,534.008002 L642.642,534.008002 L642.642,532.358002 L643.94,532.358002 L644.644,528.772002 L645.942,528.772002 L645.942,532.358002 L648.56,532.358002 L648.56,534.008002 L645.942,534.008002 L645.942,540.718002 C645.942,541.554006 646.205997,542.030668 646.734,542.148002 C646.880667,542.192003 647.034666,542.214002 647.196,542.214002 L647.196,542.214002 Z M652.498,538.452002 C652.542,540.182678 653.121328,541.326666 654.236,541.884002 C654.617335,542.07467 655.10133,542.170002 655.688,542.170002 C656.260003,542.170002 656.729331,542.060003 657.096,541.840002 C657.462668,541.620001 657.741332,541.363337 657.932,541.070002 C658.240002,540.600667 658.394,540.050672 658.394,539.420002 L660.352,539.420002 C660.352,540.754676 659.912004,541.825332 659.032,542.632002 C658.151996,543.424006 657.022674,543.820002 655.644,543.820002 L655.556,543.820002 C654.015992,543.820002 652.784005,543.336007 651.86,542.368002 C650.906662,541.34133 650.43,539.955344 650.43,538.210002 L650.43,537.770002 C650.43,536.02466 650.906662,534.638674 651.86,533.612002 C652.754671,532.629331 653.964659,532.138002 655.49,532.138002 L655.644,532.138002 C657.03734,532.138002 658.166662,532.563331 659.032,533.414002 C659.912004,534.264673 660.352,535.423328 660.352,536.890002 L660.352,538.452002 L652.498,538.452002 Z M655.534,533.788002 C654.712663,533.788002 654.038003,534.041 653.51,534.547002 C652.981997,535.053005 652.659334,535.81933 652.542,536.846002 L658.306,536.846002 L658.306,536.582002 C658.306,535.701998 658.034669,535.005338 657.492,534.492002 C656.993331,534.022667 656.340671,533.788002 655.534,533.788002 L655.534,533.788002 Z M665.148,534.008002 C666.101338,532.761329 667.355326,532.138002 668.91,532.138002 C670.743343,532.138002 671.960664,532.849329 672.562,534.272002 C672.767334,534.770671 672.87,535.357332 672.87,536.032002 L672.87,543.600002 L670.802,543.600002 L670.802,536.406002 C670.802,535.452664 670.582002,534.778004 670.142,534.382002 C669.701998,533.986 669.130004,533.788002 668.426,533.788002 C667.633996,533.788002 666.937336,534.088666 666.336,534.690002 C665.734664,535.291339 665.434,536.031998 665.434,536.912002 L665.434,543.600002 L663.366,543.600002 L663.366,532.358002 L664.862,532.358002 L665.148,534.008002 Z" id="Testen" fill="#FFF568" mask="url(#mask-2)"></path>
        </g>
    </g>
</svg>