<?xml version="1.0" encoding="UTF-8" standalone="no"?>
<svg width="1024px" height="450px" viewBox="0 0 1024 450" version="1.1" xmlns="http://www.w3.org/2000/svg" xmlns:xlink="http://www.w3.org/1999/xlink">
    <!-- Generator: Sketch 3.6.1 (26313) - http://www.bohemiancoding.com/sketch -->
    <title>Artboard 1</title>
    <desc>Created with Sketch.</desc>
    <defs>
        <rect id="path-1" x="0" y="0" width="1024" height="673"></rect>
    </defs>
    <g id="Page-1" stroke="none" stroke-width="1" fill="none" fill-rule="evenodd">
        <g id="Artboard-1">
            <g id="Group-2" transform="translate(0.000000, -83.000000)">
                <mask id="mask-2" fill="white">
                    <use xlink:href="#path-1"></use>
                </mask>
                <g id="Rectangle-1">
                    <use fill="none" xlink:href="#path-1"></use>
                    <use fill="#FFF568" xlink:href="#path-1"></use>
                </g>
                <g id="Group" mask="url(#mask-2)">
                    <g transform="translate(87.000000, 49.000000)">
                        <path d="M408.5,354 C457.929485,354 498,313.929485 498,264.5 C498,215.070515 457.929485,175 408.5,175 C359.070515,175 319,215.070515 319,264.5 C319,313.929485 359.070515,354 408.5,354 Z" id="Oval-31-Copy" fill="#FFFFFF" transform="translate(408.500000, 264.500000) rotate(-270.000000) translate(-408.500000, -264.500000) "></path>
                        <path d="M381.415565,252.431946 L381.415565,256.361775 L384.76123,256.361775 C385.315893,256.361775 385.799741,256.167056 386.212789,255.777611 C386.614034,255.399968 386.814654,254.939723 386.814654,254.396861 C386.814654,253.853999 386.619935,253.393753 386.230491,253.01611 C385.817443,252.626665 385.327695,252.431946 384.76123,252.431946 L381.415565,252.431946 Z M381.415565,257.937247 L381.415565,263 L379.680775,263 L379.680775,250.856474 L384.920547,250.856474 C385.947265,250.856474 386.80285,251.175106 387.487328,251.812378 C388.195409,252.485055 388.549444,253.346541 388.549444,254.396861 C388.549444,255.44718 388.195409,256.308666 387.487328,256.981343 C386.80285,257.618616 385.947265,257.937247 384.920547,257.937247 L381.415565,257.937247 Z M397.311901,256.609602 L397.258795,257.282276 L395.789534,257.282276 L395.789534,256.892833 C395.789534,256.479786 395.683324,256.143453 395.4709,255.883823 C395.081455,255.364564 394.603508,255.104938 394.037043,255.104938 C393.411572,255.104938 392.939525,255.376365 392.620888,255.919227 C392.361259,256.367678 392.231446,256.928234 392.231446,257.60091 L392.231446,263 L390.567464,263 L390.567464,253.954312 L391.753494,253.954312 L392.001321,255.299659 C392.178341,254.768598 392.662189,254.337856 393.452879,254.007418 C393.795118,253.854 394.190458,253.777293 394.638909,253.777293 C395.08736,253.777293 395.473848,253.85105 395.798385,253.998567 C396.122922,254.146084 396.3973,254.349654 396.621525,254.609284 C397.081778,255.128543 397.311901,255.795309 397.311901,256.609602 L397.311901,256.609602 Z M405.348578,258.308988 C405.348578,257.223264 405.106654,256.403082 404.622799,255.848419 C404.19795,255.352762 403.607892,255.104938 402.852606,255.104938 C401.684272,255.104938 400.917196,255.683195 400.551354,256.839727 C400.42154,257.252774 400.356633,257.742523 400.356633,258.308988 L400.356633,258.645324 C400.356633,259.731048 400.598557,260.55123 401.082412,261.105893 C401.507261,261.60155 402.097319,261.849374 402.852606,261.849374 C404.020939,261.849374 404.788015,261.265216 405.153857,260.096883 C405.283672,259.695637 405.348578,259.211789 405.348578,258.645324 L405.348578,258.308988 Z M407.01256,258.804642 C407.01256,260.232605 406.60542,261.336014 405.791127,262.114903 C405.047642,262.822984 404.068145,263.177019 402.852606,263.177019 C401.637067,263.177019 400.65757,262.822984 399.914085,262.114903 C399.099792,261.336014 398.692651,260.232605 398.692651,258.804642 L398.692651,258.14967 C398.692651,256.721707 399.099792,255.624198 399.914085,254.857111 C400.65757,254.137229 401.637067,253.777293 402.852606,253.777293 C404.068145,253.777293 405.047642,254.137229 405.791127,254.857111 C406.60542,255.624198 407.01256,256.721707 407.01256,258.14967 L407.01256,258.804642 Z M415.120045,255.104938 L415.120045,250.254608 L416.784027,250.254608 L416.784027,263 L415.544892,263 C415.485885,262.775774 415.409177,262.362733 415.314767,261.760865 C414.64209,262.704973 413.709797,263.177019 412.517861,263.177019 C411.443939,263.177019 410.582453,262.799382 409.933379,262.044096 C409.213497,261.218001 408.853561,260.026083 408.853561,258.468305 L408.853561,258.273584 C408.853561,256.845621 409.195795,255.72451 409.880273,254.910217 C410.517546,254.15493 411.396733,253.777293 412.517861,253.777293 C413.638989,253.777293 414.506375,254.219837 415.120045,255.104938 L415.120045,255.104938 Z M410.517543,258.486007 C410.517543,260.256209 410.971888,261.324215 411.880592,261.690057 C412.163824,261.796269 412.476555,261.849374 412.818794,261.849374 C414.364771,261.849374 415.137747,260.728263 415.137747,258.486007 C415.137747,256.704004 414.677502,255.635998 413.756996,255.281957 C413.473764,255.163944 413.161033,255.104938 412.818794,255.104938 C412.08711,255.104938 411.532455,255.346862 411.154812,255.830717 C410.729964,256.38538 410.517543,257.270468 410.517543,258.486007 L410.517543,258.486007 Z M428.573514,262.822981 C428.219474,263.059008 427.847737,263.177019 427.458293,263.177019 C427.057047,263.177019 426.759067,263.135715 426.564345,263.053106 C426.369623,262.970496 426.207357,262.858385 426.077542,262.716769 C425.853316,262.468941 425.729404,262.126707 425.705801,261.690057 C425.245549,262.362734 424.590584,262.817079 423.740887,263.053106 C423.457654,263.135715 423.127222,263.177019 422.749578,263.177019 C422.360134,263.177019 421.970695,263.115063 421.581251,262.991149 C421.191806,262.867235 420.849572,262.681366 420.554539,262.433538 C419.940869,261.878875 419.634038,261.082296 419.634038,260.043777 L419.634038,253.954312 L421.29802,253.954312 L421.29802,259.742844 C421.29802,260.509932 421.475038,261.052786 421.829078,261.371422 C422.183118,261.690059 422.643364,261.849374 423.209829,261.849374 C423.847102,261.849374 424.407657,261.60745 424.891512,261.123595 C425.375368,260.63974 425.617292,260.043781 425.617292,259.3357 L425.617292,253.954312 L427.281273,253.954312 L427.281273,261.229807 C427.281273,261.454032 427.331428,261.613348 427.43174,261.707759 C427.532051,261.80217 427.647113,261.849374 427.776927,261.849374 C428.048358,261.849374 428.313885,261.766766 428.573514,261.601547 L428.573514,262.822981 Z M437.955539,259.459613 C437.955539,260.627947 437.601504,261.548438 436.893423,262.221115 C436.208945,262.858388 435.317956,263.177019 434.220431,263.177019 L434.078816,263.177019 C432.88688,263.177019 431.936885,262.787581 431.228804,262.008692 C430.473518,261.194399 430.095881,260.090989 430.095881,258.69843 L430.095881,258.273584 C430.095881,256.881025 430.473518,255.777615 431.228804,254.963322 C431.948687,254.172632 432.89278,253.777293 434.061114,253.777293 L434.202729,253.777293 C435.300255,253.777293 436.200094,254.116577 436.902274,254.795154 C437.604454,255.473732 437.955539,256.379471 437.955539,257.512401 L436.309259,257.512401 C436.309259,256.403074 435.896218,255.6596 435.070124,255.281957 C434.798693,255.163944 434.491862,255.104938 434.149623,255.104938 C433.795583,255.104938 433.474001,255.163944 433.184868,255.281957 C432.895735,255.399971 432.64496,255.576988 432.432536,255.813015 C431.984085,256.29687 431.759862,256.975438 431.759862,257.848737 L431.759862,258.804642 C431.759862,259.854962 431.978184,260.624988 432.414834,261.114744 C432.851484,261.6045 433.447443,261.849374 434.202729,261.849374 C434.946214,261.849374 435.492018,261.625152 435.840158,261.176701 C436.188298,260.72825 436.362365,260.155893 436.362365,259.459613 L437.955539,259.459613 Z M443.248417,261.884778 C443.555252,261.884778 443.921088,261.796269 444.345937,261.619249 L444.345937,262.858385 C443.921088,263.070809 443.372334,263.177019 442.699657,263.177019 C442.015179,263.177019 441.490027,262.976399 441.124185,262.575154 C440.758343,262.173908 440.575425,261.513042 440.575425,260.592537 L440.575425,255.281957 L439.584117,255.281957 L439.584117,253.954312 L440.628531,253.954312 L441.194993,251.068897 L442.239407,251.068897 L442.239407,253.954312 L444.345937,253.954312 L444.345937,255.281957 L442.239407,255.281957 L442.239407,260.681047 C442.239407,261.353724 442.451828,261.737262 442.876676,261.831672 C442.99469,261.867076 443.118602,261.884778 443.248417,261.884778 L443.248417,261.884778 Z M393.107692,277.13165 C393.107692,275.172626 392.452727,273.957106 391.142777,273.485052 C390.72973,273.331634 390.287186,273.254927 389.815132,273.254927 C389.331277,273.254927 388.888733,273.328684 388.487487,273.476201 C388.086241,273.623718 387.744007,273.85089 387.460775,274.157725 C386.835303,274.818601 386.522572,275.809899 386.522572,277.13165 L386.522572,278.724824 C386.522572,280.683848 387.177537,281.899368 388.487487,282.371422 C388.888733,282.52484 389.331277,282.601547 389.815132,282.601547 C390.287186,282.601547 390.72678,282.52779 391.133926,282.380273 C391.541072,282.232756 391.886257,282.005584 392.169489,281.698749 C392.794961,281.037873 393.107692,280.046575 393.107692,278.724824 L393.107692,277.13165 Z M394.842481,278.724824 C394.842481,280.495026 394.352732,281.863962 393.373221,282.831672 C392.452715,283.728575 391.266698,284.177019 389.815132,284.177019 C388.363566,284.177019 387.177549,283.728575 386.257043,282.831672 C385.277532,281.863962 384.787783,280.495026 384.787783,278.724824 L384.787783,277.13165 C384.787783,275.361448 385.277532,273.992512 386.257043,273.024801 C387.177549,272.127899 388.363566,271.679455 389.815132,271.679455 C391.266698,271.679455 392.452715,272.127899 393.373221,273.024801 C394.352732,273.992512 394.842481,275.361448 394.842481,277.13165 L394.842481,278.724824 Z M403.038476,277.68041 L400.985052,284 L399.250262,284 L396.276338,274.954312 L397.993425,274.954312 L400.099955,281.574835 L400.170763,281.574835 L402.312697,274.954312 L403.941275,274.954312 L406.047805,281.574835 L406.118612,281.574835 L408.260546,274.954312 L409.889124,274.954312 L406.932901,284 L405.198112,284 L403.109284,277.68041 L403.038476,277.68041 Z M413.181684,276.281957 C413.948771,275.278843 414.957771,274.777293 416.208714,274.777293 C417.683883,274.777293 418.66338,275.34965 419.147235,276.49438 C419.312454,276.895626 419.395062,277.367673 419.395062,277.910535 L419.395062,284 L417.73108,284 L417.73108,278.211468 C417.73108,277.44438 417.554063,276.901526 417.200022,276.58289 C416.845982,276.264254 416.385736,276.104938 415.819272,276.104938 C415.181999,276.104938 414.621443,276.346862 414.137588,276.830717 C413.653733,277.314572 413.411809,277.910531 413.411809,278.618612 L413.411809,284 L411.747827,284 L411.747827,274.954312 L412.951559,274.954312 L413.181684,276.281957 Z M423.342593,279.857748 C423.377997,281.250307 423.844144,282.170798 424.741046,282.619249 C425.047881,282.772667 425.43732,282.849374 425.909374,282.849374 C426.369626,282.849374 426.747264,282.760866 427.042297,282.583845 C427.337331,282.406825 427.561553,282.200305 427.714971,281.964278 C427.962799,281.586635 428.086711,281.144091 428.086711,280.636633 L429.662183,280.636633 C429.662183,281.710555 429.308148,282.572041 428.600067,283.221115 C427.891986,283.858388 426.983296,284.177019 425.87397,284.177019 L425.803162,284.177019 C424.56402,284.177019 423.572722,283.787581 422.829237,283.008692 C422.06215,282.182597 421.678612,281.067387 421.678612,279.663026 L421.678612,279.308988 C421.678612,277.904627 422.06215,276.789417 422.829237,275.963322 C423.549119,275.172632 424.522716,274.777293 425.750056,274.777293 L425.87397,274.777293 C426.995098,274.777293 427.903788,275.119527 428.600067,275.804005 C429.308148,276.488483 429.662183,277.420776 429.662183,278.60091 L429.662183,279.857748 L423.342593,279.857748 Z M425.78546,276.104938 C425.124585,276.104938 424.581731,276.308508 424.156882,276.715655 C423.732034,277.122801 423.472408,277.739412 423.377997,278.565507 L428.015904,278.565507 L428.015904,278.353083 C428.015904,277.645002 427.797582,277.084447 427.360932,276.6714 C426.959686,276.293757 426.434534,276.104938 425.78546,276.104938 L425.78546,276.104938 Z M438.831785,277.609602 L438.778679,278.282276 L437.309418,278.282276 L437.309418,277.892833 C437.309418,277.479786 437.203208,277.143453 436.990784,276.883823 C436.601339,276.364564 436.123392,276.104938 435.556927,276.104938 C434.931456,276.104938 434.459409,276.376365 434.140772,276.919227 C433.881143,277.367678 433.75133,277.928234 433.75133,278.60091 L433.75133,284 L432.087348,284 L432.087348,274.954312 L433.273378,274.954312 L433.521205,276.299659 C433.698225,275.768598 434.182073,275.337856 434.972763,275.007418 C435.315002,274.854 435.710342,274.777293 436.158793,274.777293 C436.607244,274.777293 436.993732,274.85105 437.318269,274.998567 C437.642806,275.146084 437.917184,275.349654 438.141409,275.609284 C438.601662,276.128543 438.831785,276.795309 438.831785,277.609602 L438.831785,277.609602 Z" id="Product-" fill="#303030"></path>
                        <circle id="Oval-31-Copy-5" fill="#FFFFFF" transform="translate(281.500000, 423.500000) rotate(-270.000000) translate(-281.500000, -423.500000) " cx="281.5" cy="423.5" r="89.5"></circle>
                        <ellipse id="Oval-31" fill="#FFFFFF" transform="translate(306.500000, 89.500000) rotate(-270.000000) translate(-306.500000, -89.500000) " cx="306.5" cy="89.5" rx="89.5" ry="89.5"></ellipse>
                        <path d="M254.398449,96.4056255 C255.974917,96.4056255 257.001994,95.6950312 257.479712,94.2738214 C257.646913,93.7841608 257.730512,93.1870228 257.730512,92.4823893 L257.730512,91.2283869 C257.730512,89.2458589 257.061718,88.0157545 255.724109,87.5380369 C255.318049,87.3827787 254.876166,87.3051508 254.398449,87.3051508 L251.890444,87.3051508 L251.890444,96.4056255 L254.398449,96.4056255 Z M250.134841,98 L250.134841,85.7107762 L254.398449,85.7107762 C255.879373,85.7107762 257.07365,86.1646012 257.981313,87.0722646 C258.98452,88.0515857 259.486116,89.4369459 259.486116,91.2283869 L259.486116,92.4823893 C259.486116,94.2738303 258.98452,95.6591906 257.981313,96.6385117 C257.07365,97.5461751 255.879373,98 254.398449,98 L250.134841,98 Z M263.176466,93.808049 C263.212295,95.217316 263.684034,96.1488513 264.591697,96.602683 C264.902214,96.7579412 265.296325,96.8355692 265.774042,96.8355692 C266.239817,96.8355692 266.621985,96.7459985 266.920559,96.5668544 C267.219132,96.3877103 267.446045,96.178712 267.601303,95.9398532 C267.852105,95.5576791 267.977504,95.1098256 267.977504,94.5962791 L269.571878,94.5962791 C269.571878,95.6830867 269.213595,96.5549082 268.497019,97.2117699 C267.780443,97.8566887 266.86085,98.1791432 265.738214,98.1791432 L265.666556,98.1791432 C264.412548,98.1791432 263.409356,97.7850321 262.656951,96.9967981 C261.880659,96.1607923 261.49252,95.0322014 261.49252,93.6109915 L261.49252,93.2527051 C261.49252,91.8314953 261.880659,90.7029044 262.656951,89.8668986 C263.38547,89.0667216 264.370748,88.6666391 265.612813,88.6666391 L265.738214,88.6666391 C266.872793,88.6666391 267.792386,89.0129792 268.497019,89.7056697 C269.213595,90.3983602 269.571878,91.3418383 269.571878,92.5361323 L269.571878,93.808049 L263.176466,93.808049 Z M265.648642,90.0102131 C264.979837,90.0102131 264.43047,90.2162257 264.000525,90.6282572 C263.570579,91.0402886 263.307838,91.6642979 263.212295,92.5003037 L267.905846,92.5003037 L267.905846,92.2853318 C267.905846,91.5687554 267.684905,91.0014743 267.243017,90.5834714 C266.836957,90.2012973 266.305504,90.0102131 265.648642,90.0102131 L265.648642,90.0102131 Z M276.021034,98 L274.229602,98 L270.754223,88.8457823 L272.545655,88.8457823 L275.161146,95.8502816 L275.232803,95.8502816 L277.848294,88.8457823 L279.496412,88.8457823 L276.021034,98 Z M282.30896,93.808049 C282.344789,95.217316 282.816528,96.1488513 283.724191,96.602683 C284.034708,96.7579412 284.428819,96.8355692 284.906536,96.8355692 C285.372311,96.8355692 285.754479,96.7459985 286.053053,96.5668544 C286.351626,96.3877103 286.578539,96.178712 286.733797,95.9398532 C286.984599,95.5576791 287.109998,95.1098256 287.109998,94.5962791 L288.704372,94.5962791 C288.704372,95.6830867 288.34609,96.5549082 287.629513,97.2117699 C286.912937,97.8566887 285.993344,98.1791432 284.870708,98.1791432 L284.799051,98.1791432 C283.545042,98.1791432 282.54185,97.7850321 281.789445,96.9967981 C281.013154,96.1607923 280.625014,95.0322014 280.625014,93.6109915 L280.625014,93.2527051 C280.625014,91.8314953 281.013154,90.7029044 281.789445,89.8668986 C282.517964,89.0667216 283.503242,88.6666391 284.745308,88.6666391 L284.870708,88.6666391 C286.005287,88.6666391 286.92488,89.0129792 287.629513,89.7056697 C288.34609,90.3983602 288.704372,91.3418383 288.704372,92.5361323 L288.704372,93.808049 L282.30896,93.808049 Z M284.781136,90.0102131 C284.112332,90.0102131 283.562965,90.2162257 283.133019,90.6282572 C282.703073,91.0402886 282.440332,91.6642979 282.344789,92.5003037 L287.038341,92.5003037 L287.038341,92.2853318 C287.038341,91.5687554 286.817399,91.0014743 286.375511,90.5834714 C285.969451,90.2012973 285.437998,90.0102131 284.781136,90.0102131 L284.781136,90.0102131 Z M291.230292,98 L291.230292,85.1016893 L292.914238,85.1016893 L292.914238,98 L291.230292,98 Z M302.140113,93.2527051 C302.140113,92.1539546 301.895286,91.3239328 301.405625,90.7626146 C300.97568,90.2610111 300.378542,90.0102131 299.614193,90.0102131 C298.431842,90.0102131 297.655563,90.5954084 297.285332,91.7658165 C297.153959,92.1838194 297.088274,92.679444 297.088274,93.2527051 L297.088274,93.5930772 C297.088274,94.6918277 297.333101,95.5218495 297.822761,96.0831677 C298.252707,96.5847712 298.849845,96.8355692 299.614193,96.8355692 C300.796545,96.8355692 301.572824,96.2444025 301.943055,95.0620515 C302.074427,94.6559915 302.140113,94.1663383 302.140113,93.5930772 L302.140113,93.2527051 Z M303.824059,93.7543061 C303.824059,95.1994018 303.412033,96.3160499 302.587971,97.104284 C301.835565,97.8208604 300.844316,98.1791432 299.614193,98.1791432 C298.384071,98.1791432 297.392821,97.8208604 296.640416,97.104284 C295.816353,96.3160499 295.404328,95.1994018 295.404328,93.7543061 L295.404328,93.0914762 C295.404328,91.6463805 295.816353,90.5357037 296.640416,89.7594126 C297.392821,89.0308933 298.384071,88.6666391 299.614193,88.6666391 C300.844316,88.6666391 301.835565,89.0308933 302.587971,89.7594126 C303.412033,90.5357037 303.824059,91.6463805 303.824059,93.0914762 L303.824059,93.7543061 Z M307.926438,96.8355692 L307.926438,101.242492 L306.242492,101.242492 L306.242492,88.8457823 L307.496494,88.8457823 C307.556209,89.0726982 307.633837,89.4906948 307.729381,90.0997847 C308.410128,89.1443495 309.353606,88.6666391 310.559843,88.6666391 C311.646651,88.6666391 312.518472,89.0428361 313.175334,89.7952413 C313.903853,90.64319 314.268107,91.8553802 314.268107,93.4318483 L314.268107,93.6289058 C314.268107,95.0740016 313.921767,96.2085638 313.229077,97.0326267 C312.584158,97.7969749 311.694422,98.1791432 310.559843,98.1791432 C309.425264,98.1791432 308.547471,97.7312897 307.926438,96.8355692 L307.926438,96.8355692 Z M312.584161,93.413934 C312.584161,91.622493 312.124365,90.5476445 311.204759,90.1893563 C310.918128,90.0699269 310.601645,90.0102131 310.2553,90.0102131 C309.502895,90.0102131 308.935613,90.2550397 308.553439,90.7447003 C308.123493,91.3060184 307.908524,92.1957541 307.908524,93.413934 C307.908524,95.2173179 308.374291,96.3041092 309.305841,96.6743403 C309.592471,96.7818268 309.908954,96.8355692 310.2553,96.8355692 C310.995762,96.8355692 311.557072,96.5907426 311.939246,96.101082 C312.369192,95.5397639 312.584161,94.6440568 312.584161,93.413934 L312.584161,93.413934 Z M322.168323,92.1420172 C322.168323,90.7208074 321.618956,90.0102131 320.520205,90.0102131 C319.935001,90.0102131 319.43042,90.2550397 319.006445,90.7447003 C318.582471,91.2343608 318.370487,91.8374702 318.370487,92.5540466 L318.370487,98 L316.686541,98 L316.686541,88.8457823 L317.904715,88.8457823 L318.137601,90.1893563 C318.842234,89.1742064 319.803626,88.6666391 321.021806,88.6666391 C322.228043,88.6666391 323.064036,89.1742064 323.529811,90.1893563 C323.9717,89.5683235 324.434482,89.1592839 324.918171,88.9622254 C325.40186,88.7651669 325.876585,88.6666391 326.342359,88.6666391 C326.796191,88.6666391 327.202245,88.7293386 327.560533,88.8547395 C327.918821,88.9801403 328.229333,89.1742102 328.492078,89.4369549 C329.053396,89.9743872 329.334051,90.7745521 329.334051,91.8374738 L329.334051,98 L327.650105,98 L327.650105,92.1420172 C327.650105,90.7208074 327.100738,90.0102131 326.001987,90.0102131 C325.416783,90.0102131 324.912202,90.2550397 324.488227,90.7447003 C324.064253,91.2343608 323.852269,91.8374702 323.852269,92.5540466 L323.852269,98 L322.168323,98 L322.168323,92.1420172 Z M333.328944,93.808049 C333.364773,95.217316 333.836512,96.1488513 334.744176,96.602683 C335.054692,96.7579412 335.448803,96.8355692 335.926521,96.8355692 C336.392295,96.8355692 336.774464,96.7459985 337.073037,96.5668544 C337.371611,96.3877103 337.598523,96.178712 337.753781,95.9398532 C338.004583,95.5576791 338.129982,95.1098256 338.129982,94.5962791 L339.724357,94.5962791 C339.724357,95.6830867 339.366074,96.5549082 338.649497,97.2117699 C337.932921,97.8566887 337.013329,98.1791432 335.890692,98.1791432 L335.819035,98.1791432 C334.565026,98.1791432 333.561834,97.7850321 332.809429,96.9967981 C332.033138,96.1607923 331.644998,95.0322014 331.644998,93.6109915 L331.644998,93.2527051 C331.644998,91.8314953 332.033138,90.7029044 332.809429,89.8668986 C333.537948,89.0667216 334.523226,88.6666391 335.765292,88.6666391 L335.890692,88.6666391 C337.025271,88.6666391 337.944864,89.0129792 338.649497,89.7056697 C339.366074,90.3983602 339.724357,91.3418383 339.724357,92.5361323 L339.724357,93.808049 L333.328944,93.808049 Z M335.801121,90.0102131 C335.132316,90.0102131 334.582949,90.2162257 334.153003,90.6282572 C333.723057,91.0402886 333.460317,91.6642979 333.364773,92.5003037 L338.058325,92.5003037 L338.058325,92.2853318 C338.058325,91.5687554 337.837384,91.0014743 337.395495,90.5834714 C336.989435,90.2012973 336.457982,90.0102131 335.801121,90.0102131 L335.801121,90.0102131 Z M343.629679,90.1893563 C344.40597,89.1742064 345.427076,88.6666391 346.693027,88.6666391 C348.185895,88.6666391 349.177144,89.245863 349.666805,90.4043282 C349.834006,90.8103881 349.917605,91.2880986 349.917605,91.8374738 L349.917605,98 L348.233659,98 L348.233659,92.1420172 C348.233659,91.3657261 348.054517,90.8163592 347.696229,90.4938998 C347.337941,90.1714404 346.872173,90.0102131 346.298912,90.0102131 C345.653994,90.0102131 345.086712,90.2550397 344.597052,90.7447003 C344.107391,91.2343608 343.862565,91.8374702 343.862565,92.5540466 L343.862565,98 L342.178619,98 L342.178619,88.8457823 L343.396792,88.8457823 L343.629679,90.1893563 Z M355.793502,96.8713978 C356.104019,96.8713978 356.474244,96.7818271 356.90419,96.602683 L356.90419,97.8566854 C356.474244,98.0716584 355.918906,98.1791432 355.238158,98.1791432 C354.545468,98.1791432 354.014015,97.9761163 353.643784,97.5700563 C353.273552,97.1639964 353.08844,96.4952017 353.08844,95.5636524 L353.08844,90.1893563 L352.085238,90.1893563 L352.085238,88.8457823 L353.142183,88.8457823 L353.715441,85.9257481 L354.772386,85.9257481 L354.772386,88.8457823 L356.90419,88.8457823 L356.90419,90.1893563 L354.772386,90.1893563 L354.772386,95.653224 C354.772386,96.3339716 354.987356,96.7221113 355.417301,96.8176549 C355.536731,96.8534837 355.66213,96.8713978 355.793502,96.8713978 L355.793502,96.8713978 Z" id="Development" fill="#303030"></path>
                        <circle id="Oval-31-Copy-3" fill="#FFFFFF" transform="translate(89.500000, 350.500000) rotate(-270.000000) translate(-89.500000, -350.500000) " cx="89.5" cy="350.5" r="89.5"></circle>
                        <path d="M68.5481181,358.115825 C68.5481181,359.77508 68.055339,361.053811 67.0697661,361.952054 C66.1839981,362.775444 65.0237841,363.187133 63.5890894,363.187133 C61.9922118,363.187133 60.7321945,362.713067 59.8089996,361.764921 C58.8109511,360.754397 58.3119343,359.307248 58.3119343,357.423432 L58.3119343,355.739233 C58.3119343,353.867893 58.8109511,352.420744 59.8089996,351.397744 C60.7446701,350.449598 62.0046874,349.975532 63.5890894,349.975532 C65.0487353,349.975532 66.2214247,350.399696 67.1071928,351.248038 C68.0678145,352.146281 68.5481181,353.425012 68.5481181,355.084267 L66.7142131,355.084267 C66.7142131,353.936512 66.4210408,353.056995 65.8346873,352.44569 C65.2982362,351.909239 64.5497111,351.641017 63.5890894,351.641017 C61.9423094,351.641017 60.8818987,352.383305 60.4078257,353.867902 C60.2331672,354.391877 60.1458393,355.015648 60.1458393,355.739233 L60.1458393,357.423432 C60.1458393,359.494383 60.8257496,360.779351 62.1855907,361.278375 C62.6097613,361.440558 63.0651141,361.521648 63.5516628,361.521648 C64.0382114,361.521648 64.4779699,361.456152 64.8709515,361.325158 C65.2639331,361.194164 65.5976506,360.991439 65.8721139,360.716975 C66.4834186,360.105671 66.7890664,359.238629 66.7890664,358.115825 L68.5481181,358.115825 Z M77.5679363,358.040971 C77.5679363,356.893216 77.3121903,356.026174 76.8006904,355.43982 C76.3515686,354.915845 75.7277976,354.653861 74.9293588,354.653861 C73.6942738,354.653861 72.8833715,355.265157 72.4966277,356.487766 C72.3593961,356.924412 72.2907813,357.442142 72.2907813,358.040971 L72.2907813,358.396524 C72.2907813,359.54428 72.5465274,360.411322 73.0580272,360.997675 C73.507149,361.521651 74.13092,361.783634 74.9293588,361.783634 C76.1644438,361.783634 76.9753461,361.166101 77.3620899,359.931016 C77.4993215,359.506846 77.5679363,358.995353 77.5679363,358.396524 L77.5679363,358.040971 Z M79.326988,358.564944 C79.326988,360.074493 78.8965861,361.240944 78.0357692,362.064334 C77.249806,362.812871 76.2143463,363.187133 74.9293588,363.187133 C73.6443714,363.187133 72.6089116,362.812871 71.8229484,362.064334 C70.9621315,361.240944 70.5317296,360.074493 70.5317296,358.564944 L70.5317296,357.872551 C70.5317296,356.363003 70.9621315,355.202789 71.8229484,354.391875 C72.6089116,353.630863 73.6443714,353.250362 74.9293588,353.250362 C76.2143463,353.250362 77.249806,353.630863 78.0357692,354.391875 C78.8965861,355.202789 79.326988,356.363003 79.326988,357.872551 L79.326988,358.564944 Z M83.3690643,354.840994 C84.1799787,353.780568 85.246627,353.250362 86.5690413,353.250362 C88.1284921,353.250362 89.1639518,353.85542 89.6754517,355.065554 C89.8501102,355.489725 89.9374381,355.988741 89.9374381,356.562619 L89.9374381,363 L88.1783864,363 L88.1783864,356.880746 C88.1783864,356.069831 87.9912551,355.495962 87.616987,355.159121 C87.2427188,354.822279 86.7561774,354.653861 86.1573483,354.653861 C85.4836656,354.653861 84.8910832,354.909607 84.3795833,355.421107 C83.8680835,355.932607 83.6123374,356.562616 83.6123374,357.311152 L83.6123374,363 L81.8532857,363 L81.8532857,353.437496 L83.1257912,353.437496 L83.3690643,354.840994 Z M96.0754057,361.821061 C96.3997715,361.821061 96.7865095,361.727495 97.2356313,361.540361 L97.2356313,362.850293 C96.7865095,363.074854 96.2064025,363.187133 95.4952929,363.187133 C94.7717078,363.187133 94.2165516,362.975051 93.8298078,362.55088 C93.443064,362.12671 93.249695,361.428086 93.249695,360.454989 L93.249695,354.840994 L92.2017493,354.840994 L92.2017493,353.437496 L93.305835,353.437496 L93.9046611,350.387225 L95.0087467,350.387225 L95.0087467,353.437496 L97.2356313,353.437496 L97.2356313,354.840994 L95.0087467,354.840994 L95.0087467,360.548556 C95.0087467,361.259665 95.2333043,361.665116 95.6824261,361.764921 C95.8071822,361.802348 95.9381741,361.821061 96.0754057,361.821061 L96.0754057,361.821061 Z M100.585315,358.621084 C100.622742,360.093206 101.115521,361.066288 102.063667,361.540361 C102.388033,361.702544 102.799721,361.783634 103.298746,361.783634 C103.785294,361.783634 104.184508,361.690069 104.496398,361.502935 C104.808288,361.315801 105.045321,361.097481 105.207504,360.847969 C105.469492,360.448749 105.600483,359.980921 105.600483,359.44447 L107.265969,359.44447 C107.265969,360.57975 106.891706,361.490456 106.14317,362.176614 C105.394633,362.850297 104.434026,363.187133 103.261319,363.187133 L103.186466,363.187133 C101.876527,363.187133 100.828592,362.775444 100.042629,361.952054 C99.2317143,361.078762 98.8262632,359.899835 98.8262632,358.415238 L98.8262632,358.040971 C98.8262632,356.556374 99.2317143,355.377447 100.042629,354.504155 C100.803641,353.668289 101.832863,353.250362 103.130326,353.250362 L103.261319,353.250362 C104.446502,353.250362 105.407109,353.61215 106.14317,354.335735 C106.891706,355.05932 107.265969,356.044878 107.265969,357.292439 L107.265969,358.621084 L100.585315,358.621084 Z M103.167752,354.653861 C102.469118,354.653861 101.895249,354.869062 101.446127,355.299471 C100.997006,355.729879 100.722546,356.38172 100.622741,357.255012 L105.52563,357.255012 L105.52563,357.030452 C105.52563,356.281916 105.294835,355.689333 104.833238,355.252687 C104.409067,354.853468 103.853911,354.653861 103.167752,354.653861 L103.167752,354.653861 Z M111.345471,354.840994 C112.156386,353.780568 113.223034,353.250362 114.545448,353.250362 C116.104899,353.250362 117.140359,353.85542 117.651859,355.065554 C117.826517,355.489725 117.913845,355.988741 117.913845,356.562619 L117.913845,363 L116.154794,363 L116.154794,356.880746 C116.154794,356.069831 115.967662,355.495962 115.593394,355.159121 C115.219126,354.822279 114.732585,354.653861 114.133756,354.653861 C113.460073,354.653861 112.86749,354.909607 112.355991,355.421107 C111.844491,355.932607 111.588745,356.562616 111.588745,357.311152 L111.588745,363 L109.829693,363 L109.829693,353.437496 L111.102198,353.437496 L111.345471,354.840994 Z M124.051813,361.821061 C124.376179,361.821061 124.762917,361.727495 125.212039,361.540361 L125.212039,362.850293 C124.762917,363.074854 124.18281,363.187133 123.4717,363.187133 C122.748115,363.187133 122.192959,362.975051 121.806215,362.55088 C121.419471,362.12671 121.226102,361.428086 121.226102,360.454989 L121.226102,354.840994 L120.178157,354.840994 L120.178157,353.437496 L121.282242,353.437496 L121.881068,350.387225 L122.985154,350.387225 L122.985154,353.437496 L125.212039,353.437496 L125.212039,354.840994 L122.985154,354.840994 L122.985154,360.548556 C122.985154,361.259665 123.209711,361.665116 123.658833,361.764921 C123.783589,361.802348 123.914581,361.821061 124.051813,361.821061 L124.051813,361.821061 Z" id="Content" fill="#303030"></path>
                        <ellipse id="Oval-31-Copy-4" fill="#FFFFFF" transform="translate(104.500000, 153.500000) rotate(-270.000000) translate(-104.500000, -153.500000) " cx="104.5" cy="153.5" rx="89.5" ry="89.5"></ellipse>
                        <path d="M78.7021568,152.197473 C78.7021568,153.828991 78.2176155,155.086345 77.2485184,155.969573 C76.3775576,156.779198 75.2367388,157.184005 73.8260278,157.184005 C72.255845,157.184005 71.0168913,156.717864 70.1091294,155.785568 C69.1277652,154.791937 68.6370904,153.36898 68.6370904,151.516655 L68.6370904,149.860611 C68.6370904,148.020553 69.1277652,146.597596 70.1091294,145.591698 C71.0291583,144.659402 72.2681121,144.193261 73.8260278,144.193261 C75.2612729,144.193261 76.4143586,144.610335 77.2853193,145.444494 C78.2298824,146.327722 78.7021568,147.585076 78.7021568,149.216594 L76.8989091,149.216594 C76.8989091,148.088025 76.6106377,147.223211 76.0340862,146.622125 C75.5066029,146.094642 74.7705908,145.830904 73.8260278,145.830904 C72.2067768,145.830904 71.164093,146.560783 70.697945,148.020562 C70.5262062,148.535779 70.4403381,149.149122 70.4403381,149.860611 L70.4403381,151.516655 C70.4403381,153.552986 71.1088825,154.816473 72.4459912,155.307155 C72.863071,155.466627 73.3108117,155.546362 73.7892268,155.546362 C74.2676418,155.546362 74.700049,155.48196 75.0864611,155.353156 C75.4728733,155.224352 75.801012,155.025016 76.0708872,154.755141 C76.6719728,154.154055 76.972511,153.301508 76.972511,152.197473 L78.7021568,152.197473 Z M87.5711916,152.123871 C87.5711916,150.995302 87.3197208,150.142755 86.8167716,149.566203 C86.3751577,149.050987 85.7618143,148.793383 84.9767229,148.793383 C83.7622847,148.793383 82.9649382,149.394459 82.5846596,150.596631 C82.449722,151.025977 82.3822542,151.535052 82.3822542,152.123871 L82.3822542,152.47348 C82.3822542,153.602049 82.6337251,154.454596 83.1366742,155.031148 C83.5782881,155.546364 84.1916315,155.803968 84.9767229,155.803968 C86.1911611,155.803968 86.9885076,155.196758 87.3687862,153.98232 C87.5037238,153.56524 87.5711916,153.062299 87.5711916,152.47348 L87.5711916,152.123871 Z M89.3008374,152.639085 C89.3008374,154.123398 88.8776304,155.27035 88.0312038,156.079976 C87.2583795,156.815999 86.2402294,157.184005 84.9767229,157.184005 C83.7132165,157.184005 82.6950664,156.815999 81.9222421,156.079976 C81.0758154,155.27035 80.6526085,154.123398 80.6526085,152.639085 L80.6526085,151.958267 C80.6526085,150.473953 81.0758154,149.333134 81.9222421,148.535776 C82.6950664,147.787486 83.7132165,147.413346 84.9767229,147.413346 C86.2402294,147.413346 87.2583795,147.787486 88.0312038,148.535776 C88.8776304,149.333134 89.3008374,150.473953 89.3008374,151.958267 L89.3008374,152.639085 Z M93.2753426,148.977388 C94.072701,147.934688 95.1215183,147.413346 96.4218259,147.413346 C97.9552075,147.413346 98.9733576,148.008289 99.4763067,149.198193 C99.6480455,149.615273 99.7339135,150.105948 99.7339135,150.670232 L99.7339135,157 L98.0042678,157 L98.0042678,150.983041 C98.0042678,150.185682 97.8202647,149.621406 97.4522532,149.290196 C97.0842416,148.958985 96.6058337,148.793383 96.0170152,148.793383 C95.3545943,148.793383 94.771918,149.044854 94.2689689,149.547803 C93.7660197,150.050752 93.5145489,150.670229 93.5145489,151.406252 L93.5145489,157 L91.7849031,157 L91.7849031,147.597351 L93.0361363,147.597351 L93.2753426,148.977388 Z M110.277393,153.319903 C110.277393,154.534341 109.909387,155.491157 109.173363,156.190379 C108.461874,156.852799 107.535726,157.184005 106.39489,157.184005 L106.247686,157.184005 C105.008714,157.184005 104.021231,156.779198 103.285208,155.969573 C102.500116,155.123146 102.107576,153.976194 102.107576,152.528682 L102.107576,152.08707 C102.107576,150.639558 102.500116,149.492606 103.285208,148.646179 C104.033498,147.824286 105.014847,147.413346 106.229285,147.413346 L106.376489,147.413346 C107.517325,147.413346 108.452674,147.766019 109.182564,148.471374 C109.912453,149.17673 110.277393,150.118212 110.277393,151.295849 L108.566147,151.295849 C108.566147,150.142746 108.136807,149.369933 107.278113,148.977388 C106.995971,148.854717 106.677032,148.793383 106.321288,148.793383 C105.953276,148.793383 105.619004,148.854717 105.318461,148.977388 C105.017919,149.100058 104.757248,149.284061 104.536441,149.529402 C104.070293,150.032351 103.837222,150.737696 103.837222,151.645458 L103.837222,152.639085 C103.837222,153.730852 104.064159,154.531265 104.51804,155.040348 C104.971921,155.549431 105.591398,155.803968 106.376489,155.803968 C107.149314,155.803968 107.716656,155.570898 108.078534,155.10475 C108.440412,154.638602 108.621349,154.043659 108.621349,153.319903 L110.277393,153.319903 Z M113.847087,152.694286 C113.883888,154.141798 114.36843,155.098614 115.300726,155.564762 C115.619669,155.724234 116.024476,155.803968 116.515158,155.803968 C116.993573,155.803968 117.386113,155.711967 117.692789,155.527961 C117.999465,155.343955 118.232536,155.129285 118.392007,154.883944 C118.649616,154.491398 118.778418,154.031391 118.778418,153.503907 L120.416061,153.503907 C120.416061,154.620209 120.048055,155.515691 119.312032,156.190379 C118.576009,156.852799 117.63146,157.184005 116.478357,157.184005 L116.404755,157.184005 C115.116714,157.184005 114.086297,156.779198 113.313473,155.969573 C112.516115,155.110879 112.117441,153.95166 112.117441,152.491881 L112.117441,152.123871 C112.117441,150.664092 112.516115,149.504873 113.313473,148.646179 C114.061763,147.824286 115.07378,147.413346 116.349553,147.413346 L116.478357,147.413346 C117.643727,147.413346 118.588276,147.769085 119.312032,148.480574 C120.048055,149.192064 120.416061,150.161146 120.416061,151.387851 L120.416061,152.694286 L113.847087,152.694286 Z M116.386354,148.793383 C115.699399,148.793383 115.135123,149.004986 114.69351,149.4282 C114.251896,149.851413 113.982025,150.492357 113.883888,151.35105 L118.704816,151.35105 L118.704816,151.130245 C118.704816,150.394221 118.477879,149.811545 118.023998,149.382198 C117.606918,148.989653 117.061042,148.793383 116.386354,148.793383 L116.386354,148.793383 Z M124.666574,155.803968 L124.666574,160.330488 L122.936928,160.330488 L122.936928,147.597351 L124.224962,147.597351 C124.286297,147.830425 124.366032,148.259766 124.464168,148.885385 C125.16339,147.904021 126.132473,147.413346 127.371445,147.413346 C128.487747,147.413346 129.383228,147.799753 130.057916,148.572577 C130.806206,149.443538 131.180346,150.688625 131.180346,152.307876 L131.180346,152.510281 C131.180346,153.994595 130.824607,155.159947 130.113118,156.006374 C129.450697,156.791465 128.536815,157.184005 127.371445,157.184005 C126.206075,157.184005 125.30446,156.723997 124.666574,155.803968 L124.666574,155.803968 Z M129.4507,152.289475 C129.4507,150.449417 128.978426,149.345399 128.033863,148.977388 C127.739453,148.854717 127.414381,148.793383 127.058637,148.793383 C126.285813,148.793383 125.703136,149.044854 125.310591,149.547803 C124.868977,150.124354 124.648173,151.038236 124.648173,152.289475 C124.648173,154.1418 125.126581,155.258085 126.083411,155.638364 C126.37782,155.748767 126.702892,155.803968 127.058637,155.803968 C127.819194,155.803968 128.395737,155.552498 128.788283,155.049548 C129.229897,154.472997 129.4507,153.552982 129.4507,152.289475 L129.4507,152.289475 Z M136.737293,155.840769 C137.056236,155.840769 137.436509,155.748768 137.878123,155.564762 L137.878123,156.852796 C137.436509,157.073603 136.8661,157.184005 136.166878,157.184005 C135.455389,157.184005 134.909513,156.975468 134.529235,156.558388 C134.148956,156.141309 133.958819,155.454364 133.958819,154.497534 L133.958819,148.977388 L132.928392,148.977388 L132.928392,147.597351 L134.014021,147.597351 L134.602837,144.598072 L135.688465,144.598072 L135.688465,147.597351 L137.878123,147.597351 L137.878123,148.977388 L135.688465,148.977388 L135.688465,154.589536 C135.688465,155.288758 135.909269,155.687431 136.350883,155.785568 C136.473553,155.822369 136.602355,155.840769 136.737293,155.840769 L136.737293,155.840769 Z" id="Concept" fill="#303030"></path>
                        <path d="M240.51961,424.154081 C240.51961,422.722325 240.77047,421.342597 241.272196,420.014858 C241.773923,418.687118 242.495908,417.484828 243.438175,416.407952 L244.392675,416.407952 C243.291324,418.157876 242.563219,420.0485 242.20834,422.07988 C242.085967,422.777402 242.024782,423.462677 242.024782,424.135725 C242.024782,424.82101 242.085967,425.512403 242.20834,426.209925 C242.330712,426.907447 242.495912,427.586604 242.703945,428.247414 C243.107774,429.507849 243.670678,430.719317 244.392675,431.881854 L243.438175,431.881854 C242.495908,430.804977 241.773923,429.605747 241.272196,428.284126 C240.77047,426.962505 240.51961,425.585837 240.51961,424.154081 L240.51961,424.154081 Z M245.897846,416.407952 L250.633631,416.407952 L250.633631,418.041614 L249.165171,418.041614 L249.165171,427.366338 L250.633631,427.366338 L250.633631,429 L245.897846,429 L245.897846,427.366338 L247.366307,427.366338 L247.366307,418.041614 L245.897846,418.041614 L245.897846,416.407952 Z M251.93689,429 L255.387772,424.245859 L252.120448,419.620209 L254.176292,419.620209 L256.43405,422.81411 L258.746875,419.620209 L260.637518,419.620209 L257.351838,424.135725 L260.80272,429 L258.746875,429 L256.30556,425.567474 L253.827533,429 L251.93689,429 Z M264.785919,420.014858 C265.287645,421.342597 265.538505,422.716206 265.538505,424.135725 C265.538505,425.567481 265.287645,426.947208 264.785919,428.274948 C264.284192,429.602687 263.562206,430.804977 262.61994,431.881854 L261.66544,431.881854 C262.754554,430.156404 263.47654,428.26578 263.831419,426.209925 C263.953792,425.512403 264.014977,424.82101 264.014977,424.135725 C264.014977,423.462677 263.953792,422.777402 263.831419,422.07988 C263.709047,421.382358 263.543847,420.703202 263.335814,420.042391 C262.919748,418.745245 262.362963,417.533777 261.66544,416.407952 L262.61994,416.407952 C263.562206,417.484828 264.284192,418.687118 264.785919,420.014858 L264.785919,420.014858 Z M276.955785,427.366338 C278.571099,427.366338 279.623485,426.638233 280.112974,425.182003 C280.284296,424.680276 280.369955,424.068424 280.369955,423.346427 L280.369955,422.061524 C280.369955,420.030144 279.68468,418.769728 278.31411,418.280239 C277.898045,418.121155 277.445274,418.041614 276.955785,418.041614 L274.385979,418.041614 L274.385979,427.366338 L276.955785,427.366338 Z M272.587115,429 L272.587115,416.407952 L276.955785,416.407952 C278.473201,416.407952 279.696906,416.87296 280.626936,417.802989 C281.654863,418.806442 282.168819,420.22594 282.168819,422.061524 L282.168819,423.346427 C282.168819,425.182012 281.654863,426.60151 280.626936,427.604963 C279.696906,428.534992 278.473201,429 276.955785,429 L272.587115,429 Z M285.950105,424.704753 C285.986816,426.148747 286.47018,427.103236 287.400209,427.568251 C287.718377,427.727335 288.1222,427.806876 288.611689,427.806876 C289.088941,427.806876 289.480527,427.715098 289.786458,427.53154 C290.092388,427.347981 290.324892,427.133833 290.483976,426.889088 C290.740958,426.497497 290.869447,426.038607 290.869447,425.512406 L292.503109,425.512406 C292.503109,426.625995 292.135998,427.519299 291.401764,428.192347 C290.66753,428.853157 289.725277,429.183558 288.574978,429.183558 L288.501555,429.183558 C287.216645,429.183558 286.188733,428.779735 285.417788,427.972078 C284.622368,427.115472 284.224664,425.95907 284.224664,424.50284 L284.224664,424.135725 C284.224664,422.679494 284.622368,421.523093 285.417788,420.666487 C286.164259,419.846593 287.173815,419.436651 288.446487,419.436651 L288.574978,419.436651 C289.737515,419.436651 290.679767,419.791526 291.401764,420.501285 C292.135998,421.211045 292.503109,422.177771 292.503109,423.401495 L292.503109,424.704753 L285.950105,424.704753 Z M288.483199,420.813333 C287.797914,420.813333 287.23501,421.024422 286.794469,421.446607 C286.353929,421.868791 286.084714,422.508177 285.986816,423.364783 L290.796024,423.364783 L290.796024,423.144514 C290.796024,422.41028 290.569639,421.82902 290.116861,421.400717 C289.700795,421.009126 289.156247,420.813333 288.483199,420.813333 L288.483199,420.813333 Z M294.320329,426.466906 L294.338685,426.063079 L296.04577,426.063079 L296.04577,426.246637 C296.04577,427.017582 296.535252,427.507064 297.514231,427.715097 C297.807924,427.776283 298.193391,427.806876 298.670643,427.806876 C299.147895,427.806876 299.600666,427.693683 300.028969,427.467294 C300.457272,427.240906 300.67142,426.919683 300.67142,426.503617 C300.67142,426.087551 300.521517,425.784684 300.221704,425.595007 C299.921892,425.40533 299.545603,425.258486 299.092826,425.154469 C298.640048,425.050453 298.153625,424.955616 297.633543,424.869955 C297.113461,424.784294 296.627038,424.646628 296.17426,424.456951 C295.721483,424.267273 295.345194,424.004177 295.045381,423.667653 C294.745569,423.331129 294.595665,422.850825 294.595665,422.226726 C294.595665,421.357883 294.938303,420.675667 295.623588,420.18006 C296.308873,419.684452 297.245007,419.436651 298.432018,419.436651 L298.59722,419.436651 C299.686334,419.436651 300.561283,419.687511 301.222093,420.189237 C301.858429,420.678727 302.176592,421.278342 302.176592,421.988101 L302.158237,422.318505 L300.451151,422.318505 L300.451151,422.153303 C300.451151,421.259985 299.759758,420.813333 298.376951,420.813333 C297.263363,420.813333 296.602562,421.088667 296.394529,421.639342 C296.345581,421.786189 296.321106,421.920796 296.321106,422.043169 C296.321106,422.385811 296.47101,422.642789 296.770822,422.81411 C297.070635,422.985432 297.446924,423.120039 297.899701,423.217937 C298.352479,423.315835 298.838902,423.410672 299.358984,423.502451 C299.879066,423.594231 300.365489,423.738016 300.818267,423.933812 C301.870668,424.374352 302.396861,425.120812 302.396861,426.173214 C302.396861,427.237853 302.011394,428.021024 301.240449,428.52275 C300.555164,428.963291 299.612911,429.183558 298.413663,429.183558 L298.138326,429.183558 C296.890129,429.183558 295.92952,428.902105 295.256473,428.339193 C294.632374,427.825229 294.320329,427.20114 294.320329,426.466906 L294.320329,426.466906 Z M304.819821,429 L304.819821,419.620209 L306.545262,419.620209 L306.545262,429 L304.819821,429 Z M304.78311,415.783856 L306.581974,415.783856 L306.581974,417.380807 L304.78311,417.380807 L304.78311,415.783856 Z M316.273813,420.372795 C316.885674,420.898996 317.1916,421.572034 317.1916,422.391928 C317.1916,423.236297 316.885674,423.92769 316.273813,424.466128 C315.625239,425.041278 314.701342,425.328849 313.502093,425.328849 L312.253902,425.328849 C311.886785,425.328849 311.580859,425.423686 311.336114,425.613363 C311.09137,425.80304 310.968999,426.044722 310.968999,426.338415 C310.968999,426.632109 311.085251,426.864613 311.317759,427.035934 C311.550266,427.207255 311.862311,427.292915 312.253902,427.292915 L315.796563,427.292915 C316.530797,427.292915 317.112057,427.5193 317.54036,427.972078 C317.968663,428.424855 318.182811,428.999997 318.182811,429.697519 C318.182811,430.566362 317.846292,431.251637 317.173245,431.753363 C316.549146,432.218378 315.723145,432.450882 314.695218,432.450882 L311.005711,432.450882 C310.369375,432.450882 309.830945,432.218378 309.390404,431.753363 C308.949864,431.288349 308.729597,430.78663 308.729597,430.248191 C308.729597,429.72199 308.858086,429.26922 309.115068,428.889865 C309.37205,428.510511 309.70245,428.235178 310.106279,428.063856 C309.543366,427.708977 309.261914,427.201139 309.261914,426.540329 C309.261914,426.087551 309.393462,425.705143 309.656563,425.393094 C309.919663,425.081045 310.277597,424.845481 310.730374,424.686397 C309.91048,424.221383 309.500539,423.456567 309.500539,422.391928 C309.500539,421.523085 309.806465,420.825573 310.418327,420.299372 C311.079137,419.724222 312.033627,419.436651 313.281824,419.436651 L313.355247,419.436651 C314.05277,419.436651 314.676859,419.540666 315.227534,419.748699 C316.096378,419.320396 316.591978,418.714662 316.714351,417.93148 L318.182811,417.93148 C318.182811,418.543341 318.017611,419.063416 317.687206,419.491719 C317.3568,419.920022 316.897911,420.195355 316.310524,420.317728 L316.273813,420.372795 Z M311.207624,422.391928 C311.207624,422.967078 311.412595,423.370901 311.822542,423.603408 C312.232489,423.835915 312.737267,423.952167 313.336892,423.952167 C313.936516,423.952167 314.444353,423.835915 314.860419,423.603408 C315.276485,423.370901 315.484515,422.967078 315.484515,422.391928 C315.484515,421.816778 315.276485,421.409896 314.860419,421.17127 C314.444353,420.932644 313.936516,420.813333 313.336892,420.813333 C312.737267,420.813333 312.232489,420.932644 311.822542,421.17127 C311.412595,421.409896 311.207624,421.816778 311.207624,422.391928 L311.207624,422.391928 Z M315.043977,431.0742 C315.435568,431.0742 315.772087,430.961008 316.053543,430.734619 C316.335,430.50823 316.475726,430.248193 316.475726,429.954499 C316.475726,429.660806 316.37477,429.419124 316.172856,429.229447 C315.970942,429.03977 315.674193,428.944933 315.282602,428.944933 L311.501316,428.944933 C311.207623,428.944933 310.956763,429.048948 310.74873,429.256981 C310.540697,429.465014 310.436682,429.715873 310.436682,430.009567 C310.436682,430.30326 310.540697,430.55412 310.74873,430.762153 C310.956763,430.970185 311.207623,431.0742 311.501316,431.0742 L315.043977,431.0742 Z M321.505203,420.996891 C322.300623,419.956726 323.34689,419.436651 324.644037,419.436651 C326.173691,419.436651 327.189366,420.030148 327.691092,421.21716 C327.862414,421.633226 327.948073,422.122708 327.948073,422.68562 L327.948073,429 L326.222632,429 L326.222632,422.997668 C326.222632,422.202248 326.039076,421.639344 325.671959,421.308939 C325.304842,420.978533 324.827597,420.813333 324.24021,420.813333 C323.5794,420.813333 322.99814,421.064193 322.496414,421.565919 C321.994687,422.067646 321.743828,422.685616 321.743828,423.41985 L321.743828,429 L320.018387,429 L320.018387,419.620209 L321.266578,419.620209 L321.505203,420.996891 Z" id="(Ix)-Design" fill="#303030"></path>
                    </g>
                </g>
                <path d="M278.199,284.978002 L283.129,284.978002 L283.129,284.570002 C283.129,279.810002 279.117,277.736002 274.255,277.736002 C269.325,277.736002 265.143,279.980002 265.143,284.638002 C265.143,293.546002 278.301,290.418002 278.301,294.906002 C278.301,296.232002 277.281,297.558002 273.847,297.558002 C271.059,297.558002 269.563,296.266002 269.563,294.328002 C269.563,294.158002 269.597,293.852002 269.597,293.784002 L264.633,293.784002 C264.633,293.954002 264.599,294.260002 264.599,294.532002 C264.599,299.666002 269.019,301.740002 274.017,301.740002 C279.661,301.740002 283.639,299.598002 283.639,294.056002 C283.639,285.556002 270.413,288.514002 270.413,284.094002 C270.413,282.802002 271.841,281.918002 274.357,281.918002 C276.771,281.918002 278.199,282.972002 278.199,284.672002 L278.199,284.978002 Z M292.139,292.152002 L292.139,287.324002 C292.139,283.754002 294.315,281.918002 297.035,281.918002 C299.959,281.918002 301.591,283.754002 301.591,287.324002 L306.589,287.324002 C306.589,280.898002 302.475,277.736002 297.171,277.736002 L296.695,277.736002 C291.119,277.736002 286.631,281.476002 286.631,288.072002 L286.631,291.404002 C286.631,298.170002 291.051,301.740002 296.831,301.740002 L297.307,301.740002 C302.509,301.740002 306.589,298.408002 306.589,292.220002 L301.795,292.220002 C301.795,295.858002 300.299,297.558002 297.069,297.558002 C294.349,297.558002 292.139,295.722002 292.139,292.152002 L292.139,292.152002 Z M330.253,301.196002 L330.253,300.040002 C328.723,299.564002 328.519,297.252002 328.519,295.756002 C328.519,291.914002 326.445,290.078002 324.779,289.534002 L324.779,289.364002 C327.159,288.922002 328.961,286.338002 328.961,283.856002 C328.961,279.436002 324.949,278.076002 321.107,278.076002 L310.669,278.076002 L310.669,301.400002 L315.837,301.400002 L315.837,291.744002 L319.781,291.744002 C322.807,291.744002 323.419,294.532002 323.419,297.932002 C323.419,300.822002 325.323,301.638002 327.329,301.638002 C328.315,301.638002 329.471,301.502002 330.253,301.196002 L330.253,301.196002 Z M320.937,287.630002 L315.837,287.630002 L315.837,282.258002 L320.937,282.258002 C322.535,282.258002 323.657,283.380002 323.657,284.842002 L323.657,285.080002 C323.657,286.508002 322.433,287.630002 320.937,287.630002 L320.937,287.630002 Z M351.537,293.988002 L351.537,278.076002 L346.301,278.076002 L346.301,293.886002 C346.301,296.062002 344.703,297.592002 342.289,297.592002 C339.909,297.592002 338.243,296.028002 338.243,293.886002 L338.243,278.076002 L333.007,278.076002 L333.007,293.988002 C333.007,298.680002 336.475,301.740002 341.779,301.740002 L342.731,301.740002 C348.035,301.740002 351.537,298.680002 351.537,293.988002 L351.537,293.988002 Z M378.873,301.400002 L384.109,301.400002 L384.109,278.076002 L375.643,278.076002 L370.203,293.478002 L370.067,293.478002 L364.627,278.076002 L356.161,278.076002 L356.161,301.400002 L360.921,301.400002 L360.921,284.230002 L361.091,284.230002 L367.143,301.400002 L372.651,301.400002 L378.703,284.230002 L378.873,284.230002 L378.873,301.400002 Z M289.334,319.692003 L295.93,319.692003 L295.93,315.476003 L277.502,315.476003 L277.502,319.692003 L284.132,319.692003 L284.132,338.800003 L289.334,338.800003 L289.334,319.692003 Z M298.65,338.800003 L315.174,338.800003 L314.596,334.618003 L303.818,334.618003 L303.818,328.940003 L313.78,328.940003 L313.78,324.758003 L303.818,324.758003 L303.818,319.658003 L314.494,319.658003 L315.072,315.476003 L298.65,315.476003 L298.65,338.800003 Z M332.582,334.210003 L334.282,338.800003 L339.79,338.800003 L331.324,315.476003 L325.068,315.476003 L316.602,338.800003 L321.668,338.800003 L323.3,334.210003 L332.582,334.210003 Z M327.89,321.086003 L328.06,321.086003 C329.114,324.112003 330.168,327.172003 331.188,330.232003 L324.728,330.232003 L327.89,321.086003 Z M365.018,338.800003 L370.254,338.800003 L370.254,315.476003 L361.788,315.476003 L356.348,330.878003 L356.212,330.878003 L350.772,315.476003 L342.306,315.476003 L342.306,338.800003 L347.066,338.800003 L347.066,321.630003 L347.236,321.630003 L353.288,338.800003 L358.796,338.800003 L364.848,321.630003 L365.018,321.630003 L365.018,338.800003 Z" id="SCRUM-TEAM" fill="#303030" mask="url(#mask-2)"></path>
                <g id="Group-4" mask="url(#mask-2)">
                    <g transform="translate(546.000000, 23.000000)">
                        <path d="M196,392 C304.247811,392 392,304.247811 392,196 C392,87.752189 304.247811,0 196,0 C87.752189,0 0,87.752189 0,196 C0,304.247811 87.752189,392 196,392 Z" id="Oval-32-Copy" stroke="#303030" stroke-width="10" fill="none"></path>
                        <path d="M142.954,168.714 L149.044,168.714 L149.044,168.21 C149.044,162.33 144.088,159.768 138.082,159.768 C131.992,159.768 126.826,162.54 126.826,168.294 C126.826,179.298 143.08,175.434 143.08,180.978 C143.08,182.616 141.82,184.254 137.578,184.254 C134.134,184.254 132.286,182.658 132.286,180.264 C132.286,180.054 132.328,179.676 132.328,179.592 L126.196,179.592 C126.196,179.802 126.154,180.18 126.154,180.516 C126.154,186.858 131.614,189.42 137.788,189.42 C144.76,189.42 149.674,186.774 149.674,179.928 C149.674,169.428 133.336,173.082 133.336,167.622 C133.336,166.026 135.1,164.934 138.208,164.934 C141.19,164.934 142.954,166.236 142.954,168.336 L142.954,168.714 Z M166.264,165.396 L174.412,165.396 L174.412,160.188 L151.648,160.188 L151.648,165.396 L159.838,165.396 L159.838,189 L166.264,189 L166.264,165.396 Z M194.572,183.33 L196.672,189 L203.476,189 L193.018,160.188 L185.29,160.188 L174.832,189 L181.09,189 L183.106,183.33 L194.572,183.33 Z M188.776,167.118 L188.986,167.118 C190.288,170.856 191.59,174.636 192.85,178.416 L184.87,178.416 L188.776,167.118 Z M206.584,160.188 L206.584,189 L212.926,189 L212.926,181.482 L216.664,177.324 L223.51,189 L230.86,189 C227.5,183.456 224.224,177.912 220.864,172.326 C224.098,168.294 227.332,164.262 230.566,160.188 L223.3,160.188 C219.856,164.598 216.37,169.008 212.926,173.376 L212.926,160.188 L206.584,160.188 Z M234.304,189 L254.716,189 L254.002,183.834 L240.688,183.834 L240.688,176.82 L252.994,176.82 L252.994,171.654 L240.688,171.654 L240.688,165.354 L253.876,165.354 L254.59,160.188 L234.304,160.188 L234.304,189 Z M256.396,174.888 L256.396,180.264 L267.022,180.264 L267.022,174.888 L256.396,174.888 Z M120.652,231 L127.12,231 L127.12,202.188 L120.652,202.188 L120.652,213.612 L110.656,213.612 L110.656,202.188 L104.188,202.188 L104.188,231 L110.698,231 L110.698,218.988 L120.652,218.988 L120.652,231 Z M157.906,218.652 L157.906,214.536 C157.906,206.346 152.068,201.768 145.054,201.768 C138.04,201.768 132.202,206.346 132.202,214.536 L132.202,218.652 C132.202,226.842 138.04,231.42 145.054,231.42 C152.068,231.42 157.906,226.842 157.906,218.652 L157.906,218.652 Z M151.102,213.612 L151.102,219.576 C151.102,223.986 148.498,226.254 145.054,226.254 C141.61,226.254 139.006,223.986 139.006,219.576 L139.006,213.612 C139.006,209.202 141.61,206.934 145.054,206.934 C148.498,206.934 151.102,209.202 151.102,213.612 L151.102,213.612 Z M162.946,231 L182.014,231 L181.3,225.624 L169.456,225.624 L169.456,202.188 L162.946,202.188 L162.946,231 Z M196.252,202.188 L185.332,202.188 L185.332,231 L196.252,231 C203.266,231 209.104,226.422 209.104,218.232 L209.104,214.956 C209.104,206.766 203.266,202.188 196.252,202.188 L196.252,202.188 Z M191.842,207.354 L196.252,207.354 C199.696,207.354 202.3,209.622 202.3,214.032 L202.3,219.156 C202.3,223.566 199.696,225.834 196.252,225.834 L191.842,225.834 L191.842,207.354 Z M214.144,231 L234.556,231 L233.842,225.834 L220.528,225.834 L220.528,218.82 L232.834,218.82 L232.834,213.654 L220.528,213.654 L220.528,207.354 L233.716,207.354 L234.43,202.188 L214.144,202.188 L214.144,231 Z M263.452,230.748 L263.452,229.32 C261.562,228.732 261.31,225.876 261.31,224.028 C261.31,219.282 258.748,217.014 256.69,216.342 L256.69,216.132 C259.63,215.586 261.856,212.394 261.856,209.328 C261.856,203.868 256.9,202.188 252.154,202.188 L239.26,202.188 L239.26,231 L245.644,231 L245.644,219.072 L250.516,219.072 C254.254,219.072 255.01,222.516 255.01,226.716 C255.01,230.286 257.362,231.294 259.84,231.294 C261.058,231.294 262.486,231.126 263.452,230.748 L263.452,230.748 Z M251.944,213.99 L245.644,213.99 L245.644,207.354 L251.944,207.354 C253.918,207.354 255.304,208.74 255.304,210.546 L255.304,210.84 C255.304,212.604 253.792,213.99 251.944,213.99 L251.944,213.99 Z M282.436,210.714 L288.526,210.714 L288.526,210.21 C288.526,204.33 283.57,201.768 277.564,201.768 C271.474,201.768 266.308,204.54 266.308,210.294 C266.308,221.298 282.562,217.434 282.562,222.978 C282.562,224.616 281.302,226.254 277.06,226.254 C273.616,226.254 271.768,224.658 271.768,222.264 C271.768,222.054 271.81,221.676 271.81,221.592 L265.678,221.592 C265.678,221.802 265.636,222.18 265.636,222.516 C265.636,228.858 271.096,231.42 277.27,231.42 C284.242,231.42 289.156,228.774 289.156,221.928 C289.156,211.428 272.818,215.082 272.818,209.622 C272.818,208.026 274.582,206.934 277.69,206.934 C280.672,206.934 282.436,208.236 282.436,210.336 L282.436,210.714 Z" id="STAKE-" stroke="none" fill="#303030" fill-rule="evenodd"></path>
                    </g>
                </g>
            </g>
        </g>
    </g>
</svg>