<?xml version="1.0" encoding="UTF-8" standalone="no"?>
<svg width="1024px" height="673px" viewBox="0 0 1024 673" version="1.1" xmlns="http://www.w3.org/2000/svg" xmlns:xlink="http://www.w3.org/1999/xlink">
    <!-- Generator: Sketch 3.6.1 (26313) - http://www.bohemiancoding.com/sketch -->
    <title>slide-sprints</title>
    <desc>Created with Sketch.</desc>
    <defs>
        <rect id="path-1" x="0" y="0" width="1024" height="673"></rect>
    </defs>
    <g id="Page-1" stroke="none" stroke-width="1" fill="none" fill-rule="evenodd">
        <g id="slide-sprints">
            <mask id="mask-2" fill="white">
                <use xlink:href="#path-1"></use>
            </mask>
            <g id="Rectangle-1">
                <use fill="none" xlink:href="#path-1"></use>
                <use fill="#0000FF" xlink:href="#path-1"></use>
            </g>
            <path d="M70.102,242.567999 L69.892,242.567999 L63.34,221.987999 L56.536,221.987999 L65.986,250.799999 L73.42,250.799999 L82.912,221.987999 L76.696,221.987999 L70.102,242.567999 Z M86.272,221.987999 L86.272,227.153999 L89.674,227.153999 L89.674,245.633999 L86.272,245.633999 L86.272,250.799999 L99.544,250.799999 L99.544,245.633999 L96.184,245.633999 L96.184,227.153999 L99.544,227.153999 L99.544,221.987999 L86.272,221.987999 Z M120.88,230.513999 L126.97,230.513999 L126.97,230.009999 C126.97,224.129999 122.014,221.567999 116.008,221.567999 C109.918,221.567999 104.752,224.339999 104.752,230.093999 C104.752,241.097999 121.006,237.233999 121.006,242.777999 C121.006,244.415999 119.746,246.053999 115.504,246.053999 C112.06,246.053999 110.212,244.457999 110.212,242.063999 C110.212,241.853999 110.254,241.475999 110.254,241.391999 L104.122,241.391999 C104.122,241.601999 104.08,241.979999 104.08,242.315999 C104.08,248.657999 109.54,251.219999 115.714,251.219999 C122.686,251.219999 127.6,248.573999 127.6,241.727999 C127.6,231.227999 111.262,234.881999 111.262,229.421999 C111.262,227.825999 113.026,226.733999 116.134,226.733999 C119.116,226.733999 120.88,228.035999 120.88,230.135999 L120.88,230.513999 Z M132.304,221.987999 L132.304,227.153999 L135.706,227.153999 L135.706,245.633999 L132.304,245.633999 L132.304,250.799999 L145.576,250.799999 L145.576,245.633999 L142.216,245.633999 L142.216,227.153999 L145.576,227.153999 L145.576,221.987999 L132.304,221.987999 Z M151.666,250.799999 L172.078,250.799999 L171.364,245.633999 L158.05,245.633999 L158.05,238.619999 L170.356,238.619999 L170.356,233.453999 L158.05,233.453999 L158.05,227.153999 L171.238,227.153999 L171.952,221.987999 L151.666,221.987999 L151.666,250.799999 Z" id="VISIE" fill="#FFFFFF" mask="url(#mask-2)"></path>
            <path d="M212.837325,233 C212.837325,288.694822 257.233967,333.844395 312,333.844395 C366.766033,333.844395 411.162675,288.694822 411.162675,233 C411.162675,177.305178 366.766033,132.155605 312,132.155605 C257.233967,132.155605 212.837325,177.305178 212.837325,233 Z" id="Oval-31-Copy" stroke="#303030" stroke-width="7" mask="url(#mask-2)"></path>
            <path d="M382.837325,233 C382.837325,288.694822 427.233967,333.844395 482,333.844395 C536.766033,333.844395 581.162675,288.694822 581.162675,233 C581.162675,177.305178 536.766033,132.155605 482,132.155605 C427.233967,132.155605 382.837325,177.305178 382.837325,233 Z" id="Oval-31-Copy-2" stroke="#303030" stroke-width="7" mask="url(#mask-2)"></path>
            <path d="M719.837325,233 C719.837325,288.694822 764.233967,333.844395 819,333.844395 C873.766033,333.844395 918.162675,288.694822 918.162675,233 C918.162675,177.305178 873.766033,132.155605 819,132.155605 C764.233967,132.155605 719.837325,177.305178 719.837325,233 Z" id="Oval-31-Copy-4" stroke="#303030" stroke-width="7" mask="url(#mask-2)"></path>
            <path d="M892.837325,233 C892.837325,288.694822 937.233967,333.844395 992,333.844395 C1046.76603,333.844395 1091.16267,288.694822 1091.16267,233 C1091.16267,177.305178 1046.76603,132.155605 992,132.155605 C937.233967,132.155605 892.837325,177.305178 892.837325,233 Z" id="Oval-31-Copy-6" stroke="#303030" stroke-width="7" mask="url(#mask-2)"></path>
            <path d="M555.837325,233 C555.837325,288.694822 600.233967,333.844395 655,333.844395 C709.766033,333.844395 754.162675,288.694822 754.162675,233 C754.162675,177.305178 709.766033,132.155605 655,132.155605 C600.233967,132.155605 555.837325,177.305178 555.837325,233 Z" id="Oval-31-Copy-5" stroke="#FFFFFF" stroke-width="7" mask="url(#mask-2)"></path>
            <path d="M263.616,236.98 L263.588,237.568 C263.588,238.669339 264.003329,239.481331 264.834,240.004 C265.664671,240.526669 266.779993,240.788 268.18,240.788 C269.580007,240.788 270.685996,240.531336 271.498,240.018 C272.310004,239.504664 272.716,238.800004 272.716,237.904 C272.716,237.007996 272.436003,236.350002 271.876,235.93 C271.315997,235.509998 270.611338,235.169335 269.762,234.908 C268.912662,234.646665 267.993338,234.404001 267.004,234.18 C266.014662,233.955999 265.095338,233.638669 264.246,233.228 C263.396662,232.817331 262.692003,232.26667 262.132,231.576 C261.571997,230.88533 261.292,230.017339 261.292,228.972 C261.292,227.926661 261.473998,227.077337 261.838,226.424 C262.202002,225.770663 262.691997,225.229335 263.308,224.8 C264.521339,223.941329 266.145323,223.512 268.18,223.512 C270.158677,223.512 271.754661,223.931996 272.968,224.772 C274.29334,225.686671 274.956,227.058658 274.956,228.888 L274.956,229.224 L272.212,229.224 L272.212,228.804 C272.212,227.889329 271.83867,227.194002 271.092,226.718 C270.34533,226.241998 269.393339,226.004 268.236,226.004 C266.27599,226.004 264.988003,226.470662 264.372,227.404 C264.147999,227.721335 264.036,228.103998 264.036,228.552 C264.036,229.29867 264.315997,229.867998 264.876,230.26 C265.436003,230.652002 266.140662,230.978665 266.99,231.24 C267.839338,231.501335 268.758662,231.748666 269.748,231.982 C270.737338,232.215334 271.656662,232.532665 272.506,232.934 C273.355338,233.335335 274.059997,233.876663 274.62,234.558 C275.180003,235.239337 275.46,236.139994 275.46,237.26 C275.46,238.398672 275.273335,239.345996 274.9,240.102 C274.526665,240.858004 274.013337,241.469331 273.36,241.936 C272.109327,242.832004 270.373344,243.28 268.152,243.28 C264.773316,243.28 262.533339,242.253344 261.432,240.2 C261.039998,239.471996 260.844,238.585339 260.844,237.54 L260.872,236.98 L263.616,236.98 Z M281.9,241.18 L281.9,248.068 L279.268,248.068 L279.268,228.692 L281.228,228.692 C281.321334,229.046668 281.442666,229.699995 281.592,230.652 C282.656005,229.158659 284.130657,228.412 286.016,228.412 C287.714675,228.412 289.077328,228.999994 290.104,230.176 C291.242672,231.50134 291.812,233.395988 291.812,235.86 L291.812,236.168 C291.812,238.426678 291.270672,240.199994 290.188,241.488 C289.179995,242.682673 287.789342,243.28 286.016,243.28 C284.242658,243.28 282.870672,242.580007 281.9,241.18 L281.9,241.18 Z M289.18,235.832 C289.18,233.031986 288.461341,231.352003 287.024,230.792 C286.575998,230.605332 286.081336,230.512 285.54,230.512 C284.363994,230.512 283.477336,230.894663 282.88,231.66 C282.207997,232.537338 281.872,233.92799 281.872,235.832 C281.872,238.650681 282.599993,240.34933 284.056,240.928 C284.504002,241.096001 284.998664,241.18 285.54,241.18 C286.697339,241.18 287.574664,240.797337 288.172,240.032 C288.844003,239.154662 289.18,237.754676 289.18,235.832 L289.18,235.832 Z M306.26,232.892 L306.176,233.956 L303.852,233.956 L303.852,233.34 C303.852,232.686663 303.684002,232.154669 303.348,231.744 C302.731997,230.922663 301.976004,230.512 301.08,230.512 C300.090662,230.512 299.344003,230.941329 298.84,231.8 C298.429331,232.509337 298.224,233.395995 298.224,234.46 L298.224,243 L295.592,243 L295.592,228.692 L297.468,228.692 L297.86,230.82 C298.140001,229.979996 298.905327,229.298669 300.156,228.776 C300.697336,228.533332 301.322663,228.412 302.032,228.412 C302.741337,228.412 303.352664,228.528665 303.866,228.762 C304.379336,228.995335 304.813332,229.317331 305.168,229.728 C305.896004,230.549337 306.26,231.603994 306.26,232.892 L306.26,232.892 Z M309.312,243 L309.312,228.692 L311.944,228.692 L311.944,243 L309.312,243 Z M309.256,222.84 L312,222.84 L312,225.276 L309.256,225.276 L309.256,222.84 Z M318.86,230.792 C320.073339,229.205325 321.669323,228.412 323.648,228.412 C325.981345,228.412 327.530663,229.317324 328.296,231.128 C328.557335,231.76267 328.688,232.509329 328.688,233.368 L328.688,243 L326.056,243 L326.056,233.844 C326.056,232.630661 325.776003,231.772003 325.216,231.268 C324.655997,230.763997 323.928004,230.512 323.032,230.512 C322.023995,230.512 321.137337,230.894663 320.372,231.66 C319.606663,232.425337 319.224,233.367994 319.224,234.488 L319.224,243 L316.592,243 L316.592,228.692 L318.496,228.692 L318.86,230.792 Z M337.872,241.236 C338.357336,241.236 338.935997,241.096001 339.608,240.816 L339.608,242.776 C338.935997,243.112002 338.068005,243.28 337.004,243.28 C335.921328,243.28 335.09067,242.96267 334.512,242.328 C333.93333,241.69333 333.644,240.648007 333.644,239.192 L333.644,230.792 L332.076,230.792 L332.076,228.692 L333.728,228.692 L334.624,224.128 L336.276,224.128 L336.276,228.692 L339.608,228.692 L339.608,230.792 L336.276,230.792 L336.276,239.332 C336.276,240.396005 336.611997,241.002666 337.284,241.152 C337.470668,241.208 337.666666,241.236 337.872,241.236 L337.872,241.236 Z M350.108,225.668 C352.292011,225.443999 354.550655,224.818672 356.884,223.792 L357.948,223.792 L357.948,240.508 L362.988,240.508 L362.988,243 L350.164,243 L350.164,240.508 L355.204,240.508 L355.204,227.46 L350.108,227.46 L350.108,225.668 Z" id="Sprint-1" fill="#FFFFFF" mask="url(#mask-2)"></path>
            <path d="M607.004,236.98 L606.976,237.568 C606.976,238.669339 607.391329,239.481331 608.222,240.004 C609.052671,240.526669 610.167993,240.788 611.568,240.788 C612.968007,240.788 614.073996,240.531336 614.886,240.018 C615.698004,239.504664 616.104,238.800004 616.104,237.904 C616.104,237.007996 615.824003,236.350002 615.264,235.93 C614.703997,235.509998 613.999338,235.169335 613.15,234.908 C612.300662,234.646665 611.381338,234.404001 610.392,234.18 C609.402662,233.955999 608.483338,233.638669 607.634,233.228 C606.784662,232.817331 606.080003,232.26667 605.52,231.576 C604.959997,230.88533 604.68,230.017339 604.68,228.972 C604.68,227.926661 604.861998,227.077337 605.226,226.424 C605.590002,225.770663 606.079997,225.229335 606.696,224.8 C607.909339,223.941329 609.533323,223.512 611.568,223.512 C613.546677,223.512 615.142661,223.931996 616.356,224.772 C617.68134,225.686671 618.344,227.058658 618.344,228.888 L618.344,229.224 L615.6,229.224 L615.6,228.804 C615.6,227.889329 615.22667,227.194002 614.48,226.718 C613.73333,226.241998 612.781339,226.004 611.624,226.004 C609.66399,226.004 608.376003,226.470662 607.76,227.404 C607.535999,227.721335 607.424,228.103998 607.424,228.552 C607.424,229.29867 607.703997,229.867998 608.264,230.26 C608.824003,230.652002 609.528662,230.978665 610.378,231.24 C611.227338,231.501335 612.146662,231.748666 613.136,231.982 C614.125338,232.215334 615.044662,232.532665 615.894,232.934 C616.743338,233.335335 617.447997,233.876663 618.008,234.558 C618.568003,235.239337 618.848,236.139994 618.848,237.26 C618.848,238.398672 618.661335,239.345996 618.288,240.102 C617.914665,240.858004 617.401337,241.469331 616.748,241.936 C615.497327,242.832004 613.761344,243.28 611.54,243.28 C608.161316,243.28 605.921339,242.253344 604.82,240.2 C604.427998,239.471996 604.232,238.585339 604.232,237.54 L604.26,236.98 L607.004,236.98 Z M625.288,241.18 L625.288,248.068 L622.656,248.068 L622.656,228.692 L624.616,228.692 C624.709334,229.046668 624.830666,229.699995 624.98,230.652 C626.044005,229.158659 627.518657,228.412 629.404,228.412 C631.102675,228.412 632.465328,228.999994 633.492,230.176 C634.630672,231.50134 635.2,233.395988 635.2,235.86 L635.2,236.168 C635.2,238.426678 634.658672,240.199994 633.576,241.488 C632.567995,242.682673 631.177342,243.28 629.404,243.28 C627.630658,243.28 626.258672,242.580007 625.288,241.18 L625.288,241.18 Z M632.568,235.832 C632.568,233.031986 631.849341,231.352003 630.412,230.792 C629.963998,230.605332 629.469336,230.512 628.928,230.512 C627.751994,230.512 626.865336,230.894663 626.268,231.66 C625.595997,232.537338 625.26,233.92799 625.26,235.832 C625.26,238.650681 625.987993,240.34933 627.444,240.928 C627.892002,241.096001 628.386664,241.18 628.928,241.18 C630.085339,241.18 630.962664,240.797337 631.56,240.032 C632.232003,239.154662 632.568,237.754676 632.568,235.832 L632.568,235.832 Z M649.648,232.892 L649.564,233.956 L647.24,233.956 L647.24,233.34 C647.24,232.686663 647.072002,232.154669 646.736,231.744 C646.119997,230.922663 645.364004,230.512 644.468,230.512 C643.478662,230.512 642.732003,230.941329 642.228,231.8 C641.817331,232.509337 641.612,233.395995 641.612,234.46 L641.612,243 L638.98,243 L638.98,228.692 L640.856,228.692 L641.248,230.82 C641.528001,229.979996 642.293327,229.298669 643.544,228.776 C644.085336,228.533332 644.710663,228.412 645.42,228.412 C646.129337,228.412 646.740664,228.528665 647.254,228.762 C647.767336,228.995335 648.201332,229.317331 648.556,229.728 C649.284004,230.549337 649.648,231.603994 649.648,232.892 L649.648,232.892 Z M652.7,243 L652.7,228.692 L655.332,228.692 L655.332,243 L652.7,243 Z M652.644,222.84 L655.388,222.84 L655.388,225.276 L652.644,225.276 L652.644,222.84 Z M662.248,230.792 C663.461339,229.205325 665.057323,228.412 667.036,228.412 C669.369345,228.412 670.918663,229.317324 671.684,231.128 C671.945335,231.76267 672.076,232.509329 672.076,233.368 L672.076,243 L669.444,243 L669.444,233.844 C669.444,232.630661 669.164003,231.772003 668.604,231.268 C668.043997,230.763997 667.316004,230.512 666.42,230.512 C665.411995,230.512 664.525337,230.894663 663.76,231.66 C662.994663,232.425337 662.612,233.367994 662.612,234.488 L662.612,243 L659.98,243 L659.98,228.692 L661.884,228.692 L662.248,230.792 Z M681.26,241.236 C681.745336,241.236 682.323997,241.096001 682.996,240.816 L682.996,242.776 C682.323997,243.112002 681.456005,243.28 680.392,243.28 C679.309328,243.28 678.47867,242.96267 677.9,242.328 C677.32133,241.69333 677.032,240.648007 677.032,239.192 L677.032,230.792 L675.464,230.792 L675.464,228.692 L677.116,228.692 L678.012,224.128 L679.664,224.128 L679.664,228.692 L682.996,228.692 L682.996,230.792 L679.664,230.792 L679.664,239.332 C679.664,240.396005 679.999997,241.002666 680.672,241.152 C680.858668,241.208 681.054666,241.236 681.26,241.236 L681.26,241.236 Z M695.148,237.652 C695.148,238.678672 695.49333,239.457997 696.184,239.99 C696.87467,240.522003 697.863994,240.788 699.152,240.788 C700.42134,240.788 701.438663,240.526669 702.204,240.004 C702.969337,239.481331 703.352,238.669339 703.352,237.568 C703.352,236.447994 702.913338,235.626669 702.036,235.104 C701.326663,234.693331 700.328006,234.488 699.04,234.488 L696.94,234.488 L696.94,231.968 L699.096,231.968 C700.813342,231.968 701.979997,231.408006 702.596,230.288 C702.801334,229.914665 702.904,229.466669 702.904,228.944 C702.904,228.421331 702.801334,227.973335 702.596,227.6 C702.390666,227.226665 702.110668,226.918668 701.756,226.676 C701.12133,226.227998 700.253339,226.004 699.152,226.004 C697.527992,226.004 696.436003,226.563994 695.876,227.684 C695.689332,228.057335 695.596,228.486664 695.596,228.972 L695.596,229.224 L692.852,229.224 L692.852,228.72 C692.852,227.151992 693.449327,225.892005 694.644,224.94 C695.857339,223.987995 697.359991,223.512 699.152,223.512 L699.404,223.512 C701.214676,223.512 702.698661,223.978662 703.856,224.912 C705.050673,225.901338 705.648,227.170659 705.648,228.72 C705.648,229.858672 705.35867,230.75933 704.78,231.422 C704.20133,232.08467 703.473338,232.621331 702.596,233.032 L702.624,233.116 C703.632005,233.433335 704.462663,233.979329 705.116,234.754 C705.769337,235.528671 706.096,236.559994 706.096,237.848 C706.096,239.453341 705.46134,240.759995 704.192,241.768 C702.941327,242.776005 701.345343,243.28 699.404,243.28 L699.068,243.28 C696.977323,243.28 695.334673,242.748005 694.14,241.684 C692.982661,240.675995 692.404,239.304009 692.404,237.568 L692.404,237.344 L695.148,237.344 L695.148,237.652 Z" id="Sprint-3" fill="#FFFFFF" mask="url(#mask-2)"></path>
            <path d="M433.616,236.98 L433.588,237.568 C433.588,238.669339 434.003329,239.481331 434.834,240.004 C435.664671,240.526669 436.779993,240.788 438.18,240.788 C439.580007,240.788 440.685996,240.531336 441.498,240.018 C442.310004,239.504664 442.716,238.800004 442.716,237.904 C442.716,237.007996 442.436003,236.350002 441.876,235.93 C441.315997,235.509998 440.611338,235.169335 439.762,234.908 C438.912662,234.646665 437.993338,234.404001 437.004,234.18 C436.014662,233.955999 435.095338,233.638669 434.246,233.228 C433.396662,232.817331 432.692003,232.26667 432.132,231.576 C431.571997,230.88533 431.292,230.017339 431.292,228.972 C431.292,227.926661 431.473998,227.077337 431.838,226.424 C432.202002,225.770663 432.691997,225.229335 433.308,224.8 C434.521339,223.941329 436.145323,223.512 438.18,223.512 C440.158677,223.512 441.754661,223.931996 442.968,224.772 C444.29334,225.686671 444.956,227.058658 444.956,228.888 L444.956,229.224 L442.212,229.224 L442.212,228.804 C442.212,227.889329 441.83867,227.194002 441.092,226.718 C440.34533,226.241998 439.393339,226.004 438.236,226.004 C436.27599,226.004 434.988003,226.470662 434.372,227.404 C434.147999,227.721335 434.036,228.103998 434.036,228.552 C434.036,229.29867 434.315997,229.867998 434.876,230.26 C435.436003,230.652002 436.140662,230.978665 436.99,231.24 C437.839338,231.501335 438.758662,231.748666 439.748,231.982 C440.737338,232.215334 441.656662,232.532665 442.506,232.934 C443.355338,233.335335 444.059997,233.876663 444.62,234.558 C445.180003,235.239337 445.46,236.139994 445.46,237.26 C445.46,238.398672 445.273335,239.345996 444.9,240.102 C444.526665,240.858004 444.013337,241.469331 443.36,241.936 C442.109327,242.832004 440.373344,243.28 438.152,243.28 C434.773316,243.28 432.533339,242.253344 431.432,240.2 C431.039998,239.471996 430.844,238.585339 430.844,237.54 L430.872,236.98 L433.616,236.98 Z M451.9,241.18 L451.9,248.068 L449.268,248.068 L449.268,228.692 L451.228,228.692 C451.321334,229.046668 451.442666,229.699995 451.592,230.652 C452.656005,229.158659 454.130657,228.412 456.016,228.412 C457.714675,228.412 459.077328,228.999994 460.104,230.176 C461.242672,231.50134 461.812,233.395988 461.812,235.86 L461.812,236.168 C461.812,238.426678 461.270672,240.199994 460.188,241.488 C459.179995,242.682673 457.789342,243.28 456.016,243.28 C454.242658,243.28 452.870672,242.580007 451.9,241.18 L451.9,241.18 Z M459.18,235.832 C459.18,233.031986 458.461341,231.352003 457.024,230.792 C456.575998,230.605332 456.081336,230.512 455.54,230.512 C454.363994,230.512 453.477336,230.894663 452.88,231.66 C452.207997,232.537338 451.872,233.92799 451.872,235.832 C451.872,238.650681 452.599993,240.34933 454.056,240.928 C454.504002,241.096001 454.998664,241.18 455.54,241.18 C456.697339,241.18 457.574664,240.797337 458.172,240.032 C458.844003,239.154662 459.18,237.754676 459.18,235.832 L459.18,235.832 Z M476.26,232.892 L476.176,233.956 L473.852,233.956 L473.852,233.34 C473.852,232.686663 473.684002,232.154669 473.348,231.744 C472.731997,230.922663 471.976004,230.512 471.08,230.512 C470.090662,230.512 469.344003,230.941329 468.84,231.8 C468.429331,232.509337 468.224,233.395995 468.224,234.46 L468.224,243 L465.592,243 L465.592,228.692 L467.468,228.692 L467.86,230.82 C468.140001,229.979996 468.905327,229.298669 470.156,228.776 C470.697336,228.533332 471.322663,228.412 472.032,228.412 C472.741337,228.412 473.352664,228.528665 473.866,228.762 C474.379336,228.995335 474.813332,229.317331 475.168,229.728 C475.896004,230.549337 476.26,231.603994 476.26,232.892 L476.26,232.892 Z M479.312,243 L479.312,228.692 L481.944,228.692 L481.944,243 L479.312,243 Z M479.256,222.84 L482,222.84 L482,225.276 L479.256,225.276 L479.256,222.84 Z M488.86,230.792 C490.073339,229.205325 491.669323,228.412 493.648,228.412 C495.981345,228.412 497.530663,229.317324 498.296,231.128 C498.557335,231.76267 498.688,232.509329 498.688,233.368 L498.688,243 L496.056,243 L496.056,233.844 C496.056,232.630661 495.776003,231.772003 495.216,231.268 C494.655997,230.763997 493.928004,230.512 493.032,230.512 C492.023995,230.512 491.137337,230.894663 490.372,231.66 C489.606663,232.425337 489.224,233.367994 489.224,234.488 L489.224,243 L486.592,243 L486.592,228.692 L488.496,228.692 L488.86,230.792 Z M507.872,241.236 C508.357336,241.236 508.935997,241.096001 509.608,240.816 L509.608,242.776 C508.935997,243.112002 508.068005,243.28 507.004,243.28 C505.921328,243.28 505.09067,242.96267 504.512,242.328 C503.93333,241.69333 503.644,240.648007 503.644,239.192 L503.644,230.792 L502.076,230.792 L502.076,228.692 L503.728,228.692 L504.624,224.128 L506.276,224.128 L506.276,228.692 L509.608,228.692 L509.608,230.792 L506.276,230.792 L506.276,239.332 C506.276,240.396005 506.611997,241.002666 507.284,241.152 C507.470668,241.208 507.666666,241.236 507.872,241.236 L507.872,241.236 Z M519.352,242.328 C519.352,241.151994 519.687997,240.060005 520.36,239.052 C520.789335,238.398663 521.32133,237.838669 521.956,237.372 L527.528,233.172 C528.760006,232.201328 529.459999,231.202672 529.628,230.176 C529.684,229.858665 529.712,229.550668 529.712,229.252 C529.712,228.971999 529.665334,228.650002 529.572,228.286 C529.478666,227.921998 529.301335,227.572002 529.04,227.236 C528.367997,226.414663 527.388006,226.004 526.1,226.004 C524.494659,226.004 523.356003,226.582661 522.684,227.74 C522.291998,228.412003 522.096,229.06533 522.096,229.7 L522.096,230.092 C522.096,230.204001 522.105333,230.315999 522.124,230.428 L519.38,230.428 C519.361333,230.297333 519.352,230.204 519.352,230.148 L519.352,229.924 C519.352,228.710661 519.678663,227.544006 520.332,226.424 C520.985337,225.285328 522.021326,224.454669 523.44,223.932 C524.18667,223.651999 525.119994,223.512 526.24,223.512 C527.360006,223.512 528.321329,223.698665 529.124,224.072 C529.926671,224.445335 530.570664,224.911997 531.056,225.472 C531.989338,226.517339 532.456,227.739993 532.456,229.14 C532.456,230.316006 532.288002,231.22133 531.952,231.856 C531.335997,232.994672 530.36534,234.077328 529.04,235.104 L523.692,239.192 C523.225331,239.509335 522.884668,239.784666 522.67,240.018 C522.455332,240.251334 522.348,240.414666 522.348,240.508 L532.54,240.508 L532.54,243 L519.352,243 L519.352,242.328 Z" id="Sprint-2" fill="#FFFFFF" mask="url(#mask-2)"></path>
            <path d="M770.616,236.98 L770.588,237.568 C770.588,238.669339 771.003329,239.481331 771.834,240.004 C772.664671,240.526669 773.779993,240.788 775.18,240.788 C776.580007,240.788 777.685996,240.531336 778.498,240.018 C779.310004,239.504664 779.716,238.800004 779.716,237.904 C779.716,237.007996 779.436003,236.350002 778.876,235.93 C778.315997,235.509998 777.611338,235.169335 776.762,234.908 C775.912662,234.646665 774.993338,234.404001 774.004,234.18 C773.014662,233.955999 772.095338,233.638669 771.246,233.228 C770.396662,232.817331 769.692003,232.26667 769.132,231.576 C768.571997,230.88533 768.292,230.017339 768.292,228.972 C768.292,227.926661 768.473998,227.077337 768.838,226.424 C769.202002,225.770663 769.691997,225.229335 770.308,224.8 C771.521339,223.941329 773.145323,223.512 775.18,223.512 C777.158677,223.512 778.754661,223.931996 779.968,224.772 C781.29334,225.686671 781.956,227.058658 781.956,228.888 L781.956,229.224 L779.212,229.224 L779.212,228.804 C779.212,227.889329 778.83867,227.194002 778.092,226.718 C777.34533,226.241998 776.393339,226.004 775.236,226.004 C773.27599,226.004 771.988003,226.470662 771.372,227.404 C771.147999,227.721335 771.036,228.103998 771.036,228.552 C771.036,229.29867 771.315997,229.867998 771.876,230.26 C772.436003,230.652002 773.140662,230.978665 773.99,231.24 C774.839338,231.501335 775.758662,231.748666 776.748,231.982 C777.737338,232.215334 778.656662,232.532665 779.506,232.934 C780.355338,233.335335 781.059997,233.876663 781.62,234.558 C782.180003,235.239337 782.46,236.139994 782.46,237.26 C782.46,238.398672 782.273335,239.345996 781.9,240.102 C781.526665,240.858004 781.013337,241.469331 780.36,241.936 C779.109327,242.832004 777.373344,243.28 775.152,243.28 C771.773316,243.28 769.533339,242.253344 768.432,240.2 C768.039998,239.471996 767.844,238.585339 767.844,237.54 L767.872,236.98 L770.616,236.98 Z M788.9,241.18 L788.9,248.068 L786.268,248.068 L786.268,228.692 L788.228,228.692 C788.321334,229.046668 788.442666,229.699995 788.592,230.652 C789.656005,229.158659 791.130657,228.412 793.016,228.412 C794.714675,228.412 796.077328,228.999994 797.104,230.176 C798.242672,231.50134 798.812,233.395988 798.812,235.86 L798.812,236.168 C798.812,238.426678 798.270672,240.199994 797.188,241.488 C796.179995,242.682673 794.789342,243.28 793.016,243.28 C791.242658,243.28 789.870672,242.580007 788.9,241.18 L788.9,241.18 Z M796.18,235.832 C796.18,233.031986 795.461341,231.352003 794.024,230.792 C793.575998,230.605332 793.081336,230.512 792.54,230.512 C791.363994,230.512 790.477336,230.894663 789.88,231.66 C789.207997,232.537338 788.872,233.92799 788.872,235.832 C788.872,238.650681 789.599993,240.34933 791.056,240.928 C791.504002,241.096001 791.998664,241.18 792.54,241.18 C793.697339,241.18 794.574664,240.797337 795.172,240.032 C795.844003,239.154662 796.18,237.754676 796.18,235.832 L796.18,235.832 Z M813.26,232.892 L813.176,233.956 L810.852,233.956 L810.852,233.34 C810.852,232.686663 810.684002,232.154669 810.348,231.744 C809.731997,230.922663 808.976004,230.512 808.08,230.512 C807.090662,230.512 806.344003,230.941329 805.84,231.8 C805.429331,232.509337 805.224,233.395995 805.224,234.46 L805.224,243 L802.592,243 L802.592,228.692 L804.468,228.692 L804.86,230.82 C805.140001,229.979996 805.905327,229.298669 807.156,228.776 C807.697336,228.533332 808.322663,228.412 809.032,228.412 C809.741337,228.412 810.352664,228.528665 810.866,228.762 C811.379336,228.995335 811.813332,229.317331 812.168,229.728 C812.896004,230.549337 813.26,231.603994 813.26,232.892 L813.26,232.892 Z M816.312,243 L816.312,228.692 L818.944,228.692 L818.944,243 L816.312,243 Z M816.256,222.84 L819,222.84 L819,225.276 L816.256,225.276 L816.256,222.84 Z M825.86,230.792 C827.073339,229.205325 828.669323,228.412 830.648,228.412 C832.981345,228.412 834.530663,229.317324 835.296,231.128 C835.557335,231.76267 835.688,232.509329 835.688,233.368 L835.688,243 L833.056,243 L833.056,233.844 C833.056,232.630661 832.776003,231.772003 832.216,231.268 C831.655997,230.763997 830.928004,230.512 830.032,230.512 C829.023995,230.512 828.137337,230.894663 827.372,231.66 C826.606663,232.425337 826.224,233.367994 826.224,234.488 L826.224,243 L823.592,243 L823.592,228.692 L825.496,228.692 L825.86,230.792 Z M844.872,241.236 C845.357336,241.236 845.935997,241.096001 846.608,240.816 L846.608,242.776 C845.935997,243.112002 845.068005,243.28 844.004,243.28 C842.921328,243.28 842.09067,242.96267 841.512,242.328 C840.93333,241.69333 840.644,240.648007 840.644,239.192 L840.644,230.792 L839.076,230.792 L839.076,228.692 L840.728,228.692 L841.624,224.128 L843.276,224.128 L843.276,228.692 L846.608,228.692 L846.608,230.792 L843.276,230.792 L843.276,239.332 C843.276,240.396005 843.611997,241.002666 844.284,241.152 C844.470668,241.208 844.666666,241.236 844.872,241.236 L844.872,241.236 Z M855.792,235.748 C858.330679,231.939981 860.318659,227.861355 861.756,223.512 L864.696,223.512 C864.06133,225.808011 863.006674,228.299987 861.532,230.988 C860.374661,233.097344 859.329338,234.693328 858.396,235.776 L864.836,235.776 L864.836,230.204 C865.489337,228.93466 865.993332,227.656006 866.348,226.368 L867.58,226.368 L867.58,235.776 L870.016,235.776 L870.016,238.268 L867.58,238.268 L867.58,243 L864.836,243 L864.836,238.268 L855.792,238.268 L855.792,235.748 Z" id="Sprint-4" fill="#FFFFFF" mask="url(#mask-2)"></path>
            <path d="M943.616,236.98 L943.588,237.568 C943.588,238.669339 944.003329,239.481331 944.834,240.004 C945.664671,240.526669 946.779993,240.788 948.18,240.788 C949.580007,240.788 950.685996,240.531336 951.498,240.018 C952.310004,239.504664 952.716,238.800004 952.716,237.904 C952.716,237.007996 952.436003,236.350002 951.876,235.93 C951.315997,235.509998 950.611338,235.169335 949.762,234.908 C948.912662,234.646665 947.993338,234.404001 947.004,234.18 C946.014662,233.955999 945.095338,233.638669 944.246,233.228 C943.396662,232.817331 942.692003,232.26667 942.132,231.576 C941.571997,230.88533 941.292,230.017339 941.292,228.972 C941.292,227.926661 941.473998,227.077337 941.838,226.424 C942.202002,225.770663 942.691997,225.229335 943.308,224.8 C944.521339,223.941329 946.145323,223.512 948.18,223.512 C950.158677,223.512 951.754661,223.931996 952.968,224.772 C954.29334,225.686671 954.956,227.058658 954.956,228.888 L954.956,229.224 L952.212,229.224 L952.212,228.804 C952.212,227.889329 951.83867,227.194002 951.092,226.718 C950.34533,226.241998 949.393339,226.004 948.236,226.004 C946.27599,226.004 944.988003,226.470662 944.372,227.404 C944.147999,227.721335 944.036,228.103998 944.036,228.552 C944.036,229.29867 944.315997,229.867998 944.876,230.26 C945.436003,230.652002 946.140662,230.978665 946.99,231.24 C947.839338,231.501335 948.758662,231.748666 949.748,231.982 C950.737338,232.215334 951.656662,232.532665 952.506,232.934 C953.355338,233.335335 954.059997,233.876663 954.62,234.558 C955.180003,235.239337 955.46,236.139994 955.46,237.26 C955.46,238.398672 955.273335,239.345996 954.9,240.102 C954.526665,240.858004 954.013337,241.469331 953.36,241.936 C952.109327,242.832004 950.373344,243.28 948.152,243.28 C944.773316,243.28 942.533339,242.253344 941.432,240.2 C941.039998,239.471996 940.844,238.585339 940.844,237.54 L940.872,236.98 L943.616,236.98 Z M961.9,241.18 L961.9,248.068 L959.268,248.068 L959.268,228.692 L961.228,228.692 C961.321334,229.046668 961.442666,229.699995 961.592,230.652 C962.656005,229.158659 964.130657,228.412 966.016,228.412 C967.714675,228.412 969.077328,228.999994 970.104,230.176 C971.242672,231.50134 971.812,233.395988 971.812,235.86 L971.812,236.168 C971.812,238.426678 971.270672,240.199994 970.188,241.488 C969.179995,242.682673 967.789342,243.28 966.016,243.28 C964.242658,243.28 962.870672,242.580007 961.9,241.18 L961.9,241.18 Z M969.18,235.832 C969.18,233.031986 968.461341,231.352003 967.024,230.792 C966.575998,230.605332 966.081336,230.512 965.54,230.512 C964.363994,230.512 963.477336,230.894663 962.88,231.66 C962.207997,232.537338 961.872,233.92799 961.872,235.832 C961.872,238.650681 962.599993,240.34933 964.056,240.928 C964.504002,241.096001 964.998664,241.18 965.54,241.18 C966.697339,241.18 967.574664,240.797337 968.172,240.032 C968.844003,239.154662 969.18,237.754676 969.18,235.832 L969.18,235.832 Z M986.26,232.892 L986.176,233.956 L983.852,233.956 L983.852,233.34 C983.852,232.686663 983.684002,232.154669 983.348,231.744 C982.731997,230.922663 981.976004,230.512 981.08,230.512 C980.090662,230.512 979.344003,230.941329 978.84,231.8 C978.429331,232.509337 978.224,233.395995 978.224,234.46 L978.224,243 L975.592,243 L975.592,228.692 L977.468,228.692 L977.86,230.82 C978.140001,229.979996 978.905327,229.298669 980.156,228.776 C980.697336,228.533332 981.322663,228.412 982.032,228.412 C982.741337,228.412 983.352664,228.528665 983.866,228.762 C984.379336,228.995335 984.813332,229.317331 985.168,229.728 C985.896004,230.549337 986.26,231.603994 986.26,232.892 L986.26,232.892 Z M989.312,243 L989.312,228.692 L991.944,228.692 L991.944,243 L989.312,243 Z M989.256,222.84 L992,222.84 L992,225.276 L989.256,225.276 L989.256,222.84 Z M998.86,230.792 C1000.07334,229.205325 1001.66932,228.412 1003.648,228.412 C1005.98135,228.412 1007.53066,229.317324 1008.296,231.128 C1008.55733,231.76267 1008.688,232.509329 1008.688,233.368 L1008.688,243 L1006.056,243 L1006.056,233.844 C1006.056,232.630661 1005.776,231.772003 1005.216,231.268 C1004.656,230.763997 1003.928,230.512 1003.032,230.512 C1002.02399,230.512 1001.13734,230.894663 1000.372,231.66 C999.606663,232.425337 999.224,233.367994 999.224,234.488 L999.224,243 L996.592,243 L996.592,228.692 L998.496,228.692 L998.86,230.792 Z M1017.872,241.236 C1018.35734,241.236 1018.936,241.096001 1019.608,240.816 L1019.608,242.776 C1018.936,243.112002 1018.06801,243.28 1017.004,243.28 C1015.92133,243.28 1015.09067,242.96267 1014.512,242.328 C1013.93333,241.69333 1013.644,240.648007 1013.644,239.192 L1013.644,230.792 L1012.076,230.792 L1012.076,228.692 L1013.728,228.692 L1014.624,224.128 L1016.276,224.128 L1016.276,228.692 L1019.608,228.692 L1019.608,230.792 L1016.276,230.792 L1016.276,239.332 C1016.276,240.396005 1016.612,241.002666 1017.284,241.152 C1017.47067,241.208 1017.66667,241.236 1017.872,241.236 L1017.872,241.236 Z M1028.792,235.748 C1031.33068,231.939981 1033.31866,227.861355 1034.756,223.512 L1037.696,223.512 C1037.06133,225.808011 1036.00667,228.299987 1034.532,230.988 C1033.37466,233.097344 1032.32934,234.693328 1031.396,235.776 L1037.836,235.776 L1037.836,230.204 C1038.48934,228.93466 1038.99333,227.656006 1039.348,226.368 L1040.58,226.368 L1040.58,235.776 L1043.016,235.776 L1043.016,238.268 L1040.58,238.268 L1040.58,243 L1037.836,243 L1037.836,238.268 L1028.792,238.268 L1028.792,235.748 Z" id="Sprint-4-Copy" fill="#FFFFFF" mask="url(#mask-2)"></path>
            <path d="M609.436,383.466 L609.436,396.6 L607.28,396.6 L607.28,383.466 L602.55,383.466 L602.55,381.508 L614.166,381.508 L614.166,383.466 L609.436,383.466 Z M617.906,391.452 C617.95,393.182676 618.529328,394.326664 619.644,394.884 C620.025335,395.074668 620.50933,395.17 621.096,395.17 C621.668003,395.17 622.137331,395.060001 622.504,394.84 C622.870668,394.619999 623.149332,394.363335 623.34,394.07 C623.648002,393.600665 623.802,393.05067 623.802,392.42 L625.76,392.42 C625.76,393.754674 625.320004,394.82533 624.44,395.632 C623.559996,396.424004 622.430674,396.82 621.052,396.82 L620.964,396.82 C619.423992,396.82 618.192005,396.336005 617.268,395.368 C616.314662,394.341329 615.838,392.955342 615.838,391.21 L615.838,390.77 C615.838,389.024658 616.314662,387.638672 617.268,386.612 C618.162671,385.629329 619.372659,385.138 620.898,385.138 L621.052,385.138 C622.44534,385.138 623.574662,385.563329 624.44,386.414 C625.320004,387.264671 625.76,388.423326 625.76,389.89 L625.76,391.452 L617.906,391.452 Z M620.942,386.788 C620.120663,386.788 619.446003,387.040998 618.918,387.547 C618.389997,388.053003 618.067334,388.819329 617.95,389.846 L623.714,389.846 L623.714,389.582 C623.714,388.701996 623.442669,388.005336 622.9,387.492 C622.401331,387.022665 621.748671,386.788 620.942,386.788 L620.942,386.788 Z M627.938,393.564 L627.96,393.08 L630.006,393.08 L630.006,393.3 C630.006,394.224005 630.592661,394.810666 631.766,395.06 C632.118002,395.133334 632.579997,395.17 633.152,395.17 C633.724003,395.17 634.266664,395.034335 634.78,394.763 C635.293336,394.491666 635.55,394.10667 635.55,393.608 C635.55,393.109331 635.370335,392.746335 635.011,392.519 C634.651665,392.291666 634.200669,392.115668 633.658,391.991 C633.115331,391.866333 632.532336,391.752668 631.909,391.65 C631.285664,391.547333 630.702669,391.382335 630.16,391.155 C629.617331,390.927666 629.166335,390.612336 628.807,390.209 C628.447665,389.805665 628.268,389.230004 628.268,388.482 C628.268,387.440662 628.678663,386.623003 629.5,386.029 C630.321337,385.434997 631.443326,385.138 632.866,385.138 L633.064,385.138 C634.36934,385.138 635.417996,385.438664 636.21,386.04 C636.97267,386.62667 637.354,387.345329 637.354,388.196 L637.332,388.592 L635.286,388.592 L635.286,388.394 C635.286,387.323328 634.457342,386.788 632.8,386.788 C631.465327,386.788 630.673335,387.117997 630.424,387.778 C630.365333,387.954001 630.336,388.115333 630.336,388.262 C630.336,388.672669 630.515665,388.980666 630.875,389.186 C631.234335,389.391335 631.685331,389.552666 632.228,389.67 C632.770669,389.787334 633.353664,389.901 633.977,390.011 C634.600336,390.121001 635.183331,390.293333 635.726,390.528 C636.98734,391.056003 637.618,391.950661 637.618,393.212 C637.618,394.488007 637.156005,395.426664 636.232,396.028 C635.410663,396.556003 634.281341,396.82 632.844,396.82 L632.514,396.82 C631.017993,396.82 629.866671,396.48267 629.06,395.808 C628.311996,395.191997 627.938,394.444005 627.938,393.564 L627.938,393.564 Z M644.196,395.214 C644.577335,395.214 645.031997,395.104001 645.56,394.884 L645.56,396.424 C645.031997,396.688002 644.350004,396.82 643.514,396.82 C642.663329,396.82 642.010669,396.57067 641.556,396.072 C641.101331,395.573331 640.874,394.752006 640.874,393.608 L640.874,387.008 L639.642,387.008 L639.642,385.358 L640.94,385.358 L641.644,381.772 L642.942,381.772 L642.942,385.358 L645.56,385.358 L645.56,387.008 L642.942,387.008 L642.942,393.718 C642.942,394.554005 643.205997,395.030666 643.734,395.148 C643.880667,395.192001 644.034666,395.214 644.196,395.214 L644.196,395.214 Z M649.498,391.452 C649.542,393.182676 650.121328,394.326664 651.236,394.884 C651.617335,395.074668 652.10133,395.17 652.688,395.17 C653.260003,395.17 653.729331,395.060001 654.096,394.84 C654.462668,394.619999 654.741332,394.363335 654.932,394.07 C655.240002,393.600665 655.394,393.05067 655.394,392.42 L657.352,392.42 C657.352,393.754674 656.912004,394.82533 656.032,395.632 C655.151996,396.424004 654.022674,396.82 652.644,396.82 L652.556,396.82 C651.015992,396.82 649.784005,396.336005 648.86,395.368 C647.906662,394.341329 647.43,392.955342 647.43,391.21 L647.43,390.77 C647.43,389.024658 647.906662,387.638672 648.86,386.612 C649.754671,385.629329 650.964659,385.138 652.49,385.138 L652.644,385.138 C654.03734,385.138 655.166662,385.563329 656.032,386.414 C656.912004,387.264671 657.352,388.423326 657.352,389.89 L657.352,391.452 L649.498,391.452 Z M652.534,386.788 C651.712663,386.788 651.038003,387.040998 650.51,387.547 C649.981997,388.053003 649.659334,388.819329 649.542,389.846 L655.306,389.846 L655.306,389.582 C655.306,388.701996 655.034669,388.005336 654.492,387.492 C653.993331,387.022665 653.340671,386.788 652.534,386.788 L652.534,386.788 Z M662.148,387.008 C663.101338,385.761327 664.355326,385.138 665.91,385.138 C667.743343,385.138 668.960664,385.849327 669.562,387.272 C669.767334,387.77067 669.87,388.35733 669.87,389.032 L669.87,396.6 L667.802,396.6 L667.802,389.406 C667.802,388.452662 667.582002,387.778002 667.142,387.382 C666.701998,386.985998 666.130004,386.788 665.426,386.788 C664.633996,386.788 663.937336,387.088664 663.336,387.69 C662.734664,388.291337 662.434,389.031996 662.434,389.912 L662.434,396.6 L660.366,396.6 L660.366,385.358 L661.862,385.358 L662.148,387.008 Z M609.26,423.242001 C611.19601,423.242001 612.45733,422.369343 613.044,420.624001 C613.249334,420.022664 613.352,419.289338 613.352,418.424001 L613.352,416.884001 C613.352,414.449322 612.530675,412.93867 610.888,412.352001 C610.389331,412.161333 609.84667,412.066001 609.26,412.066001 L606.18,412.066001 L606.18,423.242001 L609.26,423.242001 Z M604.024,425.200001 L604.024,410.108001 L609.26,410.108001 C611.078676,410.108001 612.545328,410.665329 613.66,411.780001 C614.892006,412.982673 615.508,414.68399 615.508,416.884001 L615.508,418.424001 C615.508,420.624012 614.892006,422.325328 613.66,423.528001 C612.545328,424.642673 611.078676,425.200001 609.26,425.200001 L604.024,425.200001 Z M620.04,420.052001 C620.084,421.782676 620.663328,422.926665 621.778,423.484001 C622.159335,423.674668 622.64333,423.770001 623.23,423.770001 C623.802003,423.770001 624.271331,423.660002 624.638,423.440001 C625.004668,423.22 625.283332,422.963336 625.474,422.670001 C625.782002,422.200665 625.936,421.650671 625.936,421.020001 L627.894,421.020001 C627.894,422.354674 627.454004,423.42533 626.574,424.232001 C625.693996,425.024005 624.564674,425.420001 623.186,425.420001 L623.098,425.420001 C621.557992,425.420001 620.326005,424.936006 619.402,423.968001 C618.448662,422.941329 617.972,421.555343 617.972,419.810001 L617.972,419.370001 C617.972,417.624659 618.448662,416.238673 619.402,415.212001 C620.296671,414.229329 621.506659,413.738001 623.032,413.738001 L623.186,413.738001 C624.57934,413.738001 625.708662,414.16333 626.574,415.014001 C627.454004,415.864672 627.894,417.023327 627.894,418.490001 L627.894,420.052001 L620.04,420.052001 Z M623.076,415.388001 C622.254663,415.388001 621.580003,415.640998 621.052,416.147001 C620.523997,416.653003 620.201334,417.419329 620.084,418.446001 L625.848,418.446001 L625.848,418.182001 C625.848,417.301996 625.576669,416.605337 625.034,416.092001 C624.535331,415.622665 623.882671,415.388001 623.076,415.388001 L623.076,415.388001 Z M630.072,422.164001 L630.094,421.680001 L632.14,421.680001 L632.14,421.900001 C632.14,422.824005 632.726661,423.410666 633.9,423.660001 C634.252002,423.733334 634.713997,423.770001 635.286,423.770001 C635.858003,423.770001 636.400664,423.634335 636.914,423.363001 C637.427336,423.091666 637.684,422.70667 637.684,422.208001 C637.684,421.709332 637.504335,421.346335 637.145,421.119001 C636.785665,420.891666 636.334669,420.715668 635.792,420.591001 C635.249331,420.466333 634.666336,420.352668 634.043,420.250001 C633.419664,420.147334 632.836669,419.982335 632.294,419.755001 C631.751331,419.527666 631.300335,419.212336 630.941,418.809001 C630.581665,418.405665 630.402,417.830005 630.402,417.082001 C630.402,416.040662 630.812663,415.223004 631.634,414.629001 C632.455337,414.034998 633.577326,413.738001 635,413.738001 L635.198,413.738001 C636.50334,413.738001 637.551996,414.038664 638.344,414.640001 C639.10667,415.22667 639.488,415.94533 639.488,416.796001 L639.466,417.192001 L637.42,417.192001 L637.42,416.994001 C637.42,415.923329 636.591342,415.388001 634.934,415.388001 C633.599327,415.388001 632.807335,415.717997 632.558,416.378001 C632.499333,416.554002 632.47,416.715333 632.47,416.862001 C632.47,417.272669 632.649665,417.580666 633.009,417.786001 C633.368335,417.991335 633.819331,418.152667 634.362,418.270001 C634.904669,418.387335 635.487664,418.501 636.111,418.611001 C636.734336,418.721001 637.317331,418.893333 637.86,419.128001 C639.12134,419.656003 639.752,420.550661 639.752,421.812001 C639.752,423.088007 639.290005,424.026664 638.366,424.628001 C637.544663,425.156003 636.415341,425.420001 634.978,425.420001 L634.648,425.420001 C633.151993,425.420001 632.000671,425.082671 631.194,424.408001 C630.445996,423.791998 630.072,423.044005 630.072,422.164001 L630.072,422.164001 Z M642.656,425.200001 L642.656,413.958001 L644.724,413.958001 L644.724,425.200001 L642.656,425.200001 Z M642.612,409.360001 L644.768,409.360001 L644.768,411.274001 L642.612,411.274001 L642.612,409.360001 Z M656.384,414.860001 C657.117337,415.490671 657.484,416.297329 657.484,417.280001 C657.484,418.292006 657.117337,419.120664 656.384,419.766001 C655.606663,420.455338 654.499341,420.800001 653.062,420.800001 L651.566,420.800001 C651.125998,420.800001 650.759335,420.913666 650.466,421.141001 C650.172665,421.368335 650.026,421.657999 650.026,422.010001 C650.026,422.362003 650.165332,422.640666 650.444,422.846001 C650.722668,423.051335 651.096664,423.154001 651.566,423.154001 L655.812,423.154001 C656.692004,423.154001 657.388664,423.425331 657.902,423.968001 C658.415336,424.51067 658.672,425.199997 658.672,426.036001 C658.672,427.077339 658.268671,427.898664 657.462,428.500001 C656.713996,429.057337 655.724006,429.336001 654.492,429.336001 L650.07,429.336001 C649.30733,429.336001 648.662003,429.057337 648.134,428.500001 C647.605997,427.942665 647.342,427.341337 647.342,426.696001 C647.342,426.065331 647.495998,425.52267 647.804,425.068001 C648.112002,424.613332 648.507998,424.283335 648.992,424.078001 C648.31733,423.652665 647.98,423.044005 647.98,422.252001 C647.98,421.709331 648.137665,421.251003 648.453,420.877001 C648.768335,420.502999 649.197331,420.220668 649.74,420.030001 C648.757328,419.472665 648.266,418.556007 648.266,417.280001 C648.266,416.238662 648.632663,415.402671 649.366,414.772001 C650.158004,414.082664 651.301993,413.738001 652.798,413.738001 L652.886,413.738001 C653.722004,413.738001 654.469997,413.862666 655.13,414.112001 C656.171339,413.598665 656.765333,412.872672 656.912,411.934001 L658.672,411.934001 C658.672,412.667338 658.474002,413.290665 658.078,413.804001 C657.681998,414.317337 657.132004,414.647333 656.428,414.794001 L656.384,414.860001 Z M650.312,417.280001 C650.312,417.969338 650.557664,418.453333 651.049,418.732001 C651.540336,419.010669 652.14533,419.150001 652.864,419.150001 C653.58267,419.150001 654.191331,419.010669 654.69,418.732001 C655.188669,418.453333 655.438,417.969338 655.438,417.280001 C655.438,416.590664 655.188669,416.103002 654.69,415.817001 C654.191331,415.530999 653.58267,415.388001 652.864,415.388001 C652.14533,415.388001 651.540336,415.530999 651.049,415.817001 C650.557664,416.103002 650.312,416.590664 650.312,417.280001 L650.312,417.280001 Z M654.91,427.686001 C655.379336,427.686001 655.782665,427.550335 656.12,427.279001 C656.457335,427.007666 656.626,426.696003 656.626,426.344001 C656.626,425.991999 656.505001,425.702335 656.263,425.475001 C656.020999,425.247666 655.665336,425.134001 655.196,425.134001 L650.664,425.134001 C650.311998,425.134001 650.011335,425.258666 649.762,425.508001 C649.512665,425.757335 649.388,426.057999 649.388,426.410001 C649.388,426.762003 649.512665,427.062666 649.762,427.312001 C650.011335,427.561335 650.311998,427.686001 650.664,427.686001 L654.91,427.686001 Z M662.654,415.608001 C663.607338,414.361328 664.861326,413.738001 666.416,413.738001 C668.249343,413.738001 669.466664,414.449327 670.068,415.872001 C670.273334,416.37067 670.376,416.957331 670.376,417.632001 L670.376,425.200001 L668.308,425.200001 L668.308,418.006001 C668.308,417.052663 668.088002,416.378003 667.648,415.982001 C667.207998,415.585999 666.636004,415.388001 665.932,415.388001 C665.139996,415.388001 664.443336,415.688664 663.842,416.290001 C663.240664,416.891337 662.94,417.631996 662.94,418.512001 L662.94,425.200001 L660.872,425.200001 L660.872,413.958001 L662.368,413.958001 L662.654,415.608001 Z M682.146,410.152001 C682.747336,409.976 683.319331,409.888001 683.862,409.888001 C684.404669,409.888001 684.917998,409.939334 685.402,410.042001 L685.402,412.044001 C684.976665,411.912 684.566002,411.846001 684.17,411.846001 C683.759331,411.846001 683.374335,411.893667 683.015,411.989001 C682.655665,412.084335 682.344001,412.22 682.08,412.396001 C681.507997,412.806669 681.222,413.385997 681.222,414.134001 C681.222,414.794004 681.493331,415.358665 682.036,415.828001 C682.608003,416.28267 683.326662,416.510001 684.192,416.510001 L686.898,416.510001 L687.514,413.364001 L689.01,413.364001 L689.01,416.510001 L691.386,416.510001 L691.386,418.468001 L689.01,418.468001 L689.01,425.200001 L684.06,425.200001 C682.549326,425.200001 681.302672,424.862671 680.32,424.188001 C679.263995,423.439997 678.736,422.362008 678.736,420.954001 C678.736,419.149992 679.659991,417.969337 681.508,417.412001 L681.574,417.368001 C680.869996,417.059999 680.279669,416.64567 679.803,416.125001 C679.326331,415.604331 679.088,414.955338 679.088,414.178001 C679.088,413.400664 679.223665,412.755337 679.495,412.242001 C679.766335,411.728665 680.125664,411.296003 680.573,410.944001 C681.020336,410.591999 681.544664,410.328002 682.146,410.152001 L682.146,410.152001 Z M684.346,418.468001 C683.245994,418.468001 682.395336,418.665999 681.794,419.062001 C681.192664,419.458003 680.892,420.051997 680.892,420.844001 C680.892,421.665338 681.22933,422.281332 681.904,422.692001 C682.520003,423.058669 683.341328,423.242001 684.368,423.242001 L686.854,423.242001 L686.854,418.468001 L684.346,418.468001 Z M705.972,420.052001 C704.094657,420.052001 702.84067,420.151 702.21,420.349001 C701.57933,420.547002 701.139335,420.781666 700.89,421.053001 C700.640665,421.324335 700.516,421.723998 700.516,422.252001 C700.516,423.264006 701.285992,423.770001 702.826,423.770001 C703.647337,423.770001 704.37333,423.484004 705.004,422.912001 C705.649337,422.310664 705.972,421.504006 705.972,420.492001 L705.972,420.052001 Z M706.06,423.396001 C705.165329,424.745341 703.852675,425.420001 702.122,425.420001 C700.420658,425.420001 699.298669,424.892006 698.756,423.836001 C698.550666,423.410665 698.448,422.824005 698.448,422.076001 C698.448,421.327997 698.631331,420.708337 698.998,420.217001 C699.364668,419.725665 699.877997,419.348002 700.538,419.084001 C701.594005,418.658665 703.405321,418.446001 705.972,418.446001 L705.972,417.412001 C705.972,416.839998 705.869334,416.429335 705.664,416.180001 C705.209331,415.651998 704.454005,415.388001 703.398,415.388001 C702.371328,415.388001 701.652669,415.637332 701.242,416.136001 C701.007332,416.429336 700.89,416.766666 700.89,417.148001 L700.89,417.412001 L698.866,417.412001 C698.836667,417.265333 698.822,417.023336 698.822,416.686001 C698.822,416.363332 698.939332,416.004003 699.174,415.608001 C699.408668,415.211999 699.731331,414.874669 700.142,414.596001 C701.022004,414.023998 702.121993,413.738001 703.442,413.738001 L703.64,413.738001 C705.136007,413.738001 706.24333,414.034998 706.962,414.629001 C707.68067,415.223004 708.04,416.069995 708.04,417.170001 L708.04,423.000001 C708.04,423.278669 708.102333,423.476667 708.227,423.594001 C708.351667,423.711335 708.494666,423.770001 708.656,423.770001 C709.008002,423.770001 709.345332,423.667335 709.668,423.462001 L709.668,424.980001 C709.183998,425.273336 708.619337,425.420001 707.974,425.420001 C707.313997,425.420001 706.837335,425.229336 706.544,424.848001 C706.250665,424.466666 706.089333,423.98267 706.06,423.396001 L706.06,423.396001 Z M713.87,415.608001 C714.823338,414.361328 716.077326,413.738001 717.632,413.738001 C719.465343,413.738001 720.682664,414.449327 721.284,415.872001 C721.489334,416.37067 721.592,416.957331 721.592,417.632001 L721.592,425.200001 L719.524,425.200001 L719.524,418.006001 C719.524,417.052663 719.304002,416.378003 718.864,415.982001 C718.423998,415.585999 717.852004,415.388001 717.148,415.388001 C716.355996,415.388001 715.659336,415.688664 715.058,416.290001 C714.456664,416.891337 714.156,417.631996 714.156,418.512001 L714.156,425.200001 L712.088,425.200001 L712.088,413.958001 L713.584,413.958001 L713.87,415.608001 Z M731.888,420.052001 C730.010657,420.052001 728.75667,420.151 728.126,420.349001 C727.49533,420.547002 727.055335,420.781666 726.806,421.053001 C726.556665,421.324335 726.432,421.723998 726.432,422.252001 C726.432,423.264006 727.201992,423.770001 728.742,423.770001 C729.563337,423.770001 730.28933,423.484004 730.92,422.912001 C731.565337,422.310664 731.888,421.504006 731.888,420.492001 L731.888,420.052001 Z M731.976,423.396001 C731.081329,424.745341 729.768675,425.420001 728.038,425.420001 C726.336658,425.420001 725.214669,424.892006 724.672,423.836001 C724.466666,423.410665 724.364,422.824005 724.364,422.076001 C724.364,421.327997 724.547331,420.708337 724.914,420.217001 C725.280668,419.725665 725.793997,419.348002 726.454,419.084001 C727.510005,418.658665 729.32132,418.446001 731.888,418.446001 L731.888,417.412001 C731.888,416.839998 731.785334,416.429335 731.58,416.180001 C731.125331,415.651998 730.370005,415.388001 729.314,415.388001 C728.287328,415.388001 727.568669,415.637332 727.158,416.136001 C726.923332,416.429336 726.806,416.766666 726.806,417.148001 L726.806,417.412001 L724.782,417.412001 C724.752667,417.265333 724.738,417.023336 724.738,416.686001 C724.738,416.363332 724.855332,416.004003 725.09,415.608001 C725.324668,415.211999 725.647331,414.874669 726.058,414.596001 C726.938004,414.023998 728.037993,413.738001 729.358,413.738001 L729.556,413.738001 C731.052007,413.738001 732.15933,414.034998 732.878,414.629001 C733.59667,415.223004 733.956,416.069995 733.956,417.170001 L733.956,423.000001 C733.956,423.278669 734.018333,423.476667 734.143,423.594001 C734.267667,423.711335 734.410666,423.770001 734.572,423.770001 C734.924002,423.770001 735.261332,423.667335 735.584,423.462001 L735.584,424.980001 C735.099998,425.273336 734.535337,425.420001 733.89,425.420001 C733.229997,425.420001 732.753335,425.229336 732.46,424.848001 C732.166665,424.466666 732.005333,423.98267 731.976,423.396001 L731.976,423.396001 Z M738.092,425.200001 L738.092,409.360001 L740.16,409.360001 L740.16,425.200001 L738.092,425.200001 Z M743.108,427.290001 C743.562669,427.495335 743.929332,427.598001 744.208,427.598001 C744.486668,427.598001 744.721332,427.572334 744.912,427.521001 C745.102668,427.469667 745.300666,427.356002 745.506,427.180001 C746.004669,426.754665 746.407998,426.058006 746.716,425.090001 L742.338,413.958001 L744.538,413.958001 L747.772,422.252001 L747.86,422.252001 L751.05,413.958001 L753.074,413.958001 L748.872,424.760001 C748.255997,426.270675 747.742669,427.282665 747.332,427.796001 C746.921331,428.309337 746.510669,428.687 746.1,428.929001 C745.689331,429.171002 745.205336,429.292001 744.648,429.292001 C744.075997,429.292001 743.562669,429.189335 743.108,428.984001 L743.108,427.290001 Z M754.328,422.164001 L754.35,421.680001 L756.396,421.680001 L756.396,421.900001 C756.396,422.824005 756.982661,423.410666 758.156,423.660001 C758.508002,423.733334 758.969997,423.770001 759.542,423.770001 C760.114003,423.770001 760.656664,423.634335 761.17,423.363001 C761.683336,423.091666 761.94,422.70667 761.94,422.208001 C761.94,421.709332 761.760335,421.346335 761.401,421.119001 C761.041665,420.891666 760.590669,420.715668 760.048,420.591001 C759.505331,420.466333 758.922336,420.352668 758.299,420.250001 C757.675664,420.147334 757.092669,419.982335 756.55,419.755001 C756.007331,419.527666 755.556335,419.212336 755.197,418.809001 C754.837665,418.405665 754.658,417.830005 754.658,417.082001 C754.658,416.040662 755.068663,415.223004 755.89,414.629001 C756.711337,414.034998 757.833326,413.738001 759.256,413.738001 L759.454,413.738001 C760.75934,413.738001 761.807996,414.038664 762.6,414.640001 C763.36267,415.22667 763.744,415.94533 763.744,416.796001 L763.722,417.192001 L761.676,417.192001 L761.676,416.994001 C761.676,415.923329 760.847342,415.388001 759.19,415.388001 C757.855327,415.388001 757.063335,415.717997 756.814,416.378001 C756.755333,416.554002 756.726,416.715333 756.726,416.862001 C756.726,417.272669 756.905665,417.580666 757.265,417.786001 C757.624335,417.991335 758.075331,418.152667 758.618,418.270001 C759.160669,418.387335 759.743664,418.501 760.367,418.611001 C760.990336,418.721001 761.573331,418.893333 762.116,419.128001 C763.37734,419.656003 764.008,420.550661 764.008,421.812001 C764.008,423.088007 763.546005,424.026664 762.622,424.628001 C761.800663,425.156003 760.671341,425.420001 759.234,425.420001 L758.904,425.420001 C757.407993,425.420001 756.256671,425.082671 755.45,424.408001 C754.701996,423.791998 754.328,423.044005 754.328,422.164001 L754.328,422.164001 Z M768.276,420.052001 C768.32,421.782676 768.899328,422.926665 770.014,423.484001 C770.395335,423.674668 770.87933,423.770001 771.466,423.770001 C772.038003,423.770001 772.507331,423.660002 772.874,423.440001 C773.240668,423.22 773.519332,422.963336 773.71,422.670001 C774.018002,422.200665 774.172,421.650671 774.172,421.020001 L776.13,421.020001 C776.13,422.354674 775.690004,423.42533 774.81,424.232001 C773.929996,425.024005 772.800674,425.420001 771.422,425.420001 L771.334,425.420001 C769.793992,425.420001 768.562005,424.936006 767.638,423.968001 C766.684662,422.941329 766.208,421.555343 766.208,419.810001 L766.208,419.370001 C766.208,417.624659 766.684662,416.238673 767.638,415.212001 C768.532671,414.229329 769.742659,413.738001 771.268,413.738001 L771.422,413.738001 C772.81534,413.738001 773.944662,414.16333 774.81,415.014001 C775.690004,415.864672 776.13,417.023327 776.13,418.490001 L776.13,420.052001 L768.276,420.052001 Z M771.312,415.388001 C770.490663,415.388001 769.816003,415.640998 769.288,416.147001 C768.759997,416.653003 768.437334,417.419329 768.32,418.446001 L774.084,418.446001 L774.084,418.182001 C774.084,417.301996 773.812669,416.605337 773.27,416.092001 C772.771331,415.622665 772.118671,415.388001 771.312,415.388001 L771.312,415.388001 Z M615.86,453.734001 C615.522665,453.866002 615.178002,453.932001 614.826,453.932001 C614.532665,453.932001 614.232002,453.888002 613.924,453.800001 C613.395997,453.653334 613.014668,453.220671 612.78,452.502001 C612.647999,452.135333 612.582,451.614671 612.582,450.940001 C612.582,450.265331 612.497668,449.675004 612.329,449.169001 C612.160332,448.662999 611.944001,448.256003 611.68,447.948001 C611.225331,447.419999 610.668003,447.156001 610.008,447.156001 L606.18,447.156001 L606.18,453.800001 L604.024,453.800001 L604.024,438.708001 L610.448,438.708001 C612.51601,438.708001 613.916663,439.397328 614.65,440.776001 C614.899335,441.245337 615.024,441.736665 615.024,442.250001 C615.024,442.778004 614.954334,443.239999 614.815,443.636001 C614.675666,444.032003 614.481335,444.398666 614.232,444.736001 C613.718664,445.440005 613.08067,445.865334 612.318,446.012001 L612.318,446.122001 C613.286005,446.48867 613.989998,447.221996 614.43,448.322001 C614.635334,448.835337 614.738,449.414665 614.738,450.060001 C614.738,450.720004 614.763666,451.218666 614.815,451.556001 C614.866334,451.893336 614.936,452.164667 615.024,452.370001 C615.200001,452.73667 615.478665,452.986 615.86,453.118001 L615.86,453.734001 Z M610.47,445.198001 C611.115337,445.198001 611.679998,444.985337 612.164,444.560001 C612.633336,444.134666 612.868,443.606671 612.868,442.976001 L612.868,442.888001 C612.868,442.257331 612.651669,441.729337 612.219,441.304001 C611.786331,440.878666 611.203337,440.666001 610.47,440.666001 L606.18,440.666001 L606.18,445.198001 L610.47,445.198001 Z M619.93,448.652001 C619.974,450.382676 620.553328,451.526665 621.668,452.084001 C622.049335,452.274669 622.53333,452.370001 623.12,452.370001 C623.692003,452.370001 624.161331,452.260002 624.528,452.040001 C624.894668,451.82 625.173332,451.563336 625.364,451.270001 C625.672002,450.800665 625.826,450.250671 625.826,449.620001 L627.784,449.620001 C627.784,450.954674 627.344004,452.02533 626.464,452.832001 C625.583996,453.624005 624.454674,454.020001 623.076,454.020001 L622.988,454.020001 C621.447992,454.020001 620.216005,453.536006 619.292,452.568001 C618.338662,451.541329 617.862,450.155343 617.862,448.410001 L617.862,447.970001 C617.862,446.224659 618.338662,444.838673 619.292,443.812001 C620.186671,442.82933 621.396659,442.338001 622.922,442.338001 L623.076,442.338001 C624.46934,442.338001 625.598662,442.76333 626.464,443.614001 C627.344004,444.464672 627.784,445.623327 627.784,447.090001 L627.784,448.652001 L619.93,448.652001 Z M622.966,443.988001 C622.144663,443.988001 621.470003,444.240999 620.942,444.747001 C620.413997,445.253004 620.091334,446.019329 619.974,447.046001 L625.738,447.046001 L625.738,446.782001 C625.738,445.901997 625.466669,445.205337 624.924,444.692001 C624.425331,444.222665 623.772671,443.988001 622.966,443.988001 L622.966,443.988001 Z M638.454,444.340001 L639.18,442.558001 L639.972,442.558001 L639.972,457.760001 L637.904,457.760001 L637.904,452.370001 C637.581332,452.82467 637.134003,453.213333 636.562,453.536001 C635.989997,453.858669 635.352004,454.020001 634.648,454.020001 C633.943996,454.020001 633.324336,453.902669 632.789,453.668001 C632.253664,453.433333 631.788002,453.081337 631.392,452.612001 C630.541329,451.599996 630.116,450.206677 630.116,448.432001 L630.116,448.190001 C630.116,446.253991 630.563329,444.76534 631.458,443.724001 C632.264671,442.799997 633.335327,442.338001 634.67,442.338001 C636.342008,442.338001 637.603329,443.005328 638.454,444.340001 L638.454,444.340001 Z M637.926,448.168001 C637.926,445.96799 637.361339,444.648003 636.232,444.208001 C635.879998,444.061334 635.491335,443.988001 635.066,443.988001 C634.141995,443.988001 633.445336,444.288665 632.976,444.890001 C632.447997,445.579338 632.184,446.671994 632.184,448.168001 C632.184,450.382679 632.755994,451.717332 633.9,452.172001 C634.252002,452.304002 634.640665,452.370001 635.066,452.370001 C635.975338,452.370001 636.664664,452.069337 637.134,451.468001 C637.662003,450.778664 637.926,449.678675 637.926,448.168001 L637.926,448.168001 Z M654.624,453.580001 C654.183998,453.873336 653.722002,454.020001 653.238,454.020001 C652.739331,454.020001 652.369001,453.968668 652.127,453.866001 C651.884999,453.763334 651.683334,453.624002 651.522,453.448001 C651.243332,453.14 651.089333,452.714671 651.06,452.172001 C650.487997,453.008005 649.674005,453.572666 648.618,453.866001 C648.265998,453.968668 647.855336,454.020001 647.386,454.020001 C646.901998,454.020001 646.418002,453.943002 645.934,453.789001 C645.449998,453.635 645.024668,453.404003 644.658,453.096001 C643.89533,452.406664 643.514,451.416674 643.514,450.126001 L643.514,442.558001 L645.582,442.558001 L645.582,449.752001 C645.582,450.705339 645.801998,451.379999 646.242,451.776001 C646.682002,452.172003 647.253996,452.370001 647.958,452.370001 C648.750004,452.370001 649.446664,452.069337 650.048,451.468001 C650.649336,450.866665 650.95,450.126006 650.95,449.246001 L650.95,442.558001 L653.018,442.558001 L653.018,451.600001 C653.018,451.878669 653.080333,452.076667 653.205,452.194001 C653.329667,452.311335 653.472666,452.370001 653.634,452.370001 C653.971335,452.370001 654.301332,452.267336 654.624,452.062001 L654.624,453.580001 Z M657.22,453.800001 L657.22,442.558001 L659.288,442.558001 L659.288,453.800001 L657.22,453.800001 Z M657.176,437.960001 L659.332,437.960001 L659.332,439.874001 L657.176,439.874001 L657.176,437.960001 Z M671.322,445.858001 L671.256,446.694001 L669.43,446.694001 L669.43,446.210001 C669.43,445.696665 669.298001,445.278669 669.034,444.956001 C668.549998,444.310665 667.956004,443.988001 667.252,443.988001 C666.474663,443.988001 665.888002,444.325331 665.492,445.000001 C665.169332,445.557337 665.008,446.253997 665.008,447.090001 L665.008,453.800001 L662.94,453.800001 L662.94,442.558001 L664.414,442.558001 L664.722,444.230001 C664.942001,443.569998 665.543328,443.03467 666.526,442.624001 C666.951335,442.433334 667.442664,442.338001 668,442.338001 C668.557336,442.338001 669.037665,442.429667 669.441,442.613001 C669.844335,442.796335 670.185332,443.049333 670.464,443.372001 C671.036003,444.017338 671.322,444.845996 671.322,445.858001 L671.322,445.858001 Z M675.084,448.652001 C675.128,450.382676 675.707328,451.526665 676.822,452.084001 C677.203335,452.274669 677.68733,452.370001 678.274,452.370001 C678.846003,452.370001 679.315331,452.260002 679.682,452.040001 C680.048668,451.82 680.327332,451.563336 680.518,451.270001 C680.826002,450.800665 680.98,450.250671 680.98,449.620001 L682.938,449.620001 C682.938,450.954674 682.498004,452.02533 681.618,452.832001 C680.737996,453.624005 679.608674,454.020001 678.23,454.020001 L678.142,454.020001 C676.601992,454.020001 675.370005,453.536006 674.446,452.568001 C673.492662,451.541329 673.016,450.155343 673.016,448.410001 L673.016,447.970001 C673.016,446.224659 673.492662,444.838673 674.446,443.812001 C675.340671,442.82933 676.550659,442.338001 678.076,442.338001 L678.23,442.338001 C679.62334,442.338001 680.752662,442.76333 681.618,443.614001 C682.498004,444.464672 682.938,445.623327 682.938,447.090001 L682.938,448.652001 L675.084,448.652001 Z M678.12,443.988001 C677.298663,443.988001 676.624003,444.240999 676.096,444.747001 C675.567997,445.253004 675.245334,446.019329 675.128,447.046001 L680.892,447.046001 L680.892,446.782001 C680.892,445.901997 680.620669,445.205337 680.078,444.692001 C679.579331,444.222665 678.926671,443.988001 678.12,443.988001 L678.12,443.988001 Z M692.684,446.606001 C692.684,444.860659 692.00934,443.988001 690.66,443.988001 C689.94133,443.988001 689.321669,444.288665 688.801,444.890001 C688.280331,445.491337 688.02,446.231997 688.02,447.112001 L688.02,453.800001 L685.952,453.800001 L685.952,442.558001 L687.448,442.558001 L687.734,444.208001 C688.599338,442.961328 689.779993,442.338001 691.276,442.338001 C692.757341,442.338001 693.783997,442.961328 694.356,444.208001 C694.898669,443.445331 695.466997,442.943002 696.061,442.701001 C696.655003,442.459 697.237997,442.338001 697.81,442.338001 C698.367336,442.338001 698.865998,442.415 699.306,442.569001 C699.746002,442.723002 700.127332,442.961333 700.45,443.284001 C701.139337,443.944004 701.484,444.926661 701.484,446.232001 L701.484,453.800001 L699.416,453.800001 L699.416,446.606001 C699.416,444.860659 698.74134,443.988001 697.392,443.988001 C696.67333,443.988001 696.053669,444.288665 695.533,444.890001 C695.012331,445.491337 694.752,446.231997 694.752,447.112001 L694.752,453.800001 L692.684,453.800001 L692.684,446.606001 Z M706.39,448.652001 C706.434,450.382676 707.013328,451.526665 708.128,452.084001 C708.509335,452.274669 708.99333,452.370001 709.58,452.370001 C710.152003,452.370001 710.621331,452.260002 710.988,452.040001 C711.354669,451.82 711.633332,451.563336 711.824,451.270001 C712.132002,450.800665 712.286,450.250671 712.286,449.620001 L714.244,449.620001 C714.244,450.954674 713.804004,452.02533 712.924,452.832001 C712.043996,453.624005 710.914674,454.020001 709.536,454.020001 L709.448,454.020001 C707.907992,454.020001 706.676005,453.536006 705.752,452.568001 C704.798662,451.541329 704.322,450.155343 704.322,448.410001 L704.322,447.970001 C704.322,446.224659 704.798662,444.838673 705.752,443.812001 C706.646671,442.82933 707.856659,442.338001 709.382,442.338001 L709.536,442.338001 C710.92934,442.338001 712.058662,442.76333 712.924,443.614001 C713.804004,444.464672 714.244,445.623327 714.244,447.090001 L714.244,448.652001 L706.39,448.652001 Z M709.426,443.988001 C708.604663,443.988001 707.930003,444.240999 707.402,444.747001 C706.873997,445.253004 706.551334,446.019329 706.434,447.046001 L712.198,447.046001 L712.198,446.782001 C712.198,445.901997 711.926669,445.205337 711.384,444.692001 C710.885331,444.222665 710.232671,443.988001 709.426,443.988001 L709.426,443.988001 Z M719.04,444.208001 C719.993338,442.961328 721.247326,442.338001 722.802,442.338001 C724.635342,442.338001 725.852664,443.049327 726.454,444.472001 C726.659334,444.97067 726.762,445.557331 726.762,446.232001 L726.762,453.800001 L724.694,453.800001 L724.694,446.606001 C724.694,445.652663 724.474002,444.978003 724.034,444.582001 C723.593998,444.185999 723.022004,443.988001 722.318,443.988001 C721.525996,443.988001 720.829336,444.288665 720.228,444.890001 C719.626664,445.491337 719.326,446.231997 719.326,447.112001 L719.326,453.800001 L717.258,453.800001 L717.258,442.558001 L718.754,442.558001 L719.04,444.208001 Z M733.978,452.414001 C734.359335,452.414001 734.813997,452.304002 735.342,452.084001 L735.342,453.624001 C734.813997,453.888002 734.132004,454.020001 733.296,454.020001 C732.445329,454.020001 731.792669,453.77067 731.338,453.272001 C730.883331,452.773332 730.656,451.952007 730.656,450.808001 L730.656,444.208001 L729.424,444.208001 L729.424,442.558001 L730.722,442.558001 L731.426,438.972001 L732.724,438.972001 L732.724,442.558001 L735.342,442.558001 L735.342,444.208001 L732.724,444.208001 L732.724,450.918001 C732.724,451.754005 732.987997,452.230667 733.516,452.348001 C733.662667,452.392001 733.816666,452.414001 733.978,452.414001 L733.978,452.414001 Z M737.08,450.764001 L737.102,450.280001 L739.148,450.280001 L739.148,450.500001 C739.148,451.424006 739.734661,452.010667 740.908,452.260001 C741.260002,452.333335 741.721997,452.370001 742.294,452.370001 C742.866003,452.370001 743.408664,452.234336 743.922,451.963001 C744.435336,451.691666 744.692,451.30667 744.692,450.808001 C744.692,450.309332 744.512335,449.946336 744.153,449.719001 C743.793665,449.491667 743.342669,449.315668 742.8,449.191001 C742.257331,449.066334 741.674336,448.952668 741.051,448.850001 C740.427664,448.747334 739.844669,448.582336 739.302,448.355001 C738.759331,448.127667 738.308335,447.812336 737.949,447.409001 C737.589665,447.005666 737.41,446.430005 737.41,445.682001 C737.41,444.640663 737.820663,443.823004 738.642,443.229001 C739.463337,442.634998 740.585326,442.338001 742.008,442.338001 L742.206,442.338001 C743.51134,442.338001 744.559996,442.638665 745.352,443.240001 C746.11467,443.826671 746.496,444.54533 746.496,445.396001 L746.474,445.792001 L744.428,445.792001 L744.428,445.594001 C744.428,444.523329 743.599342,443.988001 741.942,443.988001 C740.607327,443.988001 739.815335,444.317998 739.566,444.978001 C739.507333,445.154002 739.478,445.315334 739.478,445.462001 C739.478,445.87267 739.657665,446.180667 740.017,446.386001 C740.376335,446.591336 740.827331,446.752667 741.37,446.870001 C741.912669,446.987335 742.495664,447.101001 743.119,447.211001 C743.742336,447.321002 744.325331,447.493333 744.868,447.728001 C746.12934,448.256004 746.76,449.150662 746.76,450.412001 C746.76,451.688008 746.298005,452.626665 745.374,453.228001 C744.552663,453.756004 743.423341,454.020001 741.986,454.020001 L741.656,454.020001 C740.159993,454.020001 739.008671,453.682671 738.202,453.008001 C737.453996,452.391998 737.08,451.644006 737.08,450.764001 L737.08,450.764001 Z M606.18,469.266002 L606.18,474.150002 L610.338,474.150002 C611.027337,474.150002 611.628664,473.908004 612.142,473.424002 C612.640669,472.954666 612.89,472.382672 612.89,471.708002 C612.89,471.033331 612.648002,470.461337 612.164,469.992002 C611.650664,469.507999 611.042004,469.266002 610.338,469.266002 L606.18,469.266002 Z M606.18,476.108002 L606.18,482.400002 L604.024,482.400002 L604.024,467.308002 L610.536,467.308002 C611.812006,467.308002 612.875329,467.703998 613.726,468.496002 C614.606004,469.332006 615.046,470.402662 615.046,471.708002 C615.046,473.013341 614.606004,474.083997 613.726,474.920002 C612.875329,475.712005 611.812006,476.108002 610.536,476.108002 L606.18,476.108002 Z M625.936,474.458002 L625.87,475.294002 L624.044,475.294002 L624.044,474.810002 C624.044,474.296666 623.912001,473.87867 623.648,473.556002 C623.163998,472.910665 622.570004,472.588002 621.866,472.588002 C621.088663,472.588002 620.502002,472.925331 620.106,473.600002 C619.783332,474.157338 619.622,474.853997 619.622,475.690002 L619.622,482.400002 L617.554,482.400002 L617.554,471.158002 L619.028,471.158002 L619.336,472.830002 C619.556001,472.169998 620.157328,471.63467 621.14,471.224002 C621.565335,471.033334 622.056664,470.938002 622.614,470.938002 C623.171336,470.938002 623.651665,471.029667 624.055,471.213002 C624.458335,471.396336 624.799332,471.649333 625.078,471.972002 C625.650003,472.617338 625.936,473.445996 625.936,474.458002 L625.936,474.458002 Z M628.334,482.400002 L628.334,471.158002 L630.402,471.158002 L630.402,482.400002 L628.334,482.400002 Z M628.29,466.560002 L630.446,466.560002 L630.446,468.474002 L628.29,468.474002 L628.29,466.560002 Z M641.644,476.570002 C641.644,475.220661 641.343336,474.201338 640.742,473.512002 C640.213997,472.895998 639.480671,472.588002 638.542,472.588002 C637.089993,472.588002 636.136669,473.306661 635.682,474.744002 C635.520666,475.257337 635.44,475.865998 635.44,476.570002 L635.44,476.988002 C635.44,478.337342 635.740664,479.356665 636.342,480.046002 C636.870003,480.662005 637.603329,480.970002 638.542,480.970002 C639.994007,480.970002 640.947331,480.244009 641.402,478.792002 C641.563334,478.293332 641.644,477.692005 641.644,476.988002 L641.644,476.570002 Z M643.712,477.186002 C643.712,478.960677 643.206005,480.331997 642.194,481.300002 C641.269995,482.180006 640.052674,482.620002 638.542,482.620002 C637.031326,482.620002 635.814005,482.180006 634.89,481.300002 C633.877995,480.331997 633.372,478.960677 633.372,477.186002 L633.372,476.372002 C633.372,474.597326 633.877995,473.23334 634.89,472.280002 C635.814005,471.38533 637.031326,470.938002 638.542,470.938002 C640.052674,470.938002 641.269995,471.38533 642.194,472.280002 C643.206005,473.23334 643.712,474.597326 643.712,476.372002 L643.712,477.186002 Z M655.064,474.458002 L654.998,475.294002 L653.172,475.294002 L653.172,474.810002 C653.172,474.296666 653.040001,473.87867 652.776,473.556002 C652.291998,472.910665 651.698004,472.588002 650.994,472.588002 C650.216663,472.588002 649.630002,472.925331 649.234,473.600002 C648.911332,474.157338 648.75,474.853997 648.75,475.690002 L648.75,482.400002 L646.682,482.400002 L646.682,471.158002 L648.156,471.158002 L648.464,472.830002 C648.684001,472.169998 649.285328,471.63467 650.268,471.224002 C650.693335,471.033334 651.184664,470.938002 651.742,470.938002 C652.299336,470.938002 652.779665,471.029667 653.183,471.213002 C653.586335,471.396336 653.927332,471.649333 654.206,471.972002 C654.778003,472.617338 655.064,473.445996 655.064,474.458002 L655.064,474.458002 Z M657.462,482.400002 L657.462,471.158002 L659.53,471.158002 L659.53,482.400002 L657.462,482.400002 Z M657.418,466.560002 L659.574,466.560002 L659.574,468.474002 L657.418,468.474002 L657.418,466.560002 Z M666.856,481.014002 C667.237335,481.014002 667.691997,480.904003 668.22,480.684002 L668.22,482.224002 C667.691997,482.488003 667.010004,482.620002 666.174,482.620002 C665.323329,482.620002 664.670669,482.370671 664.216,481.872002 C663.761331,481.373332 663.534,480.552007 663.534,479.408002 L663.534,472.808002 L662.302,472.808002 L662.302,471.158002 L663.6,471.158002 L664.304,467.572002 L665.602,467.572002 L665.602,471.158002 L668.22,471.158002 L668.22,472.808002 L665.602,472.808002 L665.602,479.518002 C665.602,480.354006 665.865997,480.830668 666.394,480.948002 C666.540667,480.992002 666.694666,481.014002 666.856,481.014002 L666.856,481.014002 Z M672.158,477.252002 C672.202,478.982677 672.781328,480.126665 673.896,480.684002 C674.277335,480.874669 674.76133,480.970002 675.348,480.970002 C675.920003,480.970002 676.389332,480.860003 676.756,480.640002 C677.122668,480.42 677.401332,480.163336 677.592,479.870002 C677.900002,479.400666 678.054,478.850671 678.054,478.220002 L680.012,478.220002 C680.012,479.554675 679.572004,480.625331 678.692,481.432002 C677.811996,482.224005 676.682674,482.620002 675.304,482.620002 L675.216,482.620002 C673.675992,482.620002 672.444005,482.136006 671.52,481.168002 C670.566662,480.14133 670.09,478.755344 670.09,477.010002 L670.09,476.570002 C670.09,474.824659 670.566662,473.438673 671.52,472.412002 C672.414671,471.42933 673.624659,470.938002 675.15,470.938002 L675.304,470.938002 C676.69734,470.938002 677.826662,471.363331 678.692,472.214002 C679.572004,473.064672 680.012,474.223328 680.012,475.690002 L680.012,477.252002 L672.158,477.252002 Z M675.194,472.588002 C674.372663,472.588002 673.698003,472.840999 673.17,473.347002 C672.641997,473.853004 672.319334,474.61933 672.202,475.646002 L677.966,475.646002 L677.966,475.382002 C677.966,474.501997 677.694669,473.805337 677.152,473.292002 C676.653331,472.822666 676.000671,472.588002 675.194,472.588002 L675.194,472.588002 Z M691.408,474.458002 L691.342,475.294002 L689.516,475.294002 L689.516,474.810002 C689.516,474.296666 689.384001,473.87867 689.12,473.556002 C688.635998,472.910665 688.042004,472.588002 687.338,472.588002 C686.560663,472.588002 685.974002,472.925331 685.578,473.600002 C685.255332,474.157338 685.094,474.853997 685.094,475.690002 L685.094,482.400002 L683.026,482.400002 L683.026,471.158002 L684.5,471.158002 L684.808,472.830002 C685.028001,472.169998 685.629328,471.63467 686.612,471.224002 C687.037335,471.033334 687.528664,470.938002 688.086,470.938002 C688.643336,470.938002 689.123665,471.029667 689.527,471.213002 C689.930335,471.396336 690.271332,471.649333 690.55,471.972002 C691.122003,472.617338 691.408,473.445996 691.408,474.458002 L691.408,474.458002 Z M693.806,482.400002 L693.806,471.158002 L695.874,471.158002 L695.874,482.400002 L693.806,482.400002 Z M693.762,466.560002 L695.918,466.560002 L695.918,468.474002 L693.762,468.474002 L693.762,466.560002 Z M701.308,472.808002 C702.261338,471.561329 703.515326,470.938002 705.07,470.938002 C706.903343,470.938002 708.120664,471.649328 708.722,473.072002 C708.927334,473.570671 709.03,474.157331 709.03,474.832002 L709.03,482.400002 L706.962,482.400002 L706.962,475.206002 C706.962,474.252663 706.742002,473.578004 706.302,473.182002 C705.861998,472.786 705.290004,472.588002 704.586,472.588002 C703.793996,472.588002 703.097336,472.888665 702.496,473.490002 C701.894664,474.091338 701.594,474.831997 701.594,475.712002 L701.594,482.400002 L699.526,482.400002 L699.526,471.158002 L701.022,471.158002 L701.308,472.808002 Z M720.58,472.060002 C721.313337,472.690671 721.68,473.49733 721.68,474.480002 C721.68,475.492007 721.313337,476.320665 720.58,476.966002 C719.802663,477.655338 718.695341,478.000002 717.258,478.000002 L715.762,478.000002 C715.321998,478.000002 714.955335,478.113667 714.662,478.341002 C714.368665,478.568336 714.222,478.858 714.222,479.210002 C714.222,479.562003 714.361332,479.840667 714.64,480.046002 C714.918668,480.251336 715.292664,480.354002 715.762,480.354002 L720.008,480.354002 C720.888004,480.354002 721.584664,480.625332 722.098,481.168002 C722.611336,481.710671 722.868,482.399997 722.868,483.236002 C722.868,484.27734 722.464671,485.098665 721.658,485.700002 C720.909996,486.257338 719.920006,486.536002 718.688,486.536002 L714.266,486.536002 C713.50333,486.536002 712.858003,486.257338 712.33,485.700002 C711.801997,485.142665 711.538,484.541338 711.538,483.896002 C711.538,483.265332 711.691998,482.72267 712,482.268002 C712.308002,481.813333 712.703998,481.483336 713.188,481.278002 C712.51333,480.852666 712.176,480.244005 712.176,479.452002 C712.176,478.909332 712.333665,478.451003 712.649,478.077002 C712.964335,477.703 713.393331,477.420669 713.936,477.230002 C712.953328,476.672665 712.462,475.756008 712.462,474.480002 C712.462,473.438663 712.828663,472.602671 713.562,471.972002 C714.354004,471.282665 715.497993,470.938002 716.994,470.938002 L717.082,470.938002 C717.918004,470.938002 718.665997,471.062667 719.326,471.312002 C720.367339,470.798666 720.961333,470.072673 721.108,469.134002 L722.868,469.134002 C722.868,469.867339 722.670002,470.490666 722.274,471.004002 C721.877998,471.517337 721.328004,471.847334 720.624,471.994002 L720.58,472.060002 Z M714.508,474.480002 C714.508,475.169338 714.753664,475.653333 715.245,475.932002 C715.736336,476.21067 716.34133,476.350002 717.06,476.350002 C717.77867,476.350002 718.387331,476.21067 718.886,475.932002 C719.384669,475.653333 719.634,475.169338 719.634,474.480002 C719.634,473.790665 719.384669,473.303003 718.886,473.017002 C718.387331,472.731 717.77867,472.588002 717.06,472.588002 C716.34133,472.588002 715.736336,472.731 715.245,473.017002 C714.753664,473.303003 714.508,473.790665 714.508,474.480002 L714.508,474.480002 Z M719.106,484.886002 C719.575336,484.886002 719.978665,484.750336 720.316,484.479002 C720.653335,484.207667 720.822,483.896003 720.822,483.544002 C720.822,483.192 720.701001,482.902336 720.459,482.675002 C720.216999,482.447667 719.861336,482.334002 719.392,482.334002 L714.86,482.334002 C714.507998,482.334002 714.207335,482.458667 713.958,482.708002 C713.708665,482.957336 713.584,483.258 713.584,483.610002 C713.584,483.962003 713.708665,484.262667 713.958,484.512002 C714.207335,484.761336 714.507998,484.886002 714.86,484.886002 L719.106,484.886002 Z M613.682,502.464002 C613.682,500.029323 612.868008,498.518672 611.24,497.932002 C610.726664,497.741334 610.17667,497.646002 609.59,497.646002 C608.988664,497.646002 608.438669,497.737668 607.94,497.921002 C607.441331,498.104336 607.016002,498.386667 606.664,498.768002 C605.886663,499.589339 605.498,500.821327 605.498,502.464002 L605.498,504.444002 C605.498,506.878681 606.311992,508.389332 607.94,508.976002 C608.438669,509.16667 608.988664,509.262002 609.59,509.262002 C610.17667,509.262002 610.722997,509.170336 611.229,508.987002 C611.735003,508.803668 612.163998,508.521337 612.516,508.140002 C613.293337,507.318664 613.682,506.086677 613.682,504.444002 L613.682,502.464002 Z M615.838,504.444002 C615.838,506.644013 615.229339,508.345329 614.012,509.548002 C612.867994,510.662674 611.394009,511.220002 609.59,511.220002 C607.785991,511.220002 606.312006,510.662674 605.168,509.548002 C603.950661,508.345329 603.342,506.644013 603.342,504.444002 L603.342,502.464002 C603.342,500.263991 603.950661,498.562675 605.168,497.360002 C606.312006,496.24533 607.785991,495.688002 609.59,495.688002 C611.394009,495.688002 612.867994,496.24533 614.012,497.360002 C615.229339,498.562675 615.838,500.263991 615.838,502.464002 L615.838,504.444002 Z M621.074,509.570002 L621.074,514.982002 L619.006,514.982002 L619.006,499.758002 L620.546,499.758002 C620.619334,500.03667 620.714666,500.549998 620.832,501.298002 C621.668004,500.124663 622.826659,499.538002 624.308,499.538002 C625.642673,499.538002 626.713329,499.999997 627.52,500.924002 C628.414671,501.96534 628.862,503.453992 628.862,505.390002 L628.862,505.632002 C628.862,507.406677 628.436671,508.799997 627.586,509.812002 C626.793996,510.750673 625.70134,511.220002 624.308,511.220002 C622.91466,511.220002 621.83667,510.670007 621.074,509.570002 L621.074,509.570002 Z M626.794,505.368002 C626.794,503.167991 626.229339,501.848004 625.1,501.408002 C624.747998,501.261335 624.359335,501.188002 623.934,501.188002 C623.009995,501.188002 622.313336,501.488666 621.844,502.090002 C621.315997,502.779339 621.052,503.871994 621.052,505.368002 C621.052,507.58268 621.623994,508.917333 622.768,509.372002 C623.120002,509.504003 623.508665,509.570002 623.934,509.570002 C624.843338,509.570002 625.532664,509.269338 626.002,508.668002 C626.530003,507.978665 626.794,506.878676 626.794,505.368002 L626.794,505.368002 Z M631.92,511.000002 L631.92,495.160002 L633.988,495.160002 L633.988,511.000002 L631.92,511.000002 Z M639.092,505.852002 C639.136,507.582677 639.715328,508.726666 640.83,509.284002 C641.211335,509.47467 641.69533,509.570002 642.282,509.570002 C642.854003,509.570002 643.323331,509.460003 643.69,509.240002 C644.056669,509.020001 644.335332,508.763337 644.526,508.470002 C644.834002,508.000666 644.988,507.450672 644.988,506.820002 L646.946,506.820002 C646.946,508.154675 646.506004,509.225331 645.626,510.032002 C644.745996,510.824006 643.616674,511.220002 642.238,511.220002 L642.15,511.220002 C640.609992,511.220002 639.378005,510.736007 638.454,509.768002 C637.500662,508.74133 637.024,507.355344 637.024,505.610002 L637.024,505.170002 C637.024,503.42466 637.500662,502.038674 638.454,501.012002 C639.348671,500.02933 640.558659,499.538002 642.084,499.538002 L642.238,499.538002 C643.63134,499.538002 644.760662,499.963331 645.626,500.814002 C646.506004,501.664673 646.946,502.823328 646.946,504.290002 L646.946,505.852002 L639.092,505.852002 Z M642.128,501.188002 C641.306663,501.188002 640.632003,501.440999 640.104,501.947002 C639.575997,502.453004 639.253334,503.21933 639.136,504.246002 L644.9,504.246002 L644.9,503.982002 C644.9,503.101998 644.628669,502.405338 644.086,501.892002 C643.587331,501.422666 642.934671,501.188002 642.128,501.188002 L642.128,501.188002 Z M654.866,511.000002 L652.666,511.000002 L648.398,499.758002 L650.598,499.758002 L653.81,508.360002 L653.898,508.360002 L657.11,499.758002 L659.134,499.758002 L654.866,511.000002 Z M662.588,505.852002 C662.632,507.582677 663.211328,508.726666 664.326,509.284002 C664.707335,509.47467 665.19133,509.570002 665.778,509.570002 C666.350003,509.570002 666.819331,509.460003 667.186,509.240002 C667.552668,509.020001 667.831332,508.763337 668.022,508.470002 C668.330002,508.000666 668.484,507.450672 668.484,506.820002 L670.442,506.820002 C670.442,508.154675 670.002004,509.225331 669.122,510.032002 C668.241996,510.824006 667.112674,511.220002 665.734,511.220002 L665.646,511.220002 C664.105992,511.220002 662.874005,510.736007 661.95,509.768002 C660.996662,508.74133 660.52,507.355344 660.52,505.610002 L660.52,505.170002 C660.52,503.42466 660.996662,502.038674 661.95,501.012002 C662.844671,500.02933 664.054659,499.538002 665.58,499.538002 L665.734,499.538002 C667.12734,499.538002 668.256662,499.963331 669.122,500.814002 C670.002004,501.664673 670.442,502.823328 670.442,504.290002 L670.442,505.852002 L662.588,505.852002 Z M665.624,501.188002 C664.802663,501.188002 664.128003,501.440999 663.6,501.947002 C663.071997,502.453004 662.749334,503.21933 662.632,504.246002 L668.396,504.246002 L668.396,503.982002 C668.396,503.101998 668.124669,502.405338 667.582,501.892002 C667.083331,501.422666 666.430671,501.188002 665.624,501.188002 L665.624,501.188002 Z M681.838,503.058002 L681.772,503.894002 L679.946,503.894002 L679.946,503.410002 C679.946,502.896666 679.814001,502.47867 679.55,502.156002 C679.065998,501.510665 678.472004,501.188002 677.768,501.188002 C676.990663,501.188002 676.404002,501.525332 676.008,502.200002 C675.685332,502.757338 675.524,503.453998 675.524,504.290002 L675.524,511.000002 L673.456,511.000002 L673.456,499.758002 L674.93,499.758002 L675.238,501.430002 C675.458001,500.769999 676.059328,500.234671 677.042,499.824002 C677.467335,499.633334 677.958664,499.538002 678.516,499.538002 C679.073336,499.538002 679.553665,499.629668 679.957,499.813002 C680.360335,499.996336 680.701332,500.249334 680.98,500.572002 C681.552003,501.217338 681.838,502.045997 681.838,503.058002 L681.838,503.058002 Z M684.236,511.000002 L684.236,499.758002 L686.304,499.758002 L686.304,511.000002 L684.236,511.000002 Z M684.192,495.160002 L686.348,495.160002 L686.348,497.074002 L684.192,497.074002 L684.192,495.160002 Z M691.738,501.408002 C692.691338,500.161329 693.945326,499.538002 695.5,499.538002 C697.333343,499.538002 698.550664,500.249328 699.152,501.672002 C699.357334,502.170671 699.46,502.757332 699.46,503.432002 L699.46,511.000002 L697.392,511.000002 L697.392,503.806002 C697.392,502.852664 697.172002,502.178004 696.732,501.782002 C696.291998,501.386 695.720004,501.188002 695.016,501.188002 C694.223996,501.188002 693.527336,501.488666 692.926,502.090002 C692.324664,502.691338 692.024,503.431998 692.024,504.312002 L692.024,511.000002 L689.956,511.000002 L689.956,499.758002 L691.452,499.758002 L691.738,501.408002 Z M711.01,500.660002 C711.743337,501.290672 712.11,502.09733 712.11,503.080002 C712.11,504.092007 711.743337,504.920665 711.01,505.566002 C710.232663,506.255339 709.125341,506.600002 707.688,506.600002 L706.192,506.600002 C705.751998,506.600002 705.385335,506.713667 705.092,506.941002 C704.798665,507.168336 704.652,507.458 704.652,507.810002 C704.652,508.162004 704.791332,508.440668 705.07,508.646002 C705.348668,508.851336 705.722664,508.954002 706.192,508.954002 L710.438,508.954002 C711.318004,508.954002 712.014664,509.225333 712.528,509.768002 C713.041336,510.310671 713.298,510.999998 713.298,511.836002 C713.298,512.87734 712.894671,513.698666 712.088,514.300002 C711.339996,514.857338 710.350006,515.136002 709.118,515.136002 L704.696,515.136002 C703.93333,515.136002 703.288003,514.857338 702.76,514.300002 C702.231997,513.742666 701.968,513.141338 701.968,512.496002 C701.968,511.865332 702.121998,511.322671 702.43,510.868002 C702.738002,510.413333 703.133998,510.083336 703.618,509.878002 C702.94333,509.452666 702.606,508.844006 702.606,508.052002 C702.606,507.509333 702.763665,507.051004 703.079,506.677002 C703.394335,506.303 703.823331,506.02067 704.366,505.830002 C703.383328,505.272666 702.892,504.356008 702.892,503.080002 C702.892,502.038663 703.258663,501.202672 703.992,500.572002 C704.784004,499.882665 705.927993,499.538002 707.424,499.538002 L707.512,499.538002 C708.348004,499.538002 709.095997,499.662667 709.756,499.912002 C710.797339,499.398666 711.391333,498.672673 711.538,497.734002 L713.298,497.734002 C713.298,498.467339 713.100002,499.090666 712.704,499.604002 C712.307998,500.117338 711.758004,500.447335 711.054,500.594002 L711.01,500.660002 Z M704.938,503.080002 C704.938,503.769339 705.183664,504.253334 705.675,504.532002 C706.166336,504.81067 706.77133,504.950002 707.49,504.950002 C708.20867,504.950002 708.817331,504.81067 709.316,504.532002 C709.814669,504.253334 710.064,503.769339 710.064,503.080002 C710.064,502.390665 709.814669,501.903003 709.316,501.617002 C708.817331,501.331 708.20867,501.188002 707.49,501.188002 C706.77133,501.188002 706.166336,501.331 705.675,501.617002 C705.183664,501.903003 704.938,502.390665 704.938,503.080002 L704.938,503.080002 Z M709.536,513.486002 C710.005336,513.486002 710.408665,513.350337 710.746,513.079002 C711.083335,512.807667 711.252,512.496004 711.252,512.144002 C711.252,511.792 711.131001,511.502336 710.889,511.275002 C710.646999,511.047667 710.291336,510.934002 709.822,510.934002 L705.29,510.934002 C704.937998,510.934002 704.637335,511.058667 704.388,511.308002 C704.138665,511.557336 704.014,511.858 704.014,512.210002 C704.014,512.562004 704.138665,512.862667 704.388,513.112002 C704.637335,513.361336 704.937998,513.486002 705.29,513.486002 L709.536,513.486002 Z M609.436,526.466002 L609.436,539.600002 L607.28,539.600002 L607.28,526.466002 L602.55,526.466002 L602.55,524.508002 L614.166,524.508002 L614.166,526.466002 L609.436,526.466002 Z M617.906,534.452002 C617.95,536.182678 618.529328,537.326666 619.644,537.884002 C620.025335,538.07467 620.50933,538.170002 621.096,538.170002 C621.668003,538.170002 622.137331,538.060003 622.504,537.840002 C622.870668,537.620001 623.149332,537.363337 623.34,537.070002 C623.648002,536.600667 623.802,536.050672 623.802,535.420002 L625.76,535.420002 C625.76,536.754676 625.320004,537.825332 624.44,538.632002 C623.559996,539.424006 622.430674,539.820002 621.052,539.820002 L620.964,539.820002 C619.423992,539.820002 618.192005,539.336007 617.268,538.368002 C616.314662,537.34133 615.838,535.955344 615.838,534.210002 L615.838,533.770002 C615.838,532.02466 616.314662,530.638674 617.268,529.612002 C618.162671,528.629331 619.372659,528.138002 620.898,528.138002 L621.052,528.138002 C622.44534,528.138002 623.574662,528.563331 624.44,529.414002 C625.320004,530.264673 625.76,531.423328 625.76,532.890002 L625.76,534.452002 L617.906,534.452002 Z M620.942,529.788002 C620.120663,529.788002 619.446003,530.041 618.918,530.547002 C618.389997,531.053005 618.067334,531.81933 617.95,532.846002 L623.714,532.846002 L623.714,532.582002 C623.714,531.701998 623.442669,531.005338 622.9,530.492002 C622.401331,530.022667 621.748671,529.788002 620.942,529.788002 L620.942,529.788002 Z M627.938,536.564002 L627.96,536.080002 L630.006,536.080002 L630.006,536.300002 C630.006,537.224007 630.592661,537.810668 631.766,538.060002 C632.118002,538.133336 632.579997,538.170002 633.152,538.170002 C633.724003,538.170002 634.266664,538.034337 634.78,537.763002 C635.293336,537.491668 635.55,537.106671 635.55,536.608002 C635.55,536.109333 635.370335,535.746337 635.011,535.519002 C634.651665,535.291668 634.200669,535.11567 633.658,534.991002 C633.115331,534.866335 632.532336,534.752669 631.909,534.650002 C631.285664,534.547335 630.702669,534.382337 630.16,534.155002 C629.617331,533.927668 629.166335,533.612338 628.807,533.209002 C628.447665,532.805667 628.268,532.230006 628.268,531.482002 C628.268,530.440664 628.678663,529.623005 629.5,529.029002 C630.321337,528.434999 631.443326,528.138002 632.866,528.138002 L633.064,528.138002 C634.36934,528.138002 635.417996,528.438666 636.21,529.040002 C636.97267,529.626672 637.354,530.345331 637.354,531.196002 L637.332,531.592002 L635.286,531.592002 L635.286,531.394002 C635.286,530.32333 634.457342,529.788002 632.8,529.788002 C631.465327,529.788002 630.673335,530.117999 630.424,530.778002 C630.365333,530.954003 630.336,531.115335 630.336,531.262002 C630.336,531.672671 630.515665,531.980668 630.875,532.186002 C631.234335,532.391337 631.685331,532.552668 632.228,532.670002 C632.770669,532.787336 633.353664,532.901002 633.977,533.011002 C634.600336,533.121003 635.183331,533.293334 635.726,533.528002 C636.98734,534.056005 637.618,534.950663 637.618,536.212002 C637.618,537.488009 637.156005,538.426666 636.232,539.028002 C635.410663,539.556005 634.281341,539.820002 632.844,539.820002 L632.514,539.820002 C631.017993,539.820002 629.866671,539.482672 629.06,538.808002 C628.311996,538.191999 627.938,537.444007 627.938,536.564002 L627.938,536.564002 Z M644.196,538.214002 C644.577335,538.214002 645.031997,538.104003 645.56,537.884002 L645.56,539.424002 C645.031997,539.688004 644.350004,539.820002 643.514,539.820002 C642.663329,539.820002 642.010669,539.570671 641.556,539.072002 C641.101331,538.573333 640.874,537.752008 640.874,536.608002 L640.874,530.008002 L639.642,530.008002 L639.642,528.358002 L640.94,528.358002 L641.644,524.772002 L642.942,524.772002 L642.942,528.358002 L645.56,528.358002 L645.56,530.008002 L642.942,530.008002 L642.942,536.718002 C642.942,537.554006 643.205997,538.030668 643.734,538.148002 C643.880667,538.192003 644.034666,538.214002 644.196,538.214002 L644.196,538.214002 Z M649.498,534.452002 C649.542,536.182678 650.121328,537.326666 651.236,537.884002 C651.617335,538.07467 652.10133,538.170002 652.688,538.170002 C653.260003,538.170002 653.729331,538.060003 654.096,537.840002 C654.462668,537.620001 654.741332,537.363337 654.932,537.070002 C655.240002,536.600667 655.394,536.050672 655.394,535.420002 L657.352,535.420002 C657.352,536.754676 656.912004,537.825332 656.032,538.632002 C655.151996,539.424006 654.022674,539.820002 652.644,539.820002 L652.556,539.820002 C651.015992,539.820002 649.784005,539.336007 648.86,538.368002 C647.906662,537.34133 647.43,535.955344 647.43,534.210002 L647.43,533.770002 C647.43,532.02466 647.906662,530.638674 648.86,529.612002 C649.754671,528.629331 650.964659,528.138002 652.49,528.138002 L652.644,528.138002 C654.03734,528.138002 655.166662,528.563331 656.032,529.414002 C656.912004,530.264673 657.352,531.423328 657.352,532.890002 L657.352,534.452002 L649.498,534.452002 Z M652.534,529.788002 C651.712663,529.788002 651.038003,530.041 650.51,530.547002 C649.981997,531.053005 649.659334,531.81933 649.542,532.846002 L655.306,532.846002 L655.306,532.582002 C655.306,531.701998 655.034669,531.005338 654.492,530.492002 C653.993331,530.022667 653.340671,529.788002 652.534,529.788002 L652.534,529.788002 Z M662.148,530.008002 C663.101338,528.761329 664.355326,528.138002 665.91,528.138002 C667.743343,528.138002 668.960664,528.849329 669.562,530.272002 C669.767334,530.770671 669.87,531.357332 669.87,532.032002 L669.87,539.600002 L667.802,539.600002 L667.802,532.406002 C667.802,531.452664 667.582002,530.778004 667.142,530.382002 C666.701998,529.986 666.130004,529.788002 665.426,529.788002 C664.633996,529.788002 663.937336,530.088666 663.336,530.690002 C662.734664,531.291339 662.434,532.031998 662.434,532.912002 L662.434,539.600002 L660.366,539.600002 L660.366,528.358002 L661.862,528.358002 L662.148,530.008002 Z" id="Testen" fill="#FFFFFF" mask="url(#mask-2)"></path>
        </g>
    </g>
</svg>