<?xml version="1.0" encoding="UTF-8" standalone="no"?>
<svg width="1024px" height="450px" viewBox="0 0 1024 450" version="1.1" xmlns="http://www.w3.org/2000/svg" xmlns:xlink="http://www.w3.org/1999/xlink">
    <!-- Generator: Sketch 3.6.1 (26313) - http://www.bohemiancoding.com/sketch -->
    <title>Artboard 1</title>
    <desc>Created with Sketch.</desc>
    <defs></defs>
    <g id="Page-1" stroke="none" stroke-width="1" fill="none" fill-rule="evenodd">
        <g id="Artboard-1">
            <g id="slide-scrum-s" transform="translate(0.000000, -58.000000)">
                <g id="Page-1">
                    <g id="Artboard-1">
                        <rect id="path-1" fill="#FFF568" x="0" y="35" width="1024" height="497"></rect>
                        <g id="Group-2" transform="translate(87.000000, 0.000000)">
                            <g id="Group" transform="translate(0.000000, 26.000000)">
                                <path d="M408.5,354 C457.929485,354 498,313.929485 498,264.5 C498,215.070515 457.929485,175 408.5,175 C359.070515,175 319,215.070515 319,264.5 C319,313.929485 359.070515,354 408.5,354 L408.5,354 L408.5,354 Z" id="Oval-31-Copy" fill="#FFFFFF" transform="translate(408.500000, 264.500000) rotate(90.000000) translate(-408.500000, -264.500000) "></path>
                                <path d="M377.73479,250.177338 L377.73479,254.107167 L381.080455,254.107167 C381.635118,254.107167 382.118966,253.912448 382.532014,253.523003 C382.933259,253.14536 383.133879,252.685115 383.133879,252.142253 C383.133879,251.599391 382.93916,251.139145 382.549716,250.761502 C382.136668,250.372057 381.64692,250.177338 381.080455,250.177338 L377.73479,250.177338 L377.73479,250.177338 L377.73479,250.177338 Z M377.73479,255.682639 L377.73479,260.745392 L376,260.745392 L376,248.601866 L381.239772,248.601866 C382.26649,248.601866 383.122075,248.920498 383.806553,249.55777 C384.514634,250.230447 384.868669,251.091933 384.868669,252.142253 C384.868669,253.192572 384.514634,254.054058 383.806553,254.726735 C383.122075,255.364008 382.26649,255.682639 381.239772,255.682639 L377.73479,255.682639 L377.73479,255.682639 L377.73479,255.682639 Z M393.631126,254.354994 L393.57802,255.027668 L392.108759,255.027668 L392.108759,254.638225 C392.108759,254.225178 392.002549,253.888845 391.790125,253.629215 C391.40068,253.109956 390.922733,252.85033 390.356268,252.85033 C389.730797,252.85033 389.25875,253.121757 388.940113,253.664619 C388.680484,254.11307 388.550671,254.673626 388.550671,255.346302 L388.550671,260.745392 L386.886689,260.745392 L386.886689,251.699704 L388.072719,251.699704 L388.320546,253.045051 C388.497566,252.51399 388.981414,252.083248 389.772104,251.75281 C390.114343,251.599392 390.509683,251.522685 390.958134,251.522685 C391.406585,251.522685 391.793073,251.596442 392.11761,251.743959 C392.442147,251.891476 392.716525,252.095046 392.94075,252.354676 C393.401003,252.873935 393.631126,253.540701 393.631126,254.354994 L393.631126,254.354994 L393.631126,254.354994 L393.631126,254.354994 Z M401.667803,256.05438 C401.667803,254.968656 401.425879,254.148474 400.942024,253.593811 C400.517175,253.098154 399.927117,252.85033 399.171831,252.85033 C398.003497,252.85033 397.236421,253.428587 396.870579,254.585119 C396.740765,254.998166 396.675858,255.487915 396.675858,256.05438 L396.675858,256.390716 C396.675858,257.47644 396.917782,258.296622 397.401637,258.851285 C397.826486,259.346942 398.416544,259.594766 399.171831,259.594766 C400.340164,259.594766 401.10724,259.010608 401.473082,257.842275 C401.602897,257.441029 401.667803,256.957181 401.667803,256.390716 L401.667803,256.05438 L401.667803,256.05438 L401.667803,256.05438 Z M403.331785,256.550034 C403.331785,257.977997 402.924645,259.081406 402.110352,259.860295 C401.366867,260.568376 400.38737,260.922411 399.171831,260.922411 C397.956292,260.922411 396.976795,260.568376 396.23331,259.860295 C395.419017,259.081406 395.011876,257.977997 395.011876,256.550034 L395.011876,255.895062 C395.011876,254.467099 395.419017,253.36959 396.23331,252.602503 C396.976795,251.882621 397.956292,251.522685 399.171831,251.522685 C400.38737,251.522685 401.366867,251.882621 402.110352,252.602503 C402.924645,253.36959 403.331785,254.467099 403.331785,255.895062 L403.331785,256.550034 L403.331785,256.550034 L403.331785,256.550034 Z M411.43927,252.85033 L411.43927,248 L413.103252,248 L413.103252,260.745392 L411.864117,260.745392 C411.80511,260.521166 411.728402,260.108125 411.633992,259.506257 C410.961315,260.450365 410.029022,260.922411 408.837086,260.922411 C407.763164,260.922411 406.901678,260.544774 406.252604,259.789488 C405.532722,258.963393 405.172786,257.771475 405.172786,256.213697 L405.172786,256.018976 C405.172786,254.591013 405.51502,253.469902 406.199498,252.655609 C406.836771,251.900322 407.715958,251.522685 408.837086,251.522685 C409.958214,251.522685 410.8256,251.965229 411.43927,252.85033 L411.43927,252.85033 L411.43927,252.85033 L411.43927,252.85033 Z M406.836768,256.231399 C406.836768,258.001601 407.291113,259.069607 408.199817,259.435449 C408.483049,259.541661 408.79578,259.594766 409.138019,259.594766 C410.683996,259.594766 411.456972,258.473655 411.456972,256.231399 C411.456972,254.449396 410.996727,253.38139 410.076221,253.027349 C409.792989,252.909336 409.480258,252.85033 409.138019,252.85033 C408.406335,252.85033 407.85168,253.092254 407.474037,253.576109 C407.049189,254.130772 406.836768,255.01586 406.836768,256.231399 L406.836768,256.231399 L406.836768,256.231399 L406.836768,256.231399 Z M424.892739,260.568373 C424.538699,260.8044 424.166962,260.922411 423.777518,260.922411 C423.376272,260.922411 423.078292,260.881107 422.88357,260.798498 C422.688848,260.715888 422.526582,260.603777 422.396767,260.462161 C422.172541,260.214333 422.048629,259.872099 422.025026,259.435449 C421.564774,260.108126 420.909809,260.562471 420.060112,260.798498 C419.776879,260.881107 419.446447,260.922411 419.068803,260.922411 C418.679359,260.922411 418.28992,260.860455 417.900476,260.736541 C417.511031,260.612627 417.168797,260.426758 416.873764,260.17893 C416.260094,259.624267 415.953263,258.827688 415.953263,257.789169 L415.953263,251.699704 L417.617245,251.699704 L417.617245,257.488236 C417.617245,258.255324 417.794263,258.798178 418.148303,259.116814 C418.502343,259.435451 418.962589,259.594766 419.529054,259.594766 C420.166327,259.594766 420.726882,259.352842 421.210737,258.868987 C421.694593,258.385132 421.936517,257.789173 421.936517,257.081092 L421.936517,251.699704 L423.600498,251.699704 L423.600498,258.975199 C423.600498,259.199424 423.650653,259.35874 423.750965,259.453151 C423.851276,259.547562 423.966338,259.594766 424.096152,259.594766 C424.367583,259.594766 424.63311,259.512158 424.892739,259.346939 L424.892739,260.568373 L424.892739,260.568373 L424.892739,260.568373 Z M434.274764,257.205005 C434.274764,258.373339 433.920729,259.29383 433.212648,259.966507 C432.52817,260.60378 431.637181,260.922411 430.539656,260.922411 L430.398041,260.922411 C429.206105,260.922411 428.25611,260.532973 427.548029,259.754084 C426.792743,258.939791 426.415106,257.836381 426.415106,256.443822 L426.415106,256.018976 C426.415106,254.626417 426.792743,253.523007 427.548029,252.708714 C428.267912,251.918024 429.212005,251.522685 430.380339,251.522685 L430.521954,251.522685 C431.61948,251.522685 432.519319,251.861969 433.221499,252.540546 C433.923679,253.219124 434.274764,254.124863 434.274764,255.257793 L432.628484,255.257793 C432.628484,254.148466 432.215443,253.404992 431.389349,253.027349 C431.117918,252.909336 430.811087,252.85033 430.468848,252.85033 C430.114808,252.85033 429.793226,252.909336 429.504093,253.027349 C429.21496,253.145363 428.964185,253.32238 428.751761,253.558407 C428.30331,254.042262 428.079087,254.72083 428.079087,255.594129 L428.079087,256.550034 C428.079087,257.600354 428.297409,258.37038 428.734059,258.860136 C429.170709,259.349892 429.766668,259.594766 430.521954,259.594766 C431.265439,259.594766 431.811243,259.370544 432.159383,258.922093 C432.507523,258.473642 432.68159,257.901285 432.68159,257.205005 L434.274764,257.205005 L434.274764,257.205005 L434.274764,257.205005 Z M439.567642,259.63017 C439.874477,259.63017 440.240313,259.541661 440.665162,259.364641 L440.665162,260.603777 C440.240313,260.816201 439.691559,260.922411 439.018882,260.922411 C438.334404,260.922411 437.809252,260.721791 437.44341,260.320546 C437.077568,259.9193 436.89465,259.258434 436.89465,258.337929 L436.89465,253.027349 L435.903342,253.027349 L435.903342,251.699704 L436.947756,251.699704 L437.514218,248.814289 L438.558632,248.814289 L438.558632,251.699704 L440.665162,251.699704 L440.665162,253.027349 L438.558632,253.027349 L438.558632,258.426439 C438.558632,259.099116 438.771053,259.482654 439.195901,259.577064 C439.313915,259.612468 439.437827,259.63017 439.567642,259.63017 L439.567642,259.63017 L439.567642,259.63017 L439.567642,259.63017 Z M389.426917,274.877042 C389.426917,272.918018 388.771952,271.702498 387.462002,271.230444 C387.048955,271.077026 386.606411,271.000319 386.134357,271.000319 C385.650502,271.000319 385.207958,271.074076 384.806712,271.221593 C384.405466,271.36911 384.063232,271.596282 383.78,271.903117 C383.154528,272.563993 382.841797,273.555291 382.841797,274.877042 L382.841797,276.470216 C382.841797,278.42924 383.496762,279.64476 384.806712,280.116814 C385.207958,280.270232 385.650502,280.346939 386.134357,280.346939 C386.606411,280.346939 387.046005,280.273182 387.453151,280.125665 C387.860297,279.978148 388.205482,279.750976 388.488714,279.444141 C389.114186,278.783265 389.426917,277.791967 389.426917,276.470216 L389.426917,274.877042 L389.426917,274.877042 L389.426917,274.877042 Z M391.161706,276.470216 C391.161706,278.240418 390.671957,279.609354 389.692446,280.577064 C388.77194,281.473967 387.585923,281.922411 386.134357,281.922411 C384.682791,281.922411 383.496774,281.473967 382.576268,280.577064 C381.596757,279.609354 381.107008,278.240418 381.107008,276.470216 L381.107008,274.877042 C381.107008,273.10684 381.596757,271.737904 382.576268,270.770193 C383.496774,269.873291 384.682791,269.424847 386.134357,269.424847 C387.585923,269.424847 388.77194,269.873291 389.692446,270.770193 C390.671957,271.737904 391.161706,273.10684 391.161706,274.877042 L391.161706,276.470216 L391.161706,276.470216 L391.161706,276.470216 Z M399.357701,275.425802 L397.304277,281.745392 L395.569487,281.745392 L392.595563,272.699704 L394.31265,272.699704 L396.41918,279.320227 L396.489988,279.320227 L398.631922,272.699704 L400.2605,272.699704 L402.36703,279.320227 L402.437837,279.320227 L404.579771,272.699704 L406.208349,272.699704 L403.252126,281.745392 L401.517337,281.745392 L399.428509,275.425802 L399.357701,275.425802 L399.357701,275.425802 L399.357701,275.425802 Z M409.500909,274.027349 C410.267996,273.024235 411.276996,272.522685 412.527939,272.522685 C414.003108,272.522685 414.982605,273.095042 415.46646,274.239772 C415.631679,274.641018 415.714287,275.113065 415.714287,275.655927 L415.714287,281.745392 L414.050305,281.745392 L414.050305,275.95686 C414.050305,275.189772 413.873288,274.646918 413.519247,274.328282 C413.165207,274.009646 412.704961,273.85033 412.138497,273.85033 C411.501224,273.85033 410.940668,274.092254 410.456813,274.576109 C409.972958,275.059964 409.731034,275.655923 409.731034,276.364004 L409.731034,281.745392 L408.067052,281.745392 L408.067052,272.699704 L409.270784,272.699704 L409.500909,274.027349 L409.500909,274.027349 L409.500909,274.027349 Z M419.661818,277.60314 C419.697222,278.995699 420.163369,279.91619 421.060271,280.364641 C421.367106,280.518059 421.756545,280.594766 422.228599,280.594766 C422.688851,280.594766 423.066489,280.506258 423.361522,280.329237 C423.656556,280.152217 423.880778,279.945697 424.034196,279.70967 C424.282024,279.332027 424.405936,278.889483 424.405936,278.382025 L425.981408,278.382025 C425.981408,279.455947 425.627373,280.317433 424.919292,280.966507 C424.211211,281.60378 423.302521,281.922411 422.193195,281.922411 L422.122387,281.922411 C420.883245,281.922411 419.891947,281.532973 419.148462,280.754084 C418.381375,279.927989 417.997837,278.812779 417.997837,277.408418 L417.997837,277.05438 C417.997837,275.650019 418.381375,274.534809 419.148462,273.708714 C419.868344,272.918024 420.841941,272.522685 422.069281,272.522685 L422.193195,272.522685 C423.314323,272.522685 424.223013,272.864919 424.919292,273.549397 C425.627373,274.233875 425.981408,275.166168 425.981408,276.346302 L425.981408,277.60314 L419.661818,277.60314 L419.661818,277.60314 L419.661818,277.60314 Z M422.104685,273.85033 C421.44381,273.85033 420.900956,274.0539 420.476107,274.461047 C420.051259,274.868193 419.791633,275.484804 419.697222,276.310899 L424.335129,276.310899 L424.335129,276.098475 C424.335129,275.390394 424.116807,274.829839 423.680157,274.416792 C423.278911,274.039149 422.753759,273.85033 422.104685,273.85033 L422.104685,273.85033 L422.104685,273.85033 L422.104685,273.85033 Z M435.15101,275.354994 L435.097904,276.027668 L433.628643,276.027668 L433.628643,275.638225 C433.628643,275.225178 433.522433,274.888845 433.310009,274.629215 C432.920564,274.109956 432.442617,273.85033 431.876152,273.85033 C431.250681,273.85033 430.778634,274.121757 430.459997,274.664619 C430.200368,275.11307 430.070555,275.673626 430.070555,276.346302 L430.070555,281.745392 L428.406573,281.745392 L428.406573,272.699704 L429.592603,272.699704 L429.84043,274.045051 C430.01745,273.51399 430.501298,273.083248 431.291988,272.75281 C431.634227,272.599392 432.029567,272.522685 432.478018,272.522685 C432.926469,272.522685 433.312957,272.596442 433.637494,272.743959 C433.962031,272.891476 434.236409,273.095046 434.460634,273.354676 C434.920887,273.873935 435.15101,274.540701 435.15101,275.354994 L435.15101,275.354994 L435.15101,275.354994 L435.15101,275.354994 Z" id="Product-" fill="#303030"></path>
                                <ellipse id="Oval-31-Copy-5" fill="#FFFFFF" transform="translate(281.500000, 423.500000) rotate(90.000000) translate(-281.500000, -423.500000) " cx="281.5" cy="423.5" rx="89.5" ry="89.5"></ellipse>
                                <ellipse id="Oval-31" fill="#FFFFFF" transform="translate(306.500000, 89.500000) rotate(90.000000) translate(-306.500000, -89.500000) " cx="306.5" cy="89.5" rx="89.5" ry="89.5"></ellipse>
                                <path d="M257.263608,92.3039362 C258.840076,92.3039362 259.867153,91.5933419 260.344871,90.1721321 C260.512072,89.6824715 260.595671,89.0853335 260.595671,88.3807 L260.595671,87.1266976 C260.595671,85.1441696 259.926877,83.9140652 258.589268,83.4363476 C258.183208,83.2810894 257.741325,83.2034615 257.263608,83.2034615 L254.755603,83.2034615 L254.755603,92.3039362 L257.263608,92.3039362 L257.263608,92.3039362 L257.263608,92.3039362 Z M253,93.8983107 L253,81.6090869 L257.263608,81.6090869 C258.744532,81.6090869 259.938809,82.0629119 260.846472,82.9705753 C261.849679,83.9498964 262.351275,85.3352566 262.351275,87.1266976 L262.351275,88.3807 C262.351275,90.172141 261.849679,91.5575013 260.846472,92.5368224 C259.938809,93.4444858 258.744532,93.8983107 257.263608,93.8983107 L253,93.8983107 L253,93.8983107 L253,93.8983107 Z M266.041625,89.7063597 C266.077454,91.1156267 266.549193,92.047162 267.456856,92.5009937 C267.767373,92.6562519 268.161484,92.7338799 268.639201,92.7338799 C269.104976,92.7338799 269.487144,92.6443092 269.785718,92.4651651 C270.084291,92.286021 270.311204,92.0770227 270.466462,91.8381639 C270.717264,91.4559898 270.842663,91.0081363 270.842663,90.4945898 L272.437037,90.4945898 C272.437037,91.5813974 272.078754,92.4532189 271.362178,93.1100806 C270.645602,93.7549994 269.726009,94.0774539 268.603373,94.0774539 L268.531715,94.0774539 C267.277707,94.0774539 266.274515,93.6833428 265.52211,92.8951088 C264.745818,92.059103 264.357679,90.9305121 264.357679,89.5093022 L264.357679,89.1510158 C264.357679,87.729806 264.745818,86.6012151 265.52211,85.7652093 C266.250629,84.9650323 267.235907,84.5649498 268.477972,84.5649498 L268.603373,84.5649498 C269.737952,84.5649498 270.657545,84.9112899 271.362178,85.6039804 C272.078754,86.2966709 272.437037,87.240149 272.437037,88.434443 L272.437037,89.7063597 L266.041625,89.7063597 L266.041625,89.7063597 L266.041625,89.7063597 Z M268.513801,85.9085238 C267.844996,85.9085238 267.295629,86.1145364 266.865684,86.5265679 C266.435738,86.9385993 266.172997,87.5626086 266.077454,88.3986144 L270.771005,88.3986144 L270.771005,88.1836425 C270.771005,87.4670661 270.550064,86.899785 270.108176,86.4817821 C269.702116,86.099608 269.170663,85.9085238 268.513801,85.9085238 L268.513801,85.9085238 L268.513801,85.9085238 L268.513801,85.9085238 Z M278.886193,93.8983107 L277.094761,93.8983107 L273.619382,84.744093 L275.410814,84.744093 L278.026305,91.7485923 L278.097962,91.7485923 L280.713453,84.744093 L282.361571,84.744093 L278.886193,93.8983107 L278.886193,93.8983107 L278.886193,93.8983107 Z M285.174119,89.7063597 C285.209948,91.1156267 285.681687,92.047162 286.58935,92.5009937 C286.899867,92.6562519 287.293978,92.7338799 287.771695,92.7338799 C288.23747,92.7338799 288.619638,92.6443092 288.918212,92.4651651 C289.216785,92.286021 289.443698,92.0770227 289.598956,91.8381639 C289.849758,91.4559898 289.975157,91.0081363 289.975157,90.4945898 L291.569531,90.4945898 C291.569531,91.5813974 291.211249,92.4532189 290.494672,93.1100806 C289.778096,93.7549994 288.858503,94.0774539 287.735867,94.0774539 L287.66421,94.0774539 C286.410201,94.0774539 285.407009,93.6833428 284.654604,92.8951088 C283.878313,92.059103 283.490173,90.9305121 283.490173,89.5093022 L283.490173,89.1510158 C283.490173,87.729806 283.878313,86.6012151 284.654604,85.7652093 C285.383123,84.9650323 286.368401,84.5649498 287.610467,84.5649498 L287.735867,84.5649498 C288.870446,84.5649498 289.790039,84.9112899 290.494672,85.6039804 C291.211249,86.2966709 291.569531,87.240149 291.569531,88.434443 L291.569531,89.7063597 L285.174119,89.7063597 L285.174119,89.7063597 L285.174119,89.7063597 Z M287.646295,85.9085238 C286.977491,85.9085238 286.428124,86.1145364 285.998178,86.5265679 C285.568232,86.9385993 285.305491,87.5626086 285.209948,88.3986144 L289.9035,88.3986144 L289.9035,88.1836425 C289.9035,87.4670661 289.682558,86.899785 289.24067,86.4817821 C288.83461,86.099608 288.303157,85.9085238 287.646295,85.9085238 L287.646295,85.9085238 L287.646295,85.9085238 L287.646295,85.9085238 Z M294.095451,93.8983107 L294.095451,81 L295.779397,81 L295.779397,93.8983107 L294.095451,93.8983107 L294.095451,93.8983107 L294.095451,93.8983107 Z M305.005272,89.1510158 C305.005272,88.0522653 304.760445,87.2222435 304.270784,86.6609253 C303.840839,86.1593218 303.243701,85.9085238 302.479352,85.9085238 C301.297001,85.9085238 300.520722,86.4937191 300.150491,87.6641272 C300.019118,88.0821301 299.953433,88.5777547 299.953433,89.1510158 L299.953433,89.4913879 C299.953433,90.5901384 300.19826,91.4201602 300.68792,91.9814784 C301.117866,92.4830819 301.715004,92.7338799 302.479352,92.7338799 C303.661704,92.7338799 304.437983,92.1427132 304.808214,90.9603622 C304.939586,90.5543022 305.005272,90.064649 305.005272,89.4913879 L305.005272,89.1510158 L305.005272,89.1510158 L305.005272,89.1510158 Z M306.689218,89.6526168 C306.689218,91.0977125 306.277192,92.2143606 305.45313,93.0025947 C304.700724,93.7191711 303.709475,94.0774539 302.479352,94.0774539 C301.24923,94.0774539 300.25798,93.7191711 299.505575,93.0025947 C298.681512,92.2143606 298.269487,91.0977125 298.269487,89.6526168 L298.269487,88.9897869 C298.269487,87.5446912 298.681512,86.4340144 299.505575,85.6577233 C300.25798,84.929204 301.24923,84.5649498 302.479352,84.5649498 C303.709475,84.5649498 304.700724,84.929204 305.45313,85.6577233 C306.277192,86.4340144 306.689218,87.5446912 306.689218,88.9897869 L306.689218,89.6526168 L306.689218,89.6526168 L306.689218,89.6526168 Z M310.791597,92.7338799 L310.791597,97.1408027 L309.107651,97.1408027 L309.107651,84.744093 L310.361653,84.744093 C310.421368,84.9710089 310.498996,85.3890055 310.59454,85.9980954 C311.275287,85.0426602 312.218765,84.5649498 313.425002,84.5649498 C314.51181,84.5649498 315.383631,84.9411468 316.040493,85.693552 C316.769012,86.5415007 317.133266,87.7536909 317.133266,89.330159 L317.133266,89.5272165 C317.133266,90.9723123 316.786926,92.1068745 316.094236,92.9309374 C315.449317,93.6952856 314.559581,94.0774539 313.425002,94.0774539 C312.290423,94.0774539 311.41263,93.6296004 310.791597,92.7338799 L310.791597,92.7338799 L310.791597,92.7338799 L310.791597,92.7338799 Z M315.44932,89.3122447 C315.44932,87.5208037 314.989524,86.4459552 314.069918,86.087667 C313.783287,85.9682376 313.466804,85.9085238 313.120459,85.9085238 C312.368054,85.9085238 311.800772,86.1533504 311.418598,86.643011 C310.988652,87.2043291 310.773683,88.0940648 310.773683,89.3122447 C310.773683,91.1156286 311.23945,92.2024199 312.171,92.572651 C312.45763,92.6801375 312.774113,92.7338799 313.120459,92.7338799 C313.860921,92.7338799 314.422231,92.4890533 314.804405,91.9993927 C315.234351,91.4380746 315.44932,90.5423675 315.44932,89.3122447 L315.44932,89.3122447 L315.44932,89.3122447 L315.44932,89.3122447 Z M325.033482,88.0403279 C325.033482,86.6191181 324.484115,85.9085238 323.385364,85.9085238 C322.80016,85.9085238 322.295579,86.1533504 321.871604,86.643011 C321.44763,87.1326715 321.235646,87.7357809 321.235646,88.4523573 L321.235646,93.8983107 L319.5517,93.8983107 L319.5517,84.744093 L320.769874,84.744093 L321.00276,86.087667 C321.707393,85.0725171 322.668785,84.5649498 323.886965,84.5649498 C325.093202,84.5649498 325.929195,85.0725171 326.39497,86.087667 C326.836859,85.4666342 327.299641,85.0575946 327.78333,84.8605361 C328.267019,84.6634776 328.741744,84.5649498 329.207518,84.5649498 C329.66135,84.5649498 330.067404,84.6276493 330.425692,84.7530502 C330.78398,84.878451 331.094492,85.0725209 331.357237,85.3352656 C331.918555,85.8726979 332.19921,86.6728628 332.19921,87.7357845 L332.19921,93.8983107 L330.515264,93.8983107 L330.515264,88.0403279 C330.515264,86.6191181 329.965897,85.9085238 328.867146,85.9085238 C328.281942,85.9085238 327.777361,86.1533504 327.353386,86.643011 C326.929412,87.1326715 326.717428,87.7357809 326.717428,88.4523573 L326.717428,93.8983107 L325.033482,93.8983107 L325.033482,88.0403279 L325.033482,88.0403279 L325.033482,88.0403279 Z M336.194103,89.7063597 C336.229932,91.1156267 336.701671,92.047162 337.609335,92.5009937 C337.919851,92.6562519 338.313962,92.7338799 338.79168,92.7338799 C339.257454,92.7338799 339.639623,92.6443092 339.938196,92.4651651 C340.23677,92.286021 340.463682,92.0770227 340.61894,91.8381639 C340.869742,91.4559898 340.995141,91.0081363 340.995141,90.4945898 L342.589516,90.4945898 C342.589516,91.5813974 342.231233,92.4532189 341.514656,93.1100806 C340.79808,93.7549994 339.878488,94.0774539 338.755851,94.0774539 L338.684194,94.0774539 C337.430185,94.0774539 336.426993,93.6833428 335.674588,92.8951088 C334.898297,92.059103 334.510157,90.9305121 334.510157,89.5093022 L334.510157,89.1510158 C334.510157,87.729806 334.898297,86.6012151 335.674588,85.7652093 C336.403107,84.9650323 337.388385,84.5649498 338.630451,84.5649498 L338.755851,84.5649498 C339.89043,84.5649498 340.810023,84.9112899 341.514656,85.6039804 C342.231233,86.2966709 342.589516,87.240149 342.589516,88.434443 L342.589516,89.7063597 L336.194103,89.7063597 L336.194103,89.7063597 L336.194103,89.7063597 Z M338.66628,85.9085238 C337.997475,85.9085238 337.448108,86.1145364 337.018162,86.5265679 C336.588216,86.9385993 336.325476,87.5626086 336.229932,88.3986144 L340.923484,88.3986144 L340.923484,88.1836425 C340.923484,87.4670661 340.702543,86.899785 340.260654,86.4817821 C339.854594,86.099608 339.323141,85.9085238 338.66628,85.9085238 L338.66628,85.9085238 L338.66628,85.9085238 L338.66628,85.9085238 Z M346.494838,86.087667 C347.271129,85.0725171 348.292235,84.5649498 349.558186,84.5649498 C351.051054,84.5649498 352.042303,85.1441737 352.531964,86.3026389 C352.699165,86.7086988 352.782764,87.1864093 352.782764,87.7357845 L352.782764,93.8983107 L351.098818,93.8983107 L351.098818,88.0403279 C351.098818,87.2640368 350.919676,86.7146699 350.561388,86.3922105 C350.2031,86.0697511 349.737332,85.9085238 349.164071,85.9085238 C348.519153,85.9085238 347.951871,86.1533504 347.462211,86.643011 C346.97255,87.1326715 346.727724,87.7357809 346.727724,88.4523573 L346.727724,93.8983107 L345.043778,93.8983107 L345.043778,84.744093 L346.261951,84.744093 L346.494838,86.087667 L346.494838,86.087667 L346.494838,86.087667 Z M358.658661,92.7697085 C358.969178,92.7697085 359.339403,92.6801378 359.769349,92.5009937 L359.769349,93.7549961 C359.339403,93.9699691 358.784065,94.0774539 358.103317,94.0774539 C357.410627,94.0774539 356.879174,93.874427 356.508943,93.468367 C356.138711,93.0623071 355.953599,92.3935124 355.953599,91.4619631 L355.953599,86.087667 L354.950397,86.087667 L354.950397,84.744093 L356.007342,84.744093 L356.5806,81.8240588 L357.637545,81.8240588 L357.637545,84.744093 L359.769349,84.744093 L359.769349,86.087667 L357.637545,86.087667 L357.637545,91.5515347 C357.637545,92.2322823 357.852515,92.620422 358.28246,92.7159656 C358.40189,92.7517944 358.527289,92.7697085 358.658661,92.7697085 L358.658661,92.7697085 L358.658661,92.7697085 L358.658661,92.7697085 Z" id="Development" fill="#303030"></path>
                                <ellipse id="Oval-31-Copy-3" fill="#FFFFFF" transform="translate(89.500000, 350.500000) rotate(90.000000) translate(-89.500000, -350.500000) " cx="89.5" cy="350.5" rx="89.5" ry="89.5"></ellipse>
                                <path d="M66.2361838,352.140293 C66.2361838,353.799548 65.7434047,355.078279 64.7578318,355.976522 C63.8720638,356.799912 62.7118498,357.211601 61.2771551,357.211601 C59.6802775,357.211601 58.4202602,356.737535 57.4970653,355.789389 C56.4990168,354.778865 56,353.331716 56,351.4479 L56,349.763701 C56,347.892361 56.4990168,346.445212 57.4970653,345.422212 C58.4327358,344.474066 59.6927531,344 61.2771551,344 C62.736801,344 63.9094904,344.424164 64.7952585,345.272506 C65.7558802,346.170749 66.2361838,347.44948 66.2361838,349.108735 L64.4022788,349.108735 C64.4022788,347.96098 64.1091065,347.081463 63.522753,346.470158 C62.9863019,345.933707 62.2377768,345.665485 61.2771551,345.665485 C59.6303751,345.665485 58.5699644,346.407773 58.0958914,347.89237 C57.9212329,348.416345 57.833905,349.040116 57.833905,349.763701 L57.833905,351.4479 C57.833905,353.518851 58.5138153,354.803819 59.8736564,355.302843 C60.297827,355.465026 60.7531798,355.546116 61.2397285,355.546116 C61.7262771,355.546116 62.1660356,355.48062 62.5590172,355.349626 C62.9519988,355.218632 63.2857163,355.015907 63.5601796,354.741443 C64.1714843,354.130139 64.4771321,353.263097 64.4771321,352.140293 L66.2361838,352.140293 L66.2361838,352.140293 L66.2361838,352.140293 Z M75.256002,352.065439 C75.256002,350.917684 75.000256,350.050642 74.4887561,349.464288 C74.0396343,348.940313 73.4158633,348.678329 72.6174245,348.678329 C71.3823395,348.678329 70.5714372,349.289625 70.1846934,350.512234 C70.0474618,350.94888 69.978847,351.46661 69.978847,352.065439 L69.978847,352.420992 C69.978847,353.568748 70.2345931,354.43579 70.7460929,355.022143 C71.1952147,355.546119 71.8189857,355.808102 72.6174245,355.808102 C73.8525095,355.808102 74.6634118,355.190569 75.0501556,353.955484 C75.1873872,353.531314 75.256002,353.019821 75.256002,352.420992 L75.256002,352.065439 L75.256002,352.065439 L75.256002,352.065439 Z M77.0150537,352.589412 C77.0150537,354.098961 76.5846518,355.265412 75.7238349,356.088802 C74.9378717,356.837339 73.902412,357.211601 72.6174245,357.211601 C71.3324371,357.211601 70.2969773,356.837339 69.5110141,356.088802 C68.6501972,355.265412 68.2197953,354.098961 68.2197953,352.589412 L68.2197953,351.897019 C68.2197953,350.387471 68.6501972,349.227257 69.5110141,348.416343 C70.2969773,347.655331 71.3324371,347.27483 72.6174245,347.27483 C73.902412,347.27483 74.9378717,347.655331 75.7238349,348.416343 C76.5846518,349.227257 77.0150537,350.387471 77.0150537,351.897019 L77.0150537,352.589412 L77.0150537,352.589412 L77.0150537,352.589412 Z M81.05713,348.865462 C81.8680444,347.805036 82.9346927,347.27483 84.257107,347.27483 C85.8165578,347.27483 86.8520175,347.879888 87.3635174,349.090022 C87.5381759,349.514193 87.6255038,350.013209 87.6255038,350.587087 L87.6255038,357.024468 L85.8664521,357.024468 L85.8664521,350.905214 C85.8664521,350.094299 85.6793208,349.52043 85.3050527,349.183589 C84.9307845,348.846747 84.4442431,348.678329 83.845414,348.678329 C83.1717313,348.678329 82.5791489,348.934075 82.067649,349.445575 C81.5561492,349.957075 81.3004031,350.587084 81.3004031,351.33562 L81.3004031,357.024468 L79.5413514,357.024468 L79.5413514,347.461964 L80.8138569,347.461964 L81.05713,348.865462 L81.05713,348.865462 L81.05713,348.865462 Z M93.7634714,355.845529 C94.0878372,355.845529 94.4745752,355.751963 94.923697,355.564829 L94.923697,356.874761 C94.4745752,357.099322 93.8944682,357.211601 93.1833586,357.211601 C92.4597735,357.211601 91.9046173,356.999519 91.5178735,356.575348 C91.1311297,356.151178 90.9377607,355.452554 90.9377607,354.479457 L90.9377607,348.865462 L89.889815,348.865462 L89.889815,347.461964 L90.9939007,347.461964 L91.5927268,344.411693 L92.6968124,344.411693 L92.6968124,347.461964 L94.923697,347.461964 L94.923697,348.865462 L92.6968124,348.865462 L92.6968124,354.573024 C92.6968124,355.284133 92.92137,355.689584 93.3704918,355.789389 C93.4952479,355.826816 93.6262398,355.845529 93.7634714,355.845529 L93.7634714,355.845529 L93.7634714,355.845529 L93.7634714,355.845529 Z M98.2733807,352.645552 C98.3108077,354.117674 98.8035867,355.090756 99.7517327,355.564829 C100.076099,355.727012 100.487787,355.808102 100.986812,355.808102 C101.47336,355.808102 101.872574,355.714537 102.184464,355.527403 C102.496354,355.340269 102.733387,355.121949 102.89557,354.872437 C103.157558,354.473217 103.288549,354.005389 103.288549,353.468938 L104.954035,353.468938 C104.954035,354.604218 104.579772,355.514924 103.831236,356.201082 C103.082699,356.874765 102.122092,357.211601 100.949385,357.211601 L100.874532,357.211601 C99.5645927,357.211601 98.5166577,356.799912 97.7306947,355.976522 C96.91978,355.10323 96.5143289,353.924303 96.5143289,352.439706 L96.5143289,352.065439 C96.5143289,350.580842 96.91978,349.401915 97.7306947,348.528623 C98.4917067,347.692757 99.5209287,347.27483 100.818392,347.27483 L100.949385,347.27483 C102.134568,347.27483 103.095175,347.636618 103.831236,348.360203 C104.579772,349.083788 104.954035,350.069346 104.954035,351.316907 L104.954035,352.645552 L98.2733807,352.645552 L98.2733807,352.645552 L98.2733807,352.645552 Z M100.855818,348.678329 C100.157184,348.678329 99.5833147,348.89353 99.1341927,349.323939 C98.6850717,349.754347 98.4106117,350.406188 98.3108067,351.27948 L103.213696,351.27948 L103.213696,351.05492 C103.213696,350.306384 102.982901,349.713801 102.521304,349.277155 C102.097133,348.877936 101.541977,348.678329 100.855818,348.678329 L100.855818,348.678329 L100.855818,348.678329 L100.855818,348.678329 Z M109.033537,348.865462 C109.844452,347.805036 110.9111,347.27483 112.233514,347.27483 C113.792965,347.27483 114.828425,347.879888 115.339925,349.090022 C115.514583,349.514193 115.601911,350.013209 115.601911,350.587087 L115.601911,357.024468 L113.84286,357.024468 L113.84286,350.905214 C113.84286,350.094299 113.655728,349.52043 113.28146,349.183589 C112.907192,348.846747 112.420651,348.678329 111.821822,348.678329 C111.148139,348.678329 110.555556,348.934075 110.044057,349.445575 C109.532557,349.957075 109.276811,350.587084 109.276811,351.33562 L109.276811,357.024468 L107.517759,357.024468 L107.517759,347.461964 L108.790264,347.461964 L109.033537,348.865462 L109.033537,348.865462 L109.033537,348.865462 Z M121.739879,355.845529 C122.064245,355.845529 122.450983,355.751963 122.900105,355.564829 L122.900105,356.874761 C122.450983,357.099322 121.870876,357.211601 121.159766,357.211601 C120.436181,357.211601 119.881025,356.999519 119.494281,356.575348 C119.107537,356.151178 118.914168,355.452554 118.914168,354.479457 L118.914168,348.865462 L117.866223,348.865462 L117.866223,347.461964 L118.970308,347.461964 L119.569134,344.411693 L120.67322,344.411693 L120.67322,347.461964 L122.900105,347.461964 L122.900105,348.865462 L120.67322,348.865462 L120.67322,354.573024 C120.67322,355.284133 120.897777,355.689584 121.346899,355.789389 C121.471655,355.826816 121.602647,355.845529 121.739879,355.845529 L121.739879,355.845529 L121.739879,355.845529 L121.739879,355.845529 Z" id="Content" fill="#303030"></path>
                                <ellipse id="Oval-31-Copy-4" fill="#FFFFFF" transform="translate(104.500000, 153.500000) rotate(90.000000) translate(-104.500000, -153.500000) " cx="104.5" cy="153.5" rx="89.5" ry="89.5"></ellipse>
                                <path d="M80.0650664,153.004212 C80.0650664,154.63573 79.5805251,155.893084 78.611428,156.776312 C77.7404672,157.585937 76.5996484,157.990744 75.1889374,157.990744 C73.6187546,157.990744 72.3798009,157.524603 71.472039,156.592307 C70.4906748,155.598676 70,154.175719 70,152.323394 L70,150.66735 C70,148.827292 70.4906748,147.404335 71.472039,146.398437 C72.3920679,145.466141 73.6310217,145 75.1889374,145 C76.6241825,145 77.7772682,145.417074 78.6482289,146.251233 C79.592792,147.134461 80.0650664,148.391815 80.0650664,150.023333 L78.2618187,150.023333 C78.2618187,148.894764 77.9735473,148.02995 77.3969958,147.428864 C76.8695125,146.901381 76.1335004,146.637643 75.1889374,146.637643 C73.5696864,146.637643 72.5270026,147.367522 72.0608546,148.827301 C71.8891158,149.342518 71.8032477,149.955861 71.8032477,150.66735 L71.8032477,152.323394 C71.8032477,154.359725 72.4717921,155.623212 73.8089008,156.113894 C74.2259806,156.273366 74.6737213,156.353101 75.1521364,156.353101 C75.6305514,156.353101 76.0629586,156.288699 76.4493707,156.159895 C76.8357829,156.031091 77.1639216,155.831755 77.4337968,155.56188 C78.0348824,154.960794 78.3354206,154.108247 78.3354206,153.004212 L80.0650664,153.004212 L80.0650664,153.004212 L80.0650664,153.004212 Z M88.9341012,152.93061 C88.9341012,151.802041 88.6826304,150.949494 88.1796812,150.372942 C87.7380673,149.857726 87.1247239,149.600122 86.3396325,149.600122 C85.1251943,149.600122 84.3278478,150.201198 83.9475692,151.40337 C83.8126316,151.832716 83.7451638,152.341791 83.7451638,152.93061 L83.7451638,153.280219 C83.7451638,154.408788 83.9966347,155.261335 84.4995838,155.837887 C84.9411977,156.353103 85.5545411,156.610707 86.3396325,156.610707 C87.5540707,156.610707 88.3514172,156.003497 88.7316958,154.789059 C88.8666334,154.371979 88.9341012,153.869038 88.9341012,153.280219 L88.9341012,152.93061 L88.9341012,152.93061 L88.9341012,152.93061 Z M90.663747,153.445824 C90.663747,154.930137 90.24054,156.077089 89.3941134,156.886715 C88.6212891,157.622738 87.603139,157.990744 86.3396325,157.990744 C85.0761261,157.990744 84.057976,157.622738 83.2851517,156.886715 C82.438725,156.077089 82.0155181,154.930137 82.0155181,153.445824 L82.0155181,152.765006 C82.0155181,151.280692 82.438725,150.139873 83.2851517,149.342515 C84.057976,148.594225 85.0761261,148.220085 86.3396325,148.220085 C87.603139,148.220085 88.6212891,148.594225 89.3941134,149.342515 C90.24054,150.139873 90.663747,151.280692 90.663747,152.765006 L90.663747,153.445824 L90.663747,153.445824 L90.663747,153.445824 Z M94.6382522,149.784127 C95.4356106,148.741427 96.4844279,148.220085 97.7847355,148.220085 C99.3181171,148.220085 100.336267,148.815028 100.839216,150.004932 C101.010955,150.422012 101.096823,150.912687 101.096823,151.476971 L101.096823,157.806739 L99.3671774,157.806739 L99.3671774,151.78978 C99.3671774,150.992421 99.1831743,150.428145 98.8151628,150.096935 C98.4471512,149.765724 97.9687433,149.600122 97.3799248,149.600122 C96.7175039,149.600122 96.1348276,149.851593 95.6318785,150.354542 C95.1289293,150.857491 94.8774585,151.476968 94.8774585,152.212991 L94.8774585,157.806739 L93.1478127,157.806739 L93.1478127,148.40409 L94.3990459,148.40409 L94.6382522,149.784127 L94.6382522,149.784127 L94.6382522,149.784127 Z M111.640303,154.126642 C111.640303,155.34108 111.272297,156.297896 110.536273,156.997118 C109.824784,157.659538 108.898636,157.990744 107.7578,157.990744 L107.610596,157.990744 C106.371624,157.990744 105.384141,157.585937 104.648118,156.776312 C103.863026,155.929885 103.470486,154.782933 103.470486,153.335421 L103.470486,152.893809 C103.470486,151.446297 103.863026,150.299345 104.648118,149.452918 C105.396408,148.631025 106.377757,148.220085 107.592195,148.220085 L107.739399,148.220085 C108.880235,148.220085 109.815584,148.572758 110.545474,149.278113 C111.275363,149.983469 111.640303,150.924951 111.640303,152.102588 L109.929057,152.102588 C109.929057,150.949485 109.499717,150.176672 108.641023,149.784127 C108.358881,149.661456 108.039942,149.600122 107.684198,149.600122 C107.316186,149.600122 106.981914,149.661456 106.681371,149.784127 C106.380829,149.906797 106.120158,150.0908 105.899351,150.336141 C105.433203,150.83909 105.200132,151.544435 105.200132,152.452197 L105.200132,153.445824 C105.200132,154.537591 105.427069,155.338004 105.88095,155.847087 C106.334831,156.35617 106.954308,156.610707 107.739399,156.610707 C108.512224,156.610707 109.079566,156.377637 109.441444,155.911489 C109.803322,155.445341 109.984259,154.850398 109.984259,154.126642 L111.640303,154.126642 L111.640303,154.126642 L111.640303,154.126642 Z M115.209997,153.501025 C115.246798,154.948537 115.73134,155.905353 116.663636,156.371501 C116.982579,156.530973 117.387386,156.610707 117.878068,156.610707 C118.356483,156.610707 118.749023,156.518706 119.055699,156.3347 C119.362375,156.150694 119.595446,155.936024 119.754917,155.690683 C120.012526,155.298137 120.141328,154.83813 120.141328,154.310646 L121.778971,154.310646 C121.778971,155.426948 121.410965,156.32243 120.674942,156.997118 C119.938919,157.659538 118.99437,157.990744 117.841267,157.990744 L117.767665,157.990744 C116.479624,157.990744 115.449207,157.585937 114.676383,156.776312 C113.879025,155.917618 113.480351,154.758399 113.480351,153.29862 L113.480351,152.93061 C113.480351,151.470831 113.879025,150.311612 114.676383,149.452918 C115.424673,148.631025 116.43669,148.220085 117.712463,148.220085 L117.841267,148.220085 C119.006637,148.220085 119.951186,148.575824 120.674942,149.287313 C121.410965,149.998803 121.778971,150.967885 121.778971,152.19459 L121.778971,153.501025 L115.209997,153.501025 L115.209997,153.501025 L115.209997,153.501025 Z M117.749264,149.600122 C117.062309,149.600122 116.498033,149.811725 116.05642,150.234939 C115.614806,150.658152 115.344935,151.299096 115.246798,152.157789 L120.067726,152.157789 L120.067726,151.936984 C120.067726,151.20096 119.840789,150.618284 119.386908,150.188937 C118.969828,149.796392 118.423952,149.600122 117.749264,149.600122 L117.749264,149.600122 L117.749264,149.600122 L117.749264,149.600122 Z M126.029484,156.610707 L126.029484,161.137227 L124.299838,161.137227 L124.299838,148.40409 L125.587872,148.40409 C125.649207,148.637164 125.728942,149.066505 125.827078,149.692124 C126.5263,148.71076 127.495383,148.220085 128.734355,148.220085 C129.850657,148.220085 130.746138,148.606492 131.420826,149.379316 C132.169116,150.250277 132.543256,151.495364 132.543256,153.114615 L132.543256,153.31702 C132.543256,154.801334 132.187517,155.966686 131.476028,156.813113 C130.813607,157.598204 129.899725,157.990744 128.734355,157.990744 C127.568985,157.990744 126.66737,157.530736 126.029484,156.610707 L126.029484,156.610707 L126.029484,156.610707 L126.029484,156.610707 Z M130.81361,153.096214 C130.81361,151.256156 130.341336,150.152138 129.396773,149.784127 C129.102363,149.661456 128.777291,149.600122 128.421547,149.600122 C127.648723,149.600122 127.066046,149.851593 126.673501,150.354542 C126.231887,150.931093 126.011083,151.844975 126.011083,153.096214 C126.011083,154.948539 126.489491,156.064824 127.446321,156.445103 C127.74073,156.555506 128.065802,156.610707 128.421547,156.610707 C129.182104,156.610707 129.758647,156.359237 130.151193,155.856287 C130.592807,155.279736 130.81361,154.359721 130.81361,153.096214 L130.81361,153.096214 L130.81361,153.096214 L130.81361,153.096214 Z M138.100203,156.647508 C138.419146,156.647508 138.799419,156.555507 139.241033,156.371501 L139.241033,157.659535 C138.799419,157.880342 138.22901,157.990744 137.529788,157.990744 C136.818299,157.990744 136.272423,157.782207 135.892145,157.365127 C135.511866,156.948048 135.321729,156.261103 135.321729,155.304273 L135.321729,149.784127 L134.291302,149.784127 L134.291302,148.40409 L135.376931,148.40409 L135.965747,145.404811 L137.051375,145.404811 L137.051375,148.40409 L139.241033,148.40409 L139.241033,149.784127 L137.051375,149.784127 L137.051375,155.396275 C137.051375,156.095497 137.272179,156.49417 137.713793,156.592307 C137.836463,156.629108 137.965265,156.647508 138.100203,156.647508 L138.100203,156.647508 L138.100203,156.647508 L138.100203,156.647508 Z" id="Concept" fill="#303030"></path>
                                <path d="M238,423.370225 C238,421.938469 238.25086,420.558741 238.752586,419.231002 C239.254313,417.903262 239.976298,416.700972 240.918565,415.624096 L241.873065,415.624096 C240.771714,417.37402 240.043609,419.264644 239.68873,421.296024 C239.566357,421.993546 239.505172,422.678821 239.505172,423.351869 C239.505172,424.037154 239.566357,424.728547 239.68873,425.426069 C239.811102,426.123591 239.976302,426.802748 240.184335,427.463558 C240.588164,428.723993 241.151068,429.935461 241.873065,431.097998 L240.918565,431.097998 C239.976298,430.021121 239.254313,428.821891 238.752586,427.50027 C238.25086,426.178649 238,424.801981 238,423.370225 L238,423.370225 L238,423.370225 L238,423.370225 Z M243.378236,415.624096 L248.114021,415.624096 L248.114021,417.257758 L246.645561,417.257758 L246.645561,426.582482 L248.114021,426.582482 L248.114021,428.216144 L243.378236,428.216144 L243.378236,426.582482 L244.846697,426.582482 L244.846697,417.257758 L243.378236,417.257758 L243.378236,415.624096 L243.378236,415.624096 L243.378236,415.624096 Z M249.41728,428.216144 L252.868162,423.462003 L249.600838,418.836353 L251.656682,418.836353 L253.91444,422.030254 L256.227265,418.836353 L258.117908,418.836353 L254.832228,423.351869 L258.28311,428.216144 L256.227265,428.216144 L253.78595,424.783618 L251.307923,428.216144 L249.41728,428.216144 L249.41728,428.216144 L249.41728,428.216144 Z M262.266309,419.231002 C262.768035,420.558741 263.018895,421.93235 263.018895,423.351869 C263.018895,424.783625 262.768035,426.163352 262.266309,427.491092 C261.764582,428.818831 261.042596,430.021121 260.10033,431.097998 L259.14583,431.097998 C260.234944,429.372548 260.95693,427.481924 261.311809,425.426069 C261.434182,424.728547 261.495367,424.037154 261.495367,423.351869 C261.495367,422.678821 261.434182,421.993546 261.311809,421.296024 C261.189437,420.598502 261.024237,419.919346 260.816204,419.258535 C260.400138,417.961389 259.843353,416.749921 259.14583,415.624096 L260.10033,415.624096 C261.042596,416.700972 261.764582,417.903262 262.266309,419.231002 L262.266309,419.231002 L262.266309,419.231002 L262.266309,419.231002 Z M274.436175,426.582482 C276.051489,426.582482 277.103875,425.854377 277.593364,424.398147 C277.764686,423.89642 277.850345,423.284568 277.850345,422.562571 L277.850345,421.277668 C277.850345,419.246288 277.16507,417.985872 275.7945,417.496383 C275.378435,417.337299 274.925664,417.257758 274.436175,417.257758 L271.866369,417.257758 L271.866369,426.582482 L274.436175,426.582482 L274.436175,426.582482 L274.436175,426.582482 Z M270.067505,428.216144 L270.067505,415.624096 L274.436175,415.624096 C275.953591,415.624096 277.177296,416.089104 278.107326,417.019133 C279.135253,418.022586 279.649209,419.442084 279.649209,421.277668 L279.649209,422.562571 C279.649209,424.398156 279.135253,425.817654 278.107326,426.821107 C277.177296,427.751136 275.953591,428.216144 274.436175,428.216144 L270.067505,428.216144 L270.067505,428.216144 L270.067505,428.216144 Z M283.430495,423.920897 C283.467206,425.364891 283.95057,426.31938 284.880599,426.784395 C285.198767,426.943479 285.60259,427.02302 286.092079,427.02302 C286.569331,427.02302 286.960917,426.931242 287.266848,426.747684 C287.572778,426.564125 287.805282,426.349977 287.964366,426.105232 C288.221348,425.713641 288.349837,425.254751 288.349837,424.72855 L289.983499,424.72855 C289.983499,425.842139 289.616388,426.735443 288.882154,427.408491 C288.14792,428.069301 287.205667,428.399702 286.055368,428.399702 L285.981945,428.399702 C284.697035,428.399702 283.669123,427.995879 282.898178,427.188222 C282.102758,426.331616 281.705054,425.175214 281.705054,423.718984 L281.705054,423.351869 C281.705054,421.895638 282.102758,420.739237 282.898178,419.882631 C283.644649,419.062737 284.654205,418.652795 285.926877,418.652795 L286.055368,418.652795 C287.217905,418.652795 288.160157,419.00767 288.882154,419.717429 C289.616388,420.427189 289.983499,421.393915 289.983499,422.617639 L289.983499,423.920897 L283.430495,423.920897 L283.430495,423.920897 L283.430495,423.920897 Z M285.963589,420.029477 C285.278304,420.029477 284.7154,420.240566 284.274859,420.662751 C283.834319,421.084935 283.565104,421.724321 283.467206,422.580927 L288.276414,422.580927 L288.276414,422.360658 C288.276414,421.626424 288.050029,421.045164 287.597251,420.616861 C287.181185,420.22527 286.636637,420.029477 285.963589,420.029477 L285.963589,420.029477 L285.963589,420.029477 L285.963589,420.029477 Z M291.800719,425.68305 L291.819075,425.279223 L293.52616,425.279223 L293.52616,425.462781 C293.52616,426.233726 294.015642,426.723208 294.994621,426.931241 C295.288314,426.992427 295.673781,427.02302 296.151033,427.02302 C296.628285,427.02302 297.081056,426.909827 297.509359,426.683438 C297.937662,426.45705 298.15181,426.135827 298.15181,425.719761 C298.15181,425.303695 298.001907,425.000828 297.702094,424.811151 C297.402282,424.621474 297.025993,424.47463 296.573216,424.370613 C296.120438,424.266597 295.634015,424.17176 295.113933,424.086099 C294.593851,424.000438 294.107428,423.862772 293.65465,423.673095 C293.201873,423.483417 292.825584,423.220321 292.525771,422.883797 C292.225959,422.547273 292.076055,422.066969 292.076055,421.44287 C292.076055,420.574027 292.418693,419.891811 293.103978,419.396204 C293.789263,418.900596 294.725397,418.652795 295.912408,418.652795 L296.07761,418.652795 C297.166724,418.652795 298.041673,418.903655 298.702483,419.405381 C299.338819,419.894871 299.656982,420.494486 299.656982,421.204245 L299.638627,421.534649 L297.931541,421.534649 L297.931541,421.369447 C297.931541,420.476129 297.240148,420.029477 295.857341,420.029477 C294.743753,420.029477 294.082952,420.304811 293.874919,420.855486 C293.825971,421.002333 293.801496,421.13694 293.801496,421.259313 C293.801496,421.601955 293.9514,421.858933 294.251212,422.030254 C294.551025,422.201576 294.927314,422.336183 295.380091,422.434081 C295.832869,422.531979 296.319292,422.626816 296.839374,422.718595 C297.359456,422.810375 297.845879,422.95416 298.298657,423.149956 C299.351058,423.590496 299.877251,424.336956 299.877251,425.389358 C299.877251,426.453997 299.491784,427.237168 298.720839,427.738894 C298.035554,428.179435 297.093301,428.399702 295.894053,428.399702 L295.618716,428.399702 C294.370519,428.399702 293.40991,428.118249 292.736863,427.555337 C292.112764,427.041373 291.800719,426.417284 291.800719,425.68305 L291.800719,425.68305 L291.800719,425.68305 L291.800719,425.68305 Z M302.300211,428.216144 L302.300211,418.836353 L304.025652,418.836353 L304.025652,428.216144 L302.300211,428.216144 L302.300211,428.216144 L302.300211,428.216144 Z M302.2635,415 L304.062364,415 L304.062364,416.596951 L302.2635,416.596951 L302.2635,415 L302.2635,415 L302.2635,415 Z M313.754203,419.588939 C314.366064,420.11514 314.67199,420.788178 314.67199,421.608072 C314.67199,422.452441 314.366064,423.143834 313.754203,423.682272 C313.105629,424.257422 312.181732,424.544993 310.982483,424.544993 L309.734292,424.544993 C309.367175,424.544993 309.061249,424.63983 308.816504,424.829507 C308.57176,425.019184 308.449389,425.260866 308.449389,425.554559 C308.449389,425.848253 308.565641,426.080757 308.798149,426.252078 C309.030656,426.423399 309.342701,426.509059 309.734292,426.509059 L313.276953,426.509059 C314.011187,426.509059 314.592447,426.735444 315.02075,427.188222 C315.449053,427.640999 315.663201,428.216141 315.663201,428.913663 C315.663201,429.782506 315.326682,430.467781 314.653635,430.969507 C314.029536,431.434522 313.203535,431.667026 312.175608,431.667026 L308.486101,431.667026 C307.849765,431.667026 307.311335,431.434522 306.870794,430.969507 C306.430254,430.504493 306.209987,430.002774 306.209987,429.464335 C306.209987,428.938134 306.338476,428.485364 306.595458,428.106009 C306.85244,427.726655 307.18284,427.451322 307.586669,427.28 C307.023756,426.925121 306.742304,426.417283 306.742304,425.756473 C306.742304,425.303695 306.873852,424.921287 307.136953,424.609238 C307.400053,424.297189 307.757987,424.061625 308.210764,423.902541 C307.39087,423.437527 306.980929,422.672711 306.980929,421.608072 C306.980929,420.739229 307.286855,420.041717 307.898717,419.515516 C308.559527,418.940366 309.514017,418.652795 310.762214,418.652795 L310.835637,418.652795 C311.53316,418.652795 312.157249,418.75681 312.707924,418.964843 C313.576768,418.53654 314.072368,417.930806 314.194741,417.147624 L315.663201,417.147624 C315.663201,417.759485 315.498001,418.27956 315.167596,418.707863 C314.83719,419.136166 314.378301,419.411499 313.790914,419.533872 L313.754203,419.588939 L313.754203,419.588939 L313.754203,419.588939 Z M308.688014,421.608072 C308.688014,422.183222 308.892985,422.587045 309.302932,422.819552 C309.712879,423.052059 310.217657,423.168311 310.817282,423.168311 C311.416906,423.168311 311.924743,423.052059 312.340809,422.819552 C312.756875,422.587045 312.964905,422.183222 312.964905,421.608072 C312.964905,421.032922 312.756875,420.62604 312.340809,420.387414 C311.924743,420.148788 311.416906,420.029477 310.817282,420.029477 C310.217657,420.029477 309.712879,420.148788 309.302932,420.387414 C308.892985,420.62604 308.688014,421.032922 308.688014,421.608072 L308.688014,421.608072 L308.688014,421.608072 L308.688014,421.608072 Z M312.524367,430.290344 C312.915958,430.290344 313.252477,430.177152 313.533933,429.950763 C313.81539,429.724374 313.956116,429.464337 313.956116,429.170643 C313.956116,428.87695 313.85516,428.635268 313.653246,428.445591 C313.451332,428.255914 313.154583,428.161077 312.762992,428.161077 L308.981706,428.161077 C308.688013,428.161077 308.437153,428.265092 308.22912,428.473125 C308.021087,428.681158 307.917072,428.932017 307.917072,429.225711 C307.917072,429.519404 308.021087,429.770264 308.22912,429.978297 C308.437153,430.186329 308.688013,430.290344 308.981706,430.290344 L312.524367,430.290344 L312.524367,430.290344 L312.524367,430.290344 Z M318.985593,420.213035 C319.781013,419.17287 320.82728,418.652795 322.124427,418.652795 C323.654081,418.652795 324.669756,419.246292 325.171482,420.433304 C325.342804,420.84937 325.428463,421.338852 325.428463,421.901764 L325.428463,428.216144 L323.703022,428.216144 L323.703022,422.213812 C323.703022,421.418392 323.519466,420.855488 323.152349,420.525083 C322.785232,420.194677 322.307987,420.029477 321.7206,420.029477 C321.05979,420.029477 320.47853,420.280337 319.976804,420.782063 C319.475077,421.28379 319.224218,421.90176 319.224218,422.635994 L319.224218,428.216144 L317.498777,428.216144 L317.498777,418.836353 L318.746968,418.836353 L318.985593,420.213035 L318.985593,420.213035 L318.985593,420.213035 Z" id="(Ix)-Design" fill="#303030"></path>
                                <path d="M191.199,235.978002 L196.129,235.978002 L196.129,235.570002 C196.129,230.810002 192.117,228.736002 187.255,228.736002 C182.325,228.736002 178.143,230.980002 178.143,235.638002 C178.143,244.546002 191.301,241.418002 191.301,245.906002 C191.301,247.232002 190.281,248.558002 186.847,248.558002 C184.059,248.558002 182.563,247.266002 182.563,245.328002 C182.563,245.158002 182.597,244.852002 182.597,244.784002 L177.633,244.784002 C177.633,244.954002 177.599,245.260002 177.599,245.532002 C177.599,250.666002 182.019,252.740002 187.017,252.740002 C192.661,252.740002 196.639,250.598002 196.639,245.056002 C196.639,236.556002 183.413,239.514002 183.413,235.094002 C183.413,233.802002 184.841,232.918002 187.357,232.918002 C189.771,232.918002 191.199,233.972002 191.199,235.672002 L191.199,235.978002 L191.199,235.978002 L191.199,235.978002 Z M205.139,243.152002 L205.139,238.324002 C205.139,234.754002 207.315,232.918002 210.035,232.918002 C212.959,232.918002 214.591,234.754002 214.591,238.324002 L219.589,238.324002 C219.589,231.898002 215.475,228.736002 210.171,228.736002 L209.695,228.736002 C204.119,228.736002 199.631,232.476002 199.631,239.072002 L199.631,242.404002 C199.631,249.170002 204.051,252.740002 209.831,252.740002 L210.307,252.740002 C215.509,252.740002 219.589,249.408002 219.589,243.220002 L214.795,243.220002 C214.795,246.858002 213.299,248.558002 210.069,248.558002 C207.349,248.558002 205.139,246.722002 205.139,243.152002 L205.139,243.152002 L205.139,243.152002 L205.139,243.152002 Z M243.253,252.196002 L243.253,251.040002 C241.723,250.564002 241.519,248.252002 241.519,246.756002 C241.519,242.914002 239.445,241.078002 237.779,240.534002 L237.779,240.364002 C240.159,239.922002 241.961,237.338002 241.961,234.856002 C241.961,230.436002 237.949,229.076002 234.107,229.076002 L223.669,229.076002 L223.669,252.400002 L228.837,252.400002 L228.837,242.744002 L232.781,242.744002 C235.807,242.744002 236.419,245.532002 236.419,248.932002 C236.419,251.822002 238.323,252.638002 240.329,252.638002 C241.315,252.638002 242.471,252.502002 243.253,252.196002 L243.253,252.196002 L243.253,252.196002 L243.253,252.196002 Z M233.937,238.630002 L228.837,238.630002 L228.837,233.258002 L233.937,233.258002 C235.535,233.258002 236.657,234.380002 236.657,235.842002 L236.657,236.080002 C236.657,237.508002 235.433,238.630002 233.937,238.630002 L233.937,238.630002 L233.937,238.630002 L233.937,238.630002 Z M264.537,244.988002 L264.537,229.076002 L259.301,229.076002 L259.301,244.886002 C259.301,247.062002 257.703,248.592002 255.289,248.592002 C252.909,248.592002 251.243,247.028002 251.243,244.886002 L251.243,229.076002 L246.007,229.076002 L246.007,244.988002 C246.007,249.680002 249.475,252.740002 254.779,252.740002 L255.731,252.740002 C261.035,252.740002 264.537,249.680002 264.537,244.988002 L264.537,244.988002 L264.537,244.988002 L264.537,244.988002 Z M291.873,252.400002 L297.109,252.400002 L297.109,229.076002 L288.643,229.076002 L283.203,244.478002 L283.067,244.478002 L277.627,229.076002 L269.161,229.076002 L269.161,252.400002 L273.921,252.400002 L273.921,235.230002 L274.091,235.230002 L280.143,252.400002 L285.651,252.400002 L291.703,235.230002 L291.873,235.230002 L291.873,252.400002 L291.873,252.400002 L291.873,252.400002 Z M202.334,270.692003 L208.93,270.692003 L208.93,266.476003 L190.502,266.476003 L190.502,270.692003 L197.132,270.692003 L197.132,289.800003 L202.334,289.800003 L202.334,270.692003 L202.334,270.692003 L202.334,270.692003 Z M211.65,289.800003 L228.174,289.800003 L227.596,285.618003 L216.818,285.618003 L216.818,279.940003 L226.78,279.940003 L226.78,275.758003 L216.818,275.758003 L216.818,270.658003 L227.494,270.658003 L228.072,266.476003 L211.65,266.476003 L211.65,289.800003 L211.65,289.800003 L211.65,289.800003 Z M245.582,285.210003 L247.282,289.800003 L252.79,289.800003 L244.324,266.476003 L238.068,266.476003 L229.602,289.800003 L234.668,289.800003 L236.3,285.210003 L245.582,285.210003 L245.582,285.210003 L245.582,285.210003 Z M240.89,272.086003 L241.06,272.086003 C242.114,275.112003 243.168,278.172003 244.188,281.232003 L237.728,281.232003 L240.89,272.086003 L240.89,272.086003 L240.89,272.086003 Z M278.018,289.800003 L283.254,289.800003 L283.254,266.476003 L274.788,266.476003 L269.348,281.878003 L269.212,281.878003 L263.772,266.476003 L255.306,266.476003 L255.306,289.800003 L260.066,289.800003 L260.066,272.630003 L260.236,272.630003 L266.288,289.800003 L271.796,289.800003 L277.848,272.630003 L278.018,272.630003 L278.018,289.800003 L278.018,289.800003 L278.018,289.800003 Z" id="SCRUM-TEAM" fill="#303030"></path>
                            </g>
                            <path d="M655,392 C763.247811,392 851,304.247811 851,196 C851,87.752189 763.247811,0 655,0 C546.752189,0 459,87.752189 459,196 C459,304.247811 546.752189,392 655,392 L655,392 L655,392 Z" id="Oval-32-Copy" stroke="#303030" stroke-width="10"></path>
                            <path d="M601.766,168.946 L607.856,168.946 L607.856,168.442 C607.856,162.562 602.9,160 596.894,160 C590.804,160 585.638,162.772 585.638,168.526 C585.638,179.53 601.892,175.666 601.892,181.21 C601.892,182.848 600.632,184.486 596.39,184.486 C592.946,184.486 591.098,182.89 591.098,180.496 C591.098,180.286 591.14,179.908 591.14,179.824 L585.008,179.824 C585.008,180.034 584.966,180.412 584.966,180.748 C584.966,187.09 590.426,189.652 596.6,189.652 C603.572,189.652 608.486,187.006 608.486,180.16 C608.486,169.66 592.148,173.314 592.148,167.854 C592.148,166.258 593.912,165.166 597.02,165.166 C600.002,165.166 601.766,166.468 601.766,168.568 L601.766,168.946 L601.766,168.946 L601.766,168.946 Z M625.076,165.628 L633.224,165.628 L633.224,160.42 L610.46,160.42 L610.46,165.628 L618.65,165.628 L618.65,189.232 L625.076,189.232 L625.076,165.628 L625.076,165.628 L625.076,165.628 Z M653.384,183.562 L655.484,189.232 L662.288,189.232 L651.83,160.42 L644.102,160.42 L633.644,189.232 L639.902,189.232 L641.918,183.562 L653.384,183.562 L653.384,183.562 L653.384,183.562 Z M647.588,167.35 L647.798,167.35 C649.1,171.088 650.402,174.868 651.662,178.648 L643.682,178.648 L647.588,167.35 L647.588,167.35 L647.588,167.35 Z M665.396,160.42 L665.396,189.232 L671.738,189.232 L671.738,181.714 L675.476,177.556 L682.322,189.232 L689.672,189.232 C686.312,183.688 683.036,178.144 679.676,172.558 C682.91,168.526 686.144,164.494 689.378,160.42 L682.112,160.42 C678.668,164.83 675.182,169.24 671.738,173.608 L671.738,160.42 L665.396,160.42 L665.396,160.42 L665.396,160.42 Z M693.116,189.232 L713.528,189.232 L712.814,184.066 L699.5,184.066 L699.5,177.052 L711.806,177.052 L711.806,171.886 L699.5,171.886 L699.5,165.586 L712.688,165.586 L713.402,160.42 L693.116,160.42 L693.116,189.232 L693.116,189.232 L693.116,189.232 Z M715.208,175.12 L715.208,180.496 L725.834,180.496 L725.834,175.12 L715.208,175.12 L715.208,175.12 L715.208,175.12 Z M579.464,231.232 L585.932,231.232 L585.932,202.42 L579.464,202.42 L579.464,213.844 L569.468,213.844 L569.468,202.42 L563,202.42 L563,231.232 L569.51,231.232 L569.51,219.22 L579.464,219.22 L579.464,231.232 L579.464,231.232 L579.464,231.232 Z M616.718,218.884 L616.718,214.768 C616.718,206.578 610.88,202 603.866,202 C596.852,202 591.014,206.578 591.014,214.768 L591.014,218.884 C591.014,227.074 596.852,231.652 603.866,231.652 C610.88,231.652 616.718,227.074 616.718,218.884 L616.718,218.884 L616.718,218.884 L616.718,218.884 Z M609.914,213.844 L609.914,219.808 C609.914,224.218 607.31,226.486 603.866,226.486 C600.422,226.486 597.818,224.218 597.818,219.808 L597.818,213.844 C597.818,209.434 600.422,207.166 603.866,207.166 C607.31,207.166 609.914,209.434 609.914,213.844 L609.914,213.844 L609.914,213.844 L609.914,213.844 Z M621.758,231.232 L640.826,231.232 L640.112,225.856 L628.268,225.856 L628.268,202.42 L621.758,202.42 L621.758,231.232 L621.758,231.232 L621.758,231.232 Z M655.064,202.42 L644.144,202.42 L644.144,231.232 L655.064,231.232 C662.078,231.232 667.916,226.654 667.916,218.464 L667.916,215.188 C667.916,206.998 662.078,202.42 655.064,202.42 L655.064,202.42 L655.064,202.42 L655.064,202.42 Z M650.654,207.586 L655.064,207.586 C658.508,207.586 661.112,209.854 661.112,214.264 L661.112,219.388 C661.112,223.798 658.508,226.066 655.064,226.066 L650.654,226.066 L650.654,207.586 L650.654,207.586 L650.654,207.586 Z M672.956,231.232 L693.368,231.232 L692.654,226.066 L679.34,226.066 L679.34,219.052 L691.646,219.052 L691.646,213.886 L679.34,213.886 L679.34,207.586 L692.528,207.586 L693.242,202.42 L672.956,202.42 L672.956,231.232 L672.956,231.232 L672.956,231.232 Z M722.264,230.98 L722.264,229.552 C720.374,228.964 720.122,226.108 720.122,224.26 C720.122,219.514 717.56,217.246 715.502,216.574 L715.502,216.364 C718.442,215.818 720.668,212.626 720.668,209.56 C720.668,204.1 715.712,202.42 710.966,202.42 L698.072,202.42 L698.072,231.232 L704.456,231.232 L704.456,219.304 L709.328,219.304 C713.066,219.304 713.822,222.748 713.822,226.948 C713.822,230.518 716.174,231.526 718.652,231.526 C719.87,231.526 721.298,231.358 722.264,230.98 L722.264,230.98 L722.264,230.98 L722.264,230.98 Z M710.756,214.222 L704.456,214.222 L704.456,207.586 L710.756,207.586 C712.73,207.586 714.116,208.972 714.116,210.778 L714.116,211.072 C714.116,212.836 712.604,214.222 710.756,214.222 L710.756,214.222 L710.756,214.222 L710.756,214.222 Z M741.248,210.946 L747.338,210.946 L747.338,210.442 C747.338,204.562 742.382,202 736.376,202 C730.286,202 725.12,204.772 725.12,210.526 C725.12,221.53 741.374,217.666 741.374,223.21 C741.374,224.848 740.114,226.486 735.872,226.486 C732.428,226.486 730.58,224.89 730.58,222.496 C730.58,222.286 730.622,221.908 730.622,221.824 L724.49,221.824 C724.49,222.034 724.448,222.412 724.448,222.748 C724.448,229.09 729.908,231.652 736.082,231.652 C743.054,231.652 747.968,229.006 747.968,222.16 C747.968,211.66 731.63,215.314 731.63,209.854 C731.63,208.258 733.394,207.166 736.502,207.166 C739.484,207.166 741.248,208.468 741.248,210.568 L741.248,210.946 L741.248,210.946 L741.248,210.946 Z" id="STAKE-" fill="#303030"></path>
                        </g>
                    </g>
                </g>
            </g>
        </g>
    </g>
</svg>