<?xml version="1.0" encoding="UTF-8" standalone="no"?>
<svg width="1024px" height="673px" viewBox="0 0 1024 673" version="1.1" xmlns="http://www.w3.org/2000/svg" xmlns:xlink="http://www.w3.org/1999/xlink">
    <!-- Generator: Sketch 3.6.1 (26313) - http://www.bohemiancoding.com/sketch -->
    <title>slide-scrum</title>
    <desc>Created with Sketch.</desc>
    <defs>
        <rect id="path-1" x="0" y="0" width="1024" height="673"></rect>
    </defs>
    <g id="Page-1" stroke="none" stroke-width="1" fill="none" fill-rule="evenodd">
        <g id="slide-scrum">
            <mask id="mask-2" fill="white">
                <use xlink:href="#path-1"></use>
            </mask>
            <g id="Rectangle-1">
                <use fill="none" xlink:href="#path-1"></use>
                <use fill="#FFF568" xlink:href="#path-1"></use>
            </g>
            <path d="M649.5,449 C726.08038,449 788.161044,387.439153 788.161044,311.5 C788.161044,235.560847 726.08038,174 649.5,174 C572.91962,174 510.838956,235.560847 510.838956,311.5 C510.838956,387.439153 572.91962,449 649.5,449 Z" id="Oval-31-Copy" fill="#FFFFFF" mask="url(#mask-2)">
                <g transform="translate(649.500000, 311.500000) rotate(-270.000000) translate(-649.500000, -311.500000) "></g>
            </path>
            <path d="M602.542264,288.284 L602.542264,294.5 L607.834264,294.5 C608.711602,294.5 609.476928,294.192003 610.130264,293.576 C610.764934,292.978664 611.082264,292.250671 611.082264,291.392 C611.082264,290.533329 610.774267,289.805336 610.158264,289.208 C609.504928,288.591997 608.730269,288.284 607.834264,288.284 L602.542264,288.284 Z M602.542264,296.992 L602.542264,305 L599.798264,305 L599.798264,285.792 L608.086264,285.792 C609.710273,285.792 611.063592,286.295995 612.146264,287.304 C613.26627,288.368005 613.826264,289.730658 613.826264,291.392 C613.826264,293.053342 613.26627,294.415995 612.146264,295.48 C611.063592,296.488005 609.710273,296.992 608.086264,296.992 L602.542264,296.992 Z M627.686264,294.892 L627.602264,295.956 L625.278264,295.956 L625.278264,295.34 C625.278264,294.686663 625.110266,294.154669 624.774264,293.744 C624.158261,292.922663 623.402269,292.512 622.506264,292.512 C621.516926,292.512 620.770267,292.941329 620.266264,293.8 C619.855596,294.509337 619.650264,295.395995 619.650264,296.46 L619.650264,305 L617.018264,305 L617.018264,290.692 L618.894264,290.692 L619.286264,292.82 C619.566266,291.979996 620.331591,291.298669 621.582264,290.776 C622.1236,290.533332 622.748928,290.412 623.458264,290.412 C624.167601,290.412 624.778928,290.528665 625.292264,290.762 C625.8056,290.995335 626.239596,291.317331 626.594264,291.728 C627.322268,292.549337 627.686264,293.603994 627.686264,294.892 L627.686264,294.892 Z M640.398264,297.58 C640.398264,295.862658 640.015602,294.565338 639.250264,293.688 C638.578261,292.903996 637.644937,292.512 636.450264,292.512 C634.602255,292.512 633.388934,293.426658 632.810264,295.256 C632.60493,295.909337 632.502264,296.683996 632.502264,297.58 L632.502264,298.112 C632.502264,299.829342 632.884927,301.126662 633.650264,302.004 C634.322268,302.788004 635.255592,303.18 636.450264,303.18 C638.298274,303.18 639.511595,302.256009 640.090264,300.408 C640.295599,299.77333 640.398264,299.008004 640.398264,298.112 L640.398264,297.58 Z M643.030264,298.364 C643.030264,300.622678 642.386271,302.367994 641.098264,303.6 C639.922259,304.720006 638.372941,305.28 636.450264,305.28 C634.527588,305.28 632.97827,304.720006 631.802264,303.6 C630.514258,302.367994 629.870264,300.622678 629.870264,298.364 L629.870264,297.328 C629.870264,295.069322 630.514258,293.333339 631.802264,292.12 C632.97827,290.981328 634.527588,290.412 636.450264,290.412 C638.372941,290.412 639.922259,290.981328 641.098264,292.12 C642.386271,293.333339 643.030264,295.069322 643.030264,297.328 L643.030264,298.364 Z M655.854264,292.512 L655.854264,284.84 L658.486264,284.84 L658.486264,305 L656.526264,305 C656.432931,304.645332 656.311598,303.992005 656.162264,303.04 C655.098259,304.533341 653.623607,305.28 651.738264,305.28 C650.039589,305.28 648.676936,304.682673 647.650264,303.488 C646.511592,302.181327 645.942264,300.296012 645.942264,297.832 L645.942264,297.524 C645.942264,295.265322 646.483592,293.492006 647.566264,292.204 C648.574269,291.009327 649.964922,290.412 651.738264,290.412 C653.511607,290.412 654.883593,291.111993 655.854264,292.512 L655.854264,292.512 Z M648.574264,297.86 C648.574264,300.660014 649.292924,302.34933 650.730264,302.928 C651.178267,303.096001 651.672928,303.18 652.214264,303.18 C654.65961,303.18 655.882264,301.406684 655.882264,297.86 C655.882264,295.041319 655.154272,293.352003 653.698264,292.792 C653.250262,292.605332 652.7556,292.512 652.214264,292.512 C651.056925,292.512 650.179601,292.894663 649.582264,293.66 C648.910261,294.537338 648.574264,295.937324 648.574264,297.86 L648.574264,297.86 Z M677.134264,304.72 C676.574262,305.093335 675.986267,305.28 675.370264,305.28 C674.735595,305.28 674.264266,305.214667 673.956264,305.084 C673.648263,304.953333 673.391599,304.776001 673.186264,304.552 C672.831596,304.159998 672.635598,303.61867 672.598264,302.928 C671.870261,303.992005 670.834271,304.710665 669.490264,305.084 C669.042262,305.214667 668.519601,305.28 667.922264,305.28 C667.306261,305.28 666.690267,305.182001 666.074264,304.986 C665.458261,304.789999 664.916933,304.496002 664.450264,304.104 C663.479593,303.226662 662.994264,301.966675 662.994264,300.324 L662.994264,290.692 L665.626264,290.692 L665.626264,299.848 C665.626264,301.061339 665.906262,301.919997 666.466264,302.424 C667.026267,302.928003 667.75426,303.18 668.650264,303.18 C669.658269,303.18 670.544927,302.797337 671.310264,302.032 C672.075602,301.266663 672.458264,300.324006 672.458264,299.204 L672.458264,290.692 L675.090264,290.692 L675.090264,302.2 C675.090264,302.554668 675.169597,302.806666 675.328264,302.956 C675.486932,303.105334 675.66893,303.18 675.874264,303.18 C676.3036,303.18 676.723596,303.049335 677.134264,302.788 L677.134264,304.72 Z M691.974264,299.4 C691.974264,301.248009 691.41427,302.703995 690.294264,303.768 C689.211592,304.776005 687.802273,305.28 686.066264,305.28 L685.842264,305.28 C683.956922,305.28 682.45427,304.664006 681.334264,303.432 C680.139592,302.143994 679.542264,300.398678 679.542264,298.196 L679.542264,297.524 C679.542264,295.321322 680.139592,293.576006 681.334264,292.288 C682.472937,291.037327 683.966255,290.412 685.814264,290.412 L686.038264,290.412 C687.774273,290.412 689.197592,290.948661 690.308264,292.022 C691.418937,293.095339 691.974264,294.527991 691.974264,296.32 L689.370264,296.32 C689.370264,294.565325 688.716938,293.389336 687.410264,292.792 C686.980929,292.605332 686.4956,292.512 685.954264,292.512 C685.394262,292.512 684.8856,292.605332 684.428264,292.792 C683.970929,292.978668 683.574266,293.258665 683.238264,293.632 C682.528928,294.397337 682.174264,295.47066 682.174264,296.852 L682.174264,298.364 C682.174264,300.025342 682.519594,301.243329 683.210264,302.018 C683.900935,302.792671 684.843592,303.18 686.038264,303.18 C687.21427,303.18 688.077595,302.825337 688.628264,302.116 C689.178934,301.406663 689.454264,300.501339 689.454264,299.4 L691.974264,299.4 Z M700.346264,303.236 C700.8316,303.236 701.410261,303.096001 702.082264,302.816 L702.082264,304.776 C701.410261,305.112002 700.54227,305.28 699.478264,305.28 C698.395592,305.28 697.564934,304.96267 696.986264,304.328 C696.407595,303.69333 696.118264,302.648007 696.118264,301.192 L696.118264,292.792 L694.550264,292.792 L694.550264,290.692 L696.202264,290.692 L697.098264,286.128 L698.750264,286.128 L698.750264,290.692 L702.082264,290.692 L702.082264,292.792 L698.750264,292.792 L698.750264,301.332 C698.750264,302.396005 699.086261,303.002666 699.758264,303.152 C699.944932,303.208 700.14093,303.236 700.346264,303.236 L700.346264,303.236 Z M621.036264,327.136 C621.036264,324.037318 620.000275,322.11467 617.928264,321.368 C617.274928,321.125332 616.574935,321.004 615.828264,321.004 C615.062927,321.004 614.362934,321.120665 613.728264,321.354 C613.093595,321.587334 612.552267,321.946664 612.104264,322.432 C611.114926,323.477339 610.620264,325.045323 610.620264,327.136 L610.620264,329.656 C610.620264,332.754682 611.656254,334.67733 613.728264,335.424 C614.362934,335.666668 615.062927,335.788 615.828264,335.788 C616.574935,335.788 617.270261,335.671335 617.914264,335.438 C618.558268,335.204666 619.104262,334.845336 619.552264,334.36 C620.541603,333.314661 621.036264,331.746677 621.036264,329.656 L621.036264,327.136 Z M623.780264,329.656 C623.780264,332.456014 623.005605,334.621326 621.456264,336.152 C620.000257,337.570674 618.124276,338.28 615.828264,338.28 C613.532253,338.28 611.656272,337.570674 610.200264,336.152 C608.650923,334.621326 607.876264,332.456014 607.876264,329.656 L607.876264,327.136 C607.876264,324.335986 608.650923,322.170674 610.200264,320.64 C611.656272,319.221326 613.532253,318.512 615.828264,318.512 C618.124276,318.512 620.000257,319.221326 621.456264,320.64 C623.005605,322.170674 623.780264,324.335986 623.780264,327.136 L623.780264,329.656 Z M636.744264,328.004 L633.496264,338 L630.752264,338 L626.048264,323.692 L628.764264,323.692 L632.096264,334.164 L632.208264,334.164 L635.596264,323.692 L638.172264,323.692 L641.504264,334.164 L641.616264,334.164 L645.004264,323.692 L647.580264,323.692 L642.904264,338 L640.160264,338 L636.856264,328.004 L636.744264,328.004 Z M652.788264,325.792 C654.001604,324.205325 655.597588,323.412 657.576264,323.412 C659.909609,323.412 661.458927,324.317324 662.224264,326.128 C662.485599,326.76267 662.616264,327.509329 662.616264,328.368 L662.616264,338 L659.984264,338 L659.984264,328.844 C659.984264,327.630661 659.704267,326.772003 659.144264,326.268 C658.584262,325.763997 657.856269,325.512 656.960264,325.512 C655.952259,325.512 655.065602,325.894663 654.300264,326.66 C653.534927,327.425337 653.152264,328.367994 653.152264,329.488 L653.152264,338 L650.520264,338 L650.520264,323.692 L652.424264,323.692 L652.788264,325.792 Z M668.860264,331.448 C668.916265,333.650678 669.653591,335.106663 671.072264,335.816 C671.5576,336.058668 672.173594,336.18 672.920264,336.18 C673.648268,336.18 674.245595,336.040001 674.712264,335.76 C675.178933,335.479999 675.533597,335.153335 675.776264,334.78 C676.168266,334.182664 676.364264,333.482671 676.364264,332.68 L678.856264,332.68 C678.856264,334.378675 678.29627,335.741328 677.176264,336.768 C676.056259,337.776005 674.61894,338.28 672.864264,338.28 L672.752264,338.28 C670.792255,338.28 669.22427,337.664006 668.048264,336.432 C666.834925,335.125327 666.228264,333.361344 666.228264,331.14 L666.228264,330.58 C666.228264,328.358656 666.834925,326.594673 668.048264,325.288 C669.186937,324.037327 670.726921,323.412 672.668264,323.412 L672.864264,323.412 C674.637607,323.412 676.074926,323.953328 677.176264,325.036 C678.29627,326.118672 678.856264,327.593324 678.856264,329.46 L678.856264,331.448 L668.860264,331.448 Z M672.724264,325.512 C671.678926,325.512 670.820268,325.833997 670.148264,326.478 C669.476261,327.122003 669.065598,328.097327 668.916264,329.404 L676.252264,329.404 L676.252264,329.068 C676.252264,327.947994 675.906935,327.061337 675.216264,326.408 C674.581595,325.810664 673.750936,325.512 672.724264,325.512 L672.724264,325.512 Z M693.360264,327.892 L693.276264,328.956 L690.952264,328.956 L690.952264,328.34 C690.952264,327.686663 690.784266,327.154669 690.448264,326.744 C689.832261,325.922663 689.076269,325.512 688.180264,325.512 C687.190926,325.512 686.444267,325.941329 685.940264,326.8 C685.529596,327.509337 685.324264,328.395995 685.324264,329.46 L685.324264,338 L682.692264,338 L682.692264,323.692 L684.568264,323.692 L684.960264,325.82 C685.240266,324.979996 686.005591,324.298669 687.256264,323.776 C687.7976,323.533332 688.422928,323.412 689.132264,323.412 C689.841601,323.412 690.452928,323.528665 690.966264,323.762 C691.4796,323.995335 691.913596,324.317331 692.268264,324.728 C692.996268,325.549337 693.360264,326.603994 693.360264,327.892 L693.360264,327.892 Z" id="Product-" fill="#303030" mask="url(#mask-2)"></path>
            <ellipse id="Oval-31-Copy-5" fill="#FFFFFF" mask="url(#mask-2)" cx="452.347796" cy="555.5" rx="138.50884" ry="137.5">
                <g transform="translate(452.347796, 555.500000) rotate(-270.000000) translate(-452.347796, -555.500000) "></g>
            </ellipse>
            <path d="M386.020043,557.608 C386.020043,555.423989 386.402706,553.319343 387.168043,551.294 C387.93338,549.268657 389.034703,547.434675 390.472043,545.792 L391.928043,545.792 C390.248035,548.461347 389.137379,551.345318 388.596043,554.444 C388.409376,555.508005 388.316043,556.553328 388.316043,557.58 C388.316043,558.625339 388.409376,559.679995 388.596043,560.744 C388.782711,561.808005 389.034708,562.843995 389.352043,563.852 C389.968046,565.774676 390.826704,567.622658 391.928043,569.396 L390.472043,569.396 C389.034703,567.753325 387.93338,565.92401 387.168043,563.908 C386.402706,561.89199 386.020043,559.792011 386.020043,557.608 L386.020043,557.608 Z M394.224043,545.792 L401.448043,545.792 L401.448043,548.284 L399.208043,548.284 L399.208043,562.508 L401.448043,562.508 L401.448043,565 L394.224043,565 L394.224043,562.508 L396.464043,562.508 L396.464043,548.284 L394.224043,548.284 L394.224043,545.792 Z M403.436043,565 L408.700043,557.748 L403.716043,550.692 L406.852043,550.692 L410.296043,555.564 L413.824043,550.692 L416.708043,550.692 L411.696043,557.58 L416.960043,565 L413.824043,565 L410.100043,559.764 L406.320043,565 L403.436043,565 Z M423.036043,551.294 C423.80138,553.319343 424.184043,555.414656 424.184043,557.58 C424.184043,559.764011 423.80138,561.868657 423.036043,563.894 C422.270706,565.919343 421.169384,567.753325 419.732043,569.396 L418.276043,569.396 C419.937385,566.763987 421.038707,563.880016 421.580043,560.744 C421.766711,559.679995 421.860043,558.625339 421.860043,557.58 C421.860043,556.553328 421.766711,555.508005 421.580043,554.444 C421.393376,553.379995 421.141378,552.344005 420.824043,551.336 C420.189373,549.357323 419.340049,547.509342 418.276043,545.792 L419.732043,545.792 C421.169384,547.434675 422.270706,549.268657 423.036043,551.294 L423.036043,551.294 Z M441.600043,562.508 C444.064056,562.508 445.669373,561.397344 446.416043,559.176 C446.677378,558.410663 446.808043,557.477339 446.808043,556.376 L446.808043,554.416 C446.808043,551.317318 445.76272,549.39467 443.672043,548.648 C443.037373,548.405332 442.346714,548.284 441.600043,548.284 L437.680043,548.284 L437.680043,562.508 L441.600043,562.508 Z M434.936043,565 L434.936043,545.792 L441.600043,545.792 C443.914722,545.792 445.78137,546.501326 447.200043,547.92 C448.768051,549.450674 449.552043,551.615986 449.552043,554.416 L449.552043,556.376 C449.552043,559.176014 448.768051,561.341326 447.200043,562.872 C445.78137,564.290674 443.914722,565 441.600043,565 L434.936043,565 Z M455.320043,558.448 C455.376044,560.650678 456.11337,562.106663 457.532043,562.816 C458.017379,563.058668 458.633373,563.18 459.380043,563.18 C460.108047,563.18 460.705374,563.040001 461.172043,562.76 C461.638712,562.479999 461.993375,562.153335 462.236043,561.78 C462.628045,561.182664 462.824043,560.482671 462.824043,559.68 L465.316043,559.68 C465.316043,561.378675 464.756049,562.741328 463.636043,563.768 C462.516038,564.776005 461.078719,565.28 459.324043,565.28 L459.212043,565.28 C457.252034,565.28 455.684049,564.664006 454.508043,563.432 C453.294704,562.125327 452.688043,560.361344 452.688043,558.14 L452.688043,557.58 C452.688043,555.358656 453.294704,553.594673 454.508043,552.288 C455.646716,551.037327 457.1867,550.412 459.128043,550.412 L459.324043,550.412 C461.097386,550.412 462.534704,550.953328 463.636043,552.036 C464.756049,553.118672 465.316043,554.593324 465.316043,556.46 L465.316043,558.448 L455.320043,558.448 Z M459.184043,552.512 C458.138705,552.512 457.280047,552.833997 456.608043,553.478 C455.93604,554.122003 455.525377,555.097327 455.376043,556.404 L462.712043,556.404 L462.712043,556.068 C462.712043,554.947994 462.366713,554.061337 461.676043,553.408 C461.041373,552.810664 460.210715,552.512 459.184043,552.512 L459.184043,552.512 Z M468.088043,561.136 L468.116043,560.52 L470.720043,560.52 L470.720043,560.8 C470.720043,561.976006 471.466703,562.722665 472.960043,563.04 C473.408046,563.133334 473.99604,563.18 474.724043,563.18 C475.452047,563.18 476.142707,563.007335 476.796043,562.662 C477.44938,562.316665 477.776043,561.82667 477.776043,561.192 C477.776043,560.55733 477.547379,560.095335 477.090043,559.806 C476.632708,559.516665 476.058713,559.292667 475.368043,559.134 C474.677373,558.975333 473.935381,558.830667 473.142043,558.7 C472.348706,558.569333 471.606713,558.359335 470.916043,558.07 C470.225373,557.780665 469.651379,557.379336 469.194043,556.866 C468.736708,556.352664 468.508043,555.620005 468.508043,554.668 C468.508043,553.34266 469.030705,552.302004 470.076043,551.546 C471.121382,550.789996 472.549368,550.412 474.360043,550.412 L474.612043,550.412 C476.273385,550.412 477.608038,550.794663 478.616043,551.56 C479.586715,552.30667 480.072043,553.221328 480.072043,554.304 L480.044043,554.808 L477.440043,554.808 L477.440043,554.556 C477.440043,553.193327 476.385387,552.512 474.276043,552.512 C472.577368,552.512 471.569378,552.931996 471.252043,553.772 C471.177376,553.996001 471.140043,554.201332 471.140043,554.388 C471.140043,554.910669 471.368708,555.302665 471.826043,555.564 C472.283379,555.825335 472.857373,556.030666 473.548043,556.18 C474.238713,556.329334 474.980706,556.473999 475.774043,556.614 C476.567381,556.754001 477.309373,556.973332 478.000043,557.272 C479.605385,557.944003 480.408043,559.082659 480.408043,560.688 C480.408043,562.312008 479.820049,563.506663 478.644043,564.272 C477.598705,564.944003 476.161386,565.28 474.332043,565.28 L473.912043,565.28 C472.008034,565.28 470.542715,564.850671 469.516043,563.992 C468.564039,563.207996 468.088043,562.256006 468.088043,561.136 L468.088043,561.136 Z M484.104043,565 L484.104043,550.692 L486.736043,550.692 L486.736043,565 L484.104043,565 Z M484.048043,544.84 L486.792043,544.84 L486.792043,547.276 L484.048043,547.276 L484.048043,544.84 Z M501.576043,551.84 C502.509381,552.642671 502.976043,553.669327 502.976043,554.92 C502.976043,556.208006 502.509381,557.262663 501.576043,558.084 C500.586705,558.961338 499.177386,559.4 497.348043,559.4 L495.444043,559.4 C494.884041,559.4 494.417379,559.544665 494.044043,559.834 C493.670708,560.123335 493.484043,560.491998 493.484043,560.94 C493.484043,561.388002 493.661375,561.742665 494.016043,562.004 C494.370712,562.265335 494.846707,562.396 495.444043,562.396 L500.848043,562.396 C501.968049,562.396 502.854707,562.74133 503.508043,563.432 C504.16138,564.12267 504.488043,564.999995 504.488043,566.064 C504.488043,567.38934 503.974715,568.434663 502.948043,569.2 C501.996039,569.909337 500.736051,570.264 499.168043,570.264 L493.540043,570.264 C492.569372,570.264 491.748047,569.909337 491.076043,569.2 C490.40404,568.490663 490.068043,567.725337 490.068043,566.904 C490.068043,566.101329 490.264041,565.41067 490.656043,564.832 C491.048045,564.25333 491.55204,563.833335 492.168043,563.572 C491.309372,563.030664 490.880043,562.256005 490.880043,561.248 C490.880043,560.55733 491.080708,559.974002 491.482043,559.498 C491.883379,559.021998 492.429373,558.662668 493.120043,558.42 C491.86937,557.710663 491.244043,556.544008 491.244043,554.92 C491.244043,553.59466 491.710705,552.530671 492.644043,551.728 C493.652048,550.850662 495.108034,550.412 497.012043,550.412 L497.124043,550.412 C498.188049,550.412 499.140039,550.570665 499.980043,550.888 C501.305383,550.234663 502.061376,549.310673 502.248043,548.116 L504.488043,548.116 C504.488043,549.049338 504.236046,549.842663 503.732043,550.496 C503.228041,551.149337 502.528048,551.569332 501.632043,551.756 L501.576043,551.84 Z M493.848043,554.92 C493.848043,555.797338 494.160707,556.413332 494.786043,556.768 C495.41138,557.122668 496.181372,557.3 497.096043,557.3 C498.010715,557.3 498.785373,557.122668 499.420043,556.768 C500.054713,556.413332 500.372043,555.797338 500.372043,554.92 C500.372043,554.042662 500.054713,553.422002 499.420043,553.058 C498.785373,552.693998 498.010715,552.512 497.096043,552.512 C496.181372,552.512 495.41138,552.693998 494.786043,553.058 C494.160707,553.422002 493.848043,554.042662 493.848043,554.92 L493.848043,554.92 Z M499.700043,568.164 C500.29738,568.164 500.810708,567.991335 501.240043,567.646 C501.669379,567.300665 501.884043,566.904002 501.884043,566.456 C501.884043,566.007998 501.730045,565.639335 501.422043,565.35 C501.114042,565.060665 500.66138,564.916 500.064043,564.916 L494.296043,564.916 C493.848041,564.916 493.465378,565.074665 493.148043,565.392 C492.830708,565.709335 492.672043,566.091998 492.672043,566.54 C492.672043,566.988002 492.830708,567.370665 493.148043,567.688 C493.465378,568.005335 493.848041,568.164 494.296043,568.164 L499.700043,568.164 Z M509.556043,552.792 C510.769383,551.205325 512.365367,550.412 514.344043,550.412 C516.677388,550.412 518.226706,551.317324 518.992043,553.128 C519.253378,553.76267 519.384043,554.509329 519.384043,555.368 L519.384043,565 L516.752043,565 L516.752043,555.844 C516.752043,554.630661 516.472046,553.772003 515.912043,553.268 C515.352041,552.763997 514.624048,552.512 513.728043,552.512 C512.720038,552.512 511.83338,552.894663 511.068043,553.66 C510.302706,554.425337 509.920043,555.367994 509.920043,556.488 L509.920043,565 L507.288043,565 L507.288043,550.692 L509.192043,550.692 L509.556043,552.792 Z" id="(Ix)-Design" fill="#303030" mask="url(#mask-2)"></path>
            <ellipse id="Oval-31" fill="#FFFFFF" mask="url(#mask-2)" cx="489.63905" cy="41.5" rx="138.800094" ry="137.5">
                <g transform="translate(489.639050, 41.500000) rotate(-270.000000) translate(-489.639050, -41.500000) "></g>
            </ellipse>
            <path d="M413.66112,48.508 C416.125132,48.508 417.730449,47.3973444 418.47712,45.176 C418.738454,44.4106628 418.86912,43.4773388 418.86912,42.376 L418.86912,40.416 C418.86912,37.3173178 417.823797,35.3946704 415.73312,34.648 C415.09845,34.4053321 414.40779,34.284 413.66112,34.284 L409.74112,34.284 L409.74112,48.508 L413.66112,48.508 Z M406.99712,51 L406.99712,31.792 L413.66112,31.792 C415.975798,31.792 417.842446,32.5013262 419.26112,33.92 C420.829128,35.4506743 421.61312,37.615986 421.61312,40.416 L421.61312,42.376 C421.61312,45.176014 420.829128,47.3413257 419.26112,48.872 C417.842446,50.2906738 415.975798,51 413.66112,51 L406.99712,51 Z M427.38112,44.448 C427.43712,46.6506777 428.174446,48.1066631 429.59312,48.816 C430.078455,49.0586679 430.694449,49.18 431.44112,49.18 C432.169123,49.18 432.766451,49.0400014 433.23312,48.76 C433.699789,48.4799986 434.054452,48.1533352 434.29712,47.78 C434.689122,47.1826637 434.88512,46.4826707 434.88512,45.68 L437.37712,45.68 C437.37712,47.3786752 436.817125,48.7413282 435.69712,49.768 C434.577114,50.776005 433.139795,51.28 431.38512,51.28 L431.27312,51.28 C429.31311,51.28 427.745126,50.6640062 426.56912,49.432 C425.35578,48.1253268 424.74912,46.3613444 424.74912,44.14 L424.74912,43.58 C424.74912,41.3586556 425.35578,39.5946732 426.56912,38.288 C427.707792,37.0373271 429.247777,36.412 431.18912,36.412 L431.38512,36.412 C433.158462,36.412 434.595781,36.9533279 435.69712,38.036 C436.817125,39.1186721 437.37712,40.593324 437.37712,42.46 L437.37712,44.448 L427.38112,44.448 Z M431.24512,38.512 C430.199781,38.512 429.341123,38.8339968 428.66912,39.478 C427.997116,40.1220032 427.586454,41.0973268 427.43712,42.404 L434.77312,42.404 L434.77312,42.068 C434.77312,40.9479944 434.42779,40.0613366 433.73712,39.408 C433.10245,38.8106637 432.271792,38.512 431.24512,38.512 L431.24512,38.512 Z M447.45712,51 L444.65712,51 L439.22512,36.692 L442.02512,36.692 L446.11312,47.64 L446.22512,47.64 L450.31312,36.692 L452.88912,36.692 L447.45712,51 Z M457.28512,44.448 C457.34112,46.6506777 458.078446,48.1066631 459.49712,48.816 C459.982455,49.0586679 460.598449,49.18 461.34512,49.18 C462.073123,49.18 462.670451,49.0400014 463.13712,48.76 C463.603789,48.4799986 463.958452,48.1533352 464.20112,47.78 C464.593122,47.1826637 464.78912,46.4826707 464.78912,45.68 L467.28112,45.68 C467.28112,47.3786752 466.721125,48.7413282 465.60112,49.768 C464.481114,50.776005 463.043795,51.28 461.28912,51.28 L461.17712,51.28 C459.21711,51.28 457.649126,50.6640062 456.47312,49.432 C455.25978,48.1253268 454.65312,46.3613444 454.65312,44.14 L454.65312,43.58 C454.65312,41.3586556 455.25978,39.5946732 456.47312,38.288 C457.611792,37.0373271 459.151777,36.412 461.09312,36.412 L461.28912,36.412 C463.062462,36.412 464.499781,36.9533279 465.60112,38.036 C466.721125,39.1186721 467.28112,40.593324 467.28112,42.46 L467.28112,44.448 L457.28512,44.448 Z M461.14912,38.512 C460.103781,38.512 459.245123,38.8339968 458.57312,39.478 C457.901116,40.1220032 457.490454,41.0973268 457.34112,42.404 L464.67712,42.404 L464.67712,42.068 C464.67712,40.9479944 464.33179,40.0613366 463.64112,39.408 C463.00645,38.8106637 462.175792,38.512 461.14912,38.512 L461.14912,38.512 Z M471.22912,51 L471.22912,30.84 L473.86112,30.84 L473.86112,51 L471.22912,51 Z M488.28112,43.58 C488.28112,41.8626581 487.898457,40.5653377 487.13312,39.688 C486.461116,38.9039961 485.527792,38.512 484.33312,38.512 C482.48511,38.512 481.271789,39.4266575 480.69312,41.256 C480.487785,41.9093366 480.38512,42.6839955 480.38512,43.58 L480.38512,44.112 C480.38512,45.8293419 480.767783,47.1266623 481.53312,48.004 C482.205123,48.7880039 483.138447,49.18 484.33312,49.18 C486.181129,49.18 487.39445,48.2560092 487.97312,46.408 C488.178454,45.7733302 488.28112,45.0080045 488.28112,44.112 L488.28112,43.58 Z M490.91312,44.364 C490.91312,46.622678 490.269126,48.3679938 488.98112,49.6 C487.805114,50.7200056 486.255796,51.28 484.33312,51.28 C482.410443,51.28 480.861126,50.7200056 479.68512,49.6 C478.397113,48.3679938 477.75312,46.622678 477.75312,44.364 L477.75312,43.328 C477.75312,41.069322 478.397113,39.3333394 479.68512,38.12 C480.861126,36.9813276 482.410443,36.412 484.33312,36.412 C486.255796,36.412 487.805114,36.9813276 488.98112,38.12 C490.269126,39.3333394 490.91312,41.069322 490.91312,43.328 L490.91312,44.364 Z M497.32512,49.18 L497.32512,56.068 L494.69312,56.068 L494.69312,36.692 L496.65312,36.692 C496.746454,37.0466684 496.867786,37.6999952 497.01712,38.652 C498.081125,37.1586592 499.555777,36.412 501.44112,36.412 C503.139795,36.412 504.502448,36.9999941 505.52912,38.176 C506.667792,39.50134 507.23712,41.3959877 507.23712,43.86 L507.23712,44.168 C507.23712,46.426678 506.695792,48.1999936 505.61312,49.488 C504.605115,50.6826726 503.214462,51.28 501.44112,51.28 C499.667778,51.28 498.295791,50.580007 497.32512,49.18 L497.32512,49.18 Z M504.60512,43.832 C504.60512,41.031986 503.88646,39.3520028 502.44912,38.792 C502.001117,38.6053324 501.506456,38.512 500.96512,38.512 C499.789114,38.512 498.902456,38.8946628 498.30512,39.66 C497.633116,40.5373377 497.29712,41.9279905 497.29712,43.832 C497.29712,46.6506808 498.025112,48.3493304 499.48112,48.928 C499.929122,49.0960008 500.423784,49.18 500.96512,49.18 C502.122459,49.18 502.999783,48.7973372 503.59712,48.032 C504.269123,47.1546623 504.60512,45.7546763 504.60512,43.832 L504.60512,43.832 Z M519.58512,41.844 C519.58512,39.6226556 518.726462,38.512 517.00912,38.512 C516.094448,38.512 515.30579,38.8946628 514.64312,39.66 C513.98045,40.4253372 513.64912,41.3679944 513.64912,42.488 L513.64912,51 L511.01712,51 L511.01712,36.692 L512.92112,36.692 L513.28512,38.792 C514.386459,37.2053254 515.88911,36.412 517.79312,36.412 C519.678462,36.412 520.985116,37.2053254 521.71312,38.792 C522.40379,37.8213285 523.127116,37.1820015 523.88312,36.874 C524.639124,36.5659985 525.381116,36.412 526.10912,36.412 C526.818457,36.412 527.453117,36.509999 528.01312,36.706 C528.573123,36.902001 529.058451,37.2053313 529.46912,37.616 C530.346457,38.4560042 530.78512,39.7066584 530.78512,41.368 L530.78512,51 L528.15312,51 L528.15312,41.844 C528.15312,39.6226556 527.294462,38.512 525.57712,38.512 C524.662448,38.512 523.87379,38.8946628 523.21112,39.66 C522.54845,40.4253372 522.21712,41.3679944 522.21712,42.488 L522.21712,51 L519.58512,51 L519.58512,41.844 Z M537.02912,44.448 C537.08512,46.6506777 537.822446,48.1066631 539.24112,48.816 C539.726455,49.0586679 540.342449,49.18 541.08912,49.18 C541.817123,49.18 542.414451,49.0400014 542.88112,48.76 C543.347789,48.4799986 543.702452,48.1533352 543.94512,47.78 C544.337122,47.1826637 544.53312,46.4826707 544.53312,45.68 L547.02512,45.68 C547.02512,47.3786752 546.465125,48.7413282 545.34512,49.768 C544.225114,50.776005 542.787795,51.28 541.03312,51.28 L540.92112,51.28 C538.96111,51.28 537.393126,50.6640062 536.21712,49.432 C535.00378,48.1253268 534.39712,46.3613444 534.39712,44.14 L534.39712,43.58 C534.39712,41.3586556 535.00378,39.5946732 536.21712,38.288 C537.355792,37.0373271 538.895777,36.412 540.83712,36.412 L541.03312,36.412 C542.806462,36.412 544.243781,36.9533279 545.34512,38.036 C546.465125,39.1186721 547.02512,40.593324 547.02512,42.46 L547.02512,44.448 L537.02912,44.448 Z M540.89312,38.512 C539.847781,38.512 538.989123,38.8339968 538.31712,39.478 C537.645116,40.1220032 537.234454,41.0973268 537.08512,42.404 L544.42112,42.404 L544.42112,42.068 C544.42112,40.9479944 544.07579,40.0613366 543.38512,39.408 C542.75045,38.8106637 541.919792,38.512 540.89312,38.512 L540.89312,38.512 Z M553.12912,38.792 C554.342459,37.2053254 555.938443,36.412 557.91712,36.412 C560.250465,36.412 561.799783,37.3173243 562.56512,39.128 C562.826454,39.7626698 562.95712,40.509329 562.95712,41.368 L562.95712,51 L560.32512,51 L560.32512,41.844 C560.32512,40.6306606 560.045123,39.7720025 559.48512,39.268 C558.925117,38.7639975 558.197124,38.512 557.30112,38.512 C556.293115,38.512 555.406457,38.8946628 554.64112,39.66 C553.875783,40.4253372 553.49312,41.3679944 553.49312,42.488 L553.49312,51 L550.86112,51 L550.86112,36.692 L552.76512,36.692 L553.12912,38.792 Z M572.14112,49.236 C572.626455,49.236 573.205116,49.0960014 573.87712,48.816 L573.87712,50.776 C573.205116,51.1120017 572.337125,51.28 571.27312,51.28 C570.190448,51.28 569.359789,50.9626698 568.78112,50.328 C568.20245,49.6933302 567.91312,48.6480073 567.91312,47.192 L567.91312,38.792 L566.34512,38.792 L566.34512,36.692 L567.99712,36.692 L568.89312,32.128 L570.54512,32.128 L570.54512,36.692 L573.87712,36.692 L573.87712,38.792 L570.54512,38.792 L570.54512,47.332 C570.54512,48.3960053 570.881116,49.0026659 571.55312,49.152 C571.739787,49.2080003 571.935785,49.236 572.14112,49.236 L572.14112,49.236 Z" id="Development" fill="#303030" mask="url(#mask-2)"></path>
            <ellipse id="Oval-31-Copy-3" fill="#FFFFFF" mask="url(#mask-2)" cx="159.5" cy="449.5" rx="138.661044" ry="137.5">
                <g transform="translate(159.500000, 449.500000) rotate(-270.000000) translate(-159.500000, -449.500000) "></g>
            </ellipse>
            <path d="M124.968654,451.692 C124.968654,454.174679 124.231328,456.087993 122.756654,457.432 C121.431314,458.664006 119.695332,459.28 117.548654,459.28 C115.159309,459.28 113.273995,458.570674 111.892654,457.152 C110.399314,455.639992 109.652654,453.474681 109.652654,450.656 L109.652654,448.136 C109.652654,445.335986 110.399314,443.170674 111.892654,441.64 C113.292661,440.221326 115.177976,439.512 117.548654,439.512 C119.732665,439.512 121.487314,440.14666 122.812654,441.416 C124.249995,442.760007 124.968654,444.673321 124.968654,447.156 L122.224654,447.156 C122.224654,445.438658 121.785992,444.122671 120.908654,443.208 C120.105984,442.405329 118.985995,442.004 117.548654,442.004 C115.084642,442.004 113.497991,443.114656 112.788654,445.336 C112.52732,446.120004 112.396654,447.053328 112.396654,448.136 L112.396654,450.656 C112.396654,453.754682 113.413977,455.67733 115.448654,456.424 C116.083324,456.666668 116.764651,456.788 117.492654,456.788 C118.220658,456.788 118.878651,456.690001 119.466654,456.494 C120.054657,456.297999 120.553986,455.994669 120.964654,455.584 C121.879326,454.669329 122.336654,453.372008 122.336654,451.692 L124.968654,451.692 Z M138.464654,451.58 C138.464654,449.862658 138.081991,448.565338 137.316654,447.688 C136.644651,446.903996 135.711327,446.512 134.516654,446.512 C132.668645,446.512 131.455324,447.426658 130.876654,449.256 C130.67132,449.909337 130.568654,450.683996 130.568654,451.58 L130.568654,452.112 C130.568654,453.829342 130.951317,455.126662 131.716654,456.004 C132.388658,456.788004 133.321982,457.18 134.516654,457.18 C136.364664,457.18 137.577985,456.256009 138.156654,454.408 C138.361989,453.77333 138.464654,453.008004 138.464654,452.112 L138.464654,451.58 Z M141.096654,452.364 C141.096654,454.622678 140.452661,456.367994 139.164654,457.6 C137.988648,458.720006 136.439331,459.28 134.516654,459.28 C132.593978,459.28 131.04466,458.720006 129.868654,457.6 C128.580648,456.367994 127.936654,454.622678 127.936654,452.364 L127.936654,451.328 C127.936654,449.069322 128.580648,447.333339 129.868654,446.12 C131.04466,444.981328 132.593978,444.412 134.516654,444.412 C136.439331,444.412 137.988648,444.981328 139.164654,446.12 C140.452661,447.333339 141.096654,449.069322 141.096654,451.328 L141.096654,452.364 Z M147.144654,446.792 C148.357994,445.205325 149.953978,444.412 151.932654,444.412 C154.265999,444.412 155.815317,445.317324 156.580654,447.128 C156.841989,447.76267 156.972654,448.509329 156.972654,449.368 L156.972654,459 L154.340654,459 L154.340654,449.844 C154.340654,448.630661 154.060657,447.772003 153.500654,447.268 C152.940652,446.763997 152.212659,446.512 151.316654,446.512 C150.308649,446.512 149.421991,446.894663 148.656654,447.66 C147.891317,448.425337 147.508654,449.367994 147.508654,450.488 L147.508654,459 L144.876654,459 L144.876654,444.692 L146.780654,444.692 L147.144654,446.792 Z M166.156654,457.236 C166.64199,457.236 167.220651,457.096001 167.892654,456.816 L167.892654,458.776 C167.220651,459.112002 166.35266,459.28 165.288654,459.28 C164.205982,459.28 163.375324,458.96267 162.796654,458.328 C162.217985,457.69333 161.928654,456.648007 161.928654,455.192 L161.928654,446.792 L160.360654,446.792 L160.360654,444.692 L162.012654,444.692 L162.908654,440.128 L164.560654,440.128 L164.560654,444.692 L167.892654,444.692 L167.892654,446.792 L164.560654,446.792 L164.560654,455.332 C164.560654,456.396005 164.896651,457.002666 165.568654,457.152 C165.755322,457.208 165.95132,457.236 166.156654,457.236 L166.156654,457.236 Z M172.904654,452.448 C172.960655,454.650678 173.697981,456.106663 175.116654,456.816 C175.60199,457.058668 176.217984,457.18 176.964654,457.18 C177.692658,457.18 178.289985,457.040001 178.756654,456.76 C179.223323,456.479999 179.577986,456.153335 179.820654,455.78 C180.212656,455.182664 180.408654,454.482671 180.408654,453.68 L182.900654,453.68 C182.900654,455.378675 182.34066,456.741328 181.220654,457.768 C180.100649,458.776005 178.66333,459.28 176.908654,459.28 L176.796654,459.28 C174.836645,459.28 173.26866,458.664006 172.092654,457.432 C170.879315,456.125327 170.272654,454.361344 170.272654,452.14 L170.272654,451.58 C170.272654,449.358656 170.879315,447.594673 172.092654,446.288 C173.231327,445.037327 174.771311,444.412 176.712654,444.412 L176.908654,444.412 C178.681997,444.412 180.119315,444.953328 181.220654,446.036 C182.34066,447.118672 182.900654,448.593324 182.900654,450.46 L182.900654,452.448 L172.904654,452.448 Z M176.768654,446.512 C175.723316,446.512 174.864658,446.833997 174.192654,447.478 C173.520651,448.122003 173.109988,449.097327 172.960654,450.404 L180.296654,450.404 L180.296654,450.068 C180.296654,448.947994 179.951324,448.061337 179.260654,447.408 C178.625984,446.810664 177.795326,446.512 176.768654,446.512 L176.768654,446.512 Z M189.004654,446.792 C190.217994,445.205325 191.813978,444.412 193.792654,444.412 C196.125999,444.412 197.675317,445.317324 198.440654,447.128 C198.701989,447.76267 198.832654,448.509329 198.832654,449.368 L198.832654,459 L196.200654,459 L196.200654,449.844 C196.200654,448.630661 195.920657,447.772003 195.360654,447.268 C194.800652,446.763997 194.072659,446.512 193.176654,446.512 C192.168649,446.512 191.281991,446.894663 190.516654,447.66 C189.751317,448.425337 189.368654,449.367994 189.368654,450.488 L189.368654,459 L186.736654,459 L186.736654,444.692 L188.640654,444.692 L189.004654,446.792 Z M208.016654,457.236 C208.50199,457.236 209.080651,457.096001 209.752654,456.816 L209.752654,458.776 C209.080651,459.112002 208.21266,459.28 207.148654,459.28 C206.065982,459.28 205.235324,458.96267 204.656654,458.328 C204.077985,457.69333 203.788654,456.648007 203.788654,455.192 L203.788654,446.792 L202.220654,446.792 L202.220654,444.692 L203.872654,444.692 L204.768654,440.128 L206.420654,440.128 L206.420654,444.692 L209.752654,444.692 L209.752654,446.792 L206.420654,446.792 L206.420654,455.332 C206.420654,456.396005 206.756651,457.002666 207.428654,457.152 C207.615322,457.208 207.81132,457.236 208.016654,457.236 L208.016654,457.236 Z" id="Content" fill="#303030" mask="url(#mask-2)"></path>
            <ellipse id="Oval-31-Copy-4" fill="#FFFFFF" mask="url(#mask-2)" cx="176.5" cy="138.5" rx="138.661044" ry="137.5">
                <g transform="translate(176.500000, 138.500000) rotate(-270.000000) translate(-176.500000, -138.500000) "></g>
            </ellipse>
            <path d="M139.745459,140.692 C139.745459,143.174679 139.008133,145.087993 137.533459,146.432 C136.208119,147.664006 134.472137,148.28 132.325459,148.28 C129.936114,148.28 128.0508,147.570674 126.669459,146.152 C125.176119,144.639992 124.429459,142.474681 124.429459,139.656 L124.429459,137.136 C124.429459,134.335986 125.176119,132.170674 126.669459,130.64 C128.069466,129.221326 129.954781,128.512 132.325459,128.512 C134.50947,128.512 136.264119,129.14666 137.589459,130.416 C139.0268,131.760007 139.745459,133.673321 139.745459,136.156 L137.001459,136.156 C137.001459,134.438658 136.562797,133.122671 135.685459,132.208 C134.882789,131.405329 133.7628,131.004 132.325459,131.004 C129.861447,131.004 128.274796,132.114656 127.565459,134.336 C127.304125,135.120004 127.173459,136.053328 127.173459,137.136 L127.173459,139.656 C127.173459,142.754682 128.190783,144.67733 130.225459,145.424 C130.860129,145.666668 131.541456,145.788 132.269459,145.788 C132.997463,145.788 133.655456,145.690001 134.243459,145.494 C134.831462,145.297999 135.330791,144.994669 135.741459,144.584 C136.656131,143.669329 137.113459,142.372008 137.113459,140.692 L139.745459,140.692 Z M153.241459,140.58 C153.241459,138.862658 152.858797,137.565338 152.093459,136.688 C151.421456,135.903996 150.488132,135.512 149.293459,135.512 C147.44545,135.512 146.232129,136.426658 145.653459,138.256 C145.448125,138.909337 145.345459,139.683996 145.345459,140.58 L145.345459,141.112 C145.345459,142.829342 145.728122,144.126662 146.493459,145.004 C147.165463,145.788004 148.098787,146.18 149.293459,146.18 C151.141469,146.18 152.35479,145.256009 152.933459,143.408 C153.138794,142.77333 153.241459,142.008004 153.241459,141.112 L153.241459,140.58 Z M155.873459,141.364 C155.873459,143.622678 155.229466,145.367994 153.941459,146.6 C152.765453,147.720006 151.216136,148.28 149.293459,148.28 C147.370783,148.28 145.821465,147.720006 144.645459,146.6 C143.357453,145.367994 142.713459,143.622678 142.713459,141.364 L142.713459,140.328 C142.713459,138.069322 143.357453,136.333339 144.645459,135.12 C145.821465,133.981328 147.370783,133.412 149.293459,133.412 C151.216136,133.412 152.765453,133.981328 153.941459,135.12 C155.229466,136.333339 155.873459,138.069322 155.873459,140.328 L155.873459,141.364 Z M161.921459,135.792 C163.134799,134.205325 164.730783,133.412 166.709459,133.412 C169.042804,133.412 170.592122,134.317324 171.357459,136.128 C171.618794,136.76267 171.749459,137.509329 171.749459,138.368 L171.749459,148 L169.117459,148 L169.117459,138.844 C169.117459,137.630661 168.837462,136.772003 168.277459,136.268 C167.717457,135.763997 166.989464,135.512 166.093459,135.512 C165.085454,135.512 164.198797,135.894663 163.433459,136.66 C162.668122,137.425337 162.285459,138.367994 162.285459,139.488 L162.285459,148 L159.653459,148 L159.653459,133.692 L161.557459,133.692 L161.921459,135.792 Z M187.793459,142.4 C187.793459,144.248009 187.233465,145.703995 186.113459,146.768 C185.030787,147.776005 183.621468,148.28 181.885459,148.28 L181.661459,148.28 C179.776117,148.28 178.273465,147.664006 177.153459,146.432 C175.958787,145.143994 175.361459,143.398678 175.361459,141.196 L175.361459,140.524 C175.361459,138.321322 175.958787,136.576006 177.153459,135.288 C178.292132,134.037327 179.78545,133.412 181.633459,133.412 L181.857459,133.412 C183.593468,133.412 185.016787,133.948661 186.127459,135.022 C187.238132,136.095339 187.793459,137.527991 187.793459,139.32 L185.189459,139.32 C185.189459,137.565325 184.536133,136.389336 183.229459,135.792 C182.800124,135.605332 182.314795,135.512 181.773459,135.512 C181.213457,135.512 180.704795,135.605332 180.247459,135.792 C179.790124,135.978668 179.393461,136.258665 179.057459,136.632 C178.348122,137.397337 177.993459,138.47066 177.993459,139.852 L177.993459,141.364 C177.993459,143.025342 178.338789,144.243329 179.029459,145.018 C179.720129,145.792671 180.662787,146.18 181.857459,146.18 C183.033465,146.18 183.89679,145.825337 184.447459,145.116 C184.998129,144.406663 185.273459,143.501339 185.273459,142.4 L187.793459,142.4 Z M193.225459,141.448 C193.28146,143.650678 194.018786,145.106663 195.437459,145.816 C195.922795,146.058668 196.538789,146.18 197.285459,146.18 C198.013463,146.18 198.61079,146.040001 199.077459,145.76 C199.544128,145.479999 199.898791,145.153335 200.141459,144.78 C200.533461,144.182664 200.729459,143.482671 200.729459,142.68 L203.221459,142.68 C203.221459,144.378675 202.661465,145.741328 201.541459,146.768 C200.421454,147.776005 198.984135,148.28 197.229459,148.28 L197.117459,148.28 C195.15745,148.28 193.589465,147.664006 192.413459,146.432 C191.20012,145.125327 190.593459,143.361344 190.593459,141.14 L190.593459,140.58 C190.593459,138.358656 191.20012,136.594673 192.413459,135.288 C193.552132,134.037327 195.092116,133.412 197.033459,133.412 L197.229459,133.412 C199.002802,133.412 200.440121,133.953328 201.541459,135.036 C202.661465,136.118672 203.221459,137.593324 203.221459,139.46 L203.221459,141.448 L193.225459,141.448 Z M197.089459,135.512 C196.044121,135.512 195.185463,135.833997 194.513459,136.478 C193.841456,137.122003 193.430793,138.097327 193.281459,139.404 L200.617459,139.404 L200.617459,139.068 C200.617459,137.947994 200.272129,137.061337 199.581459,136.408 C198.94679,135.810664 198.116131,135.512 197.089459,135.512 L197.089459,135.512 Z M209.689459,146.18 L209.689459,153.068 L207.057459,153.068 L207.057459,133.692 L209.017459,133.692 C209.110793,134.046668 209.232125,134.699995 209.381459,135.652 C210.445465,134.158659 211.920117,133.412 213.805459,133.412 C215.504135,133.412 216.866788,133.999994 217.893459,135.176 C219.032132,136.50134 219.601459,138.395988 219.601459,140.86 L219.601459,141.168 C219.601459,143.426678 219.060131,145.199994 217.977459,146.488 C216.969454,147.682673 215.578802,148.28 213.805459,148.28 C212.032117,148.28 210.660131,147.580007 209.689459,146.18 L209.689459,146.18 Z M216.969459,140.832 C216.969459,138.031986 216.2508,136.352003 214.813459,135.792 C214.365457,135.605332 213.870795,135.512 213.329459,135.512 C212.153453,135.512 211.266796,135.894663 210.669459,136.66 C209.997456,137.537338 209.661459,138.92799 209.661459,140.832 C209.661459,143.650681 210.389452,145.34933 211.845459,145.928 C212.293462,146.096001 212.788123,146.18 213.329459,146.18 C214.486798,146.18 215.364123,145.797337 215.961459,145.032 C216.633463,144.154662 216.969459,142.754676 216.969459,140.832 L216.969459,140.832 Z M228.057459,146.236 C228.542795,146.236 229.121456,146.096001 229.793459,145.816 L229.793459,147.776 C229.121456,148.112002 228.253465,148.28 227.189459,148.28 C226.106787,148.28 225.276129,147.96267 224.697459,147.328 C224.11879,146.69333 223.829459,145.648007 223.829459,144.192 L223.829459,135.792 L222.261459,135.792 L222.261459,133.692 L223.913459,133.692 L224.809459,129.128 L226.461459,129.128 L226.461459,133.692 L229.793459,133.692 L229.793459,135.792 L226.461459,135.792 L226.461459,144.332 C226.461459,145.396005 226.797456,146.002666 227.469459,146.152 C227.656127,146.208 227.852125,146.236 228.057459,146.236 L228.057459,146.236 Z" id="Concept" fill="#303030" mask="url(#mask-2)"></path>
            <path d="M332.687,267.513999 L338.777,267.513999 L338.777,267.009999 C338.777,261.129999 333.821,258.567999 327.815,258.567999 C321.725,258.567999 316.559,261.339999 316.559,267.093999 C316.559,278.097999 332.813,274.233999 332.813,279.777999 C332.813,281.415999 331.553,283.053999 327.311,283.053999 C323.867,283.053999 322.019,281.457999 322.019,279.063999 C322.019,278.853999 322.061,278.475999 322.061,278.391999 L315.929,278.391999 C315.929,278.601999 315.887,278.979999 315.887,279.315999 C315.887,285.657999 321.347,288.219999 327.521,288.219999 C334.493,288.219999 339.407,285.573999 339.407,278.727999 C339.407,268.227999 323.069,271.881999 323.069,266.421999 C323.069,264.825999 324.833,263.733999 327.941,263.733999 C330.923,263.733999 332.687,265.035999 332.687,267.135999 L332.687,267.513999 Z M349.907,276.375999 L349.907,270.411999 C349.907,266.001999 352.595,263.733999 355.955,263.733999 C359.567,263.733999 361.583,266.001999 361.583,270.411999 L367.757,270.411999 C367.757,262.473999 362.675,258.567999 356.123,258.567999 L355.535,258.567999 C348.647,258.567999 343.103,263.187999 343.103,271.335999 L343.103,275.451999 C343.103,283.809999 348.563,288.219999 355.703,288.219999 L356.291,288.219999 C362.717,288.219999 367.757,284.103999 367.757,276.459999 L361.835,276.459999 C361.835,280.953999 359.987,283.053999 355.997,283.053999 C352.637,283.053999 349.907,280.785999 349.907,276.375999 L349.907,276.375999 Z M396.989,287.547999 L396.989,286.119999 C395.099,285.531999 394.847,282.675999 394.847,280.827999 C394.847,276.081999 392.285,273.813999 390.227,273.141999 L390.227,272.931999 C393.167,272.385999 395.393,269.193999 395.393,266.127999 C395.393,260.667999 390.437,258.987999 385.691,258.987999 L372.797,258.987999 L372.797,287.799999 L379.181,287.799999 L379.181,275.871999 L384.053,275.871999 C387.791,275.871999 388.547,279.315999 388.547,283.515999 C388.547,287.085999 390.899,288.093999 393.377,288.093999 C394.595,288.093999 396.023,287.925999 396.989,287.547999 L396.989,287.547999 Z M385.481,270.789999 L379.181,270.789999 L379.181,264.153999 L385.481,264.153999 C387.455,264.153999 388.841,265.539999 388.841,267.345999 L388.841,267.639999 C388.841,269.403999 387.329,270.789999 385.481,270.789999 L385.481,270.789999 Z M423.281,278.643999 L423.281,258.987999 L416.813,258.987999 L416.813,278.517999 C416.813,281.205999 414.839,283.095999 411.857,283.095999 C408.917,283.095999 406.859,281.163999 406.859,278.517999 L406.859,258.987999 L400.391,258.987999 L400.391,278.643999 C400.391,284.439999 404.675,288.219999 411.227,288.219999 L412.403,288.219999 C418.955,288.219999 423.281,284.439999 423.281,278.643999 L423.281,278.643999 Z M457.049,287.799999 L463.517,287.799999 L463.517,258.987999 L453.059,258.987999 L446.339,278.013999 L446.171,278.013999 L439.451,258.987999 L428.993,258.987999 L428.993,287.799999 L434.873,287.799999 L434.873,266.589999 L435.083,266.589999 L442.559,287.799999 L449.363,287.799999 L456.839,266.589999 L457.049,266.589999 L457.049,287.799999 Z M346.442,306.995998 L354.59,306.995998 L354.59,301.787998 L331.826,301.787998 L331.826,306.995998 L340.016,306.995998 L340.016,330.599998 L346.442,330.599998 L346.442,306.995998 Z M357.95,330.599998 L378.362,330.599998 L377.648,325.433998 L364.334,325.433998 L364.334,318.419998 L376.64,318.419998 L376.64,313.253998 L364.334,313.253998 L364.334,306.953998 L377.522,306.953998 L378.236,301.787998 L357.95,301.787998 L357.95,330.599998 Z M399.866,324.929998 L401.966,330.599998 L408.77,330.599998 L398.312,301.787998 L390.584,301.787998 L380.126,330.599998 L386.384,330.599998 L388.4,324.929998 L399.866,324.929998 Z M394.07,308.717998 L394.28,308.717998 C395.582,312.455998 396.884,316.235998 398.144,320.015998 L390.164,320.015998 L394.07,308.717998 Z M439.934,330.599998 L446.402,330.599998 L446.402,301.787998 L435.944,301.787998 L429.224,320.813998 L429.056,320.813998 L422.336,301.787998 L411.878,301.787998 L411.878,330.599998 L417.758,330.599998 L417.758,309.389998 L417.968,309.389998 L425.444,330.599998 L432.248,330.599998 L439.724,309.389998 L439.934,309.389998 L439.934,330.599998 Z" id="SCRUM-TEAM" fill="#303030" mask="url(#mask-2)"></path>
            <path d="M911,351 C1019.24781,351 1107,263.247811 1107,155 C1107,46.752189 1019.24781,-41 911,-41 C802.752189,-41 715,46.752189 715,155 C715,263.247811 802.752189,351 911,351 Z" id="Oval-32-Copy" stroke="#303030" stroke-width="10" mask="url(#mask-2)"></path>
            <path d="M857.954,127.714 L864.044,127.714 L864.044,127.21 C864.044,121.33 859.088,118.768 853.082,118.768 C846.992,118.768 841.826,121.54 841.826,127.294 C841.826,138.298 858.08,134.434 858.08,139.978 C858.08,141.616 856.82,143.254 852.578,143.254 C849.134,143.254 847.286,141.658 847.286,139.264 C847.286,139.054 847.328,138.676 847.328,138.592 L841.196,138.592 C841.196,138.802 841.154,139.18 841.154,139.516 C841.154,145.858 846.614,148.42 852.788,148.42 C859.76,148.42 864.674,145.774 864.674,138.928 C864.674,128.428 848.336,132.082 848.336,126.622 C848.336,125.026 850.1,123.934 853.208,123.934 C856.19,123.934 857.954,125.236 857.954,127.336 L857.954,127.714 Z M881.264,124.396 L889.412,124.396 L889.412,119.188 L866.648,119.188 L866.648,124.396 L874.838,124.396 L874.838,148 L881.264,148 L881.264,124.396 Z M909.572,142.33 L911.672,148 L918.476,148 L908.018,119.188 L900.29,119.188 L889.832,148 L896.09,148 L898.106,142.33 L909.572,142.33 Z M903.776,126.118 L903.986,126.118 C905.288,129.856 906.59,133.636 907.85,137.416 L899.87,137.416 L903.776,126.118 Z M921.584,119.188 L921.584,148 L927.926,148 L927.926,140.482 L931.664,136.324 L938.51,148 L945.86,148 C942.5,142.456 939.224,136.912 935.864,131.326 C939.098,127.294 942.332,123.262 945.566,119.188 L938.3,119.188 C934.856,123.598 931.37,128.008 927.926,132.376 L927.926,119.188 L921.584,119.188 Z M949.304,148 L969.716,148 L969.002,142.834 L955.688,142.834 L955.688,135.82 L967.994,135.82 L967.994,130.654 L955.688,130.654 L955.688,124.354 L968.876,124.354 L969.59,119.188 L949.304,119.188 L949.304,148 Z M971.396,133.888 L971.396,139.264 L982.022,139.264 L982.022,133.888 L971.396,133.888 Z M835.652,190 L842.12,190 L842.12,161.188 L835.652,161.188 L835.652,172.612 L825.656,172.612 L825.656,161.188 L819.188,161.188 L819.188,190 L825.698,190 L825.698,177.988 L835.652,177.988 L835.652,190 Z M872.906,177.652 L872.906,173.536 C872.906,165.346 867.068,160.768 860.054,160.768 C853.04,160.768 847.202,165.346 847.202,173.536 L847.202,177.652 C847.202,185.842 853.04,190.42 860.054,190.42 C867.068,190.42 872.906,185.842 872.906,177.652 L872.906,177.652 Z M866.102,172.612 L866.102,178.576 C866.102,182.986 863.498,185.254 860.054,185.254 C856.61,185.254 854.006,182.986 854.006,178.576 L854.006,172.612 C854.006,168.202 856.61,165.934 860.054,165.934 C863.498,165.934 866.102,168.202 866.102,172.612 L866.102,172.612 Z M877.946,190 L897.014,190 L896.3,184.624 L884.456,184.624 L884.456,161.188 L877.946,161.188 L877.946,190 Z M911.252,161.188 L900.332,161.188 L900.332,190 L911.252,190 C918.266,190 924.104,185.422 924.104,177.232 L924.104,173.956 C924.104,165.766 918.266,161.188 911.252,161.188 L911.252,161.188 Z M906.842,166.354 L911.252,166.354 C914.696,166.354 917.3,168.622 917.3,173.032 L917.3,178.156 C917.3,182.566 914.696,184.834 911.252,184.834 L906.842,184.834 L906.842,166.354 Z M929.144,190 L949.556,190 L948.842,184.834 L935.528,184.834 L935.528,177.82 L947.834,177.82 L947.834,172.654 L935.528,172.654 L935.528,166.354 L948.716,166.354 L949.43,161.188 L929.144,161.188 L929.144,190 Z M978.452,189.748 L978.452,188.32 C976.562,187.732 976.31,184.876 976.31,183.028 C976.31,178.282 973.748,176.014 971.69,175.342 L971.69,175.132 C974.63,174.586 976.856,171.394 976.856,168.328 C976.856,162.868 971.9,161.188 967.154,161.188 L954.26,161.188 L954.26,190 L960.644,190 L960.644,178.072 L965.516,178.072 C969.254,178.072 970.01,181.516 970.01,185.716 C970.01,189.286 972.362,190.294 974.84,190.294 C976.058,190.294 977.486,190.126 978.452,189.748 L978.452,189.748 Z M966.944,172.99 L960.644,172.99 L960.644,166.354 L966.944,166.354 C968.918,166.354 970.304,167.74 970.304,169.546 L970.304,169.84 C970.304,171.604 968.792,172.99 966.944,172.99 L966.944,172.99 Z M997.436,169.714 L1003.526,169.714 L1003.526,169.21 C1003.526,163.33 998.57,160.768 992.564,160.768 C986.474,160.768 981.308,163.54 981.308,169.294 C981.308,180.298 997.562,176.434 997.562,181.978 C997.562,183.616 996.302,185.254 992.06,185.254 C988.616,185.254 986.768,183.658 986.768,181.264 C986.768,181.054 986.81,180.676 986.81,180.592 L980.678,180.592 C980.678,180.802 980.636,181.18 980.636,181.516 C980.636,187.858 986.096,190.42 992.27,190.42 C999.242,190.42 1004.156,187.774 1004.156,180.928 C1004.156,170.428 987.818,174.082 987.818,168.622 C987.818,167.026 989.582,165.934 992.69,165.934 C995.672,165.934 997.436,167.236 997.436,169.336 L997.436,169.714 Z" id="STAKE-" fill="#303030" mask="url(#mask-2)"></path>
        </g>
    </g>
</svg>